<!-- Generated by IcoMoon.io -->
<svg version="1.1" xmlns="http://www.w3.org/2000/svg" width="30" height="32" viewBox="0 0 30 32">
<title>address-book-o</title>
<path d="M18.357 11.5c0 2.554-2.089 4.625-4.643 4.625s-4.643-2.071-4.643-4.625c0-2.571 2.089-4.643 4.643-4.643s4.643 2.071 4.643 4.643zM17.5 15.429c3.411 0 3.946 4.054 3.946 6.679 0 1.5-0.946 3.036-2.589 3.036h-10.286c-1.643 0-2.589-1.536-2.589-3.036 0-2.518 0.536-6.679 3.857-6.679h0.089c1.179 0.696 2.375 1.554 3.786 1.554s2.607-0.857 3.786-1.554zM29.714 10.857c0 0.304-0.268 0.571-0.571 0.571h-1.714v2.286h1.714c0.304 0 0.571 0.268 0.571 0.571v3.429c0 0.304-0.268 0.571-0.571 0.571h-1.714v2.286h1.714c0.304 0 0.571 0.268 0.571 0.571v3.429c0 0.304-0.268 0.571-0.571 0.571h-1.714v4c0 1.571-1.286 2.857-2.857 2.857h-21.714c-1.571 0-2.857-1.286-2.857-2.857v-26.286c0-1.571 1.286-2.857 2.857-2.857h21.714c1.571 0 2.857 1.286 2.857 2.857v4h1.714c0.304 0 0.571 0.268 0.571 0.571v3.429zM25.143 29.143v-26.286c0-0.304-0.268-0.571-0.571-0.571h-21.714c-0.304 0-0.571 0.268-0.571 0.571v26.286c0 0.304 0.268 0.571 0.571 0.571h21.714c0.304 0 0.571-0.268 0.571-0.571z"></path>
</svg>
