<!-- Generated by IcoMoon.io -->
<svg version="1.1" xmlns="http://www.w3.org/2000/svg" width="30" height="32" viewBox="0 0 30 32">
<title>address-book</title>
<path d="M21.446 22.107c0-3.161-0.768-6.679-3.946-6.679-0.982 0.571-2.321 1.554-3.786 1.554s-2.804-0.982-3.786-1.554c-3.179 0-3.946 3.518-3.946 6.679 0 1.768 1.161 3.036 2.589 3.036h10.286c1.429 0 2.589-1.268 2.589-3.036zM18.357 11.5c0-2.571-2.089-4.643-4.643-4.643s-4.643 2.071-4.643 4.643c0 2.554 2.089 4.625 4.643 4.625s4.643-2.071 4.643-4.625zM29.714 21.143v3.429c0 0.321-0.25 0.571-0.571 0.571h-1.714v4c0 1.571-1.286 2.857-2.857 2.857h-21.714c-1.571 0-2.857-1.286-2.857-2.857v-26.286c0-1.571 1.286-2.857 2.857-2.857h21.714c1.571 0 2.857 1.286 2.857 2.857v4h1.714c0.321 0 0.571 0.25 0.571 0.571v3.429c0 0.321-0.25 0.571-0.571 0.571h-1.714v2.286h1.714c0.321 0 0.571 0.25 0.571 0.571v3.429c0 0.321-0.25 0.571-0.571 0.571h-1.714v2.286h1.714c0.321 0 0.571 0.25 0.571 0.571z"></path>
</svg>
