<!-- Generated by IcoMoon.io -->
<svg version="1.1" xmlns="http://www.w3.org/2000/svg" width="35" height="32" viewBox="0 0 35 32">
<title>ambulance</title>
<path d="M11.429 25.143c0-1.268-1.018-2.286-2.286-2.286s-2.286 1.018-2.286 2.286 1.018 2.286 2.286 2.286 2.286-1.018 2.286-2.286zM4.571 16h6.857v-4.571h-2.821c-0.107 0.018-0.304 0.089-0.393 0.161l-3.482 3.482c-0.054 0.089-0.143 0.286-0.161 0.393v0.536zM27.429 25.143c0-1.268-1.018-2.286-2.286-2.286s-2.286 1.018-2.286 2.286 1.018 2.286 2.286 2.286 2.286-1.018 2.286-2.286zM29.714 13.143v-3.429c0-0.321-0.25-0.571-0.571-0.571h-4v-4c0-0.321-0.25-0.571-0.571-0.571h-3.429c-0.321 0-0.571 0.25-0.571 0.571v4h-4c-0.321 0-0.571 0.25-0.571 0.571v3.429c0 0.321 0.25 0.571 0.571 0.571h4v4c0 0.321 0.25 0.571 0.571 0.571h3.429c0.321 0 0.571-0.25 0.571-0.571v-4h4c0.321 0 0.571-0.25 0.571-0.571zM34.286 3.429v20.571c0 0.625-0.518 1.143-1.143 1.143h-3.429c0 2.518-2.036 4.571-4.571 4.571-2.518 0-4.571-2.054-4.571-4.571h-6.857c0 2.518-2.036 4.571-4.571 4.571s-4.571-2.054-4.571-4.571h-2.286c-0.625 0-1.143-0.518-1.143-1.143s0.518-1.143 1.143-1.143v-7.429c0-0.625 0.357-1.5 0.804-1.946l3.536-3.536c0.446-0.446 1.321-0.804 1.946-0.804h2.857v-5.714c0-0.625 0.518-1.143 1.143-1.143h20.571c0.625 0 1.143 0.518 1.143 1.143z"></path>
</svg>
