<!-- Generated by IcoMoon.io -->
<svg version="1.1" xmlns="http://www.w3.org/2000/svg" width="14" height="32" viewBox="0 0 14 32">
<title>arrows-v</title>
<path d="M12.571 5.714c0 0.625-0.518 1.143-1.143 1.143h-2.286v18.286h2.286c0.625 0 1.143 0.518 1.143 1.143 0 0.304-0.125 0.589-0.339 0.804l-4.571 4.571c-0.214 0.214-0.5 0.339-0.804 0.339s-0.589-0.125-0.804-0.339l-4.571-4.571c-0.214-0.214-0.339-0.5-0.339-0.804 0-0.625 0.518-1.143 1.143-1.143h2.286v-18.286h-2.286c-0.625 0-1.143-0.518-1.143-1.143 0-0.304 0.125-0.589 0.339-0.804l4.571-4.571c0.214-0.214 0.5-0.339 0.804-0.339s0.589 0.125 0.804 0.339l4.571 4.571c0.214 0.214 0.339 0.5 0.339 0.804z"></path>
</svg>
