<!-- Generated by IcoMoon.io -->
<svg version="1.1" xmlns="http://www.w3.org/2000/svg" width="27" height="32" viewBox="0 0 27 32">
<title>arrow-circle-up</title>
<path d="M22.929 15.982c0-0.304-0.107-0.589-0.321-0.804l-8.089-8.089c-0.214-0.214-0.5-0.321-0.804-0.321s-0.589 0.107-0.804 0.321l-8.089 8.089c-0.214 0.214-0.321 0.5-0.321 0.804s0.107 0.589 0.321 0.804l1.625 1.625c0.214 0.214 0.5 0.321 0.804 0.321s0.589-0.107 0.804-0.321l3.375-3.375v8.964c0 0.625 0.518 1.143 1.143 1.143h2.286c0.625 0 1.143-0.518 1.143-1.143v-8.964l3.375 3.375c0.214 0.214 0.5 0.339 0.804 0.339s0.589-0.125 0.804-0.339l1.625-1.625c0.214-0.214 0.321-0.5 0.321-0.804zM27.429 16c0 7.571-6.143 13.714-13.714 13.714s-13.714-6.143-13.714-13.714 6.143-13.714 13.714-13.714 13.714 6.143 13.714 13.714z"></path>
</svg>
