<!-- Generated by IcoMoon.io -->
<svg version="1.1" xmlns="http://www.w3.org/2000/svg" width="32" height="32" viewBox="0 0 32 32">
<title>arrows-h</title>
<path d="M32 16c0 0.304-0.125 0.589-0.339 0.804l-4.571 4.571c-0.214 0.214-0.5 0.339-0.804 0.339-0.625 0-1.143-0.518-1.143-1.143v-2.286h-18.286v2.286c0 0.625-0.518 1.143-1.143 1.143-0.304 0-0.589-0.125-0.804-0.339l-4.571-4.571c-0.214-0.214-0.339-0.5-0.339-0.804s0.125-0.589 0.339-0.804l4.571-4.571c0.214-0.214 0.5-0.339 0.804-0.339 0.625 0 1.143 0.518 1.143 1.143v2.286h18.286v-2.286c0-0.625 0.518-1.143 1.143-1.143 0.304 0 0.589 0.125 0.804 0.339l4.571 4.571c0.214 0.214 0.339 0.5 0.339 0.804z"></path>
</svg>
