<!-- Generated by IcoMoon.io -->
<svg version="1.1" xmlns="http://www.w3.org/2000/svg" width="27" height="32" viewBox="0 0 27 32">
<title>arrow-circle-o-right</title>
<path d="M20.571 16c0 0.143-0.054 0.304-0.161 0.411l-5.714 5.714c-0.107 0.107-0.268 0.161-0.411 0.161-0.304 0-0.571-0.268-0.571-0.571v-3.429h-6.286c-0.304 0-0.571-0.268-0.571-0.571v-3.429c0-0.304 0.268-0.571 0.571-0.571h6.286v-3.429c0-0.321 0.25-0.571 0.571-0.571 0.161 0 0.304 0.071 0.429 0.179l5.696 5.696c0.107 0.107 0.161 0.268 0.161 0.411zM23.429 16c0-5.357-4.357-9.714-9.714-9.714s-9.714 4.357-9.714 9.714 4.357 9.714 9.714 9.714 9.714-4.357 9.714-9.714zM27.429 16c0 7.571-6.143 13.714-13.714 13.714s-13.714-6.143-13.714-13.714 6.143-13.714 13.714-13.714 13.714 6.143 13.714 13.714z"></path>
</svg>
