<!-- Generated by IcoMoon.io -->
<svg version="1.1" xmlns="http://www.w3.org/2000/svg" width="32" height="32" viewBox="0 0 32 32">
<title>assistive-listening-systems</title>
<path d="M2.286 30.857c0 0.625-0.518 1.143-1.143 1.143s-1.143-0.518-1.143-1.143 0.518-1.143 1.143-1.143 1.143 0.518 1.143 1.143zM5.714 27.429c0 0.625-0.518 1.143-1.143 1.143s-1.143-0.518-1.143-1.143 0.518-1.143 1.143-1.143 1.143 0.518 1.143 1.143zM6.518 20.911l4.571 4.571-1.607 1.607-4.571-4.571zM12.571 20.571c0 0.625-0.518 1.143-1.143 1.143s-1.143-0.518-1.143-1.143 0.518-1.143 1.143-1.143 1.143 0.518 1.143 1.143zM25.196 14.857c0 2.964-1.393 4.554-2.607 5.964-1.125 1.286-2.018 2.304-2.018 4.321 0 3.786-3.071 6.857-6.857 6.857-0.625 0-1.143-0.518-1.143-1.143s0.518-1.143 1.143-1.143c2.518 0 4.571-2.054 4.571-4.571 0-2.875 1.375-4.446 2.571-5.821 1.107-1.268 2.054-2.357 2.054-4.464 0-4.411-3.589-8-8-8s-8 3.589-8 8c0 0.625-0.518 1.143-1.143 1.143s-1.143-0.518-1.143-1.143c0-5.679 4.607-10.286 10.286-10.286s10.286 4.607 10.286 10.286zM16 17.143c0 0.625-0.518 1.143-1.143 1.143s-1.143-0.518-1.143-1.143 0.518-1.143 1.143-1.143 1.143 0.518 1.143 1.143zM21.143 14.857c0 0.625-0.518 1.143-1.143 1.143s-1.143-0.518-1.143-1.143c0-2.214-1.786-4-4-4-2.196 0-4 1.786-4 4 0 0.625-0.518 1.143-1.143 1.143s-1.143-0.518-1.143-1.143c0-3.464 2.821-6.286 6.286-6.286s6.286 2.821 6.286 6.286zM28.179 9.696c0.232 0.589-0.071 1.25-0.661 1.482-0.125 0.054-0.268 0.071-0.411 0.071-0.446 0-0.893-0.268-1.054-0.732-0.804-2.089-2.196-3.911-4-5.268-0.5-0.375-0.607-1.089-0.232-1.589 0.393-0.5 1.107-0.607 1.607-0.232 2.143 1.607 3.786 3.786 4.75 6.268zM31.929 8.25c0.214 0.589-0.071 1.25-0.661 1.482-0.143 0.054-0.268 0.071-0.411 0.071-0.464 0-0.893-0.268-1.071-0.732-1.071-2.786-2.911-5.214-5.304-7.018-0.518-0.375-0.607-1.089-0.232-1.589 0.375-0.518 1.089-0.607 1.589-0.232 2.75 2.054 4.857 4.839 6.089 8.018z"></path>
</svg>
