<!-- Generated by IcoMoon.io -->
<svg version="1.1" xmlns="http://www.w3.org/2000/svg" width="27" height="32" viewBox="0 0 27 32">
<title>at</title>
<path d="M17.357 13.839c0-2.571-1.339-4.107-3.589-4.107-2.964 0-6.143 2.946-6.143 7.714 0 2.661 1.321 4.179 3.643 4.179 3.589 0 6.089-4.107 6.089-7.786zM27.429 16c0 5.554-3.964 7.643-7.357 7.75-0.232 0-0.321 0.018-0.571 0.018-1.107 0-1.982-0.321-2.536-0.946-0.339-0.393-0.536-0.893-0.589-1.482-1.107 1.393-3.036 2.75-5.446 2.75-3.839 0-6.036-2.375-6.036-6.518 0-5.696 3.946-10.321 8.768-10.321 2.089 0 3.768 0.893 4.661 2.411l0.036-0.339 0.196-1c0.018-0.143 0.143-0.321 0.268-0.321h2.107c0.089 0 0.179 0.125 0.232 0.196 0.054 0.054 0.071 0.196 0.054 0.286l-2.143 10.964c-0.071 0.339-0.089 0.607-0.089 0.857 0 0.964 0.286 1.161 1.018 1.161 1.214-0.036 5.143-0.536 5.143-5.464 0-6.946-4.482-11.429-11.429-11.429-6.304 0-11.429 5.125-11.429 11.429s5.125 11.429 11.429 11.429c2.625 0 5.196-0.911 7.232-2.571 0.25-0.214 0.607-0.179 0.804 0.071l0.732 0.875c0.089 0.125 0.143 0.268 0.125 0.429-0.018 0.143-0.089 0.286-0.214 0.393-2.429 1.982-5.518 3.089-8.679 3.089-7.554 0-13.714-6.161-13.714-13.714s6.161-13.714 13.714-13.714c8.196 0 13.714 5.518 13.714 13.714z"></path>
</svg>
