<!-- Generated by IcoMoon.io -->
<svg version="1.1" xmlns="http://www.w3.org/2000/svg" width="32" height="32" viewBox="0 0 32 32">
<title>binoculars</title>
<path d="M12.571 5.714v13.714c0 0.625-0.518 1.143-1.143 1.143v0 10.286c0 0.625-0.518 1.143-1.143 1.143h-9.143c-0.625 0-1.143-0.518-1.143-1.143v-9.143l4.446-15.589c0.071-0.25 0.304-0.411 0.554-0.411h7.571zM18.286 5.714v12.571h-4.571v-12.571h4.571zM32 21.714v9.143c0 0.625-0.518 1.143-1.143 1.143h-9.143c-0.625 0-1.143-0.518-1.143-1.143v-10.286c-0.625 0-1.143-0.518-1.143-1.143v-13.714h7.571c0.25 0 0.482 0.161 0.554 0.411zM13.143 0.571v4h-6.286v-4c0-0.321 0.25-0.571 0.571-0.571h5.143c0.321 0 0.571 0.25 0.571 0.571zM25.143 0.571v4h-6.286v-4c0-0.321 0.25-0.571 0.571-0.571h5.143c0.321 0 0.571 0.25 0.571 0.571z"></path>
</svg>
