<!-- Generated by IcoMoon.io -->
<svg version="1.1" xmlns="http://www.w3.org/2000/svg" width="32" height="32" viewBox="0 0 32 32">
<title>birthday-cake</title>
<path d="M32 25.143v6.857h-32v-6.857c1.75 0 2.679-0.786 3.411-1.411 0.607-0.536 1.018-0.875 1.929-0.875s1.304 0.339 1.929 0.875c0.732 0.625 1.643 1.411 3.411 1.411 1.75 0 2.661-0.786 3.411-1.411 0.607-0.536 1-0.875 1.911-0.875s1.321 0.339 1.929 0.875c0.732 0.625 1.661 1.411 3.411 1.411s2.679-0.786 3.411-1.411c0.607-0.536 1.018-0.875 1.929-0.875 0.893 0 1.304 0.339 1.911 0.875 0.732 0.625 1.661 1.411 3.411 1.411zM32 19.429v3.429c-0.911 0-1.304-0.339-1.929-0.875-0.732-0.625-1.643-1.411-3.393-1.411-1.768 0-2.679 0.786-3.411 1.411-0.625 0.536-1.018 0.875-1.929 0.875s-1.321-0.339-1.929-0.875c-0.732-0.625-1.643-1.411-3.411-1.411-1.75 0-2.661 0.786-3.411 1.411-0.607 0.536-1 0.875-1.911 0.875s-1.321-0.339-1.929-0.875c-0.732-0.625-1.661-1.411-3.411-1.411-1.768 0-2.679 0.786-3.411 1.411-0.607 0.536-1.018 0.875-1.929 0.875v-3.429c0-1.893 1.536-3.429 3.429-3.429h1.143v-8h4.571v8h4.571v-8h4.571v8h4.571v-8h4.571v8h1.143c1.893 0 3.429 1.536 3.429 3.429zM9.143 4c0 1.893-1.018 2.857-2.286 2.857s-2.286-1.018-2.286-2.286c0-2.214 2.286-1.643 2.286-4.571 0.857 0 2.286 2.107 2.286 4zM18.286 4c0 1.893-1.018 2.857-2.286 2.857s-2.286-1.018-2.286-2.286c0-2.214 2.286-1.643 2.286-4.571 0.857 0 2.286 2.107 2.286 4zM27.429 4c0 1.893-1.018 2.857-2.286 2.857s-2.286-1.018-2.286-2.286c0-2.214 2.286-1.643 2.286-4.571 0.857 0 2.286 2.107 2.286 4z"></path>
</svg>
