<!-- Generated by IcoMoon.io -->
<svg version="1.1" xmlns="http://www.w3.org/2000/svg" width="25" height="32" viewBox="0 0 25 32">
<title>bitbucket</title>
<path d="M14.554 15.339c0.196 1.5-1.625 2.679-2.893 1.911-1.429-0.625-1.429-2.893-0.036-3.536 1.196-0.732 2.929 0.232 2.929 1.625zM16.536 14.964c-0.321-2.536-3.196-4.214-5.536-3.161-1.482 0.661-2.482 2.232-2.411 3.893 0.089 2.179 2.161 3.964 4.339 3.768s3.875-2.321 3.607-4.5zM20.804 5.286c-0.786-1.036-2.125-1.214-3.304-1.411-3.339-0.536-6.768-0.554-10.107 0.036-1.107 0.179-2.357 0.375-3.054 1.375 1.143 1.071 2.768 1.232 4.232 1.411 2.643 0.339 5.357 0.357 8 0.018 1.482-0.179 3.125-0.321 4.232-1.429zM21.821 23.768c-0.5 1.75-0.214 4.107-2.071 5.125-3.196 1.768-7.071 1.964-10.589 1.339-1.857-0.339-4.036-0.929-5.054-2.679-0.446-1.714-0.732-3.464-1.018-5.214l0.107-0.286 0.321-0.161c5.321 3.518 12.768 3.518 18.107 0 0.839 0.25 0.214 1.268 0.196 1.875zM25.054 6.607c-0.607 3.911-1.304 7.804-1.982 11.696-0.196 1.143-1.304 1.786-2.232 2.268-3.339 1.679-7.232 1.964-10.893 1.571-2.482-0.268-5.018-0.929-7.036-2.482-0.946-0.732-0.946-1.982-1.125-3.036-0.625-3.661-1.339-7.321-1.786-11.018 0.214-1.607 2.018-2.304 3.357-2.804 1.786-0.661 3.696-0.964 5.589-1.143 4.036-0.393 8.161-0.25 12.071 0.893 1.393 0.411 2.893 0.982 3.839 2.179 0.429 0.554 0.286 1.25 0.196 1.875z"></path>
</svg>
