<!-- Generated by IcoMoon.io -->
<svg version="1.1" xmlns="http://www.w3.org/2000/svg" width="25" height="32" viewBox="0 0 25 32">
<title>blind</title>
<path d="M6.536 5.554c-1.536 0-2.786-1.25-2.786-2.786 0-1.518 1.25-2.768 2.786-2.768s2.768 1.25 2.768 2.768c0 1.536-1.232 2.786-2.768 2.786zM16.375 17.018c0 1.929-2.054 1.5-2.518 0.714l-6.554-7.821c-0.286-0.464-0.5-0.25-0.5-0.25s-0.125 0.143 0.071 0.375l2.179 2.482 0.018 6.321c-1.536 4.464-2.875 8.161-2.875 8.161-0.839 2.393-1.536 4.464-2.143 4.75-0.732 0.375-1.268 0.286-1.839 0.018-0.75-0.339-0.964-1.25-0.911-1.786 0 0 0.036-0.286 3.518-11.036l0.089-7.429-1.518 2.929 0.625 3.964c0.232 1.5-1.036 1.696-1.036 1.696-1.214 0.196-1.464-1.214-1.464-1.25l-0.821-5.339c3.75-6.768 3.768-6.804 3.768-6.804v0c0.286-0.429 0.929-0.607 2.018-0.607 0.964 0 1.571 0.286 1.911 0.714v0l7.571 9.304c0.107 0.071 0.179 0.179 0.25 0.304l0.054 0.054-0.018 0.018c0.089 0.161 0.125 0.339 0.125 0.518zM9.179 19.696c1.714 4.554 3.25 8 3.25 8 0.518 1.321 1.411 3.214 0.107 3.964-1.286 0.75-2.321-0.125-2.607-0.732v0h-0.018c-0.054-0.143-0.107-0.286-0.143-0.446l-2.214-6.268zM23.893 30.268c0.375 0.589 0.696 1.018 0.5 1.143-0.339 0.214-0.446-0.411-0.821-1.018 0 0-2.018-3.054-7.554-11.804 0.107 0.036 0.304-0.125 0.304-0.125s0.196-0.161 0.196-0.304c5.5 8.982 7.375 12.107 7.375 12.107z"></path>
</svg>
