<!-- Generated by IcoMoon.io -->
<svg version="1.1" xmlns="http://www.w3.org/2000/svg" width="32" height="32" viewBox="0 0 32 32">
<title>bomb</title>
<path d="M10.196 10.518c-0.232-0.589-0.893-0.857-1.482-0.625-2.571 1.036-4.643 3.107-5.679 5.679-0.232 0.589 0.036 1.25 0.625 1.482 0.143 0.054 0.286 0.089 0.429 0.089 0.464 0 0.875-0.268 1.071-0.714 0.804-2 2.411-3.607 4.411-4.411 0.589-0.25 0.875-0.911 0.625-1.5zM27.018 4.161l0.821 0.821-4.357 4.339 1.214 1.214c0.446 0.446 0.446 1.179 0 1.625l-1.143 1.143c1 1.804 1.589 3.893 1.589 6.125 0 6.946-5.625 12.571-12.571 12.571s-12.571-5.625-12.571-12.571 5.625-12.571 12.571-12.571c2.232 0 4.321 0.589 6.125 1.589l1.143-1.143c0.446-0.446 1.179-0.446 1.625 0l1.214 1.214zM27.161 3.161c-0.107 0.107-0.25 0.179-0.393 0.179-0.161 0-0.304-0.071-0.411-0.179l-1.625-1.607c-0.214-0.232-0.214-0.589 0-0.821 0.232-0.214 0.589-0.214 0.821 0l1.607 1.625c0.232 0.214 0.232 0.589 0 0.804zM31.268 7.268c-0.125 0.107-0.268 0.161-0.411 0.161s-0.286-0.054-0.411-0.161l-1.607-1.625c-0.232-0.214-0.232-0.589 0-0.804 0.214-0.232 0.589-0.232 0.804 0l1.625 1.607c0.214 0.232 0.214 0.589 0 0.821zM32 4c0 0.321-0.25 0.571-0.571 0.571h-1.714c-0.321 0-0.571-0.25-0.571-0.571s0.25-0.571 0.571-0.571h1.714c0.321 0 0.571 0.25 0.571 0.571zM28.571 0.571v1.714c0 0.321-0.25 0.571-0.571 0.571s-0.571-0.25-0.571-0.571v-1.714c0-0.321 0.25-0.571 0.571-0.571s0.571 0.25 0.571 0.571zM31.268 1.554l-1.625 1.607c-0.107 0.107-0.25 0.179-0.393 0.179-0.161 0-0.304-0.071-0.411-0.179-0.232-0.214-0.232-0.589 0-0.804l1.607-1.625c0.232-0.214 0.589-0.214 0.821 0 0.214 0.232 0.214 0.589 0 0.821z"></path>
</svg>
