<!-- Generated by IcoMoon.io -->
<svg version="1.1" xmlns="http://www.w3.org/2000/svg" width="39" height="32" viewBox="0 0 39 32">
<title>braille</title>
<path d="M3.429 21.143c-1.571 0-2.857 1.286-2.857 2.857s1.286 2.857 2.857 2.857 2.857-1.286 2.857-2.857-1.286-2.857-2.857-2.857zM12.571 21.143c-1.571 0-2.857 1.286-2.857 2.857s1.286 2.857 2.857 2.857 2.857-1.286 2.857-2.857-1.286-2.857-2.857-2.857zM12.571 12c-1.571 0-2.857 1.286-2.857 2.857s1.286 2.857 2.857 2.857 2.857-1.286 2.857-2.857-1.286-2.857-2.857-2.857zM26.286 21.143c-1.571 0-2.857 1.286-2.857 2.857s1.286 2.857 2.857 2.857 2.857-1.286 2.857-2.857-1.286-2.857-2.857-2.857zM35.429 21.143c-1.571 0-2.857 1.286-2.857 2.857s1.286 2.857 2.857 2.857 2.857-1.286 2.857-2.857-1.286-2.857-2.857-2.857zM26.286 12c-1.571 0-2.857 1.286-2.857 2.857s1.286 2.857 2.857 2.857 2.857-1.286 2.857-2.857-1.286-2.857-2.857-2.857zM35.429 12c-1.571 0-2.857 1.286-2.857 2.857s1.286 2.857 2.857 2.857 2.857-1.286 2.857-2.857-1.286-2.857-2.857-2.857zM35.429 2.857c-1.571 0-2.857 1.286-2.857 2.857s1.286 2.857 2.857 2.857 2.857-1.286 2.857-2.857-1.286-2.857-2.857-2.857zM6.857 24c0 1.893-1.536 3.429-3.429 3.429s-3.429-1.536-3.429-3.429 1.536-3.429 3.429-3.429v0c1.893 0 3.429 1.536 3.429 3.429zM16 24c0 1.893-1.536 3.429-3.429 3.429s-3.429-1.536-3.429-3.429 1.536-3.429 3.429-3.429v0c1.893 0 3.429 1.536 3.429 3.429zM6.857 14.857c0 1.893-1.536 3.429-3.429 3.429s-3.429-1.536-3.429-3.429 1.536-3.429 3.429-3.429 3.429 1.536 3.429 3.429zM16 14.857c0 1.893-1.536 3.429-3.429 3.429s-3.429-1.536-3.429-3.429 1.536-3.429 3.429-3.429v0c1.893 0 3.429 1.536 3.429 3.429zM6.857 5.714c0 1.893-1.536 3.429-3.429 3.429s-3.429-1.536-3.429-3.429 1.536-3.429 3.429-3.429 3.429 1.536 3.429 3.429zM29.714 24c0 1.893-1.536 3.429-3.429 3.429s-3.429-1.536-3.429-3.429 1.536-3.429 3.429-3.429v0c1.893 0 3.429 1.536 3.429 3.429zM16 5.714c0 1.893-1.536 3.429-3.429 3.429s-3.429-1.536-3.429-3.429 1.536-3.429 3.429-3.429 3.429 1.536 3.429 3.429zM38.857 24c0 1.893-1.536 3.429-3.429 3.429s-3.429-1.536-3.429-3.429 1.536-3.429 3.429-3.429v0c1.893 0 3.429 1.536 3.429 3.429zM29.714 14.857c0 1.893-1.536 3.429-3.429 3.429s-3.429-1.536-3.429-3.429 1.536-3.429 3.429-3.429v0c1.893 0 3.429 1.536 3.429 3.429zM38.857 14.857c0 1.893-1.536 3.429-3.429 3.429s-3.429-1.536-3.429-3.429 1.536-3.429 3.429-3.429v0c1.893 0 3.429 1.536 3.429 3.429zM29.714 5.714c0 1.893-1.536 3.429-3.429 3.429s-3.429-1.536-3.429-3.429 1.536-3.429 3.429-3.429 3.429 1.536 3.429 3.429zM38.857 5.714c0 1.893-1.536 3.429-3.429 3.429s-3.429-1.536-3.429-3.429 1.536-3.429 3.429-3.429v0c1.893 0 3.429 1.536 3.429 3.429z"></path>
</svg>
