<!-- Generated by IcoMoon.io -->
<svg version="1.1" xmlns="http://www.w3.org/2000/svg" width="32" height="32" viewBox="0 0 32 32">
<title>briefcase</title>
<path d="M11.429 4.571h9.143v-2.286h-9.143v2.286zM32 16v8.571c0 1.571-1.286 2.857-2.857 2.857h-26.286c-1.571 0-2.857-1.286-2.857-2.857v-8.571h12v2.857c0 0.625 0.518 1.143 1.143 1.143h5.714c0.625 0 1.143-0.518 1.143-1.143v-2.857h12zM18.286 16v2.286h-4.571v-2.286h4.571zM32 7.429v6.857h-32v-6.857c0-1.571 1.286-2.857 2.857-2.857h6.286v-2.857c0-0.946 0.768-1.714 1.714-1.714h10.286c0.946 0 1.714 0.768 1.714 1.714v2.857h6.286c1.571 0 2.857 1.286 2.857 2.857z"></path>
</svg>
