<!-- Generated by IcoMoon.io -->
<svg version="1.1" xmlns="http://www.w3.org/2000/svg" width="32" height="32" viewBox="0 0 32 32">
<title>bullhorn</title>
<path d="M29.714 11.429c1.268 0 2.286 1.018 2.286 2.286s-1.018 2.286-2.286 2.286v6.857c0 1.25-1.036 2.286-2.286 2.286-3.179-2.643-8.304-6.268-14.5-6.786-2.125 0.714-2.857 3.196-1.464 4.625-1.25 2.054 0.357 3.5 2.25 4.982-1.107 2.179-5.714 2.214-7.357 0.696-1.036-3.179-2.571-6.357-1.321-10.375h-2.179c-1.571 0-2.857-1.286-2.857-2.857v-3.429c0-1.571 1.286-2.857 2.857-2.857h8.571c6.857 0 12.571-4 16-6.857 1.25 0 2.286 1.036 2.286 2.286v6.857zM27.429 22.214v-17.036c-4.661 3.571-9.179 5.625-13.714 6.125v4.821c4.536 0.5 9.054 2.518 13.714 6.089z"></path>
</svg>
