<!-- Generated by IcoMoon.io -->
<svg version="1.1" xmlns="http://www.w3.org/2000/svg" width="27" height="32" viewBox="0 0 27 32">
<title>bullseye</title>
<path d="M18.286 16c0 2.518-2.054 4.571-4.571 4.571s-4.571-2.054-4.571-4.571 2.054-4.571 4.571-4.571 4.571 2.054 4.571 4.571zM20.571 16c0-3.786-3.071-6.857-6.857-6.857s-6.857 3.071-6.857 6.857 3.071 6.857 6.857 6.857 6.857-3.071 6.857-6.857zM22.857 16c0 5.054-4.089 9.143-9.143 9.143s-9.143-4.089-9.143-9.143 4.089-9.143 9.143-9.143 9.143 4.089 9.143 9.143zM25.143 16c0-6.304-5.125-11.429-11.429-11.429s-11.429 5.125-11.429 11.429 5.125 11.429 11.429 11.429 11.429-5.125 11.429-11.429zM27.429 16c0 7.571-6.143 13.714-13.714 13.714s-13.714-6.143-13.714-13.714 6.143-13.714 13.714-13.714 13.714 6.143 13.714 13.714z"></path>
</svg>
