<!-- Generated by IcoMoon.io -->
<svg version="1.1" xmlns="http://www.w3.org/2000/svg" width="37" height="32" viewBox="0 0 37 32">
<title>cab</title>
<path d="M32.571 16c2.214 0 4 1.786 4 4v6.857c0 0.321-0.25 0.571-0.571 0.571h-1.714v1.143c0 1.893-1.536 3.429-3.429 3.429s-3.429-1.536-3.429-3.429v-1.143h-18.286v1.143c0 1.893-1.536 3.429-3.429 3.429s-3.429-1.536-3.429-3.429v-1.143h-1.714c-0.321 0-0.571-0.25-0.571-0.571v-6.857c0-2.214 1.786-4 4-4h0.5l1.875-7.482c0.554-2.25 2.732-3.946 5.054-3.946h2.286v-4c0-0.321 0.25-0.571 0.571-0.571h8c0.321 0 0.571 0.25 0.571 0.571v4h2.286c2.321 0 4.5 1.696 5.054 3.946l1.875 7.482h0.5zM5.714 24.571c1.571 0 2.857-1.286 2.857-2.857s-1.286-2.857-2.857-2.857-2.857 1.286-2.857 2.857 1.286 2.857 2.857 2.857zM9.214 16h18.143l-1.589-6.375c-0.054-0.196-0.411-0.482-0.625-0.482h-13.714c-0.214 0-0.571 0.286-0.625 0.482zM30.857 24.571c1.571 0 2.857-1.286 2.857-2.857s-1.286-2.857-2.857-2.857-2.857 1.286-2.857 2.857 1.286 2.857 2.857 2.857z"></path>
</svg>
