<!-- Generated by IcoMoon.io -->
<svg version="1.1" xmlns="http://www.w3.org/2000/svg" width="30" height="32" viewBox="0 0 30 32">
<title>calculator</title>
<path d="M6.857 27.429c0-1.268-1.018-2.286-2.286-2.286s-2.286 1.018-2.286 2.286 1.018 2.286 2.286 2.286 2.286-1.018 2.286-2.286zM13.714 27.429c0-1.268-1.018-2.286-2.286-2.286s-2.286 1.018-2.286 2.286 1.018 2.286 2.286 2.286 2.286-1.018 2.286-2.286zM6.857 20.571c0-1.268-1.018-2.286-2.286-2.286s-2.286 1.018-2.286 2.286 1.018 2.286 2.286 2.286 2.286-1.018 2.286-2.286zM20.571 27.429c0-1.268-1.018-2.286-2.286-2.286s-2.286 1.018-2.286 2.286 1.018 2.286 2.286 2.286 2.286-1.018 2.286-2.286zM13.714 20.571c0-1.268-1.018-2.286-2.286-2.286s-2.286 1.018-2.286 2.286 1.018 2.286 2.286 2.286 2.286-1.018 2.286-2.286zM6.857 13.714c0-1.268-1.018-2.286-2.286-2.286s-2.286 1.018-2.286 2.286 1.018 2.286 2.286 2.286 2.286-1.018 2.286-2.286zM20.571 20.571c0-1.268-1.018-2.286-2.286-2.286s-2.286 1.018-2.286 2.286 1.018 2.286 2.286 2.286 2.286-1.018 2.286-2.286zM13.714 13.714c0-1.268-1.018-2.286-2.286-2.286s-2.286 1.018-2.286 2.286 1.018 2.286 2.286 2.286 2.286-1.018 2.286-2.286zM27.429 27.429v-6.857c0-1.25-1.036-2.286-2.286-2.286v0c-1.25 0-2.286 1.036-2.286 2.286v6.857c0 1.25 1.036 2.286 2.286 2.286v0c1.25 0 2.286-1.036 2.286-2.286zM20.571 13.714c0-1.268-1.018-2.286-2.286-2.286s-2.286 1.018-2.286 2.286 1.018 2.286 2.286 2.286 2.286-1.018 2.286-2.286zM27.429 8v-4.571c0-0.625-0.518-1.143-1.143-1.143h-22.857c-0.625 0-1.143 0.518-1.143 1.143v4.571c0 0.625 0.518 1.143 1.143 1.143h22.857c0.625 0 1.143-0.518 1.143-1.143zM27.429 13.714c0-1.268-1.018-2.286-2.286-2.286s-2.286 1.018-2.286 2.286 1.018 2.286 2.286 2.286 2.286-1.018 2.286-2.286zM29.714 2.286v27.429c0 1.25-1.036 2.286-2.286 2.286h-25.143c-1.25 0-2.286-1.036-2.286-2.286v-27.429c0-1.25 1.036-2.286 2.286-2.286h25.143c1.25 0 2.286 1.036 2.286 2.286z"></path>
</svg>
