<!-- Generated by IcoMoon.io -->
<svg version="1.1" xmlns="http://www.w3.org/2000/svg" width="30" height="32" viewBox="0 0 30 32">
<title>calendar-plus-o</title>
<path d="M27.429 4.571c1.25 0 2.286 1.036 2.286 2.286v22.857c0 1.25-1.036 2.286-2.286 2.286h-25.143c-1.25 0-2.286-1.036-2.286-2.286v-22.857c0-1.25 1.036-2.286 2.286-2.286h2.286v-1.714c0-1.571 1.286-2.857 2.857-2.857h1.143c1.571 0 2.857 1.286 2.857 2.857v1.714h6.857v-1.714c0-1.571 1.286-2.857 2.857-2.857h1.143c1.571 0 2.857 1.286 2.857 2.857v1.714h2.286zM20.571 2.857v5.143c0 0.321 0.25 0.571 0.571 0.571h1.143c0.321 0 0.571-0.25 0.571-0.571v-5.143c0-0.321-0.25-0.571-0.571-0.571h-1.143c-0.321 0-0.571 0.25-0.571 0.571zM6.857 2.857v5.143c0 0.321 0.25 0.571 0.571 0.571h1.143c0.321 0 0.571-0.25 0.571-0.571v-5.143c0-0.321-0.25-0.571-0.571-0.571h-1.143c-0.321 0-0.571 0.25-0.571 0.571zM27.429 29.714v-18.286h-25.143v18.286h25.143zM16 19.429h4c0.321 0 0.571 0.25 0.571 0.571v1.143c0 0.321-0.25 0.571-0.571 0.571h-4v4c0 0.321-0.25 0.571-0.571 0.571h-1.143c-0.321 0-0.571-0.25-0.571-0.571v-4h-4c-0.321 0-0.571-0.25-0.571-0.571v-1.143c0-0.321 0.25-0.571 0.571-0.571h4v-4c0-0.321 0.25-0.571 0.571-0.571h1.143c0.321 0 0.571 0.25 0.571 0.571v4z"></path>
</svg>
