<!-- Generated by IcoMoon.io -->
<svg version="1.1" xmlns="http://www.w3.org/2000/svg" width="30" height="32" viewBox="0 0 30 32">
<title>chain-broken</title>
<path d="M7.839 22.696l-4.571 4.571c-0.125 0.107-0.268 0.161-0.411 0.161s-0.286-0.054-0.411-0.161c-0.214-0.232-0.214-0.589 0-0.821l4.571-4.571c0.232-0.214 0.589-0.214 0.821 0 0.214 0.232 0.214 0.589 0 0.821zM10.857 23.429v5.714c0 0.321-0.25 0.571-0.571 0.571s-0.571-0.25-0.571-0.571v-5.714c0-0.321 0.25-0.571 0.571-0.571s0.571 0.25 0.571 0.571zM6.857 19.429c0 0.321-0.25 0.571-0.571 0.571h-5.714c-0.321 0-0.571-0.25-0.571-0.571s0.25-0.571 0.571-0.571h5.714c0.321 0 0.571 0.25 0.571 0.571zM29.429 21.714c0 1.375-0.536 2.661-1.518 3.625l-2.625 2.607c-0.964 0.964-2.25 1.482-3.625 1.482s-2.679-0.536-3.643-1.518l-5.964-5.982c-0.304-0.304-0.536-0.643-0.75-1l4.268-0.321 4.875 4.893c0.643 0.643 1.786 0.661 2.429 0.018l2.625-2.607c0.321-0.321 0.5-0.75 0.5-1.196 0-0.464-0.179-0.893-0.5-1.214l-4.893-4.911 0.321-4.268c0.357 0.214 0.696 0.446 1 0.75l6 6c0.964 0.982 1.5 2.268 1.5 3.643zM18.411 8.786l-4.268 0.321-4.875-4.893c-0.321-0.321-0.75-0.5-1.214-0.5s-0.893 0.179-1.214 0.482l-2.625 2.607c-0.321 0.321-0.5 0.75-0.5 1.196 0 0.464 0.179 0.893 0.5 1.214l4.893 4.893-0.321 4.286c-0.357-0.214-0.696-0.446-1-0.75l-6-6c-0.964-0.982-1.5-2.268-1.5-3.643s0.536-2.661 1.518-3.625l2.625-2.607c0.964-0.964 2.25-1.482 3.625-1.482s2.679 0.536 3.643 1.518l5.964 5.982c0.304 0.304 0.536 0.643 0.75 1zM29.714 10.286c0 0.321-0.25 0.571-0.571 0.571h-5.714c-0.321 0-0.571-0.25-0.571-0.571s0.25-0.571 0.571-0.571h5.714c0.321 0 0.571 0.25 0.571 0.571zM20 0.571v5.714c0 0.321-0.25 0.571-0.571 0.571s-0.571-0.25-0.571-0.571v-5.714c0-0.321 0.25-0.571 0.571-0.571s0.571 0.25 0.571 0.571zM27.268 3.268l-4.571 4.571c-0.125 0.107-0.268 0.161-0.411 0.161s-0.286-0.054-0.411-0.161c-0.214-0.232-0.214-0.589 0-0.821l4.571-4.571c0.232-0.214 0.589-0.214 0.821 0 0.214 0.232 0.214 0.589 0 0.821z"></path>
</svg>
