<!-- Generated by IcoMoon.io -->
<svg version="1.1" xmlns="http://www.w3.org/2000/svg" width="32" height="32" viewBox="0 0 32 32">
<title>check1</title>
<path d="M29.839 10.107c0 0.446-0.179 0.893-0.5 1.214l-15.357 15.357c-0.321 0.321-0.768 0.5-1.214 0.5s-0.893-0.179-1.214-0.5l-8.893-8.893c-0.321-0.321-0.5-0.768-0.5-1.214s0.179-0.893 0.5-1.214l2.429-2.429c0.321-0.321 0.768-0.5 1.214-0.5s0.893 0.179 1.214 0.5l5.25 5.268 11.714-11.732c0.321-0.321 0.768-0.5 1.214-0.5s0.893 0.179 1.214 0.5l2.429 2.429c0.321 0.321 0.5 0.768 0.5 1.214z"></path>
</svg>
