<!-- Generated by IcoMoon.io -->
<svg version="1.1" xmlns="http://www.w3.org/2000/svg" width="23" height="32" viewBox="0 0 23 32">
<title>child</title>
<path d="M21.214 9.786l-5.214 5.214v14.714c0 1.107-0.893 2-2 2s-2-0.893-2-2v-6.857h-1.143v6.857c0 1.107-0.893 2-2 2s-2-0.893-2-2v-14.714l-5.214-5.214c-0.661-0.679-0.661-1.75 0-2.429 0.679-0.661 1.75-0.661 2.429 0l4.071 4.071h6.571l4.071-4.071c0.679-0.661 1.75-0.661 2.429 0 0.661 0.679 0.661 1.75 0 2.429zM15.429 6.857c0 2.214-1.786 4-4 4s-4-1.786-4-4 1.786-4 4-4 4 1.786 4 4z"></path>
</svg>
