<!-- Generated by IcoMoon.io -->
<svg version="1.1" xmlns="http://www.w3.org/2000/svg" width="32" height="32" viewBox="0 0 32 32">
<title>clone</title>
<path d="M29.714 29.143v-19.429c0-0.304-0.268-0.571-0.571-0.571h-19.429c-0.304 0-0.571 0.268-0.571 0.571v19.429c0 0.304 0.268 0.571 0.571 0.571h19.429c0.304 0 0.571-0.268 0.571-0.571zM32 9.714v19.429c0 1.571-1.286 2.857-2.857 2.857h-19.429c-1.571 0-2.857-1.286-2.857-2.857v-19.429c0-1.571 1.286-2.857 2.857-2.857h19.429c1.571 0 2.857 1.286 2.857 2.857zM25.143 2.857v2.857h-2.286v-2.857c0-0.304-0.268-0.571-0.571-0.571h-19.429c-0.304 0-0.571 0.268-0.571 0.571v19.429c0 0.304 0.268 0.571 0.571 0.571h2.857v2.286h-2.857c-1.571 0-2.857-1.286-2.857-2.857v-19.429c0-1.571 1.286-2.857 2.857-2.857h19.429c1.571 0 2.857 1.286 2.857 2.857z"></path>
</svg>
