<!-- Generated by IcoMoon.io -->
<svg version="1.1" xmlns="http://www.w3.org/2000/svg" width="25" height="32" viewBox="0 0 25 32">
<title>close</title>
<path d="M23.179 23.607c0 0.446-0.179 0.893-0.5 1.214l-2.429 2.429c-0.321 0.321-0.768 0.5-1.214 0.5s-0.893-0.179-1.214-0.5l-5.25-5.25-5.25 5.25c-0.321 0.321-0.768 0.5-1.214 0.5s-0.893-0.179-1.214-0.5l-2.429-2.429c-0.321-0.321-0.5-0.768-0.5-1.214s0.179-0.893 0.5-1.214l5.25-5.25-5.25-5.25c-0.321-0.321-0.5-0.768-0.5-1.214s0.179-0.893 0.5-1.214l2.429-2.429c0.321-0.321 0.768-0.5 1.214-0.5s0.893 0.179 1.214 0.5l5.25 5.25 5.25-5.25c0.321-0.321 0.768-0.5 1.214-0.5s0.893 0.179 1.214 0.5l2.429 2.429c0.321 0.321 0.5 0.768 0.5 1.214s-0.179 0.893-0.5 1.214l-5.25 5.25 5.25 5.25c0.321 0.321 0.5 0.768 0.5 1.214z"></path>
</svg>
