<!-- Generated by IcoMoon.io -->
<svg version="1.1" xmlns="http://www.w3.org/2000/svg" width="34" height="32" viewBox="0 0 34 32">
<title>cloud-download</title>
<path d="M22.857 16.571c0-0.321-0.25-0.571-0.571-0.571h-4v-6.286c0-0.304-0.268-0.571-0.571-0.571h-3.429c-0.304 0-0.571 0.268-0.571 0.571v6.286h-4c-0.321 0-0.571 0.268-0.571 0.571 0 0.143 0.054 0.304 0.161 0.411l6.286 6.286c0.107 0.107 0.25 0.161 0.411 0.161 0.143 0 0.304-0.054 0.411-0.161l6.268-6.268c0.107-0.125 0.179-0.268 0.179-0.429zM34.286 20.571c0 3.786-3.071 6.857-6.857 6.857h-19.429c-4.411 0-8-3.589-8-8 0-3.107 1.804-5.929 4.607-7.232-0.018-0.268-0.036-0.518-0.036-0.768 0-5.054 4.089-9.143 9.143-9.143 3.714 0 7.054 2.25 8.464 5.679 0.821-0.714 1.875-1.107 2.964-1.107 2.518 0 4.571 2.054 4.571 4.571 0 0.875-0.25 1.732-0.732 2.464 3.107 0.732 5.304 3.5 5.304 6.679z"></path>
</svg>
