<!-- Generated by IcoMoon.io -->
<svg version="1.1" xmlns="http://www.w3.org/2000/svg" width="34" height="32" viewBox="0 0 34 32">
<title>cloud5</title>
<path d="M34.286 20.571c0 3.786-3.071 6.857-6.857 6.857h-19.429c-4.411 0-8-3.589-8-8 0-3.196 1.893-5.964 4.607-7.232-0.018-0.25-0.036-0.518-0.036-0.768 0-5.054 4.089-9.143 9.143-9.143 3.821 0 7.089 2.339 8.464 5.679 0.786-0.696 1.821-1.107 2.964-1.107 2.518 0 4.571 2.054 4.571 4.571 0 0.911-0.268 1.75-0.732 2.464 3.036 0.714 5.304 3.429 5.304 6.679z"></path>
</svg>
