<!-- Generated by IcoMoon.io -->
<svg version="1.1" xmlns="http://www.w3.org/2000/svg" width="33" height="32" viewBox="0 0 33 32">
<title>coffee</title>
<path d="M29.714 11.429c0-1.893-1.536-3.429-3.429-3.429h-1.143v6.857h1.143c1.893 0 3.429-1.536 3.429-3.429zM0 25.143h32c0 2.518-2.054 4.571-4.571 4.571h-22.857c-2.518 0-4.571-2.054-4.571-4.571zM33.143 11.429c0 3.786-3.071 6.857-6.857 6.857h-1.143v0.571c0 2.196-1.804 4-4 4h-12.571c-2.196 0-4-1.804-4-4v-13.143c0-0.625 0.518-1.143 1.143-1.143h20.571c3.786 0 6.857 3.071 6.857 6.857z"></path>
</svg>
