<!-- Generated by IcoMoon.io -->
<svg version="1.1" xmlns="http://www.w3.org/2000/svg" width="32" height="32" viewBox="0 0 32 32">
<title>comments-o</title>
<path d="M12.571 6.857c-5.571 0-10.286 3.143-10.286 6.857 0 1.964 1.321 3.857 3.607 5.179l1.732 1-0.625 1.5c0.375-0.214 0.75-0.446 1.107-0.696l0.786-0.554 0.946 0.179c0.893 0.161 1.804 0.25 2.732 0.25 5.571 0 10.286-3.143 10.286-6.857s-4.714-6.857-10.286-6.857zM12.571 4.571c6.946 0 12.571 4.089 12.571 9.143s-5.625 9.143-12.571 9.143c-1.089 0-2.143-0.107-3.143-0.286-1.482 1.054-3.161 1.821-4.964 2.286-0.482 0.125-1 0.214-1.536 0.286h-0.054c-0.268 0-0.518-0.214-0.571-0.518v0c-0.071-0.339 0.161-0.554 0.357-0.786 0.696-0.786 1.482-1.482 2.089-2.964-2.893-1.679-4.75-4.268-4.75-7.161 0-5.054 5.625-9.143 12.571-9.143zM27.25 25.446c0.607 1.482 1.393 2.179 2.089 2.964 0.196 0.232 0.429 0.446 0.357 0.786v0c-0.071 0.321-0.339 0.554-0.625 0.518-0.536-0.071-1.054-0.161-1.536-0.286-1.804-0.464-3.482-1.232-4.964-2.286-1 0.179-2.054 0.286-3.143 0.286-3.232 0-6.196-0.893-8.429-2.357 0.518 0.036 1.054 0.071 1.571 0.071 3.839 0 7.464-1.107 10.232-3.107 2.982-2.179 4.625-5.125 4.625-8.321 0-0.929-0.143-1.839-0.411-2.714 3.018 1.661 4.982 4.304 4.982 7.286 0 2.911-1.857 5.482-4.75 7.161z"></path>
</svg>
