<!-- Generated by IcoMoon.io -->
<svg version="1.1" xmlns="http://www.w3.org/2000/svg" width="32" height="32" viewBox="0 0 32 32">
<title>commenting</title>
<path d="M11.429 16c0-1.268-1.018-2.286-2.286-2.286s-2.286 1.018-2.286 2.286 1.018 2.286 2.286 2.286 2.286-1.018 2.286-2.286zM18.286 16c0-1.268-1.018-2.286-2.286-2.286s-2.286 1.018-2.286 2.286 1.018 2.286 2.286 2.286 2.286-1.018 2.286-2.286zM25.143 16c0-1.268-1.018-2.286-2.286-2.286s-2.286 1.018-2.286 2.286 1.018 2.286 2.286 2.286 2.286-1.018 2.286-2.286zM32 16c0 6.321-7.161 11.429-16 11.429-1.304 0-2.571-0.107-3.768-0.321-2.036 2.036-4.696 3.429-7.768 4.089-0.482 0.089-1 0.179-1.536 0.232-0.286 0.036-0.554-0.161-0.625-0.429v0c-0.071-0.286 0.143-0.464 0.357-0.661 1.125-1.054 2.464-1.893 2.929-5.661-3.411-2.089-5.589-5.196-5.589-8.679 0-6.321 7.161-11.429 16-11.429s16 5.107 16 11.429z"></path>
</svg>
