<!-- Generated by IcoMoon.io -->
<svg version="1.1" xmlns="http://www.w3.org/2000/svg" width="27" height="32" viewBox="0 0 27 32">
<title>compress1</title>
<path d="M13.714 17.143v8c0 0.625-0.518 1.143-1.143 1.143-0.304 0-0.589-0.125-0.804-0.339l-2.571-2.571-5.929 5.929c-0.107 0.107-0.268 0.179-0.411 0.179s-0.304-0.071-0.411-0.179l-2.036-2.036c-0.107-0.107-0.179-0.268-0.179-0.411s0.071-0.304 0.179-0.411l5.929-5.929-2.571-2.571c-0.214-0.214-0.339-0.5-0.339-0.804 0-0.625 0.518-1.143 1.143-1.143h8c0.625 0 1.143 0.518 1.143 1.143zM27.196 5.143c0 0.143-0.071 0.304-0.179 0.411l-5.929 5.929 2.571 2.571c0.214 0.214 0.339 0.5 0.339 0.804 0 0.625-0.518 1.143-1.143 1.143h-8c-0.625 0-1.143-0.518-1.143-1.143v-8c0-0.625 0.518-1.143 1.143-1.143 0.304 0 0.589 0.125 0.804 0.339l2.571 2.571 5.929-5.929c0.107-0.107 0.268-0.179 0.411-0.179s0.304 0.071 0.411 0.179l2.036 2.036c0.107 0.107 0.179 0.268 0.179 0.411z"></path>
</svg>
