<!-- Generated by IcoMoon.io -->
<svg version="1.1" xmlns="http://www.w3.org/2000/svg" width="37" height="32" viewBox="0 0 37 32">
<title>connectdevelop</title>
<path d="M36.571 15.982c0 0.5-0.357 0.911-0.821 1l-3.661 6.357c0.036 0.107 0.054 0.214 0.054 0.321 0 0.482-0.339 0.893-0.804 0.982l-3.446 6.018c0.036 0.089 0.054 0.179 0.054 0.286 0 0.554-0.446 1.018-1.018 1.018-0.286 0-0.554-0.125-0.732-0.321h-7.143c-0.179 0.214-0.464 0.357-0.768 0.357s-0.589-0.143-0.768-0.357h-7.125c-0.179 0.214-0.446 0.357-0.768 0.357-0.554 0-1.018-0.446-1.018-1.018 0-0.125 0.036-0.25 0.071-0.357l-3.446-5.982c-0.464-0.089-0.804-0.5-0.804-0.982 0-0.125 0.018-0.214 0.054-0.321l-3.679-6.357c-0.464-0.107-0.804-0.518-0.804-1 0-0.5 0.357-0.911 0.839-1l3.554-6.143c0-0.036-0.018-0.071-0.018-0.107 0-0.411 0.25-0.75 0.607-0.911l3.732-6.482c-0.036-0.089-0.071-0.214-0.071-0.321 0-0.571 0.464-1.018 1.018-1.018 0.321 0 0.589 0.143 0.786 0.375h7.071c0.179-0.232 0.446-0.375 0.768-0.375s0.589 0.143 0.768 0.375h7.107c0.196-0.232 0.464-0.375 0.786-0.375 0.554 0 1.018 0.446 1.018 1.018 0 0.107-0.036 0.214-0.071 0.321l3.696 6.393c0.536 0.018 0.982 0.464 0.982 1 0 0.179-0.054 0.339-0.125 0.482l3.339 5.786c0.446 0.089 0.786 0.5 0.786 0.982zM18.982 30.25h6.946l-6.107-6.321h-2.554l-6.107 6.321h6.429c0.179-0.161 0.429-0.286 0.696-0.286s0.518 0.125 0.696 0.286zM2 15.75c0.018 0.071 0.018 0.143 0.018 0.232s0 0.179-0.036 0.268l3.714 6.429c0.089 0.018 0.179 0.071 0.268 0.107l3.357-3.554v-6.196l-3.339-3.464c-0.161 0.107-0.339 0.161-0.518 0.179zM17.607 1.75h-6.929l3.393 3.571 9.893-3.571h-5c-0.179 0.179-0.411 0.286-0.679 0.286s-0.5-0.107-0.679-0.286zM30.161 23.393c0.018-0.071 0.054-0.143 0.089-0.196l-1.143-1.214-0.304 1.411h1.357zM28.268 23.393l0.393-1.875-4.5-4.75-5.286 5.482 1.125 1.143h8.268zM26.696 29.964l0.286-0.5 1.161-5.536h-7.625l5.946 6.125c0.071-0.036 0.143-0.071 0.232-0.089zM10.321 30.25h0.089l6.107-6.321h-6.661v5.982l0.071 0.107c0.161 0.054 0.286 0.125 0.393 0.232zM9.857 23.393h7.179l1.143-1.179-5.518-5.732-2.804 2.964v3.946zM6.411 23.393h2.911v-3.375l-3 3.161c0.036 0.071 0.071 0.143 0.089 0.214zM6.393 8.661c0 0.018 0.018 0.054 0.018 0.071 0 0.196-0.054 0.375-0.143 0.518l3.054 3.161v-4.804zM9.857 7.411v5.554l2.732 2.804 5.304-5.607-3.982-4.214zM9.929 1.982l-0.071 0.143v4.714l3.661-1.321-3.411-3.589c-0.054 0.018-0.107 0.036-0.179 0.054zM25.839 1.75h-0.286l-11.089 4 3.804 4.018zM18.268 10.536l-5.304 5.625 5.554 5.696 5.286-5.482zM12.286 16.107l-2.429-2.518v5.071zM18.536 22.607l-0.75 0.786h1.518zM24.536 16.393l4.25 4.482 2.357-11.143-0.054-0.089-0.018-0.018zM30.679 9.25c-0.089-0.143-0.143-0.321-0.143-0.518v-0.036l-3.857-6.714c-0.089-0.018-0.161-0.054-0.232-0.089l-7.804 8.268 5.536 5.839zM9.321 7.036v-3.982l-2.911 5.036zM9.321 23.929h-2.911l2.911 5.054v-5.054zM28.696 23.929l-0.857 4.054 2.321-4.054h-1.464zM30.875 22.679l3.696-6.446c-0.018-0.089-0.036-0.161-0.036-0.25 0-0.107 0.036-0.196 0.054-0.286l-3.054-5.286-2.304 10.929 1.375 1.464c0.089-0.054 0.179-0.089 0.268-0.125z"></path>
</svg>
