<!-- Generated by IcoMoon.io -->
<svg version="1.1" xmlns="http://www.w3.org/2000/svg" width="34" height="32" viewBox="0 0 34 32">
<title>credit-card</title>
<path d="M31.429 2.286c1.571 0 2.857 1.286 2.857 2.857v21.714c0 1.571-1.286 2.857-2.857 2.857h-28.571c-1.571 0-2.857-1.286-2.857-2.857v-21.714c0-1.571 1.286-2.857 2.857-2.857h28.571zM2.857 4.571c-0.304 0-0.571 0.268-0.571 0.571v4h29.714v-4c0-0.304-0.268-0.571-0.571-0.571h-28.571zM31.429 27.429c0.304 0 0.571-0.268 0.571-0.571v-10.857h-29.714v10.857c0 0.304 0.268 0.571 0.571 0.571h28.571zM4.571 25.143v-2.286h4.571v2.286h-4.571zM11.429 25.143v-2.286h6.857v2.286h-6.857z"></path>
</svg>
