<!-- Generated by IcoMoon.io -->
<svg version="1.1" xmlns="http://www.w3.org/2000/svg" width="30" height="32" viewBox="0 0 30 32">
<title>crop1</title>
<path d="M9.946 22.857h10.625v-10.625zM9.143 22.054l10.625-10.625h-10.625v10.625zM29.714 23.429v3.429c0 0.321-0.25 0.571-0.571 0.571h-4v4c0 0.321-0.25 0.571-0.571 0.571h-3.429c-0.321 0-0.571-0.25-0.571-0.571v-4h-15.429c-0.321 0-0.571-0.25-0.571-0.571v-15.429h-4c-0.321 0-0.571-0.25-0.571-0.571v-3.429c0-0.321 0.25-0.571 0.571-0.571h4v-4c0-0.321 0.25-0.571 0.571-0.571h3.429c0.321 0 0.571 0.25 0.571 0.571v4h15.196l4.393-4.411c0.232-0.214 0.589-0.214 0.821 0 0.214 0.232 0.214 0.589 0 0.821l-4.411 4.393v15.196h4c0.321 0 0.571 0.25 0.571 0.571z"></path>
</svg>
