<!-- Generated by IcoMoon.io -->
<svg version="1.1" xmlns="http://www.w3.org/2000/svg" width="39" height="32" viewBox="0 0 39 32">
<title>cubes</title>
<path d="M11.429 29.143l6.857-3.429v-5.607l-6.857 2.929v6.107zM10.286 21.036l7.214-3.089-7.214-3.089-7.214 3.089zM29.714 29.143l6.857-3.429v-5.607l-6.857 2.929v6.107zM28.571 21.036l7.214-3.089-7.214-3.089-7.214 3.089zM20.571 15.804l6.857-2.946v-4.75l-6.857 2.929v4.768zM19.429 9.036l7.875-3.375-7.875-3.375-7.875 3.375zM38.857 18.286v7.429c0 0.857-0.482 1.661-1.268 2.036l-8 4c-0.321 0.179-0.661 0.25-1.018 0.25s-0.696-0.071-1.018-0.25l-8-4c-0.054-0.018-0.089-0.036-0.125-0.071-0.036 0.036-0.071 0.054-0.125 0.071l-8 4c-0.321 0.179-0.661 0.25-1.018 0.25s-0.696-0.071-1.018-0.25l-8-4c-0.786-0.375-1.268-1.179-1.268-2.036v-7.429c0-0.911 0.554-1.732 1.393-2.107l7.75-3.321v-7.143c0-0.911 0.554-1.732 1.393-2.107l8-3.429c0.286-0.125 0.589-0.179 0.893-0.179s0.607 0.054 0.893 0.179l8 3.429c0.839 0.375 1.393 1.196 1.393 2.107v7.143l7.75 3.321c0.857 0.375 1.393 1.196 1.393 2.107z"></path>
</svg>
