<!-- Generated by IcoMoon.io -->
<svg version="1.1" xmlns="http://www.w3.org/2000/svg" width="25" height="32" viewBox="0 0 25 32">
<title>cutlery</title>
<path d="M11.429 1.143v11.429c0 1.446-0.929 2.75-2.286 3.232v13.911c0 1.25-1.036 2.286-2.286 2.286h-2.286c-1.25 0-2.286-1.036-2.286-2.286v-13.911c-1.357-0.482-2.286-1.786-2.286-3.232v-11.429c0-0.625 0.518-1.143 1.143-1.143s1.143 0.518 1.143 1.143v7.429c0 0.625 0.518 1.143 1.143 1.143s1.143-0.518 1.143-1.143v-7.429c0-0.625 0.518-1.143 1.143-1.143s1.143 0.518 1.143 1.143v7.429c0 0.625 0.518 1.143 1.143 1.143s1.143-0.518 1.143-1.143v-7.429c0-0.625 0.518-1.143 1.143-1.143s1.143 0.518 1.143 1.143zM25.143 1.143v28.571c0 1.25-1.036 2.286-2.286 2.286h-2.286c-1.25 0-2.286-1.036-2.286-2.286v-9.143h-4c-0.304 0-0.571-0.268-0.571-0.571v-14.286c0-3.143 2.571-5.714 5.714-5.714h4.571c0.625 0 1.143 0.518 1.143 1.143z"></path>
</svg>
