<!-- Generated by IcoMoon.io -->
<svg version="1.1" xmlns="http://www.w3.org/2000/svg" width="32" height="32" viewBox="0 0 32 32">
<title>dashboard1</title>
<path d="M6.857 20.571c0-1.268-1.018-2.286-2.286-2.286s-2.286 1.018-2.286 2.286 1.018 2.286 2.286 2.286 2.286-1.018 2.286-2.286zM10.286 12.571c0-1.268-1.018-2.286-2.286-2.286s-2.286 1.018-2.286 2.286 1.018 2.286 2.286 2.286 2.286-1.018 2.286-2.286zM17.929 21.161l1.804-6.821c0.143-0.607-0.214-1.232-0.821-1.393v0c-0.607-0.161-1.232 0.214-1.393 0.821l-1.804 6.821c-1.411 0.107-2.643 1.089-3.036 2.536-0.482 1.839 0.625 3.714 2.446 4.196 1.839 0.482 3.714-0.625 4.196-2.446 0.375-1.446-0.232-2.911-1.393-3.714zM29.714 20.571c0-1.268-1.018-2.286-2.286-2.286s-2.286 1.018-2.286 2.286 1.018 2.286 2.286 2.286 2.286-1.018 2.286-2.286zM18.286 9.143c0-1.268-1.018-2.286-2.286-2.286s-2.286 1.018-2.286 2.286 1.018 2.286 2.286 2.286 2.286-1.018 2.286-2.286zM26.286 12.571c0-1.268-1.018-2.286-2.286-2.286s-2.286 1.018-2.286 2.286 1.018 2.286 2.286 2.286 2.286-1.018 2.286-2.286zM32 20.571c0 3.071-0.875 6.036-2.518 8.625-0.214 0.321-0.571 0.518-0.964 0.518h-25.036c-0.393 0-0.75-0.196-0.964-0.518-1.643-2.571-2.518-5.554-2.518-8.625 0-8.821 7.179-16 16-16s16 7.179 16 16z"></path>
</svg>
