<!-- Generated by IcoMoon.io -->
<svg version="1.1" xmlns="http://www.w3.org/2000/svg" width="32" height="32" viewBox="0 0 32 32">
<title>deaf</title>
<path d="M18.857 14.857c0 0.625 0.518 1.143 1.143 1.143s1.143-0.518 1.143-1.143c0-3.464-2.821-6.286-6.286-6.286s-6.286 2.821-6.286 6.286c0 0.625 0.518 1.143 1.143 1.143s1.143-0.518 1.143-1.143c0-2.214 1.804-4 4-4s4 1.786 4 4zM14.911 4.571c-5.679 0-10.286 4.607-10.286 10.286 0 0.625 0.518 1.143 1.143 1.143s1.143-0.518 1.143-1.143c0-4.411 3.589-8 8-8s8 3.589 8 8c0 2.107-0.946 3.196-2.054 4.464-1.196 1.375-2.571 2.946-2.571 5.821 0 2.518-2.054 4.571-4.571 4.571-0.625 0-1.143 0.518-1.143 1.143s0.518 1.143 1.143 1.143c3.786 0 6.857-3.071 6.857-6.857 0-2.018 0.893-3.036 2.018-4.321 1.214-1.411 2.607-3 2.607-5.964 0-5.679-4.607-10.286-10.286-10.286zM10.554 17.411l4.036 4.036-10.339 10.339c-0.286 0.286-0.75 0.286-1.036 0l-3-3c-0.286-0.286-0.286-0.75 0-1.036zM28.786 0.214l3 3c0.286 0.286 0.286 0.75 0 1.054l-4.161 4.161-0.464 0.446-1.268 1.268c-0.768-1.786-1.946-3.357-3.482-4.607l5.321-5.321c0.304-0.286 0.768-0.286 1.054 0z"></path>
</svg>
