<!-- Generated by IcoMoon.io -->
<svg version="1.1" xmlns="http://www.w3.org/2000/svg" width="32" height="32" viewBox="0 0 32 32">
<title>envelope-open</title>
<path d="M32 11.679v17.464c0 1.571-1.286 2.857-2.857 2.857h-26.286c-1.571 0-2.857-1.286-2.857-2.857v-17.464c0-0.161 0.071-0.321 0.196-0.429 1.875-1.643 1.893-1.839 11.214-8.643 1.125-0.821 3.107-2.607 4.589-2.607s3.482 1.804 4.589 2.607c9.321 6.804 9.339 7 11.214 8.643 0.125 0.107 0.196 0.268 0.196 0.429zM21.929 22.125c2.786-2.018 4.732-3.429 6.161-4.5 0.25-0.179 0.304-0.536 0.107-0.786l-0.679-0.929c-0.196-0.25-0.554-0.304-0.804-0.107-1.411 1.036-3.339 2.464-6.125 4.464-1.107 0.804-3.107 2.589-4.589 2.589s-3.482-1.786-4.589-2.589c-2.786-2.018-4.714-3.429-6.125-4.464-0.25-0.196-0.607-0.143-0.804 0.107l-0.679 0.929c-0.196 0.25-0.143 0.607 0.107 0.786 1.429 1.071 3.375 2.482 6.161 4.5 1.393 1 3.589 3.018 5.929 3.018 2.357 0 4.607-2.054 5.929-3.018z"></path>
</svg>
