<!-- Generated by IcoMoon.io -->
<svg version="1.1" xmlns="http://www.w3.org/2000/svg" width="27" height="32" viewBox="0 0 27 32">
<title>envelope-square</title>
<path d="M22.286 2.286c2.839 0 5.143 2.304 5.143 5.143v17.143c0 2.839-2.304 5.143-5.143 5.143h-17.143c-2.839 0-5.143-2.304-5.143-5.143v-17.143c0-2.839 2.304-5.143 5.143-5.143h17.143zM22.857 21.143v-7.786c-0.339 0.375-0.714 0.714-1.143 0.982-1.679 1.107-3.411 2.143-5.071 3.286-0.839 0.589-1.875 1.232-2.929 1.232v0 0 0 0c-1.054 0-2.089-0.643-2.929-1.232-1.661-1.143-3.411-2.161-5.071-3.304-0.411-0.268-0.732-0.661-1.143-0.964v7.786c0 0.946 0.768 1.714 1.714 1.714h14.857c0.946 0 1.714-0.768 1.714-1.714zM22.857 10.911c0-0.964-0.714-1.768-1.714-1.768h-14.857c-0.946 0-1.714 0.768-1.714 1.714 0 0.964 1 2.018 1.75 2.518 1.571 1.054 3.196 2.036 4.768 3.071 0.679 0.446 1.804 1.268 2.625 1.268s1.946-0.821 2.625-1.268c1.589-1.036 3.179-2.054 4.768-3.107 0.696-0.464 1.75-1.536 1.75-2.429z"></path>
</svg>
