<!-- Generated by IcoMoon.io -->
<svg version="1.1" xmlns="http://www.w3.org/2000/svg" width="27" height="32" viewBox="0 0 27 32">
<title>exclamation-circle</title>
<path d="M13.714 2.286c7.571 0 13.714 6.143 13.714 13.714s-6.143 13.714-13.714 13.714-13.714-6.143-13.714-13.714 6.143-13.714 13.714-13.714zM16 24.554v-3.393c0-0.321-0.25-0.589-0.554-0.589h-3.429c-0.321 0-0.589 0.268-0.589 0.589v3.393c0 0.321 0.268 0.589 0.589 0.589h3.429c0.304 0 0.554-0.268 0.554-0.589zM15.964 18.411l0.321-11.089c0-0.125-0.054-0.25-0.179-0.321-0.107-0.089-0.268-0.143-0.429-0.143h-3.929c-0.161 0-0.321 0.054-0.429 0.143-0.125 0.071-0.179 0.196-0.179 0.321l0.304 11.089c0 0.25 0.268 0.446 0.607 0.446h3.304c0.321 0 0.589-0.196 0.607-0.446z"></path>
</svg>
