<!-- Generated by IcoMoon.io -->
<svg version="1.1" xmlns="http://www.w3.org/2000/svg" width="11" height="32" viewBox="0 0 11 32">
<title>exclamation</title>
<path d="M9.143 22.286v4c0 0.625-0.518 1.143-1.143 1.143h-4.571c-0.625 0-1.143-0.518-1.143-1.143v-4c0-0.625 0.518-1.143 1.143-1.143h4.571c0.625 0 1.143 0.518 1.143 1.143zM9.679 3.429l-0.5 13.714c-0.018 0.625-0.554 1.143-1.179 1.143h-4.571c-0.625 0-1.161-0.518-1.179-1.143l-0.5-13.714c-0.018-0.625 0.482-1.143 1.107-1.143h5.714c0.625 0 1.125 0.518 1.107 1.143z"></path>
</svg>
