<!-- Generated by IcoMoon.io -->
<svg version="1.1" xmlns="http://www.w3.org/2000/svg" width="32" height="32" viewBox="0 0 32 32">
<title>fast-backward</title>
<path d="M31.196 2.518c0.446-0.446 0.804-0.286 0.804 0.339v26.286c0 0.625-0.357 0.786-0.804 0.339l-12.679-12.679c-0.107-0.107-0.179-0.214-0.232-0.339v12.679c0 0.625-0.357 0.786-0.804 0.339l-12.679-12.679c-0.107-0.107-0.179-0.214-0.232-0.339v12.107c0 0.625-0.518 1.143-1.143 1.143h-2.286c-0.625 0-1.143-0.518-1.143-1.143v-25.143c0-0.625 0.518-1.143 1.143-1.143h2.286c0.625 0 1.143 0.518 1.143 1.143v12.107c0.054-0.125 0.125-0.232 0.232-0.339l12.679-12.679c0.446-0.446 0.804-0.286 0.804 0.339v12.679c0.054-0.125 0.125-0.232 0.232-0.339z"></path>
</svg>
