<!-- Generated by IcoMoon.io -->
<svg version="1.1" xmlns="http://www.w3.org/2000/svg" width="32" height="32" viewBox="0 0 32 32">
<title>fax</title>
<path d="M5.143 6.857c1.571 0 2.857 1.286 2.857 2.857v19.429c0 1.571-1.286 2.857-2.857 2.857h-2.286c-1.571 0-2.857-1.286-2.857-2.857v-19.429c0-1.571 1.286-2.857 2.857-2.857h2.286zM29.714 9.768c1.357 0.786 2.286 2.268 2.286 3.946v13.714c0 2.518-2.054 4.571-4.571 4.571h-15.429c-1.571 0-2.857-1.286-2.857-2.857v-27.429c0-0.946 0.768-1.714 1.714-1.714h12c0.946 0 2.268 0.554 2.929 1.214l2.714 2.714c0.661 0.661 1.214 1.982 1.214 2.929v2.911zM16.571 27.429v-2.286c0-0.321-0.25-0.571-0.571-0.571h-2.286c-0.321 0-0.571 0.25-0.571 0.571v2.286c0 0.321 0.25 0.571 0.571 0.571h2.286c0.321 0 0.571-0.25 0.571-0.571zM16.571 22.857v-2.286c0-0.321-0.25-0.571-0.571-0.571h-2.286c-0.321 0-0.571 0.25-0.571 0.571v2.286c0 0.321 0.25 0.571 0.571 0.571h2.286c0.321 0 0.571-0.25 0.571-0.571zM16.571 18.286v-2.286c0-0.321-0.25-0.571-0.571-0.571h-2.286c-0.321 0-0.571 0.25-0.571 0.571v2.286c0 0.321 0.25 0.571 0.571 0.571h2.286c0.321 0 0.571-0.25 0.571-0.571zM21.143 27.429v-2.286c0-0.321-0.25-0.571-0.571-0.571h-2.286c-0.321 0-0.571 0.25-0.571 0.571v2.286c0 0.321 0.25 0.571 0.571 0.571h2.286c0.321 0 0.571-0.25 0.571-0.571zM21.143 22.857v-2.286c0-0.321-0.25-0.571-0.571-0.571h-2.286c-0.321 0-0.571 0.25-0.571 0.571v2.286c0 0.321 0.25 0.571 0.571 0.571h2.286c0.321 0 0.571-0.25 0.571-0.571zM21.143 18.286v-2.286c0-0.321-0.25-0.571-0.571-0.571h-2.286c-0.321 0-0.571 0.25-0.571 0.571v2.286c0 0.321 0.25 0.571 0.571 0.571h2.286c0.321 0 0.571-0.25 0.571-0.571zM25.714 27.429v-2.286c0-0.321-0.25-0.571-0.571-0.571h-2.286c-0.321 0-0.571 0.25-0.571 0.571v2.286c0 0.321 0.25 0.571 0.571 0.571h2.286c0.321 0 0.571-0.25 0.571-0.571zM25.714 22.857v-2.286c0-0.321-0.25-0.571-0.571-0.571h-2.286c-0.321 0-0.571 0.25-0.571 0.571v2.286c0 0.321 0.25 0.571 0.571 0.571h2.286c0.321 0 0.571-0.25 0.571-0.571zM25.714 18.286v-2.286c0-0.321-0.25-0.571-0.571-0.571h-2.286c-0.321 0-0.571 0.25-0.571 0.571v2.286c0 0.321 0.25 0.571 0.571 0.571h2.286c0.321 0 0.571-0.25 0.571-0.571zM27.429 11.429v-4.571h-2.857c-0.946 0-1.714-0.768-1.714-1.714v-2.857h-11.429v9.143h16z"></path>
</svg>
