<!-- Generated by IcoMoon.io -->
<svg version="1.1" xmlns="http://www.w3.org/2000/svg" width="34" height="32" viewBox="0 0 34 32">
<title>fighter-jet</title>
<path d="M34.286 17.143c0 0 0 0.571-5.143 1.714l-6.286 0.571-4 1.143h-1.143l-5.232 6.286h1.232c0.625 0 1.143 0.125 1.143 0.286s-0.518 0.286-1.143 0.286h-5.714v-0.571h1.143v-7.429h-2.857l-3.429 4h-1.714l-0.571-0.571v-3.429h0.571v-0.571h2.286v-0.143l-3.429-0.429v-2.286l3.429-0.429v-0.143h-2.286v-0.571h-0.571v-3.429l0.571-0.571h1.714l3.429 4h2.857v-7.429h-1.143v-0.571h5.714c0.625 0 1.143 0.125 1.143 0.286s-0.518 0.286-1.143 0.286h-1.232l5.232 6.286h1.143l4 1.143 6.286 0.571c5.143 1.143 5.143 1.714 5.143 1.714z"></path>
</svg>
