<!-- Generated by IcoMoon.io -->
<svg version="1.1" xmlns="http://www.w3.org/2000/svg" width="27" height="32" viewBox="0 0 27 32">
<title>file-text</title>
<path d="M26.214 8.5c0.179 0.179 0.339 0.393 0.5 0.643h-8.429v-8.429c0.25 0.161 0.464 0.321 0.643 0.5zM17.714 11.429h9.714v18.857c0 0.946-0.768 1.714-1.714 1.714h-24c-0.946 0-1.714-0.768-1.714-1.714v-28.571c0-0.946 0.768-1.714 1.714-1.714h14.286v9.714c0 0.946 0.768 1.714 1.714 1.714zM20.571 24.571v-1.143c0-0.321-0.25-0.571-0.571-0.571h-12.571c-0.321 0-0.571 0.25-0.571 0.571v1.143c0 0.321 0.25 0.571 0.571 0.571h12.571c0.321 0 0.571-0.25 0.571-0.571zM20.571 20v-1.143c0-0.321-0.25-0.571-0.571-0.571h-12.571c-0.321 0-0.571 0.25-0.571 0.571v1.143c0 0.321 0.25 0.571 0.571 0.571h12.571c0.321 0 0.571-0.25 0.571-0.571zM20.571 15.429v-1.143c0-0.321-0.25-0.571-0.571-0.571h-12.571c-0.321 0-0.571 0.25-0.571 0.571v1.143c0 0.321 0.25 0.571 0.571 0.571h12.571c0.321 0 0.571-0.25 0.571-0.571z"></path>
</svg>
