<!-- Generated by IcoMoon.io -->
<svg version="1.1" xmlns="http://www.w3.org/2000/svg" width="25" height="32" viewBox="0 0 25 32">
<title>fire-extinguisher</title>
<path d="M9.143 3.429c0-0.625-0.518-1.143-1.143-1.143s-1.143 0.518-1.143 1.143 0.518 1.143 1.143 1.143 1.143-0.518 1.143-1.143zM25.143 2.857v5.714c0 0.179-0.071 0.339-0.214 0.446-0.107 0.089-0.232 0.125-0.357 0.125-0.036 0-0.071 0-0.125-0.018l-8-1.714c-0.25-0.054-0.446-0.286-0.446-0.554h-4.571v1.821c2.607 0.536 4.571 2.839 4.571 5.607v14.286c0 0.625-0.518 1.143-1.143 1.143h-9.143c-0.625 0-1.143-0.518-1.143-1.143v-14.286c0-2.554 1.679-4.732 4-5.446v-1.982h-0.571c-3.786 0-5.821 3.911-5.839 3.946-0.196 0.393-0.607 0.625-1.018 0.625-0.179 0-0.357-0.036-0.518-0.125-0.554-0.286-0.786-0.964-0.5-1.536 0.089-0.179 1.875-3.643 5.464-4.804-0.268-0.446-0.446-0.964-0.446-1.536 0-1.571 1.286-2.857 2.857-2.857s2.857 1.286 2.857 2.857c0 0.411-0.089 0.786-0.25 1.143h5.393c0-0.268 0.196-0.5 0.446-0.554l8-1.714c0.054-0.018 0.089-0.018 0.125-0.018 0.125 0 0.25 0.036 0.357 0.125 0.143 0.107 0.214 0.268 0.214 0.446z"></path>
</svg>
