<!-- Generated by IcoMoon.io -->
<svg version="1.1" xmlns="http://www.w3.org/2000/svg" width="33" height="32" viewBox="0 0 33 32">
<title>flag-o</title>
<path d="M29.714 18.661v-11c-1.429 0.768-3.429 1.625-5.464 1.625v0c-0.946 0-1.821-0.179-2.589-0.571-1.911-0.946-3.982-1.857-6.464-1.857-2.304 0-5.125 1.125-7.196 2.268v10.696c2.357-1.089 5.357-2.018 7.732-2.018 2.75 0 4.536 0.911 6.446 1.857l0.5 0.25c0.5 0.25 1.107 0.393 1.804 0.393 1.982 0 4.125-1.054 5.232-1.643zM5.714 4.571c0 0.839-0.464 1.571-1.143 1.964v22.607c0 0.321-0.25 0.571-0.571 0.571h-1.143c-0.321 0-0.571-0.25-0.571-0.571v-22.607c-0.679-0.393-1.143-1.125-1.143-1.964 0-1.268 1.018-2.286 2.286-2.286s2.286 1.018 2.286 2.286zM32 5.714v13.625c0 0.429-0.25 0.821-0.625 1.018-0.071 0.036-0.179 0.089-0.304 0.161-1.143 0.607-3.839 2.071-6.589 2.071-1.054 0-2-0.214-2.821-0.625l-0.5-0.25c-1.804-0.911-3.232-1.625-5.429-1.625-2.571 0-6.196 1.339-8.286 2.607-0.179 0.107-0.393 0.161-0.589 0.161s-0.393-0.054-0.571-0.143c-0.357-0.214-0.571-0.589-0.571-1v-13.25c0-0.393 0.214-0.768 0.554-0.982 1.143-0.679 5.179-2.911 8.929-2.911 2.982 0 5.411 1.089 7.464 2.089 0.464 0.232 1 0.339 1.589 0.339 2.107 0 4.429-1.339 5.536-2 0.232-0.125 0.429-0.232 0.554-0.304 0.357-0.179 0.768-0.161 1.107 0.036 0.339 0.214 0.554 0.589 0.554 0.982z"></path>
</svg>
