<!-- Generated by IcoMoon.io -->
<svg version="1.1" xmlns="http://www.w3.org/2000/svg" width="34" height="32" viewBox="0 0 34 32">
<title>folder-open-o</title>
<path d="M31.804 16.625c0-0.5-0.554-0.625-0.946-0.625h-19.429c-0.946 0-2.196 0.589-2.804 1.321l-5.25 6.482c-0.161 0.214-0.321 0.446-0.321 0.714 0 0.5 0.554 0.625 0.946 0.625h19.429c0.946 0 2.196-0.589 2.804-1.339l5.25-6.482c0.161-0.196 0.321-0.429 0.321-0.696zM11.429 13.714h13.714v-2.857c0-0.946-0.768-1.714-1.714-1.714h-10.286c-0.946 0-1.714-0.768-1.714-1.714v-1.143c0-0.946-0.768-1.714-1.714-1.714h-5.714c-0.946 0-1.714 0.768-1.714 1.714v15.232l4.571-5.625c1.036-1.268 2.946-2.179 4.571-2.179zM34.089 16.625c0 0.786-0.339 1.536-0.821 2.143l-5.268 6.482c-1.018 1.25-2.964 2.179-4.571 2.179h-19.429c-2.196 0-4-1.804-4-4v-17.143c0-2.196 1.804-4 4-4h5.714c2.196 0 4 1.804 4 4v0.571h9.714c2.196 0 4 1.804 4 4v2.857h3.429c1.214 0 2.429 0.554 2.964 1.696 0.179 0.375 0.268 0.786 0.268 1.214z"></path>
</svg>
