<!-- Generated by IcoMoon.io -->
<svg version="1.1" xmlns="http://www.w3.org/2000/svg" width="30" height="32" viewBox="0 0 30 32">
<title>folder-o</title>
<path d="M27.429 23.429v-12.571c0-0.946-0.768-1.714-1.714-1.714h-12.571c-0.946 0-1.714-0.768-1.714-1.714v-1.143c0-0.946-0.768-1.714-1.714-1.714h-5.714c-0.946 0-1.714 0.768-1.714 1.714v17.143c0 0.946 0.768 1.714 1.714 1.714h21.714c0.946 0 1.714-0.768 1.714-1.714zM29.714 10.857v12.571c0 2.196-1.804 4-4 4h-21.714c-2.196 0-4-1.804-4-4v-17.143c0-2.196 1.804-4 4-4h5.714c2.196 0 4 1.804 4 4v0.571h12c2.196 0 4 1.804 4 4z"></path>
</svg>
