<!-- Generated by IcoMoon.io -->
<svg version="1.1" xmlns="http://www.w3.org/2000/svg" width="30" height="32" viewBox="0 0 30 32">
<title>fort-awesome</title>
<path d="M11.429 18v-4c0-0.161-0.125-0.286-0.286-0.286h-1.714c-0.161 0-0.286 0.125-0.286 0.286v4c0 0.161 0.125 0.286 0.286 0.286h1.714c0.161 0 0.286-0.125 0.286-0.286zM20.571 18v-4c0-0.161-0.125-0.286-0.286-0.286h-1.714c-0.161 0-0.286 0.125-0.286 0.286v4c0 0.161 0.125 0.286 0.286 0.286h1.714c0.161 0 0.286-0.125 0.286-0.286zM29.714 18.571v13.429h-11.429v-5.714c0-1.893-1.536-3.429-3.429-3.429s-3.429 1.536-3.429 3.429v5.714h-11.429v-13.429c0-0.161 0.125-0.286 0.286-0.286h1.714c0.161 0 0.286 0.125 0.286 0.286v2h2.286v-11.143c0-0.161 0.125-0.286 0.286-0.286h1.714c0.161 0 0.286 0.125 0.286 0.286v2h2.286v-2c0-0.161 0.125-0.286 0.286-0.286h1.714c0.161 0 0.286 0.125 0.286 0.286v2h2.286v-2c0-0.375 0.5-0.286 0.732-0.286v-6.982c-0.339-0.161-0.571-0.518-0.571-0.893 0-0.536 0.446-0.982 0.982-0.982s0.982 0.446 0.982 0.982c0 0.375-0.232 0.732-0.571 0.893v0.304c0.482-0.107 0.982-0.179 1.482-0.179 0.732 0 1.429 0.268 2.036 0.268 0.554 0 1.179-0.268 1.5-0.268 0.161 0 0.286 0.125 0.286 0.286v3.75c0 0.429-1.446 0.5-1.732 0.5-0.661 0-1.286-0.268-1.964-0.268-0.536 0-1.089 0.089-1.607 0.214v2.375c0.232 0 0.732-0.089 0.732 0.286v2h2.286v-2c0-0.161 0.125-0.286 0.286-0.286h1.714c0.161 0 0.286 0.125 0.286 0.286v2h2.286v-2c0-0.161 0.125-0.286 0.286-0.286h1.714c0.161 0 0.286 0.125 0.286 0.286v11.143h2.286v-2c0-0.161 0.125-0.286 0.286-0.286h1.714c0.161 0 0.286 0.125 0.286 0.286z"></path>
</svg>
