<!-- Generated by IcoMoon.io -->
<svg version="1.1" xmlns="http://www.w3.org/2000/svg" width="32" height="32" viewBox="0 0 32 32">
<title>futbol-o</title>
<path d="M10.875 14.571l5.125-3.714 5.125 3.714-1.946 6h-6.339zM16 0c8.839 0 16 7.161 16 16s-7.161 16-16 16-16-7.161-16-16 7.161-16 16-16zM27.054 24.107c1.679-2.286 2.661-5.071 2.661-8.107v-0.054l-1.821 1.589-4.286-4 1.125-5.768 2.393 0.214c-1.696-2.339-4.125-4.143-6.946-5.036l0.946 2.214-5.125 2.839-5.125-2.839 0.946-2.214c-2.821 0.893-5.25 2.696-6.946 5.036l2.411-0.214 1.107 5.768-4.286 4-1.821-1.589v0.054c0 3.036 0.982 5.821 2.661 8.107l0.536-2.357 5.821 0.714 2.482 5.321-2.071 1.232c1.339 0.446 2.786 0.696 4.286 0.696s2.946-0.25 4.286-0.696l-2.071-1.232 2.482-5.321 5.821-0.714z"></path>
</svg>
