<!-- Generated by IcoMoon.io -->
<svg version="1.1" xmlns="http://www.w3.org/2000/svg" width="31" height="32" viewBox="0 0 31 32">
<title>get-pocket</title>
<path d="M27.946 2.286c1.554 0 2.768 1.25 2.768 2.786v9.268c0 8.554-6.839 15.375-15.339 15.375-8.536 0-15.375-6.821-15.375-15.375v-9.268c0-1.518 1.268-2.786 2.786-2.786h25.161zM15.375 21.286c0.536 0 1.071-0.214 1.464-0.589l7.214-6.929c0.411-0.393 0.661-0.946 0.661-1.518 0-1.161-0.946-2.107-2.107-2.107-0.554 0-1.071 0.214-1.464 0.589l-5.768 5.536-5.768-5.536c-0.393-0.375-0.911-0.589-1.446-0.589-1.161 0-2.107 0.946-2.107 2.107 0 0.571 0.232 1.125 0.643 1.518l7.232 6.929c0.375 0.375 0.911 0.589 1.446 0.589z"></path>
</svg>
