<!-- Generated by IcoMoon.io -->
<svg version="1.1" xmlns="http://www.w3.org/2000/svg" width="27" height="32" viewBox="0 0 27 32">
<title>gittip</title>
<path d="M13.804 23.25l6.25-8.446c0.482-0.661 1.054-2.786-0.768-3.982-1.536-1-3-0.232-3.768 0.661-0.286 0.321-0.786 0.714-1.714 0.714s-1.411-0.393-1.696-0.714c-0.768-0.893-2.232-1.661-3.786-0.661-1.804 1.196-1.232 3.321-0.75 3.982zM27.429 16c0 7.571-6.143 13.714-13.714 13.714s-13.714-6.143-13.714-13.714 6.143-13.714 13.714-13.714 13.714 6.143 13.714 13.714z"></path>
</svg>
