<!-- Generated by IcoMoon.io -->
<svg version="1.1" xmlns="http://www.w3.org/2000/svg" width="41" height="32" viewBox="0 0 41 32">
<title>graduation-cap</title>
<path d="M31.679 14.929l0.321 5.643c0.143 2.518-5.125 4.571-11.429 4.571s-11.571-2.054-11.429-4.571l0.321-5.643 10.25 3.232c0.286 0.089 0.571 0.125 0.857 0.125s0.571-0.036 0.857-0.125zM41.143 9.143c0 0.25-0.161 0.464-0.393 0.554l-20 6.286c-0.071 0.018-0.125 0.018-0.179 0.018s-0.107 0-0.179-0.018l-11.643-3.679c-1.018 0.804-1.732 2.768-1.875 5.179 0.679 0.393 1.125 1.107 1.125 1.946 0 0.804-0.411 1.5-1.036 1.911l1.036 7.732c0.018 0.161-0.036 0.321-0.143 0.446s-0.268 0.196-0.429 0.196h-3.429c-0.161 0-0.321-0.071-0.429-0.196s-0.161-0.286-0.143-0.446l1.036-7.732c-0.625-0.411-1.036-1.107-1.036-1.911 0-0.857 0.482-1.589 1.161-1.982 0.107-2.089 0.643-4.339 1.75-5.893l-5.946-1.857c-0.232-0.089-0.393-0.304-0.393-0.554s0.161-0.464 0.393-0.554l20-6.286c0.071-0.018 0.125-0.018 0.179-0.018s0.107 0 0.179 0.018l20 6.286c0.232 0.089 0.393 0.304 0.393 0.554z"></path>
</svg>
