<!-- Generated by IcoMoon.io -->
<svg version="1.1" xmlns="http://www.w3.org/2000/svg" width="27" height="32" viewBox="0 0 27 32">
<title>hand-o-down</title>
<path d="M25.143 17.143c0-3.554-2.286-6.589-2.286-9.714v-0.571h-11.429v0.571c0 1.893-1.607 3.161-2.911 4.304-0.821 0.732-1.643 1.411-2.589 2-0.393 0.25-0.804 0.464-1.214 0.679s-2.429 1.107-2.429 1.589c0 1.518 0.571 2.857 2.286 2.857 2.286 0 3.446-1.714 4.571-1.714v10.286c0 1.196 1.071 2.286 2.286 2.286 1.232 0 2.286-1.054 2.286-2.286v-5.911c0.464 0.357 1.25 0.625 1.839 0.625 0.839 0 1.554-0.339 2.125-0.946 0.375 0.214 0.804 0.321 1.232 0.321 0.821 0 1.839-0.411 2.25-1.161 0.321 0.054 0.661 0.071 1 0.071 2.107 0 2.982-1.304 2.982-3.286zM22.857 3.429c0-0.625-0.518-1.143-1.143-1.143s-1.143 0.518-1.143 1.143 0.518 1.143 1.143 1.143 1.143-0.518 1.143-1.143zM27.429 17.071c0 3.286-1.857 5.679-5.268 5.661l-0.089-0.018c-0.893 0.714-2.036 1.089-3.179 1.089-0.25 0-0.518-0.018-0.768-0.054-0.607 0.339-1.429 0.589-2.125 0.661v3.018c0 2.5-2.089 4.571-4.589 4.571-2.464 0-4.554-2.107-4.554-4.571v-6.679c-0.696 0.286-1.536 0.393-2.286 0.393-3 0-4.571-2.304-4.571-5.143 0-2.393 3.054-3.161 4.714-4.196 0.839-0.536 1.571-1.143 2.304-1.786 0.589-0.518 2.125-1.732 2.125-2.589v-5.143c0-1.268 1.018-2.286 2.286-2.286h11.429c1.268 0 2.286 1.018 2.286 2.286v5.143c0 1.125 0.661 2.893 1.054 3.982 0.661 1.821 1.232 3.696 1.232 5.661z"></path>
</svg>
