<!-- Generated by IcoMoon.io -->
<svg version="1.1" xmlns="http://www.w3.org/2000/svg" width="37" height="32" viewBox="0 0 37 32">
<title>hand-lizard-o</title>
<path d="M20.554 0c1.446 0 2.839 0.696 3.696 1.875l10.214 13.946c1.375 1.857 2.107 4.089 2.107 6.411v6.339c0 1.893-1.536 3.429-3.429 3.429h-6.857c-1.893 0-3.429-1.536-3.429-3.429v-3.161l-5.107-2.554h-9.75c-1.893 0-3.429-1.536-3.429-3.429v-0.571c0-2.839 2.304-5.143 5.143-5.143h7.5l0.75-2.286h-12.25c-2.375 0-4.357-1.821-4.554-4.179-0.75-0.911-1.161-2.071-1.161-3.25v-0.571c0-1.893 1.536-3.429 3.429-3.429h17.125zM34.286 28.571v-6.339c0-1.804-0.589-3.607-1.661-5.071l-10.232-13.946c-0.429-0.571-1.107-0.929-1.839-0.929h-17.125c-0.625 0-1.143 0.518-1.143 1.143 0 0.946 0.018 1.607 0.643 2.375 0.232-0.732 0.893-1.232 1.643-1.232h14.857v0.571h-14.857c-0.625 0-1.143 0.518-1.143 1.143 0 0.339-0.018 0.696 0.054 1.036 0.196 1.054 1.161 1.821 2.232 1.821h13.054c0.946 0 1.714 0.768 1.714 1.714 0 0.179-0.036 0.375-0.089 0.536l-1.143 3.429c-0.232 0.696-0.893 1.179-1.625 1.179h-7.911c-1.571 0-2.857 1.286-2.857 2.857v0.571c0 0.625 0.518 1.143 1.143 1.143h10.018c0.179 0 0.357 0.036 0.518 0.125l5.661 2.821c0.571 0.304 0.946 0.893 0.946 1.536v3.518c0 0.625 0.518 1.143 1.143 1.143h6.857c0.625 0 1.143-0.518 1.143-1.143z"></path>
</svg>
