<!-- Generated by IcoMoon.io -->
<svg version="1.1" xmlns="http://www.w3.org/2000/svg" width="32" height="32" viewBox="0 0 32 32">
<title>hand-o-right</title>
<path d="M4.571 24c0-0.625-0.518-1.143-1.143-1.143s-1.143 0.518-1.143 1.143 0.518 1.143 1.143 1.143 1.143-0.518 1.143-1.143zM29.714 13.714c0-1.214-1.089-2.286-2.286-2.286h-10.286c0-1.125 1.714-2.286 1.714-4.571 0-1.714-1.339-2.286-2.857-2.286-0.5 0-1.411 2.071-1.607 2.482-0.214 0.393-0.429 0.786-0.661 1.161-0.589 0.946-1.268 1.768-2 2.589-1.143 1.304-2.411 2.911-4.304 2.911h-0.571v11.429h0.571c3.125 0 6.179 2.286 9.643 2.286 2 0 3.375-0.839 3.375-2.982 0-0.339-0.036-0.679-0.089-1 0.75-0.411 1.161-1.429 1.161-2.25 0-0.429-0.107-0.857-0.321-1.232 0.607-0.571 0.946-1.286 0.946-2.125 0-0.571-0.25-1.411-0.625-1.839h5.911c1.232 0 2.286-1.054 2.286-2.286zM32 13.696c0 2.5-2.071 4.589-4.571 4.589h-3.018c-0.054 0.75-0.286 1.464-0.661 2.125 0.036 0.25 0.054 0.518 0.054 0.768 0 1.143-0.375 2.286-1.071 3.179 0.036 3.375-2.268 5.357-5.571 5.357-2 0-3.893-0.554-5.75-1.232-1.089-0.393-2.857-1.054-3.982-1.054h-5.143c-1.268 0-2.286-1.018-2.286-2.286v-11.429c0-1.268 1.018-2.286 2.286-2.286h5.143c0.857 0 2.071-1.536 2.589-2.125 0.643-0.732 1.25-1.464 1.786-2.304 1.036-1.661 1.804-4.714 4.196-4.714 2.839 0 5.143 1.554 5.143 4.571 0 0.786-0.125 1.554-0.393 2.286h6.679c2.464 0 4.571 2.089 4.571 4.554z"></path>
</svg>
