<!-- Generated by IcoMoon.io -->
<svg version="1.1" xmlns="http://www.w3.org/2000/svg" width="32" height="32" viewBox="0 0 32 32">
<title>hand-scissors-o</title>
<path d="M19.161 29.714h-3.161c-1.857 0-3.268-0.804-4.036-2.518-0.268-0.571-0.411-1.196-0.411-1.821v-0.089c-1.464-0.714-2.411-2.214-2.411-3.857 0-0.196 0-0.679 0.089-0.857h-4.661c-2.518 0-4.571-2.054-4.571-4.571s2.054-4.571 4.571-4.571h2.018l-0.786-0.304c-1.768-0.661-2.946-2.375-2.946-4.268 0-2.518 2.054-4.571 4.571-4.571 0.554 0 1.107 0.107 1.625 0.304l11.214 4.268h7.161c2.518 0 4.571 2.054 4.571 4.571v11.929c0 2.107-1.429 3.929-3.464 4.429l-6.054 1.518c-1.071 0.268-2.196 0.411-3.321 0.411zM18.286 17.018l-2.768 1.268-2.911 1.321c-0.714 0.321-1.179 1.036-1.179 1.821 0 1.107 0.893 2 2 2 0.286 0 0.571-0.054 0.821-0.179l6.036-2.75c-1.161-0.25-2-1.304-2-2.5v-0.982zM24 22.571c0-1.107-0.893-2-2-2-0.286 0-0.571 0.054-0.821 0.179l-5.179 2.357c-1.071 0.482-2.161 0.911-2.161 2.268 0 1.179 0.821 2.036 2.018 2.036 0.214 0 0.5-0.071 0.679-0.161l6.286-2.857c0.714-0.321 1.179-1.036 1.179-1.821zM19.857 9.143l-11.607-4.429c-0.268-0.089-0.536-0.143-0.821-0.143-1.25 0-2.286 1.018-2.286 2.286 0 0.946 0.589 1.804 1.464 2.143l9.393 3.571v1.143h-11.429c-1.268 0-2.286 1.018-2.286 2.286s1.018 2.286 2.286 2.286h9.554l4.161-1.893v-3.536c0-0.714 0.304-1.411 0.821-1.893l1.982-1.821h-1.232zM19.161 27.429c0.929 0 1.875-0.107 2.768-0.339l6.054-1.518c1.018-0.25 1.732-1.161 1.732-2.214v-11.929c0-1.268-1.018-2.286-2.286-2.286h-5.5l-2.429 2.25c-0.411 0.375-0.643 0.911-0.643 1.464v5.286c0 1.107 0.911 1.929 2 1.929 1.107 0 2-0.982 2-2.071v-3.714h0.571v3.714c0 0.804-0.393 1.554-1.018 2.036 1.25 0.196 2.161 1.286 2.161 2.536 0 1-0.589 1.929-1.5 2.339l-5.536 2.518h1.625z"></path>
</svg>
