<!-- Generated by IcoMoon.io -->
<svg version="1.1" xmlns="http://www.w3.org/2000/svg" width="27" height="32" viewBox="0 0 27 32">
<title>hand-grab-o</title>
<path d="M13.714 6.857c-1.268 0-2.286 1.018-2.286 2.286v2.286h-0.571v-1.661c0-1.125-0.857-2.054-2-2.054-1.107 0-2 0.893-2 2v7.661l-0.571-0.536v-3.071c0-1.125-0.857-2.054-2-2.054-1.107 0-2 0.893-2 2v4c0 0.554 0.232 1.071 0.625 1.464l5.536 5.286c0.518 0.518 0.696 1.107 0.696 1.821 0 0.625 0.518 1.143 1.143 1.143h11.429c0.625 0 1.143-0.518 1.143-1.143v-0.446c0-0.464 0.054-0.929 0.179-1.375l1.929-7.786c0.125-0.446 0.179-0.911 0.179-1.375v-4.393c0-1.125-0.857-2.054-2-2.054-1.107 0-2 0.893-2 2v0.571h-0.571v-2.232c0-0.946-0.643-1.821-1.589-2.018-0.125-0.018-0.268-0.036-0.411-0.036-1.107 0-2 0.893-2 2v2.286h-0.571v-2.179c0-1.196-0.857-2.25-2.054-2.375-0.089-0.018-0.161-0.018-0.232-0.018zM13.714 4.571c0.964 0 1.893 0.304 2.661 0.893 0.661-0.393 1.429-0.607 2.196-0.607 1.411 0 2.714 0.679 3.518 1.839 0.339-0.089 0.696-0.125 1.054-0.125 2.393 0 4.286 1.964 4.286 4.339v4.393c0 0.643-0.089 1.304-0.232 1.929l-1.946 7.786c-0.107 0.429-0.107 0.839-0.107 1.268 0 1.893-1.536 3.429-3.429 3.429h-11.429c-2.036 0-3.429-1.625-3.429-3.589l-5.5-5.286c-0.839-0.804-1.357-1.946-1.357-3.125v-4c0-2.357 1.929-4.286 4.286-4.286 0.107 0 0.196 0 0.286 0.018 0.143-2.268 2.036-4.018 4.286-4.018 0.607 0 1.196 0.125 1.75 0.375 0.839-0.804 1.946-1.232 3.107-1.232z"></path>
</svg>
