<!-- Generated by IcoMoon.io -->
<svg version="1.1" xmlns="http://www.w3.org/2000/svg" width="41" height="32" viewBox="0 0 41 32">
<title>handshake-o</title>
<path d="M3.429 20.571c1.5 0 1.5-2.286 0-2.286s-1.5 2.286 0 2.286zM29.732 19.536c-1.411-1.839-2.786-3.714-4.393-5.393l-2.232 2.5c-1.964 2.232-5.482 2.179-7.393-0.107-1.357-1.643-1.357-4 0.036-5.625l3.161-3.679c-1.107-0.571-2.446-0.375-3.643-0.375-1.054 0-2.071 0.429-2.821 1.179l-2.821 2.821h-2.768v9.714c0.786 0 1.5-0.107 2.125 0.5l5.304 5.214c1.089 1.054 2.5 1.982 4.054 1.982 0.804 0 1.661-0.268 2.232-0.839 1.339 0.464 2.893-0.286 3.304-1.661 0.857 0.071 1.643-0.196 2.268-0.786 0.411-0.375 0.946-1.125 0.893-1.714 0.161 0.161 0.554 0.179 0.768 0.179 2.125 0 3.232-2.232 1.929-3.911zM32.571 20.571h1.714v-9.143h-1.661l-2.804-3.214c-0.75-0.857-1.875-1.357-3.018-1.357h-2.982c-1 0-1.964 0.446-2.607 1.196l-3.732 4.339c-0.661 0.786-0.661 1.893-0.018 2.679 1.018 1.214 2.893 1.232 3.946 0.054l3.446-3.893c0.821-0.911 2.321-0.054 1.946 1.107 0.679 0.786 1.411 1.554 2.071 2.339 0.893 1.107 1.75 2.268 2.625 3.393 0.554 0.714 0.964 1.571 1.071 2.5zM37.714 20.571c1.5 0 1.5-2.286 0-2.286s-1.5 2.286 0 2.286zM41.143 10.286v11.429c0 0.625-0.518 1.143-1.143 1.143h-7.75c-0.643 1.554-2.054 2.589-3.696 2.821-0.768 1.125-1.946 1.982-3.268 2.268-0.982 1.25-2.571 2-4.161 1.893-2.946 1.661-6.268 0.214-8.464-1.946l-5.125-5.036h-6.393c-0.625 0-1.143-0.518-1.143-1.143v-12c0-0.625 0.518-1.143 1.143-1.143h7.518c2.071-2.071 3.5-4 6.607-4h2.089c1.161 0 2.286 0.357 3.232 1 0.946-0.643 2.071-1 3.232-1h2.982c3.393 0 4.804 2.214 6.857 4.571h6.339c0.625 0 1.143 0.518 1.143 1.143z"></path>
</svg>
