<!-- Generated by IcoMoon.io -->
<svg version="1.1" xmlns="http://www.w3.org/2000/svg" width="27" height="32" viewBox="0 0 27 32">
<title>hand-o-up</title>
<path d="M22.857 28.571c0-0.625-0.518-1.143-1.143-1.143s-1.143 0.518-1.143 1.143 0.518 1.143 1.143 1.143 1.143-0.518 1.143-1.143zM25.143 14.929c0-2.018-0.821-3.375-2.982-3.375-0.339 0-0.679 0.036-1 0.089-0.411-0.75-1.429-1.161-2.25-1.161-0.429 0-0.857 0.107-1.232 0.321-0.571-0.607-1.286-0.946-2.125-0.946-0.571 0-1.411 0.25-1.839 0.625v-5.911c0-1.232-1.054-2.286-2.286-2.286-1.214 0-2.286 1.089-2.286 2.286v10.286c-1.125 0-2.286-1.714-4.571-1.714-1.714 0-2.286 1.339-2.286 2.857 0 0.5 2.071 1.411 2.482 1.607 0.393 0.214 0.786 0.429 1.161 0.661 0.946 0.589 1.768 1.268 2.589 2 1.304 1.143 2.911 2.411 2.911 4.304v0.571h11.429v-0.571c0-3.125 2.286-6.179 2.286-9.643zM27.429 14.839c0 2-0.554 3.893-1.232 5.75-0.393 1.089-1.054 2.857-1.054 3.982v5.143c0 1.268-1.018 2.286-2.286 2.286h-11.429c-1.268 0-2.286-1.018-2.286-2.286v-5.143c0-0.857-1.536-2.071-2.125-2.589-0.732-0.643-1.464-1.25-2.304-1.786-1.661-1.036-4.714-1.804-4.714-4.196 0-2.839 1.554-5.143 4.571-5.143 0.786 0 1.554 0.125 2.286 0.393v-6.679c0-2.464 2.089-4.571 4.554-4.571 2.5 0 4.589 2.071 4.589 4.571v3.018c0.75 0.054 1.464 0.286 2.125 0.661 0.25-0.036 0.518-0.054 0.768-0.054 1.143 0 2.286 0.375 3.179 1.071 3.375-0.036 5.357 2.268 5.357 5.571z"></path>
</svg>
