<!-- Generated by IcoMoon.io -->
<svg version="1.1" xmlns="http://www.w3.org/2000/svg" width="34" height="32" viewBox="0 0 34 32">
<title>hand-spock-o</title>
<path d="M8.196 32c-1.839 0-3.429-1.25-3.875-3.036l-1.804-7.161c-0.143-0.625-0.232-1.286-0.232-1.929 0-0.411 0-0.804-0.089-1.196l-2.071-8.518c-0.089-0.339-0.125-0.679-0.125-1.018 0-2.214 1.679-4.036 3.875-4.268 0.393-2.018 2.125-3.446 4.196-3.446 1.982 0 3.696 1.357 4.161 3.286l1.482 6.214 1.839-7.643c0.464-1.929 2.179-3.286 4.161-3.286 2.125 0 3.875 1.536 4.214 3.607 2.196 0.25 3.786 2.107 3.786 4.304 0 0.339-0.054 0.696-0.125 1.054l-2.196 9.143c1.429-1.071 2.464-2.107 4.339-2.107 2.482 0 4.554 2.018 4.554 4.518 0 1.5-0.732 2.893-1.911 3.786l-9.054 6.786c-0.786 0.589-1.75 0.911-2.732 0.911h-12.393zM19.714 2.286c-0.911 0-1.714 0.643-1.929 1.536l-2.929 12.179h-2.268l-2.589-10.75c-0.214-0.893-1.018-1.536-1.929-1.536-1.143 0-2 0.911-2 2.018 0 0.179 0.018 0.339 0.054 0.5l2.357 9.768h-0.464l-1.768-7.286c-0.214-0.875-1.018-1.571-1.946-1.571-1.107 0-2.018 0.893-2.018 2 0 0.161 0.018 0.321 0.054 0.464l2.071 8.536c0.25 1.036 0.071 2.071 0.339 3.107l1.786 7.161c0.196 0.768 0.875 1.304 1.661 1.304h12.393c0.482 0 0.964-0.161 1.357-0.464l9.054-6.768c0.607-0.464 1-1.196 1-1.964 0-1.25-1.036-2.232-2.268-2.232-0.5 0-0.982 0.161-1.375 0.464l-5.482 4.107v-4.054c0-0.143 2.304-9.607 2.482-10.375 0.036-0.161 0.071-0.339 0.071-0.518 0-1.107-0.839-2.054-1.982-2.054-0.929 0-1.732 0.643-1.946 1.536l-2.071 8.607h-0.464l2.679-11.143c0.036-0.161 0.054-0.339 0.054-0.5 0-1.125-0.821-2.071-1.982-2.071z"></path>
</svg>
