<!-- Generated by IcoMoon.io -->
<svg version="1.1" xmlns="http://www.w3.org/2000/svg" width="27" height="32" viewBox="0 0 27 32">
<title>hand-peace-o</title>
<path d="M23 11.554c0.661 0 1.321 0.125 1.911 0.411 1.714 0.768 2.518 2.179 2.518 4.036v3.161c0 1.125-0.143 2.25-0.411 3.321l-1.518 6.054c-0.5 2.036-2.321 3.464-4.429 3.464h-11.929c-2.518 0-4.571-2.054-4.571-4.571v-7.161l-4.268-11.214c-0.196-0.518-0.304-1.071-0.304-1.625 0-2.518 2.054-4.571 4.571-4.571 1.893 0 3.607 1.179 4.268 2.946l0.304 0.786v-2.018c0-2.518 2.054-4.571 4.571-4.571s4.571 2.054 4.571 4.571v4.661c0.286-0.054 0.571-0.089 0.857-0.089 1.643 0 3.143 0.946 3.857 2.411zM19.143 11.429c-0.786 0-1.5 0.464-1.821 1.179l-1.321 2.911-1.268 2.768h0.982c1.196 0 2.25 0.839 2.5 2l2.75-6.036c0.125-0.25 0.179-0.536 0.179-0.821 0-1.107-0.893-2-2-2zM23.089 13.839c-1.357 0-1.786 1.089-2.268 2.161l-2.357 5.179c-0.125 0.25-0.179 0.536-0.179 0.821 0 1.107 0.893 2 2 2 0.786 0 1.5-0.464 1.821-1.179l2.857-6.286c0.089-0.179 0.161-0.464 0.161-0.679 0-1.196-0.857-2.018-2.036-2.018zM2.286 7.429c0 0.286 0.054 0.554 0.143 0.821l4.429 11.607v1.232l1.821-1.982c0.482-0.518 1.179-0.821 1.893-0.821h3.536l1.893-4.161v-9.554c0-1.268-1.018-2.286-2.286-2.286s-2.286 1.018-2.286 2.286v11.429h-1.143l-3.571-9.393c-0.339-0.875-1.196-1.464-2.143-1.464-1.268 0-2.286 1.036-2.286 2.286zM21.071 29.714c1.054 0 1.964-0.714 2.214-1.732l1.518-6.054c0.232-0.893 0.339-1.839 0.339-2.768v-1.625l-2.518 5.536c-0.411 0.911-1.339 1.5-2.339 1.5-1.25 0-2.339-0.911-2.536-2.161-0.482 0.625-1.232 1.018-2.036 1.018h-3.714v-0.571h3.714c1.089 0 2.071-0.893 2.071-2 0-1.089-0.821-2-1.929-2h-5.286c-0.554 0-1.089 0.232-1.464 0.643l-2.25 2.429v5.5c0 1.268 1.018 2.286 2.286 2.286h11.929z"></path>
</svg>
