<!-- Generated by IcoMoon.io -->
<svg version="1.1" xmlns="http://www.w3.org/2000/svg" width="27" height="32" viewBox="0 0 27 32">
<title>hdd-o</title>
<path d="M18.571 21.714c0 0.786-0.643 1.429-1.429 1.429s-1.429-0.643-1.429-1.429 0.643-1.429 1.429-1.429 1.429 0.643 1.429 1.429zM23.143 21.714c0 0.786-0.643 1.429-1.429 1.429s-1.429-0.643-1.429-1.429 0.643-1.429 1.429-1.429 1.429 0.643 1.429 1.429zM25.143 24.571v-5.714c0-0.304-0.268-0.571-0.571-0.571h-21.714c-0.304 0-0.571 0.268-0.571 0.571v5.714c0 0.304 0.268 0.571 0.571 0.571h21.714c0.304 0 0.571-0.268 0.571-0.571zM3.179 16h21.071l-2.804-8.607c-0.089-0.304-0.429-0.536-0.75-0.536h-13.964c-0.321 0-0.661 0.232-0.75 0.536zM27.429 18.857v5.714c0 1.571-1.286 2.857-2.857 2.857h-21.714c-1.571 0-2.857-1.286-2.857-2.857v-5.714c0-0.482 0.143-0.893 0.286-1.339l3.518-10.821c0.411-1.25 1.607-2.125 2.929-2.125h13.964c1.321 0 2.518 0.875 2.929 2.125l3.518 10.821c0.143 0.446 0.286 0.857 0.286 1.339z"></path>
</svg>
