<!-- Generated by IcoMoon.io -->
<svg version="1.1" xmlns="http://www.w3.org/2000/svg" width="27" height="32" viewBox="0 0 27 32">
<title>hourglass-3</title>
<path d="M25.143 2.286c0 6.607-3.161 11.393-6.661 13.714 3.5 2.321 6.661 7.107 6.661 13.714h1.714c0.321 0 0.571 0.25 0.571 0.571v1.143c0 0.321-0.25 0.571-0.571 0.571h-26.286c-0.321 0-0.571-0.25-0.571-0.571v-1.143c0-0.321 0.25-0.571 0.571-0.571h1.714c0-6.607 3.161-11.393 6.661-13.714-3.5-2.321-6.661-7.107-6.661-13.714h-1.714c-0.321 0-0.571-0.25-0.571-0.571v-1.143c0-0.321 0.25-0.571 0.571-0.571h26.286c0.321 0 0.571 0.25 0.571 0.571v1.143c0 0.321-0.25 0.571-0.571 0.571h-1.714zM15.607 14.929c3.607-1.357 7.25-6.125 7.25-12.643h-18.286c0 6.518 3.643 11.286 7.25 12.643 0.446 0.161 0.75 0.589 0.75 1.071s-0.304 0.911-0.75 1.071c-1.536 0.571-3.089 1.786-4.357 3.5h12.5c-1.268-1.714-2.821-2.929-4.357-3.5-0.446-0.161-0.75-0.589-0.75-1.071s0.304-0.911 0.75-1.071z"></path>
</svg>
