<!-- Generated by IcoMoon.io -->
<svg version="1.1" xmlns="http://www.w3.org/2000/svg" width="27" height="32" viewBox="0 0 27 32">
<title>instagram</title>
<path d="M18.286 16c0-2.518-2.054-4.571-4.571-4.571s-4.571 2.054-4.571 4.571 2.054 4.571 4.571 4.571 4.571-2.054 4.571-4.571zM20.75 16c0 3.893-3.143 7.036-7.036 7.036s-7.036-3.143-7.036-7.036 3.143-7.036 7.036-7.036 7.036 3.143 7.036 7.036zM22.679 8.679c0 0.911-0.732 1.643-1.643 1.643s-1.643-0.732-1.643-1.643 0.732-1.643 1.643-1.643 1.643 0.732 1.643 1.643zM13.714 4.75c-2 0-6.286-0.161-8.089 0.554-0.625 0.25-1.089 0.554-1.571 1.036s-0.786 0.946-1.036 1.571c-0.714 1.804-0.554 6.089-0.554 8.089s-0.161 6.286 0.554 8.089c0.25 0.625 0.554 1.089 1.036 1.571s0.946 0.786 1.571 1.036c1.804 0.714 6.089 0.554 8.089 0.554s6.286 0.161 8.089-0.554c0.625-0.25 1.089-0.554 1.571-1.036s0.786-0.946 1.036-1.571c0.714-1.804 0.554-6.089 0.554-8.089s0.161-6.286-0.554-8.089c-0.25-0.625-0.554-1.089-1.036-1.571s-0.946-0.786-1.571-1.036c-1.804-0.714-6.089-0.554-8.089-0.554zM27.429 16c0 1.893 0.018 3.768-0.089 5.661-0.107 2.196-0.607 4.143-2.214 5.75s-3.554 2.107-5.75 2.214c-1.893 0.107-3.768 0.089-5.661 0.089s-3.768 0.018-5.661-0.089c-2.196-0.107-4.143-0.607-5.75-2.214s-2.107-3.554-2.214-5.75c-0.107-1.893-0.089-3.768-0.089-5.661s-0.018-3.768 0.089-5.661c0.107-2.196 0.607-4.143 2.214-5.75s3.554-2.107 5.75-2.214c1.893-0.107 3.768-0.089 5.661-0.089s3.768-0.018 5.661 0.089c2.196 0.107 4.143 0.607 5.75 2.214s2.107 3.554 2.214 5.75c0.107 1.893 0.089 3.768 0.089 5.661z"></path>
</svg>
