<!-- Generated by IcoMoon.io -->
<svg version="1.1" xmlns="http://www.w3.org/2000/svg" width="27" height="32" viewBox="0 0 27 32">
<title>joomla</title>
<path d="M19.107 19.161l-2.857 2.857-2.696 2.714-0.536 0.536c-1.571 1.554-3.768 2.089-5.768 1.589-0.375 1.643-1.839 2.857-3.589 2.857-2.018 0-3.661-1.643-3.661-3.679 0-1.732 1.196-3.196 2.821-3.571-0.518-2.018 0.018-4.232 1.589-5.804l0.214-0.214 2.696 2.714-0.196 0.196c-0.893 0.875-0.875 2.304 0 3.196 0.875 0.875 2.304 0.875 3.179 0l0.536-0.536 2.696-2.714 2.875-2.857zM13.018 6.982l0.214 0.214-2.714 2.714-0.214-0.214c-0.875-0.875-2.304-0.875-3.179 0s-0.875 2.321 0 3.196l6.089 6.089-2.696 2.714-2.875-2.857-2.696-2.714-0.536-0.536c-1.643-1.625-2.143-3.964-1.518-6.054-1.643-0.357-2.857-1.821-2.857-3.571 0-2.036 1.643-3.679 3.661-3.679 1.839 0 3.339 1.339 3.625 3.071 1.982-0.464 4.143 0.089 5.696 1.625zM27.429 26.036c0 2.036-1.643 3.679-3.661 3.679-1.786 0-3.268-1.268-3.607-2.946v0c-2.071 0.643-4.446 0.143-6.089-1.5l-0.196-0.214 2.696-2.714 0.214 0.214c0.875 0.875 2.304 0.875 3.179 0s0.875-2.304 0-3.179l-6.107-6.107 2.714-2.714 5.571 5.571 0.518 0.536c1.554 1.554 2.107 3.75 1.607 5.75 1.786 0.25 3.161 1.768 3.161 3.625zM27.393 5.964c0 1.857-1.393 3.393-3.179 3.643 0.589 2.054 0.071 4.357-1.554 5.982l-0.214 0.214-2.696-2.714 0.214-0.214c0.875-0.875 0.875-2.304 0-3.179s-2.304-0.875-3.179 0l-6.107 6.107-2.714-2.714 2.875-2.857 2.714-2.714 0.518-0.536c1.625-1.625 3.946-2.143 6.018-1.536 0.25-1.786 1.786-3.161 3.643-3.161 2.018 0 3.661 1.643 3.661 3.679z"></path>
</svg>
