<!-- Generated by IcoMoon.io -->
<svg version="1.1" xmlns="http://www.w3.org/2000/svg" width="32" height="32" viewBox="0 0 32 32">
<title>leaf</title>
<path d="M22.857 12.571c0-0.625-0.518-1.143-1.143-1.143-6.321 0-10.393 2.643-14.518 7.196-0.214 0.232-0.339 0.482-0.339 0.804 0 0.625 0.518 1.143 1.143 1.143 0.321 0 0.571-0.125 0.804-0.339 0.875-0.786 1.661-1.643 2.518-2.446 3.232-2.911 6-4.071 10.393-4.071 0.625 0 1.143-0.518 1.143-1.143zM32 9.036c0 1.143-0.125 2.304-0.357 3.446-1.143 5.554-4.714 9.161-9.679 11.625-2.411 1.214-5.107 1.929-7.821 1.929-1.714 0-3.482-0.286-5.107-0.839-0.857-0.286-2.571-1.411-3.286-1.411-0.893 0-1.964 3.643-3.518 3.643-1.125 0-1.464-0.554-1.946-1.375-0.161-0.304-0.286-0.411-0.286-0.786 0-1.857 3.536-3.304 3.536-4.339 0-0.161-0.464-1.107-0.536-1.464-0.107-0.607-0.161-1.232-0.161-1.857 0-5.679 4.518-9.732 9.589-11.411 3.661-1.214 11.446 0.196 13.929-2.161 0.982-0.911 1.464-1.75 2.964-1.75 2.018 0 2.679 5.232 2.679 6.75z"></path>
</svg>
