<!-- Generated by IcoMoon.io -->
<svg version="1.1" xmlns="http://www.w3.org/2000/svg" width="37" height="32" viewBox="0 0 37 32">
<title>leanpub</title>
<path d="M33.804 7l2.768 22.714c-1.661 0-3.089-0.339-4.589-1.018-2.232-1.018-4.554-1.625-7.018-1.625-2.536 0-4.875 0.839-6.679 2.643-1.804-1.804-4.143-2.643-6.679-2.643-2.464 0-4.786 0.607-7.018 1.625-1.446 0.643-2.911 1.018-4.5 1.018h-0.089l2.768-22.714c2.554-1.446 5.661-2.268 8.607-2.268 2.411 0 4.893 0.5 6.911 1.893 2.018-1.393 4.5-1.893 6.911-1.893 2.946 0 6.054 0.821 8.607 2.268zM24.964 24.625c3.393 0 5.714 0.911 8.786 2.179l-2.214-18.232c-2-0.911-4.375-1.393-6.571-1.393-2.5 0-4.839 0.786-6.679 2.518-1.839-1.732-4.179-2.518-6.679-2.518-2.196 0-4.571 0.482-6.571 1.393l-2.214 18.232c3.071-1.268 5.393-2.179 8.786-2.179 2.446 0 4.607 0.625 6.679 1.929 2.071-1.304 4.232-1.929 6.679-1.929zM25.679 24.018l-0.982-16.196c-2.571 0.054-4.607 0.929-6.411 2.768-1.875-1.911-4-2.768-6.679-2.768-2 0-4.143 0.411-6 1.179l-2.036 16.804c2.696-1.107 5.071-1.804 8.036-1.804 2.357 0 4.661 0.571 6.679 1.821 2.018-1.25 4.321-1.875 6.679-1.821z"></path>
</svg>
