<!-- Generated by IcoMoon.io -->
<svg version="1.1" xmlns="http://www.w3.org/2000/svg" width="32" height="32" viewBox="0 0 32 32">
<title>lightning4</title>
<path d="M32 8.427c0-3.072-2.5-5.57-5.573-5.57-0.15 0-0.298 0.005-0.447 0.017-1.445-1.802-3.624-2.874-5.98-2.874-2.355 0-4.535 1.072-5.98 2.874-0.148-0.012-0.298-0.017-0.449-0.017-3.070 0-5.57 2.499-5.57 5.57 0 0.322 0.043 0.633 0.094 0.94-0.034 0.044-0.074 0.085-0.107 0.13-0.327-0.047-0.655-0.070-0.987-0.070-3.859 0-7 3.141-7 7s3.141 7 7 7c0.856 0 1.693-0.156 2.482-0.458 1.147 1 2.507 1.684 3.95 2.076l-1.432 0.956 2 2-2 4 6-4-2-2 0.301-0.599c2.297-0.070 4.484-0.921 6.217-2.432 0.789 0.302 1.626 0.458 2.482 0.458 3.859 0 7-3.141 7-7 0-1.604-0.565-3.068-1.479-4.25 0.911-0.992 1.479-2.301 1.479-3.75z"></path>
</svg>
