<!-- Generated by IcoMoon.io -->
<svg version="1.1" xmlns="http://www.w3.org/2000/svg" width="32" height="32" viewBox="0 0 32 32">
<title>lightning2</title>
<path d="M12 24l2 2-2 6 6-6-2-2 2-4-6 4zM32 8.427c0-3.072-2.5-5.57-5.573-5.57-0.15 0-0.298 0.005-0.447 0.017-1.445-1.802-3.624-2.874-5.98-2.874-2.355 0-4.535 1.072-5.98 2.874-0.148-0.012-0.298-0.017-0.449-0.017-3.070 0-5.57 2.499-5.57 5.57 0 0.322 0.043 0.633 0.094 0.94-0.034 0.044-0.074 0.085-0.107 0.13-0.327-0.047-0.655-0.070-0.987-0.070-3.859 0-7 3.141-7 7s3.141 7 7 7c0.856 0 1.693-0.156 2.482-0.458 0.069 0.060 0.151 0.102 0.221 0.16l1.77-1.18c-0.59-0.418-1.141-0.883-1.602-1.438-0.813 0.572-1.801 0.915-2.871 0.915-2.762 0-5-2.237-5-5 0-2.76 2.238-5 5-5 0.676 0 1.316 0.138 1.902 0.38 0.035-0.068 0.078-0.125 0.113-0.19 0.352-0.642 0.785-1.229 1.292-1.753 1.443-1.493 3.448-2.438 5.693-2.438 3.107 0 5.771 1.792 7.096 4.38 0.353-0.146 0.729-0.24 1.117-0.302l0.787-0.078c0.771 0 1.492 0.19 2.145 0.5 0.707 0.339 1.314 0.836 1.79 1.45 0.656 0.845 1.065 1.896 1.065 3.050 0 2.763-2.238 5-5 5-1.070 0-2.057-0.344-2.871-0.915-0.875 1.055-2.027 1.848-3.322 2.348l-0.374 0.746 1.141 1.141c1.066-0.415 2.064-1.012 2.944-1.777 0.789 0.302 1.626 0.458 2.482 0.458 3.859 0 7-3.141 7-7 0-1.604-0.565-3.068-1.479-4.25 0.911-0.992 1.479-2.301 1.479-3.75zM29.098 10.779c-1.155-0.84-2.563-1.352-4.098-1.352-0.332 0-0.66 0.023-0.987 0.070-1.867-2.543-4.814-4.070-8.013-4.070-2.133 0-4.145 0.691-5.809 1.897 0.467-1.428 1.796-2.467 3.379-2.467 0.484 0 0.941 0.098 1.359 0.271 0.949-1.849 2.852-3.128 5.070-3.128s4.122 1.279 5.068 3.128c0.421-0.173 0.88-0.271 1.359-0.271 1.974 0 3.573 1.599 3.573 3.57 0 0.906-0.348 1.723-0.902 2.352z"></path>
</svg>
