<!-- Generated by IcoMoon.io -->
<svg version="1.1" xmlns="http://www.w3.org/2000/svg" width="32" height="32" viewBox="0 0 32 32">
<title>list-ul</title>
<path d="M6.857 25.143c0 1.893-1.536 3.429-3.429 3.429s-3.429-1.536-3.429-3.429 1.536-3.429 3.429-3.429 3.429 1.536 3.429 3.429zM6.857 16c0 1.893-1.536 3.429-3.429 3.429s-3.429-1.536-3.429-3.429 1.536-3.429 3.429-3.429 3.429 1.536 3.429 3.429zM32 23.429v3.429c0 0.304-0.268 0.571-0.571 0.571h-21.714c-0.304 0-0.571-0.268-0.571-0.571v-3.429c0-0.304 0.268-0.571 0.571-0.571h21.714c0.304 0 0.571 0.268 0.571 0.571zM6.857 6.857c0 1.893-1.536 3.429-3.429 3.429s-3.429-1.536-3.429-3.429 1.536-3.429 3.429-3.429 3.429 1.536 3.429 3.429zM32 14.286v3.429c0 0.304-0.268 0.571-0.571 0.571h-21.714c-0.304 0-0.571-0.268-0.571-0.571v-3.429c0-0.304 0.268-0.571 0.571-0.571h21.714c0.304 0 0.571 0.268 0.571 0.571zM32 5.143v3.429c0 0.304-0.268 0.571-0.571 0.571h-21.714c-0.304 0-0.571-0.268-0.571-0.571v-3.429c0-0.304 0.268-0.571 0.571-0.571h21.714c0.304 0 0.571 0.268 0.571 0.571z"></path>
</svg>
