<!-- Generated by IcoMoon.io -->
<svg version="1.1" xmlns="http://www.w3.org/2000/svg" width="32" height="32" viewBox="0 0 32 32">
<title>list-ol</title>
<path d="M6.804 28.929c0 1.964-1.536 3.071-3.393 3.071-1.125 0-2.268-0.375-3.071-1.179l1.018-1.571c0.482 0.446 1.214 0.804 1.893 0.804 0.625 0 1.286-0.304 1.286-1.018 0-1-1.143-1.054-1.875-1l-0.464-1c0.643-0.821 1.232-1.732 2-2.429v-0.018c-0.571 0-1.161 0.036-1.732 0.036v0.946h-1.893v-2.714h5.946v1.571l-1.696 2.054c1.196 0.286 1.982 1.214 1.982 2.446zM6.839 17.732v2.839h-6.464c-0.054-0.321-0.107-0.643-0.107-0.964 0-3.304 4.036-3.804 4.036-5.304 0-0.607-0.375-0.929-0.964-0.929-0.625 0-1.143 0.536-1.446 1.036l-1.518-1.054c0.589-1.232 1.804-1.929 3.161-1.929 1.661 0 3.089 0.982 3.089 2.75 0 2.643-3.875 3.232-3.929 4.625h2.268v-1.071h1.875zM32 23.429v3.429c0 0.304-0.268 0.571-0.571 0.571h-21.714c-0.321 0-0.571-0.268-0.571-0.571v-3.429c0-0.321 0.25-0.571 0.571-0.571h21.714c0.304 0 0.571 0.25 0.571 0.571zM6.857 7.375v1.768h-5.982v-1.768h1.911c0-1.446 0.018-2.893 0.018-4.339v-0.214h-0.036c-0.196 0.393-0.554 0.661-0.893 0.964l-1.268-1.357 2.429-2.268h1.893v7.214h1.929zM32 14.286v3.429c0 0.304-0.268 0.571-0.571 0.571h-21.714c-0.321 0-0.571-0.268-0.571-0.571v-3.429c0-0.321 0.25-0.571 0.571-0.571h21.714c0.304 0 0.571 0.25 0.571 0.571zM32 5.143v3.429c0 0.304-0.268 0.571-0.571 0.571h-21.714c-0.321 0-0.571-0.268-0.571-0.571v-3.429c0-0.304 0.25-0.571 0.571-0.571h21.714c0.304 0 0.571 0.268 0.571 0.571z"></path>
</svg>
