<!-- Generated by IcoMoon.io -->
<svg version="1.1" xmlns="http://www.w3.org/2000/svg" width="33" height="32" viewBox="0 0 33 32">
<title>long-arrow-left</title>
<path d="M32 14.286v3.429c0 0.321-0.25 0.571-0.571 0.571h-22.286v4c0 0.232-0.125 0.429-0.339 0.518s-0.446 0.054-0.625-0.089l-6.857-6.25c-0.107-0.107-0.179-0.25-0.179-0.411v0c0-0.161 0.071-0.321 0.179-0.429l6.857-6.321c0.179-0.161 0.411-0.196 0.625-0.107 0.196 0.089 0.339 0.286 0.339 0.518v4h22.286c0.321 0 0.571 0.25 0.571 0.571z"></path>
</svg>
