<!-- Generated by IcoMoon.io -->
<svg version="1.1" xmlns="http://www.w3.org/2000/svg" width="32" height="32" viewBox="0 0 32 32">
<title>low-vision</title>
<path d="M5.982 24.214c-0.036 0-0.071-0.018-0.107-0.036-2.089-1.393-4.179-3.679-5.5-5.804-0.25-0.357-0.375-0.786-0.375-1.232 0-0.929 0.643-1.679 1.161-2.375 2.071-2.821 4.839-5.143 8.071-6.518-0.268-0.482-1.964-3.446-1.964-3.768 0-0.214 0.125-0.411 0.304-0.518 0.357-0.196 1.964-1.143 2.286-1.143 0.196 0 0.393 0.107 0.5 0.286l2.214 4.089c1.125-0.232 2.286-0.339 3.429-0.339 6.464 0 12.214 3.661 15.643 9.054 0.232 0.357 0.357 0.786 0.357 1.232s-0.125 0.875-0.357 1.232c-2.125 3.339-5.232 6.107-8.875 7.661 0.268 0.482 1.964 3.446 1.964 3.768 0 0.214-0.107 0.411-0.304 0.518-0.357 0.196-1.964 1.143-2.268 1.143-0.214 0-0.411-0.107-0.518-0.286l-2.214-4.089-1.143-2.125-7.929-14.643 0.125-0.125c-0.607 0.25-1.196 0.518-1.768 0.839 0.214 0.411 8.732 16.054 8.732 16.179 0 0.089-0.071 0.143-0.161 0.161-0.393 0.089-0.893 0.054-1.286 0.054-0.196 0-1 0.036-1.071-0.125l-8.143-15.018c-0.518 0.375-1 0.786-1.464 1.214 0.393 0.696 7.214 13.25 7.214 13.357 0 0.143-0.089 0.179-0.196 0.179-0.304 0-2.679-0.732-2.768-0.893l-1.893-3.518-4-7.375c-0.5 0.607-0.964 1.232-1.393 1.893 0.232 0.339 0.536 0.696 0.732 1.054 0.25 0.464 3.143 5.732 3.143 5.839 0 0.089-0.089 0.179-0.179 0.179zM20.804 22.393l0.875 1.625c3.339-1.357 6.089-3.857 8.036-6.875-1.982-3.054-4.804-5.589-8.196-6.946 1.589 1.518 2.482 3.607 2.482 5.804 0 2.518-1.179 4.893-3.196 6.393zM15.143 11.429c0 0.464 0.393 0.857 0.857 0.857 0.982 0 1.929 0.393 2.625 1.089s1.089 1.643 1.089 2.625c0 0.464 0.393 0.857 0.857 0.857s0.857-0.393 0.857-0.857c0-3-2.429-5.429-5.429-5.429-0.464 0-0.857 0.393-0.857 0.857zM21.679 10.268l-0.161-0.071 0.125 0.125z"></path>
</svg>
