<!-- Generated by IcoMoon.io -->
<svg version="1.1" xmlns="http://www.w3.org/2000/svg" width="30" height="32" viewBox="0 0 30 32">
<title>magic</title>
<path d="M21.25 10.375l5.232-5.232-1.911-1.911-5.232 5.232zM29.232 5.143c0 0.304-0.107 0.589-0.321 0.804l-22.964 22.964c-0.214 0.214-0.5 0.321-0.804 0.321s-0.589-0.107-0.804-0.321l-3.536-3.536c-0.214-0.214-0.321-0.5-0.321-0.804s0.107-0.589 0.321-0.804l22.964-22.964c0.214-0.214 0.5-0.321 0.804-0.321s0.589 0.107 0.804 0.321l3.536 3.536c0.214 0.214 0.321 0.5 0.321 0.804zM5.107 1.75l1.75 0.536-1.75 0.536-0.536 1.75-0.536-1.75-1.75-0.536 1.75-0.536 0.536-1.75zM11.357 4.643l3.5 1.071-3.5 1.071-1.071 3.5-1.071-3.5-3.5-1.071 3.5-1.071 1.071-3.5zM27.964 13.179l1.75 0.536-1.75 0.536-0.536 1.75-0.536-1.75-1.75-0.536 1.75-0.536 0.536-1.75zM16.536 1.75l1.75 0.536-1.75 0.536-0.536 1.75-0.536-1.75-1.75-0.536 1.75-0.536 0.536-1.75z"></path>
</svg>
