<!-- Generated by IcoMoon.io -->
<svg version="1.1" xmlns="http://www.w3.org/2000/svg" width="18" height="32" viewBox="0 0 18 32">
<title>map-pin</title>
<path d="M9.143 19.429c0.786 0 1.554-0.089 2.286-0.268v11.696c0 0.625-0.518 1.143-1.143 1.143h-2.286c-0.625 0-1.143-0.518-1.143-1.143v-11.696c0.732 0.179 1.5 0.268 2.286 0.268zM9.143 0c5.054 0 9.143 4.089 9.143 9.143s-4.089 9.143-9.143 9.143-9.143-4.089-9.143-9.143 4.089-9.143 9.143-9.143zM9.143 4c0.321 0 0.571-0.25 0.571-0.571s-0.25-0.571-0.571-0.571c-3.464 0-6.286 2.821-6.286 6.286 0 0.321 0.25 0.571 0.571 0.571s0.571-0.25 0.571-0.571c0-2.839 2.304-5.143 5.143-5.143z"></path>
</svg>
