<!-- Generated by IcoMoon.io -->
<svg version="1.1" xmlns="http://www.w3.org/2000/svg" width="37" height="32" viewBox="0 0 37 32">
<title>map-o</title>
<path d="M36.071 0.196c0.304 0.214 0.5 0.571 0.5 0.946v25.143c0 0.464-0.286 0.893-0.714 1.054l-11.429 4.571c-0.286 0.125-0.571 0.125-0.857 0l-11-4.393-11 4.393c-0.143 0.071-0.286 0.089-0.429 0.089-0.232 0-0.446-0.071-0.643-0.196-0.304-0.214-0.5-0.571-0.5-0.946v-25.143c0-0.464 0.286-0.893 0.714-1.054l11.429-4.571c0.286-0.125 0.571-0.125 0.857 0l11 4.393 11-4.393c0.357-0.143 0.75-0.107 1.071 0.107zM13.143 2.607v22.679l10.286 4.107v-22.679zM2.286 6.482v22.679l9.714-3.875v-22.679zM34.286 25.518v-22.679l-9.714 3.875v22.679z"></path>
</svg>
