<!-- Generated by IcoMoon.io -->
<svg version="1.1" xmlns="http://www.w3.org/2000/svg" width="32" height="32" viewBox="0 0 32 32">
<title>map1</title>
<path d="M9.143 0c0.304 0 0.571 0.268 0.571 0.571v26.286c0 0.214-0.125 0.411-0.304 0.5l-8.571 4.571c-0.089 0.054-0.179 0.071-0.268 0.071-0.304 0-0.571-0.268-0.571-0.571v-26.286c0-0.214 0.125-0.411 0.304-0.5l8.571-4.571c0.089-0.054 0.179-0.071 0.268-0.071zM31.429 0c0.304 0 0.571 0.268 0.571 0.571v26.286c0 0.214-0.125 0.411-0.304 0.5l-8.571 4.571c-0.089 0.054-0.179 0.071-0.268 0.071-0.304 0-0.571-0.268-0.571-0.571v-26.286c0-0.214 0.125-0.411 0.304-0.5l8.571-4.571c0.089-0.054 0.179-0.071 0.268-0.071zM11.429 0c0.089 0 0.179 0.018 0.25 0.054l9.143 4.571c0.196 0.107 0.321 0.304 0.321 0.518v26.286c0 0.304-0.268 0.571-0.571 0.571-0.089 0-0.179-0.018-0.25-0.054l-9.143-4.571c-0.196-0.107-0.321-0.304-0.321-0.518v-26.286c0-0.304 0.268-0.571 0.571-0.571z"></path>
</svg>
