<!-- Generated by IcoMoon.io -->
<svg version="1.1" xmlns="http://www.w3.org/2000/svg" width="27" height="32" viewBox="0 0 27 32">
<title>meh-o</title>
<path d="M20.571 19.429c0 0.625-0.518 1.143-1.143 1.143h-11.429c-0.625 0-1.143-0.518-1.143-1.143s0.518-1.143 1.143-1.143h11.429c0.625 0 1.143 0.518 1.143 1.143zM11.429 11.429c0 1.268-1.018 2.286-2.286 2.286s-2.286-1.018-2.286-2.286 1.018-2.286 2.286-2.286 2.286 1.018 2.286 2.286zM20.571 11.429c0 1.268-1.018 2.286-2.286 2.286s-2.286-1.018-2.286-2.286 1.018-2.286 2.286-2.286 2.286 1.018 2.286 2.286zM25.143 16c0-6.304-5.125-11.429-11.429-11.429s-11.429 5.125-11.429 11.429 5.125 11.429 11.429 11.429 11.429-5.125 11.429-11.429zM27.429 16c0 7.571-6.143 13.714-13.714 13.714s-13.714-6.143-13.714-13.714 6.143-13.714 13.714-13.714 13.714 6.143 13.714 13.714z"></path>
</svg>
