<!-- Generated by IcoMoon.io -->
<svg version="1.1" xmlns="http://www.w3.org/2000/svg" width="21" height="32" viewBox="0 0 21 32">
<title>mercury</title>
<path d="M14.821 5.643c3.393 1.679 5.75 5.179 5.75 9.214 0 5.286-4 9.643-9.143 10.214v2.357h1.714c0.321 0 0.571 0.25 0.571 0.571v1.143c0 0.321-0.25 0.571-0.571 0.571h-1.714v1.714c0 0.321-0.25 0.571-0.571 0.571h-1.143c-0.321 0-0.571-0.25-0.571-0.571v-1.714h-1.714c-0.321 0-0.571-0.25-0.571-0.571v-1.143c0-0.321 0.25-0.571 0.571-0.571h1.714v-2.357c-5.143-0.571-9.143-4.929-9.143-10.214 0-4.036 2.357-7.536 5.75-9.214-1.875-1.089-3.339-2.804-4.071-4.875-0.143-0.375 0.143-0.768 0.536-0.768h1.232c0.232 0 0.429 0.143 0.518 0.357 1.036 2.482 3.482 4.214 6.321 4.214s5.286-1.732 6.321-4.214c0.089-0.214 0.286-0.357 0.661-0.357h1.089c0.393 0 0.679 0.393 0.536 0.768-0.732 2.071-2.196 3.786-4.071 4.875zM10.286 22.857c4.411 0 8-3.589 8-8s-3.589-8-8-8-8 3.589-8 8 3.589 8 8 8z"></path>
</svg>
