<!-- Generated by IcoMoon.io -->
<svg version="1.1" xmlns="http://www.w3.org/2000/svg" width="27" height="32" viewBox="0 0 27 32">
<title>microchip</title>
<path d="M3.429 22.857v2.286h-2c-0.161 0-0.286-0.125-0.286-0.286v-0.286h-0.857c-0.161 0-0.286-0.125-0.286-0.286v-0.571c0-0.161 0.125-0.286 0.286-0.286h0.857v-0.286c0-0.161 0.125-0.286 0.286-0.286h2zM3.429 18.286v2.286h-2c-0.161 0-0.286-0.125-0.286-0.286v-0.286h-0.857c-0.161 0-0.286-0.125-0.286-0.286v-0.571c0-0.161 0.125-0.286 0.286-0.286h0.857v-0.286c0-0.161 0.125-0.286 0.286-0.286h2zM3.429 13.714v2.286h-2c-0.161 0-0.286-0.125-0.286-0.286v-0.286h-0.857c-0.161 0-0.286-0.125-0.286-0.286v-0.571c0-0.161 0.125-0.286 0.286-0.286h0.857v-0.286c0-0.161 0.125-0.286 0.286-0.286h2zM3.429 9.143v2.286h-2c-0.161 0-0.286-0.125-0.286-0.286v-0.286h-0.857c-0.161 0-0.286-0.125-0.286-0.286v-0.571c0-0.161 0.125-0.286 0.286-0.286h0.857v-0.286c0-0.161 0.125-0.286 0.286-0.286h2zM3.429 4.571v2.286h-2c-0.161 0-0.286-0.125-0.286-0.286v-0.286h-0.857c-0.161 0-0.286-0.125-0.286-0.286v-0.571c0-0.161 0.125-0.286 0.286-0.286h0.857v-0.286c0-0.161 0.125-0.286 0.286-0.286h2zM22.857 1.714v26.286c0 0.946-0.768 1.714-1.714 1.714h-14.857c-0.946 0-1.714-0.768-1.714-1.714v-26.286c0-0.946 0.768-1.714 1.714-1.714h14.857c0.946 0 1.714 0.768 1.714 1.714zM27.429 23.714v0.571c0 0.161-0.125 0.286-0.286 0.286h-0.857v0.286c0 0.161-0.125 0.286-0.286 0.286h-2v-2.286h2c0.161 0 0.286 0.125 0.286 0.286v0.286h0.857c0.161 0 0.286 0.125 0.286 0.286zM27.429 19.143v0.571c0 0.161-0.125 0.286-0.286 0.286h-0.857v0.286c0 0.161-0.125 0.286-0.286 0.286h-2v-2.286h2c0.161 0 0.286 0.125 0.286 0.286v0.286h0.857c0.161 0 0.286 0.125 0.286 0.286zM27.429 14.571v0.571c0 0.161-0.125 0.286-0.286 0.286h-0.857v0.286c0 0.161-0.125 0.286-0.286 0.286h-2v-2.286h2c0.161 0 0.286 0.125 0.286 0.286v0.286h0.857c0.161 0 0.286 0.125 0.286 0.286zM27.429 10v0.571c0 0.161-0.125 0.286-0.286 0.286h-0.857v0.286c0 0.161-0.125 0.286-0.286 0.286h-2v-2.286h2c0.161 0 0.286 0.125 0.286 0.286v0.286h0.857c0.161 0 0.286 0.125 0.286 0.286zM27.429 5.429v0.571c0 0.161-0.125 0.286-0.286 0.286h-0.857v0.286c0 0.161-0.125 0.286-0.286 0.286h-2v-2.286h2c0.161 0 0.286 0.125 0.286 0.286v0.286h0.857c0.161 0 0.286 0.125 0.286 0.286z"></path>
</svg>
