<!-- Generated by IcoMoon.io -->
<svg version="1.1" xmlns="http://www.w3.org/2000/svg" width="25" height="32" viewBox="0 0 25 32">
<title>microphone-slash</title>
<path d="M4.839 16.875l-1.804 1.804c-0.482-1.179-0.75-2.464-0.75-3.821v-2.286c0-0.625 0.518-1.143 1.143-1.143s1.143 0.518 1.143 1.143v2.286c0 0.696 0.107 1.375 0.268 2.018zM24.732 6.125l-6.446 6.446v2.286c0 3.143-2.571 5.714-5.714 5.714-0.679 0-1.339-0.125-1.946-0.339l-1.714 1.714c1.089 0.571 2.339 0.911 3.661 0.911 4.411 0 8-3.589 8-8v-2.286c0-0.625 0.518-1.143 1.143-1.143s1.143 0.518 1.143 1.143v2.286c0 5.286-4 9.643-9.143 10.214v2.357h4.571c0.625 0 1.143 0.518 1.143 1.143s-0.518 1.143-1.143 1.143h-11.429c-0.625 0-1.143-0.518-1.143-1.143s0.518-1.143 1.143-1.143h4.571v-2.357c-1.518-0.161-2.946-0.679-4.196-1.446l-4.536 4.536c-0.232 0.232-0.589 0.232-0.821 0l-1.464-1.464c-0.232-0.232-0.232-0.589 0-0.821l22.036-22.036c0.232-0.232 0.589-0.232 0.821 0l1.464 1.464c0.232 0.232 0.232 0.589 0 0.821zM17.946 3.768l-11.089 11.089v-9.143c0-3.143 2.571-5.714 5.714-5.714 2.464 0 4.571 1.589 5.375 3.768z"></path>
</svg>
