<!-- Generated by IcoMoon.io -->
<svg version="1.1" xmlns="http://www.w3.org/2000/svg" width="25" height="32" viewBox="0 0 25 32">
<title>minus-square-o</title>
<path d="M19.299 15.52v0.961c0 0.27-0.21 0.481-0.481 0.481h-12.494c-0.27 0-0.481-0.21-0.481-0.481v-0.961c0-0.27 0.21-0.481 0.481-0.481h12.494c0.27 0 0.481 0.21 0.481 0.481zM21.221 22.247v-12.494c0-1.321-1.081-2.403-2.403-2.403h-12.494c-1.321 0-2.403 1.081-2.403 2.403v12.494c0 1.321 1.081 2.403 2.403 2.403h12.494c1.321 0 2.403-1.081 2.403-2.403zM23.143 9.753v12.494c0 2.388-1.937 4.325-4.325 4.325h-12.494c-2.388 0-4.325-1.937-4.325-4.325v-12.494c0-2.388 1.937-4.325 4.325-4.325h12.494c2.388 0 4.325 1.937 4.325 4.325z"></path>
</svg>
