<!-- Generated by IcoMoon.io -->
<svg version="1.1" xmlns="http://www.w3.org/2000/svg" width="41" height="32" viewBox="0 0 41 32">
<title>mixcloud</title>
<path d="M29.375 19.607c0-1.429-0.911-2.643-2.161-3.125-0.089 0.554-0.232 1.107-0.411 1.643-0.179 0.571-0.714 0.929-1.286 0.929-0.143 0-0.286-0.018-0.429-0.054-0.732-0.25-1.107-1.018-0.875-1.732 0.268-0.821 0.411-1.679 0.411-2.554 0-4.464-3.643-8.107-8.125-8.107-3.214 0-6.107 1.911-7.393 4.768 1.25 0.321 2.411 0.964 3.357 1.893 0.536 0.536 0.536 1.411 0 1.946s-1.411 0.536-1.946 0c-0.857-0.857-2-1.339-3.214-1.339-2.518 0-4.571 2.036-4.571 4.554s2.054 4.554 4.571 4.554h18.679c1.875 0 3.393-1.518 3.393-3.375zM32.107 19.607c0 3.375-2.75 6.107-6.125 6.107h-18.679c-4.036 0-7.304-3.268-7.304-7.286 0-3.661 2.714-6.679 6.232-7.196 1.482-4.357 5.607-7.357 10.268-7.357 5.625 0 10.268 4.304 10.804 9.786 2.732 0.589 4.804 3.036 4.804 5.946zM36.571 19.607c0 2.036-0.589 4-1.732 5.696-0.268 0.393-0.696 0.589-1.143 0.589v0c-0.268 0-0.536-0.071-0.768-0.232-0.625-0.411-0.786-1.268-0.357-1.893 0.839-1.232 1.268-2.661 1.268-4.161 0-1.482-0.429-2.929-1.268-4.161-0.429-0.625-0.268-1.464 0.357-1.893s1.482-0.25 1.911 0.375c1.143 1.679 1.732 3.643 1.732 5.679zM41.143 19.607c0 2.839-0.821 5.571-2.393 7.911-0.268 0.393-0.696 0.607-1.143 0.607v0c-0.25 0-0.518-0.071-0.75-0.232-0.625-0.429-0.804-1.268-0.375-1.893 1.25-1.893 1.929-4.107 1.929-6.393s-0.679-4.5-1.929-6.375c-0.429-0.625-0.25-1.482 0.375-1.893 0.625-0.429 1.464-0.268 1.893 0.375 1.571 2.321 2.393 5.054 2.393 7.893z"></path>
</svg>
