<!-- Generated by IcoMoon.io -->
<svg version="1.1" xmlns="http://www.w3.org/2000/svg" width="34" height="32" viewBox="0 0 34 32">
<title>money1</title>
<path d="M13.714 20.571h6.857v-1.714h-2.286v-8h-2.036l-2.643 2.446 1.375 1.429c0.429-0.375 0.696-0.571 0.982-1.018h0.036v5.143h-2.286v1.714zM22.857 16c0 3.25-1.964 7.429-5.714 7.429s-5.714-4.179-5.714-7.429 1.964-7.429 5.714-7.429 5.714 4.179 5.714 7.429zM32 20.571v-9.143c-2.518 0-4.571-2.054-4.571-4.571h-20.571c0 2.518-2.054 4.571-4.571 4.571v9.143c2.518 0 4.571 2.054 4.571 4.571h20.571c0-2.518 2.054-4.571 4.571-4.571zM34.286 5.714v20.571c0 0.625-0.518 1.143-1.143 1.143h-32c-0.625 0-1.143-0.518-1.143-1.143v-20.571c0-0.625 0.518-1.143 1.143-1.143h32c0.625 0 1.143 0.518 1.143 1.143z"></path>
</svg>
