<!-- Generated by IcoMoon.io -->
<svg version="1.1" xmlns="http://www.w3.org/2000/svg" width="23" height="32" viewBox="0 0 23 32">
<title>odnoklassniki</title>
<path d="M11.429 16.196c-4.464 0-8.107-3.625-8.107-8.089 0-4.482 3.643-8.107 8.107-8.107s8.107 3.625 8.107 8.107c0 4.464-3.643 8.089-8.107 8.089zM11.429 4.107c-2.196 0-3.982 1.786-3.982 4 0 2.196 1.786 3.982 3.982 3.982s3.982-1.786 3.982-3.982c0-2.214-1.786-4-3.982-4zM20.768 17.179c0.786 1.607-0.107 2.375-2.143 3.696-1.714 1.089-4.071 1.518-5.625 1.679l1.304 1.286 4.768 4.768c0.714 0.732 0.714 1.911 0 2.625l-0.214 0.232c-0.732 0.714-1.911 0.714-2.643 0-1.196-1.214-2.946-2.964-4.768-4.786l-4.768 4.786c-0.732 0.714-1.911 0.714-2.625 0l-0.214-0.232c-0.732-0.714-0.732-1.893 0-2.625 1.214-1.214 2.946-2.964 4.768-4.768l1.286-1.286c-1.536-0.161-3.929-0.571-5.661-1.679-2.036-1.321-2.929-2.089-2.143-3.696 0.464-0.911 1.732-1.679 3.411-0.357 0 0 2.268 1.804 5.929 1.804s5.929-1.804 5.929-1.804c1.679-1.321 2.946-0.554 3.411 0.357z"></path>
</svg>
