<!-- Generated by IcoMoon.io -->
<svg version="1.1" xmlns="http://www.w3.org/2000/svg" width="27" height="32" viewBox="0 0 27 32">
<title>odnoklassniki-square</title>
<path d="M16.554 10.357c0 1.571-1.268 2.839-2.839 2.839s-2.839-1.268-2.839-2.839 1.268-2.839 2.839-2.839 2.839 1.268 2.839 2.839zM20.375 16.839c-0.321-0.643-1.232-1.196-2.429-0.25 0 0-1.625 1.286-4.232 1.286s-4.232-1.286-4.232-1.286c-1.196-0.946-2.107-0.393-2.429 0.25-0.571 1.143 0.071 1.696 1.518 2.643 1.232 0.786 2.946 1.089 4.036 1.196l-0.911 0.929c-1.286 1.286-2.536 2.536-3.411 3.393-0.518 0.518-0.518 1.357 0 1.875l0.161 0.161c0.518 0.518 1.357 0.518 1.875 0l3.411-3.411c1.286 1.304 2.536 2.554 3.411 3.411 0.518 0.518 1.357 0.518 1.875 0l0.161-0.161c0.518-0.518 0.518-1.357 0-1.875l-3.411-3.393-0.929-0.929c1.107-0.107 2.786-0.411 4.018-1.196 1.446-0.946 2.089-1.5 1.518-2.643zM19.5 10.357c0-3.196-2.589-5.786-5.786-5.786s-5.786 2.589-5.786 5.786 2.589 5.786 5.786 5.786 5.786-2.589 5.786-5.786zM27.429 7.429v17.143c0 2.839-2.304 5.143-5.143 5.143h-17.143c-2.839 0-5.143-2.304-5.143-5.143v-17.143c0-2.839 2.304-5.143 5.143-5.143h17.143c2.839 0 5.143 2.304 5.143 5.143z"></path>
</svg>
