<!-- Generated by IcoMoon.io -->
<svg version="1.1" xmlns="http://www.w3.org/2000/svg" width="32" height="32" viewBox="0 0 32 32">
<title>paint-brush</title>
<path d="M28.839 0c1.625 0 3.125 1.214 3.125 2.911 0 0.946-0.375 1.857-0.804 2.696-1.393 2.643-6.071 11.375-8.304 13.429-1.089 1.018-2.375 1.625-3.893 1.625-3.018 0-5.482-2.571-5.482-5.571 0-1.429 0.589-2.821 1.643-3.786l11.393-10.339c0.625-0.571 1.446-0.964 2.321-0.964zM12.607 18.464c0.929 1.804 2.625 3.161 4.589 3.679l0.018 1.268c0.107 5.089-3.429 8.589-8.536 8.589-6.054 0-8.679-4.821-8.679-10.304 0.661 0.446 2.964 2.286 3.714 2.286 0.446 0 0.821-0.25 0.982-0.661 1.518-3.964 3.893-4.679 7.911-4.857z"></path>
</svg>
