<!-- Generated by IcoMoon.io -->
<svg version="1.1" xmlns="http://www.w3.org/2000/svg" width="27" height="32" viewBox="0 0 27 32">
<title>pause-circle</title>
<path d="M12.571 21.143v-10.286c0-0.321-0.25-0.571-0.571-0.571h-4.571c-0.321 0-0.571 0.25-0.571 0.571v10.286c0 0.321 0.25 0.571 0.571 0.571h4.571c0.321 0 0.571-0.25 0.571-0.571zM20.571 21.143v-10.286c0-0.321-0.25-0.571-0.571-0.571h-4.571c-0.321 0-0.571 0.25-0.571 0.571v10.286c0 0.321 0.25 0.571 0.571 0.571h4.571c0.321 0 0.571-0.25 0.571-0.571zM27.429 16c0 7.571-6.143 13.714-13.714 13.714s-13.714-6.143-13.714-13.714 6.143-13.714 13.714-13.714 13.714 6.143 13.714 13.714z"></path>
</svg>
