<!-- Generated by IcoMoon.io -->
<svg version="1.1" xmlns="http://www.w3.org/2000/svg" width="30" height="32" viewBox="0 0 30 32">
<title>paw</title>
<path d="M13.929 8.429c0 2-1.036 4.375-3.339 4.375-2.893 0-4.643-3.643-4.643-6.143 0-2 1.036-4.375 3.339-4.375 2.911 0 4.643 3.643 4.643 6.143zM7.821 17.054c0 1.732-0.911 3.536-2.875 3.536-2.857 0-4.946-3.5-4.946-6.089 0-1.732 0.929-3.554 2.875-3.554 2.857 0 4.946 3.518 4.946 6.107zM14.857 16.571c4.375 0 10.286 6.304 10.286 10.518 0 2.268-1.857 2.625-3.679 2.625-2.393 0-4.321-1.607-6.607-1.607-2.393 0-4.429 1.589-7.018 1.589-1.732 0-3.268-0.589-3.268-2.607 0-4.232 5.911-10.518 10.286-10.518zM19.125 12.804c-2.304 0-3.339-2.375-3.339-4.375 0-2.5 1.732-6.143 4.643-6.143 2.304 0 3.339 2.375 3.339 4.375 0 2.5-1.75 6.143-4.643 6.143zM26.839 10.946c1.946 0 2.875 1.821 2.875 3.554 0 2.589-2.089 6.089-4.946 6.089-1.964 0-2.875-1.804-2.875-3.536 0-2.589 2.089-6.107 4.946-6.107z"></path>
</svg>
