<!-- Generated by IcoMoon.io -->
<svg version="1.1" xmlns="http://www.w3.org/2000/svg" width="27" height="32" viewBox="0 0 27 32">
<title>phone-square</title>
<path d="M22.857 21.304c0-0.089 0-0.196-0.036-0.286-0.107-0.321-2.714-1.643-3.214-1.929-0.339-0.196-0.75-0.589-1.161-0.589-0.786 0-1.946 2.339-2.643 2.339-0.357 0-0.804-0.321-1.125-0.5-2.357-1.321-3.982-2.946-5.304-5.304-0.179-0.321-0.5-0.768-0.5-1.125 0-0.696 2.339-1.857 2.339-2.643 0-0.411-0.393-0.821-0.589-1.161-0.286-0.5-1.607-3.107-1.929-3.214-0.089-0.036-0.196-0.036-0.286-0.036-0.464 0-1.375 0.214-1.804 0.393-1.179 0.536-2.036 2.786-2.036 4.018 0 1.196 0.482 2.286 0.893 3.393 1.429 3.911 5.679 8.161 9.589 9.589 1.107 0.411 2.196 0.893 3.393 0.893 1.232 0 3.482-0.857 4.018-2.036 0.179-0.429 0.393-1.339 0.393-1.804zM27.429 7.429v17.143c0 2.839-2.304 5.143-5.143 5.143h-17.143c-2.839 0-5.143-2.304-5.143-5.143v-17.143c0-2.839 2.304-5.143 5.143-5.143h17.143c2.839 0 5.143 2.304 5.143 5.143z"></path>
</svg>
