<!-- Generated by IcoMoon.io -->
<svg version="1.1" xmlns="http://www.w3.org/2000/svg" width="26" height="32" viewBox="0 0 26 32">
<title>plane</title>
<path d="M24.571 2.857c1.143 1.143 0 4-1.714 5.714l-2.875 2.875 2.857 12.429c0.054 0.214-0.036 0.446-0.214 0.589l-2.286 1.714c-0.089 0.071-0.214 0.107-0.339 0.107-0.036 0-0.071 0-0.125-0.018-0.161-0.036-0.304-0.125-0.375-0.286l-4.982-9.071-4.625 4.625 0.946 3.464c0.054 0.196 0 0.393-0.143 0.554l-1.714 1.714c-0.107 0.107-0.268 0.161-0.411 0.161h-0.036c-0.179-0.018-0.321-0.089-0.429-0.232l-3.375-4.5-4.5-3.375c-0.143-0.089-0.214-0.25-0.232-0.411s0.054-0.321 0.161-0.446l1.714-1.732c0.107-0.107 0.268-0.161 0.411-0.161 0.054 0 0.107 0 0.143 0.018l3.464 0.946 4.625-4.625-9.071-4.982c-0.161-0.089-0.268-0.25-0.304-0.429-0.018-0.161 0.036-0.357 0.161-0.482l2.286-2.286c0.143-0.125 0.357-0.196 0.536-0.143l11.875 2.839 2.857-2.857c1.714-1.714 4.571-2.857 5.714-1.714z"></path>
</svg>
