<!-- Generated by IcoMoon.io -->
<svg version="1.1" xmlns="http://www.w3.org/2000/svg" width="27" height="32" viewBox="0 0 27 32">
<title>play-circle-o</title>
<path d="M21.143 16c0 0.411-0.214 0.786-0.571 0.982l-9.714 5.714c-0.179 0.107-0.375 0.161-0.571 0.161s-0.393-0.054-0.571-0.143c-0.357-0.214-0.571-0.589-0.571-1v-11.429c0-0.411 0.214-0.786 0.571-1 0.357-0.196 0.804-0.196 1.143 0.018l9.714 5.714c0.357 0.196 0.571 0.571 0.571 0.982zM23.429 16c0-5.357-4.357-9.714-9.714-9.714s-9.714 4.357-9.714 9.714 4.357 9.714 9.714 9.714 9.714-4.357 9.714-9.714zM27.429 16c0 7.571-6.143 13.714-13.714 13.714s-13.714-6.143-13.714-13.714 6.143-13.714 13.714-13.714 13.714 6.143 13.714 13.714z"></path>
</svg>
