<!-- Generated by IcoMoon.io -->
<svg version="1.1" xmlns="http://www.w3.org/2000/svg" width="32" height="32" viewBox="0 0 32 32">
<title>plug</title>
<path d="M31.339 8.089c0.875 0.893 0.875 2.339 0 3.232l-7.161 7.143 2.679 2.679-2.857 2.857c-3.911 3.911-9.875 4.464-14.304 1.536l-6.464 6.464h-3.232v-3.232l6.464-6.464c-2.929-4.429-2.375-10.393 1.536-14.304l2.857-2.857 2.679 2.679 7.143-7.161c0.893-0.875 2.339-0.875 3.232 0 0.893 0.893 0.893 2.357 0 3.232l-7.143 7.161 4.179 4.179 7.161-7.143c0.893-0.893 2.339-0.893 3.232 0z"></path>
</svg>
