<!-- Generated by IcoMoon.io -->
<svg version="1.1" xmlns="http://www.w3.org/2000/svg" width="25" height="32" viewBox="0 0 25 32">
<title>plus-square-o</title>
<path d="M20.571 14.286v1.143c0 0.321-0.25 0.571-0.571 0.571h-6.286v6.286c0 0.321-0.25 0.571-0.571 0.571h-1.143c-0.321 0-0.571-0.25-0.571-0.571v-6.286h-6.286c-0.321 0-0.571-0.25-0.571-0.571v-1.143c0-0.321 0.25-0.571 0.571-0.571h6.286v-6.286c0-0.321 0.25-0.571 0.571-0.571h1.143c0.321 0 0.571 0.25 0.571 0.571v6.286h6.286c0.321 0 0.571 0.25 0.571 0.571zM22.857 22.286v-14.857c0-1.571-1.286-2.857-2.857-2.857h-14.857c-1.571 0-2.857 1.286-2.857 2.857v14.857c0 1.571 1.286 2.857 2.857 2.857h14.857c1.571 0 2.857-1.286 2.857-2.857zM25.143 7.429v14.857c0 2.839-2.304 5.143-5.143 5.143h-14.857c-2.839 0-5.143-2.304-5.143-5.143v-14.857c0-2.839 2.304-5.143 5.143-5.143h14.857c2.839 0 5.143 2.304 5.143 5.143z"></path>
</svg>
