<!-- Generated by IcoMoon.io -->
<svg version="1.1" xmlns="http://www.w3.org/2000/svg" width="27" height="32" viewBox="0 0 27 32">
<title>power-off</title>
<path d="M27.429 16c0 7.554-6.161 13.714-13.714 13.714s-13.714-6.161-13.714-13.714c0-4.339 2-8.339 5.482-10.946 1.018-0.768 2.446-0.571 3.196 0.446 0.768 1 0.554 2.446-0.446 3.196-2.321 1.75-3.661 4.411-3.661 7.304 0 5.036 4.107 9.143 9.143 9.143s9.143-4.107 9.143-9.143c0-2.893-1.339-5.554-3.661-7.304-1-0.75-1.214-2.196-0.446-3.196 0.75-1.018 2.196-1.214 3.196-0.446 3.482 2.607 5.482 6.607 5.482 10.946zM16 2.286v11.429c0 1.25-1.036 2.286-2.286 2.286s-2.286-1.036-2.286-2.286v-11.429c0-1.25 1.036-2.286 2.286-2.286s2.286 1.036 2.286 2.286z"></path>
</svg>
