<!-- Generated by IcoMoon.io -->
<svg version="1.1" xmlns="http://www.w3.org/2000/svg" width="30" height="32" viewBox="0 0 30 32">
<title>quote-right</title>
<path d="M13.714 5.714v12.571c0 5.036-4.107 9.143-9.143 9.143h-1.143c-0.625 0-1.143-0.518-1.143-1.143v-2.286c0-0.625 0.518-1.143 1.143-1.143h1.143c2.518 0 4.571-2.054 4.571-4.571v-0.571c0-0.946-0.768-1.714-1.714-1.714h-4c-1.893 0-3.429-1.536-3.429-3.429v-6.857c0-1.893 1.536-3.429 3.429-3.429h6.857c1.893 0 3.429 1.536 3.429 3.429zM29.714 5.714v12.571c0 5.036-4.107 9.143-9.143 9.143h-1.143c-0.625 0-1.143-0.518-1.143-1.143v-2.286c0-0.625 0.518-1.143 1.143-1.143h1.143c2.518 0 4.571-2.054 4.571-4.571v-0.571c0-0.946-0.768-1.714-1.714-1.714h-4c-1.893 0-3.429-1.536-3.429-3.429v-6.857c0-1.893 1.536-3.429 3.429-3.429h6.857c1.893 0 3.429 1.536 3.429 3.429z"></path>
</svg>
