<!-- Generated by IcoMoon.io -->
<svg version="1.1" xmlns="http://www.w3.org/2000/svg" width="32" height="32" viewBox="0 0 32 32">
<title>random</title>
<path d="M11.893 8.589c-1 1.536-1.732 3.196-2.446 4.875-1.036-2.161-2.179-4.321-4.875-4.321h-4c-0.321 0-0.571-0.25-0.571-0.571v-3.429c0-0.321 0.25-0.571 0.571-0.571h4c3.179 0 5.518 1.482 7.321 4.018zM32 22.857c0 0.143-0.054 0.304-0.161 0.411l-5.714 5.714c-0.107 0.107-0.268 0.161-0.411 0.161-0.304 0-0.571-0.268-0.571-0.571v-3.429c-5.304 0-8.571 0.625-11.875-4.018 0.982-1.536 1.714-3.196 2.429-4.875 1.036 2.161 2.179 4.321 4.875 4.321h4.571v-3.429c0-0.321 0.25-0.571 0.571-0.571 0.161 0 0.304 0.071 0.429 0.179l5.696 5.696c0.107 0.107 0.161 0.268 0.161 0.411zM32 6.857c0 0.143-0.054 0.304-0.161 0.411l-5.714 5.714c-0.107 0.107-0.268 0.161-0.411 0.161-0.304 0-0.571-0.25-0.571-0.571v-3.429h-4.571c-2.375 0-3.5 1.625-4.5 3.554-0.518 1-0.964 2.036-1.393 3.054-1.982 4.607-4.304 9.393-10.107 9.393h-4c-0.321 0-0.571-0.25-0.571-0.571v-3.429c0-0.321 0.25-0.571 0.571-0.571h4c2.375 0 3.5-1.625 4.5-3.554 0.518-1 0.964-2.036 1.393-3.054 1.982-4.607 4.304-9.393 10.107-9.393h4.571v-3.429c0-0.321 0.25-0.571 0.571-0.571 0.161 0 0.304 0.071 0.429 0.179l5.696 5.696c0.107 0.107 0.161 0.268 0.161 0.411z"></path>
</svg>
