<!-- Generated by IcoMoon.io -->
<svg version="1.1" xmlns="http://www.w3.org/2000/svg" width="32" height="32" viewBox="0 0 32 32">
<title>recycle</title>
<path d="M14.929 20.875l-0.268 6.571-0.036 0.393-7.5-0.518c-0.929-0.071-1.696-0.946-2.036-1.732-0.714-1.661 0.214-3.625 0.75-5.214 0 0 1.375 0.214 9.089 0.5zM8.018 10.411l3.214 6.768-2.625-1.643c-4.018 4.589-4.393 8-4.393 8l-3.393-6.375c-0.696-1.036-0.071-2.161-0.071-2.161s0.625-1.125 2.036-3.357l-2.5-1.536zM30 19.643l-3.357 6.411c-0.464 1.161-1.75 1.268-1.75 1.268s-1.268 0.125-3.911 0.214l0.143 2.929-4.107-6.554 3.768-6.464 0.125 3.089c6.054 0.732 9.089-0.893 9.089-0.893zM15.982 3.143c0 0-0.839 1.107-4.732 7.768l-5.661-3.339-0.339-0.214 4.018-6.357c0.5-0.786 1.625-1.071 2.5-0.982 1.786 0.161 3.071 1.893 4.214 3.125zM27.679 8.625l3.786 6.482c0.482 0.804 0.196 1.929-0.268 2.679-0.964 1.5-3.107 1.857-4.714 2.304 0 0-0.607-1.268-4.732-7.786l5.589-3.482zM25.125 4.589l2.536-1.482-3.929 6.661-7.482-0.357 2.696-1.536c-2.143-5.696-4.982-7.661-4.982-7.661l7.232 0.018c1.25-0.107 1.929 0.964 1.929 0.964s0.696 1.089 2 3.393z"></path>
</svg>
