<!-- Generated by IcoMoon.io -->
<svg version="1.1" xmlns="http://www.w3.org/2000/svg" width="27" height="32" viewBox="0 0 27 32">
<title>repeat1</title>
<path d="M27.429 4.571v8c0 0.625-0.518 1.143-1.143 1.143h-8c-0.464 0-0.875-0.286-1.054-0.714-0.179-0.411-0.089-0.911 0.25-1.232l2.464-2.464c-1.679-1.554-3.893-2.446-6.232-2.446-5.036 0-9.143 4.107-9.143 9.143s4.107 9.143 9.143 9.143c2.839 0 5.464-1.286 7.214-3.554 0.089-0.125 0.25-0.196 0.411-0.214 0.161 0 0.321 0.054 0.446 0.161l2.446 2.464c0.214 0.196 0.214 0.536 0.036 0.768-2.607 3.143-6.464 4.946-10.554 4.946-7.554 0-13.714-6.161-13.714-13.714s6.161-13.714 13.714-13.714c3.518 0 6.929 1.411 9.446 3.786l2.321-2.304c0.321-0.339 0.821-0.429 1.25-0.25 0.411 0.179 0.696 0.589 0.696 1.054z"></path>
</svg>
