<!-- Generated by IcoMoon.io -->
<svg version="1.1" xmlns="http://www.w3.org/2000/svg" width="34" height="32" viewBox="0 0 34 32">
<title>retweet</title>
<path d="M22.857 26.857c0 0.304-0.268 0.571-0.571 0.571h-17.143c-0.661 0-0.571-0.696-0.571-1.143v-10.286h-3.429c-0.625 0-1.143-0.518-1.143-1.143 0-0.268 0.089-0.536 0.268-0.732l5.714-6.857c0.214-0.25 0.536-0.393 0.875-0.393s0.661 0.143 0.875 0.393l5.714 6.857c0.179 0.196 0.268 0.464 0.268 0.732 0 0.625-0.518 1.143-1.143 1.143h-3.429v6.857h10.286c0.161 0 0.339 0.071 0.446 0.196l2.857 3.429c0.071 0.107 0.125 0.25 0.125 0.375zM34.286 19.429c0 0.268-0.089 0.536-0.268 0.732l-5.714 6.857c-0.214 0.25-0.536 0.411-0.875 0.411s-0.661-0.161-0.875-0.411l-5.714-6.857c-0.179-0.196-0.268-0.464-0.268-0.732 0-0.625 0.518-1.143 1.143-1.143h3.429v-6.857h-10.286c-0.161 0-0.339-0.071-0.446-0.214l-2.857-3.429c-0.071-0.089-0.125-0.232-0.125-0.357 0-0.304 0.268-0.571 0.571-0.571h17.143c0.661 0 0.571 0.696 0.571 1.143v10.286h3.429c0.625 0 1.143 0.518 1.143 1.143z"></path>
</svg>
