<!-- Generated by IcoMoon.io -->
<svg version="1.1" xmlns="http://www.w3.org/2000/svg" width="34" height="32" viewBox="0 0 34 32">
<title>road</title>
<path d="M19.839 17.786v-0.071l-0.429-5.714c-0.018-0.321-0.304-0.571-0.607-0.571h-3.321c-0.304 0-0.589 0.25-0.607 0.571l-0.429 5.714v0.071c-0.018 0.286 0.25 0.5 0.518 0.5h4.357c0.268 0 0.536-0.214 0.518-0.5zM33.393 26.125c0 0.518-0.143 1.304-0.821 1.304h-12.571c0.304 0 0.554-0.25 0.536-0.571l-0.357-4.571c-0.018-0.321-0.304-0.571-0.607-0.571h-4.857c-0.304 0-0.589 0.25-0.607 0.571l-0.357 4.571c-0.018 0.321 0.232 0.571 0.536 0.571h-12.571c-0.679 0-0.821-0.786-0.821-1.304 0-0.714 0.196-1.429 0.464-2.071l7.446-18.643c0.179-0.446 0.661-0.839 1.143-0.839h6.054c-0.304 0-0.589 0.25-0.607 0.571l-0.268 3.429c-0.018 0.321 0.214 0.571 0.536 0.571h2.964c0.321 0 0.554-0.25 0.536-0.571l-0.268-3.429c-0.018-0.321-0.304-0.571-0.607-0.571h6.054c0.482 0 0.964 0.393 1.143 0.839l7.446 18.643c0.268 0.643 0.464 1.357 0.464 2.071z"></path>
</svg>
