<!-- Generated by IcoMoon.io -->
<svg version="1.1" xmlns="http://www.w3.org/2000/svg" width="30" height="32" viewBox="0 0 30 32">
<title>rocket</title>
<path d="M25.714 8c0-0.946-0.768-1.714-1.714-1.714s-1.714 0.768-1.714 1.714 0.768 1.714 1.714 1.714 1.714-0.768 1.714-1.714zM29.714 2.857c0 5.929-1.643 9.875-5.875 14.125-1.036 1.018-2.214 2.071-3.482 3.143l-0.357 6.768c-0.018 0.179-0.125 0.357-0.286 0.464l-6.857 4c-0.089 0.054-0.179 0.071-0.286 0.071-0.143 0-0.286-0.054-0.411-0.161l-1.143-1.143c-0.143-0.161-0.196-0.375-0.143-0.571l1.518-4.929-5.018-5.018-4.929 1.518c-0.054 0.018-0.107 0.018-0.161 0.018-0.143 0-0.304-0.054-0.411-0.161l-1.143-1.143c-0.179-0.196-0.214-0.482-0.089-0.696l4-6.857c0.107-0.161 0.286-0.268 0.464-0.286l6.768-0.357c1.071-1.268 2.125-2.446 3.143-3.482 4.464-4.446 7.875-5.875 14.089-5.875 0.321 0 0.607 0.25 0.607 0.571z"></path>
</svg>
