<!-- Generated by IcoMoon.io -->
<svg version="1.1" xmlns="http://www.w3.org/2000/svg" width="37" height="32" viewBox="0 0 37 32">
<title>sellsy</title>
<path d="M26.786 24.482v-13.089c0-0.5-0.411-0.911-0.893-0.911h-1.661c-0.482 0-0.893 0.411-0.893 0.911v13.089c0 0.482 0.411 0.893 0.893 0.893h1.661c0.482 0 0.893-0.411 0.893-0.893zM21.714 24.482v-9.482c0-0.482-0.411-0.893-0.893-0.893h-1.804c-0.482 0-0.893 0.411-0.893 0.893v9.482c0 0.482 0.411 0.893 0.893 0.893h1.804c0.482 0 0.893-0.411 0.893-0.893zM16.5 24.482v-7.661c0-0.482-0.411-0.893-0.893-0.893h-1.804c-0.482 0-0.893 0.411-0.893 0.893v7.661c0 0.482 0.411 0.893 0.893 0.893h1.804c0.482 0 0.893-0.411 0.893-0.893zM11.286 24.482v-6.464c0-0.482-0.411-0.893-0.893-0.893h-1.804c-0.482 0-0.893 0.411-0.893 0.893v6.464c0 0.482 0.411 0.893 0.893 0.893h1.804c0.482 0 0.893-0.411 0.893-0.893zM36.571 21.875c0 3.964-3.232 7.179-7.179 7.179h-22.214c-3.946 0-7.179-3.214-7.179-7.179 0-2.768 1.625-5.304 4.125-6.482-0.125-0.429-0.179-0.875-0.179-1.304 0-2.696 2.196-4.893 4.893-4.893 1.179 0 2.321 0.429 3.214 1.196 1.071-4.357 5-7.446 9.5-7.446 5.393 0 9.786 4.393 9.786 9.786 0 0.732-0.071 1.464-0.25 2.179 3.214 0.786 5.482 3.679 5.482 6.964z"></path>
</svg>
