<!-- Generated by IcoMoon.io -->
<svg version="1.1" xmlns="http://www.w3.org/2000/svg" width="27" height="32" viewBox="0 0 27 32">
<title>share-alt-square</title>
<path d="M22.857 21.339c0-2.107-1.714-3.821-3.804-3.821-1 0-1.911 0.393-2.589 1.036l-4.304-2.143c0.018-0.143 0.036-0.268 0.036-0.411s-0.018-0.268-0.036-0.411l4.304-2.143c0.679 0.643 1.589 1.036 2.589 1.036 2.089 0 3.804-1.714 3.804-3.821 0-2.089-1.714-3.804-3.804-3.804-2.107 0-3.821 1.714-3.821 3.804 0 0.143 0.018 0.268 0.036 0.411l-4.304 2.143c-0.679-0.625-1.589-1.018-2.589-1.018-2.089 0-3.804 1.696-3.804 3.804s1.714 3.804 3.804 3.804c1 0 1.911-0.393 2.589-1.018l4.304 2.143c-0.018 0.143-0.036 0.268-0.036 0.411 0 2.089 1.714 3.804 3.821 3.804 2.089 0 3.804-1.714 3.804-3.804zM27.429 7.429v17.143c0 2.839-2.304 5.143-5.143 5.143h-17.143c-2.839 0-5.143-2.304-5.143-5.143v-17.143c0-2.839 2.304-5.143 5.143-5.143h17.143c2.839 0 5.143 2.304 5.143 5.143z"></path>
</svg>
