<!-- Generated by IcoMoon.io -->
<svg version="1.1" xmlns="http://www.w3.org/2000/svg" width="27" height="32" viewBox="0 0 27 32">
<title>share-alt</title>
<path d="M21.714 18.286c3.161 0 5.714 2.554 5.714 5.714s-2.554 5.714-5.714 5.714-5.714-2.554-5.714-5.714c0-0.196 0.018-0.411 0.036-0.607l-6.429-3.214c-1.018 0.946-2.393 1.536-3.893 1.536-3.161 0-5.714-2.554-5.714-5.714s2.554-5.714 5.714-5.714c1.5 0 2.875 0.589 3.893 1.536l6.429-3.214c-0.018-0.196-0.036-0.411-0.036-0.607 0-3.161 2.554-5.714 5.714-5.714s5.714 2.554 5.714 5.714-2.554 5.714-5.714 5.714c-1.5 0-2.875-0.589-3.893-1.536l-6.429 3.214c0.018 0.196 0.036 0.411 0.036 0.607s-0.018 0.411-0.036 0.607l6.429 3.214c1.018-0.946 2.393-1.536 3.893-1.536z"></path>
</svg>
