<!-- Generated by IcoMoon.io -->
<svg version="1.1" xmlns="http://www.w3.org/2000/svg" width="37" height="32" viewBox="0 0 37 32">
<title>ship</title>
<path d="M32.339 27.768c0.446-0.446 1.161-0.446 1.607 0l2.286 2.286-1.607 1.607-1.482-1.482-1.482 1.482c-0.214 0.232-0.518 0.339-0.804 0.339s-0.589-0.107-0.804-0.339l-1.482-1.482-1.482 1.482c-0.446 0.446-1.161 0.446-1.607 0l-1.482-1.482-1.482 1.482c-0.446 0.446-1.161 0.446-1.607 0l-1.482-1.482-1.482 1.482c-0.446 0.446-1.161 0.446-1.607 0l-1.482-1.482-1.482 1.482c-0.446 0.446-1.161 0.446-1.607 0l-1.482-1.482-1.482 1.482c-0.446 0.446-1.161 0.446-1.607 0l-1.482-1.482-1.482 1.482c-0.446 0.446-1.161 0.446-1.607 0l-2.286-2.286 1.607-1.607 1.482 1.482 1.482-1.482c0.446-0.446 1.161-0.446 1.607 0l1.482 1.482 1.482-1.482c0.446-0.446 1.161-0.446 1.607 0l1.482 1.482 1.482-1.482c0.446-0.446 1.161-0.446 1.607 0l1.482 1.482 1.482-1.482c0.446-0.446 1.161-0.446 1.607 0l1.482 1.482 1.482-1.482c0.446-0.446 1.161-0.446 1.607 0l1.482 1.482 1.482-1.482c0.446-0.446 1.161-0.446 1.607 0l1.482 1.482zM4.232 27.089c-0.446 0.446-1.161 0.446-1.607 0l-2.286-2.286 1.607-1.607 1.482 1.464 1.482-1.464c0.446-0.446 1.161-0.446 1.607 0l1.482 1.464 1.143-1.143v-5.232l-3.75-5.607c-0.411-0.625-0.125-1.482 0.589-1.732l3.161-1.036v-5.339h2.286v-2.286h4.571v-2.286h4.571v2.286h4.571v2.286h2.286v5.339l3.161 1.036c0.714 0.25 1 1.107 0.589 1.732l-3.75 5.607v5.232l0.339-0.321c0.446-0.446 1.161-0.446 1.607 0l1.482 1.464 1.482-1.464c0.446-0.446 1.161-0.446 1.607 0l2.286 2.286-1.607 1.607-1.482-1.482-1.482 1.482c-0.214 0.232-0.518 0.339-0.804 0.339s-0.589-0.107-0.804-0.339l-1.482-1.482-1.482 1.482c-0.446 0.446-1.161 0.446-1.607 0l-1.482-1.482-1.482 1.482c-0.446 0.446-1.161 0.446-1.607 0l-1.482-1.482-1.482 1.482c-0.446 0.446-1.161 0.446-1.607 0l-1.482-1.482-1.482 1.482c-0.446 0.446-1.161 0.446-1.607 0l-1.482-1.482-1.482 1.482c-0.446 0.446-1.161 0.446-1.607 0l-1.482-1.482zM11.429 6.857v2.286l6.857-2.286 6.857 2.286v-2.286h-2.286v-2.286h-9.143v2.286h-2.286z"></path>
</svg>
