<!-- Generated by IcoMoon.io -->
<svg version="1.1" xmlns="http://www.w3.org/2000/svg" width="30" height="32" viewBox="0 0 30 32">
<title>shopping-cart</title>
<path d="M11.429 27.429c0 1.25-1.036 2.286-2.286 2.286s-2.286-1.036-2.286-2.286 1.036-2.286 2.286-2.286 2.286 1.036 2.286 2.286zM27.429 27.429c0 1.25-1.036 2.286-2.286 2.286s-2.286-1.036-2.286-2.286 1.036-2.286 2.286-2.286 2.286 1.036 2.286 2.286zM29.714 8v9.143c0 0.571-0.446 1.071-1.018 1.143l-18.643 2.179c0.089 0.411 0.232 0.821 0.232 1.25 0 0.411-0.25 0.786-0.429 1.143h16.429c0.625 0 1.143 0.518 1.143 1.143s-0.518 1.143-1.143 1.143h-18.286c-0.625 0-1.143-0.518-1.143-1.143 0-0.554 0.804-1.893 1.089-2.446l-3.161-14.696h-3.643c-0.625 0-1.143-0.518-1.143-1.143s0.518-1.143 1.143-1.143h4.571c1.196 0 1.232 1.429 1.411 2.286h21.446c0.625 0 1.143 0.518 1.143 1.143z"></path>
</svg>
