<!-- Generated by IcoMoon.io -->
<svg version="1.1" xmlns="http://www.w3.org/2000/svg" width="37" height="32" viewBox="0 0 37 32">
<title>shopping-basket</title>
<path d="M34.286 13.714c1.268 0 2.286 1.018 2.286 2.286s-1.018 2.286-2.286 2.286h-0.268l-2.054 11.821c-0.196 1.089-1.143 1.893-2.25 1.893h-22.857c-1.107 0-2.054-0.804-2.25-1.893l-2.054-11.821h-0.268c-1.268 0-2.286-1.018-2.286-2.286s1.018-2.286 2.286-2.286h32zM8.661 28c0.625-0.054 1.107-0.607 1.054-1.232l-0.571-7.429c-0.054-0.625-0.607-1.107-1.232-1.054s-1.107 0.607-1.054 1.232l0.571 7.429c0.054 0.589 0.554 1.054 1.143 1.054h0.089zM16 26.857v-7.429c0-0.625-0.518-1.143-1.143-1.143s-1.143 0.518-1.143 1.143v7.429c0 0.625 0.518 1.143 1.143 1.143s1.143-0.518 1.143-1.143zM22.857 26.857v-7.429c0-0.625-0.518-1.143-1.143-1.143s-1.143 0.518-1.143 1.143v7.429c0 0.625 0.518 1.143 1.143 1.143s1.143-0.518 1.143-1.143zM29.143 26.946l0.571-7.429c0.054-0.625-0.429-1.179-1.054-1.232s-1.179 0.429-1.232 1.054l-0.571 7.429c-0.054 0.625 0.429 1.179 1.054 1.232h0.089c0.589 0 1.089-0.464 1.143-1.054zM8.5 5.214l-1.661 7.357h-2.357l1.804-7.875c0.464-2.089 2.304-3.554 4.446-3.554h2.982c0-0.625 0.518-1.143 1.143-1.143h6.857c0.625 0 1.143 0.518 1.143 1.143h2.982c2.143 0 3.982 1.464 4.446 3.554l1.804 7.875h-2.357l-1.661-7.357c-0.25-1.054-1.161-1.786-2.232-1.786h-2.982c0 0.625-0.518 1.143-1.143 1.143h-6.857c-0.625 0-1.143-0.518-1.143-1.143h-2.982c-1.071 0-1.982 0.732-2.232 1.786z"></path>
</svg>
