<!-- Generated by IcoMoon.io -->
<svg version="1.1" xmlns="http://www.w3.org/2000/svg" width="32" height="32" viewBox="0 0 32 32">
<title>signal</title>
<path d="M4.571 25.714v3.429c0 0.321-0.25 0.571-0.571 0.571h-3.429c-0.321 0-0.571-0.25-0.571-0.571v-3.429c0-0.321 0.25-0.571 0.571-0.571h3.429c0.321 0 0.571 0.25 0.571 0.571zM11.429 23.429v5.714c0 0.321-0.25 0.571-0.571 0.571h-3.429c-0.321 0-0.571-0.25-0.571-0.571v-5.714c0-0.321 0.25-0.571 0.571-0.571h3.429c0.321 0 0.571 0.25 0.571 0.571zM18.286 18.857v10.286c0 0.321-0.25 0.571-0.571 0.571h-3.429c-0.321 0-0.571-0.25-0.571-0.571v-10.286c0-0.321 0.25-0.571 0.571-0.571h3.429c0.321 0 0.571 0.25 0.571 0.571zM25.143 12v17.143c0 0.321-0.25 0.571-0.571 0.571h-3.429c-0.321 0-0.571-0.25-0.571-0.571v-17.143c0-0.321 0.25-0.571 0.571-0.571h3.429c0.321 0 0.571 0.25 0.571 0.571zM32 2.857v26.286c0 0.321-0.25 0.571-0.571 0.571h-3.429c-0.321 0-0.571-0.25-0.571-0.571v-26.286c0-0.321 0.25-0.571 0.571-0.571h3.429c0.321 0 0.571 0.25 0.571 0.571z"></path>
</svg>
