<!-- Generated by IcoMoon.io -->
<svg version="1.1" xmlns="http://www.w3.org/2000/svg" width="30" height="32" viewBox="0 0 30 32">
<title>sign-language</title>
<path d="M14.839 12.018c0.375 0 0.732 0.107 1.054 0.321l3.964 2.643c0.732 0.482 1.393 1.071 1.964 1.732l2.607 3.036c0.446 0.518 0.643 1.214 0.518 1.893l-1.286 7.375c-0.143 0.75-0.75 1.321-1.518 1.411l-9.411 1-6.286 0.571h-0.161c-0.929 0-1.714-0.75-1.714-1.714 0-0.893 0.75-1.607 1.643-1.714l4.643-0.571h-8c-0.982 0-1.768-0.821-1.714-1.804 0.054-0.929 0.875-1.625 1.804-1.625l7.893-0.018-9.304-1.143c-0.964-0.107-1.661-0.982-1.518-1.964 0.143-0.857 0.929-1.429 1.786-1.429h0.179l8.589 1.071-6.268-1.679c-0.893-0.232-1.571-1.054-1.429-1.964 0.143-0.857 0.875-1.446 1.696-1.446 0.125 0 0.232 0.018 0.357 0.036l8 1.714 3.875 0.661c0.036 0 0.071 0.018 0.107 0.018 0.536 0 0.804-0.732 0.321-1.054l-3.321-2.232c-0.821-0.554-1.018-1.661-0.429-2.446 0.321-0.446 0.839-0.679 1.357-0.679zM13.589 15.625l3.321 2.232-3.893-0.661-0.089-0.036-0.643-0.679-4.25-4.679c-0.036-0.036-0.054-0.089-0.089-0.125-0.554-0.732-0.429-1.804 0.339-2.393 0.714-0.554 1.732-0.375 2.357 0.286l2.536 2.625c-0.054 0.054-0.107 0.089-0.161 0.143-0.375 0.518-0.518 1.143-0.411 1.768 0.107 0.607 0.464 1.161 0.982 1.518zM29.429 7.518l0.268 4.75c0.054 0.875-0.018 1.768-0.196 2.625l-0.857 3.911c-0.143 0.679-0.571 1.232-1.196 1.554l-1.893 0.964c0.018-0.714-0.214-1.393-0.696-1.946l-2.607-3.036c-0.607-0.696-1.304-1.321-2.089-1.839l-3.964-2.643c-0.393-0.268-0.857-0.411-1.357-0.411-0.607 0-1.161 0.25-1.571 0.661l-4.196-5.571c-0.589-0.786-0.411-1.893 0.411-2.446 0.768-0.536 1.821-0.286 2.393 0.464l4.75 6.286-4.679-8.125c-0.5-0.839-0.214-1.929 0.661-2.393 0.821-0.429 1.857-0.089 2.321 0.714l4.304 7.5-2.429-6.018c-0.339-0.857-0.107-1.893 0.714-2.321 0.875-0.464 1.946-0.089 2.357 0.804l3.446 7.411 1.804 3.5c0.286 0.554 1.125 0.321 1.089-0.286l-0.214-4c-0.054-0.982 0.714-1.804 1.696-1.821 0.929 0 1.679 0.786 1.732 1.714z"></path>
</svg>
