<!-- Generated by IcoMoon.io -->
<svg version="1.1" xmlns="http://www.w3.org/2000/svg" width="27" height="32" viewBox="0 0 27 32">
<title>sliders</title>
<path d="M6.286 25.143v2.286h-6.286v-2.286h6.286zM12.571 22.857c0.625 0 1.143 0.518 1.143 1.143v4.571c0 0.625-0.518 1.143-1.143 1.143h-4.571c-0.625 0-1.143-0.518-1.143-1.143v-4.571c0-0.625 0.518-1.143 1.143-1.143h4.571zM15.429 16v2.286h-15.429v-2.286h15.429zM4 6.857v2.286h-4v-2.286h4zM27.429 25.143v2.286h-13.143v-2.286h13.143zM10.286 4.571c0.625 0 1.143 0.518 1.143 1.143v4.571c0 0.625-0.518 1.143-1.143 1.143h-4.571c-0.625 0-1.143-0.518-1.143-1.143v-4.571c0-0.625 0.518-1.143 1.143-1.143h4.571zM21.714 13.714c0.625 0 1.143 0.518 1.143 1.143v4.571c0 0.625-0.518 1.143-1.143 1.143h-4.571c-0.625 0-1.143-0.518-1.143-1.143v-4.571c0-0.625 0.518-1.143 1.143-1.143h4.571zM27.429 16v2.286h-4v-2.286h4zM27.429 6.857v2.286h-15.429v-2.286h15.429z"></path>
</svg>
