<!-- Generated by IcoMoon.io -->
<svg version="1.1" xmlns="http://www.w3.org/2000/svg" width="30" height="32" viewBox="0 0 30 32">
<title>snowflake-o</title>
<path d="M27.964 19.946l-2.982 0.589 3.321 1.911c0.536 0.304 0.732 1.018 0.411 1.554s-1.018 0.732-1.554 0.411l-3.321-1.893 0.982 2.857c0.5 1.429-1.679 2.161-2.161 0.75l-1.821-5.357-4.839-2.786v5.589l3.714 4.25c1 1.125-0.732 2.643-1.714 1.5l-2-2.286v3.821c0 0.625-0.518 1.143-1.143 1.143s-1.143-0.518-1.143-1.143v-3.821l-2 2.286c-0.982 1.143-2.714-0.375-1.714-1.5l3.714-4.25v-5.589l-4.839 2.786-1.821 5.357c-0.482 1.411-2.661 0.679-2.161-0.75l0.982-2.857-3.321 1.893c-0.536 0.321-1.232 0.125-1.554-0.411s-0.125-1.25 0.411-1.554l3.321-1.911-2.982-0.589c-1.482-0.304-1.036-2.536 0.446-2.25l5.536 1.107 4.839-2.804-4.839-2.804-5.536 1.107c-0.071 0.018-0.161 0.018-0.232 0.018-1.357 0-1.554-2-0.214-2.268l2.982-0.589-3.321-1.911c-0.536-0.304-0.732-1.018-0.411-1.554 0.321-0.554 1.018-0.732 1.554-0.411l3.321 1.893-0.982-2.857c-0.5-1.429 1.679-2.161 2.161-0.75l1.821 5.357 4.839 2.786v-5.589l-3.714-4.25c-1-1.125 0.732-2.643 1.714-1.5l2 2.286v-3.821c0-0.625 0.518-1.143 1.143-1.143s1.143 0.518 1.143 1.143v3.821l2-2.286c0.982-1.143 2.714 0.375 1.714 1.5l-3.714 4.25v5.589l4.839-2.786 1.821-5.357c0.482-1.411 2.661-0.679 2.161 0.75l-0.982 2.857 3.321-1.893c0.536-0.321 1.232-0.125 1.554 0.411s0.125 1.25-0.411 1.554l-3.321 1.911 2.982 0.589c1.339 0.268 1.143 2.268-0.214 2.268-0.071 0-0.161 0-0.232-0.018l-5.536-1.107-4.839 2.804 4.839 2.804 5.536-1.107c1.482-0.286 1.929 1.946 0.446 2.25z"></path>
</svg>
