<!-- Generated by IcoMoon.io -->
<svg version="1.1" xmlns="http://www.w3.org/2000/svg" width="32" height="32" viewBox="0 0 32 32">
<title>snowflake</title>
<path d="M23.93 18.266l-2.039-1.177c0.065-0.354 0.109-0.716 0.109-1.088 0-0.374-0.044-0.737-0.112-1.091l2.039-1.178c0.958-0.555 1.284-1.777 0.733-2.73-0.553-0.957-1.773-1.285-2.73-0.734l-2.059 1.189c-0.551-0.469-1.178-0.839-1.871-1.085v-2.37c0-1.104-0.895-2-2-2-1.104 0-2 0.896-2 2v2.368c-0.693 0.246-1.32 0.616-1.871 1.085l-2.055-1.186c-0.957-0.552-2.181-0.225-2.734 0.732-0.551 0.956-0.223 2.178 0.734 2.731l2.035 1.176c-0.066 0.355-0.109 0.72-0.109 1.095 0 0.372 0.043 0.736 0.109 1.090l-2.037 1.176c-0.958 0.552-1.287 1.777-0.733 2.734 0.551 0.953 1.775 1.281 2.733 0.73l2.052-1.186c0.551 0.469 1.18 0.841 1.875 1.089v2.367c0 1.105 0.896 2 2 2 1.106 0 2-0.895 2-2v-2.37c0.695-0.247 1.324-0.617 1.872-1.087l2.057 1.187c0.957 0.551 2.18 0.223 2.73-0.73 0.554-0.957 0.227-2.18-0.73-2.734zM14 16c0-1.104 0.895-2 2-2 1.104 0 2 0.896 2 2s-0.896 2-2 2c-1.105 0-2-0.896-2-2z"></path>
</svg>
