<!-- Generated by IcoMoon.io -->
<svg version="1.1" xmlns="http://www.w3.org/2000/svg" width="30" height="32" viewBox="0 0 30 32">
<title>sort-alpha-asc</title>
<path d="M21.268 7.286h3.161l-1.286-3.893-0.214-0.839c-0.018-0.143-0.036-0.25-0.036-0.357h-0.071l-0.054 0.357c-0.054 0.214-0.071 0.482-0.196 0.839zM13.143 25.714c0 0.161-0.071 0.304-0.179 0.429l-5.696 5.696c-0.125 0.107-0.268 0.161-0.411 0.161s-0.286-0.054-0.411-0.161l-5.714-5.714c-0.161-0.179-0.214-0.411-0.125-0.625s0.304-0.357 0.536-0.357h3.429v-24.571c0-0.321 0.25-0.571 0.571-0.571h3.429c0.321 0 0.571 0.25 0.571 0.571v24.571h3.429c0.321 0 0.571 0.25 0.571 0.571zM28.071 27.839v4.161h-10.429v-1.607l6.589-9.446c0.143-0.214 0.286-0.393 0.375-0.482l0.196-0.161v-0.054c-0.071 0-0.143 0.018-0.25 0.018-0.143 0.036-0.321 0.054-0.536 0.054h-4.143v2.054h-2.143v-4.089h10.125v1.589l-6.589 9.464c-0.107 0.161-0.25 0.321-0.375 0.464l-0.196 0.196v0.036l0.25-0.036c0.161-0.036 0.321-0.036 0.536-0.036h4.429v-2.125h2.161zM29.661 11.821v1.893h-5.143v-1.893h1.339l-0.839-2.571h-4.339l-0.839 2.571h1.339v1.893h-5.125v-1.893h1.25l4.107-11.821h2.893l4.107 11.821h1.25z"></path>
</svg>
