<!-- Generated by IcoMoon.io -->
<svg version="1.1" xmlns="http://www.w3.org/2000/svg" width="27" height="32" viewBox="0 0 27 32">
<title>sort-numeric-desc</title>
<path d="M24.036 5.161c0-1.464-1.196-3.018-2.625-3.018-1.25 0-2.036 1.018-2.036 2.339 0 1.286 0.821 2.375 2.518 2.375 1.161 0 2.143-0.696 2.143-1.696zM13.143 25.714c0 0.161-0.071 0.304-0.179 0.429l-5.696 5.696c-0.125 0.107-0.268 0.161-0.411 0.161s-0.286-0.054-0.411-0.161l-5.714-5.714c-0.161-0.179-0.214-0.411-0.125-0.625s0.304-0.357 0.536-0.357h3.429v-24.571c0-0.321 0.25-0.571 0.571-0.571h3.429c0.321 0 0.571 0.25 0.571 0.571v24.571h3.429c0.321 0 0.571 0.25 0.571 0.571zM26 29.964v2.036h-8.375v-2.036h2.982v-7.714c0-0.232 0.018-0.464 0.018-0.643v-0.286h-0.036l-0.125 0.214c-0.089 0.143-0.232 0.321-0.464 0.554l-1.107 1.036-1.464-1.536 3.429-3.304h2.196v11.679h2.946zM26.536 6.196c0 3.607-1.964 7.518-6.214 7.518-0.804 0-1.464-0.125-1.929-0.286-0.286-0.089-0.536-0.179-0.75-0.268l0.696-2.018c0.161 0.071 0.357 0.143 0.554 0.196 0.357 0.125 0.821 0.232 1.339 0.232 2.143 0 3.25-1.786 3.589-3.643h-0.036c-0.5 0.536-1.554 0.911-2.607 0.911-2.589 0-4.286-2.036-4.286-4.357 0-2.464 1.893-4.482 4.518-4.482 2.839 0 5.125 2.321 5.125 6.196z"></path>
</svg>
