<!-- Generated by IcoMoon.io -->
<svg version="1.1" xmlns="http://www.w3.org/2000/svg" width="33" height="32" viewBox="0 0 33 32">
<title>sort-amount-asc</title>
<path d="M13.143 25.714c0 0.161-0.071 0.304-0.179 0.429l-5.696 5.696c-0.125 0.107-0.268 0.161-0.411 0.161s-0.286-0.054-0.411-0.161l-5.714-5.714c-0.161-0.179-0.214-0.411-0.125-0.625s0.304-0.357 0.536-0.357h3.429v-24.571c0-0.321 0.25-0.571 0.571-0.571h3.429c0.321 0 0.571 0.25 0.571 0.571v24.571h3.429c0.321 0 0.571 0.25 0.571 0.571zM32 28v3.429c0 0.321-0.25 0.571-0.571 0.571h-14.857c-0.321 0-0.571-0.25-0.571-0.571v-3.429c0-0.321 0.25-0.571 0.571-0.571h14.857c0.321 0 0.571 0.25 0.571 0.571zM28.571 18.857v3.429c0 0.321-0.25 0.571-0.571 0.571h-11.429c-0.321 0-0.571-0.25-0.571-0.571v-3.429c0-0.321 0.25-0.571 0.571-0.571h11.429c0.321 0 0.571 0.25 0.571 0.571zM25.143 9.714v3.429c0 0.321-0.25 0.571-0.571 0.571h-8c-0.321 0-0.571-0.25-0.571-0.571v-3.429c0-0.321 0.25-0.571 0.571-0.571h8c0.321 0 0.571 0.25 0.571 0.571zM21.714 0.571v3.429c0 0.321-0.25 0.571-0.571 0.571h-4.571c-0.321 0-0.571-0.25-0.571-0.571v-3.429c0-0.321 0.25-0.571 0.571-0.571h4.571c0.321 0 0.571 0.25 0.571 0.571z"></path>
</svg>
