<!-- Generated by IcoMoon.io -->
<svg version="1.1" xmlns="http://www.w3.org/2000/svg" width="39" height="32" viewBox="0 0 39 32">
<title>space-shuttle</title>
<path d="M11.071 20c-1.232 0.714-2.911 1.143-4.786 1.143h-2.286v-1.143h-1.143c-0.321 0-0.571-0.643-0.571-1.429 0-0.321 0.054-0.625 0.125-0.875-1.375-0.036-2.411-0.268-2.411-0.554s1.036-0.518 2.411-0.554c-0.071-0.25-0.125-0.554-0.125-0.875 0-0.786 0.25-1.429 0.571-1.429h1.143v-1.143h2.286c1.875 0 3.554 0.429 4.786 1.143h19.875c1.321 0.232 2.518 0.429 3.339 0.571 3.429 0.571 4.571 1.714 4.571 2.286s-1.143 1.714-4.571 2.286c-0.821 0.143-2.018 0.339-3.339 0.571h-19.875zM31.054 15.5c0.571 0.393 0.946 0.982 0.946 1.643s-0.375 1.25-0.946 1.643l1.446 0.536c0.732-0.518 1.214-1.304 1.214-2.179s-0.482-1.661-1.214-2.179zM11.161 20.286h18.125s-3.875 0.679-8.143 1.429c-2.286 0-4 1.714-4 1.714l-5.143 5.143s-1.732 1.143-2.857 1.143h-1.714l-1.661-8.286h0.518c1.821 0 3.554-0.411 4.875-1.143zM6.286 12.857h-0.518l1.661-8.286h1.714c1.161 0 2.286 0.571 2.857 1.143l5.143 5.143c0 0 1.714 1.714 4 1.714 4.268 0.75 8.143 1.429 8.143 1.429h-18.125c-1.321-0.732-3.054-1.143-4.875-1.143z"></path>
</svg>
