<!-- Generated by IcoMoon.io -->
<svg version="1.1" xmlns="http://www.w3.org/2000/svg" width="27" height="32" viewBox="0 0 27 32">
<title>spotify</title>
<path d="M20.125 21.607c0-0.5-0.196-0.696-0.536-0.911-2.304-1.375-4.982-2.054-7.982-2.054-1.75 0-3.429 0.232-5.125 0.607-0.411 0.089-0.75 0.357-0.75 0.929 0 0.446 0.339 0.875 0.875 0.875 0.161 0 0.446-0.089 0.661-0.143 1.393-0.286 2.857-0.482 4.339-0.482 2.625 0 5.107 0.643 7.089 1.839 0.214 0.125 0.357 0.196 0.589 0.196 0.446 0 0.839-0.357 0.839-0.857zM21.839 17.768c0-0.482-0.179-0.821-0.625-1.089-2.732-1.625-6.196-2.518-9.786-2.518-2.304 0-3.875 0.321-5.411 0.75-0.571 0.161-0.857 0.554-0.857 1.143s0.482 1.071 1.071 1.071c0.25 0 0.393-0.071 0.661-0.143 1.25-0.339 2.75-0.589 4.482-0.589 3.393 0 6.482 0.893 8.714 2.214 0.196 0.107 0.393 0.232 0.679 0.232 0.607 0 1.071-0.482 1.071-1.071zM23.768 13.339c0-0.661-0.286-1-0.714-1.25-3.089-1.804-7.321-2.643-11.357-2.643-2.375 0-4.554 0.268-6.5 0.839-0.5 0.143-0.964 0.571-0.964 1.321 0 0.732 0.554 1.304 1.286 1.304 0.268 0 0.518-0.089 0.714-0.143 1.732-0.482 3.607-0.661 5.482-0.661 3.714 0 7.571 0.821 10.054 2.304 0.25 0.143 0.429 0.214 0.714 0.214 0.679 0 1.286-0.536 1.286-1.286zM27.429 16c0 7.571-6.143 13.714-13.714 13.714s-13.714-6.143-13.714-13.714 6.143-13.714 13.714-13.714 13.714 6.143 13.714 13.714z"></path>
</svg>
