<!-- Generated by IcoMoon.io -->
<svg version="1.1" xmlns="http://www.w3.org/2000/svg" width="32" height="32" viewBox="0 0 32 32">
<title>steam</title>
<path d="M28.25 10.393c0 2.411-1.964 4.357-4.357 4.357-2.411 0-4.357-1.946-4.357-4.357s1.946-4.357 4.357-4.357c2.393 0 4.357 1.946 4.357 4.357zM14.5 23.643c0-2.482-1.982-4.464-4.464-4.464-0.321 0-0.643 0.036-0.964 0.107l1.857 0.75c1.821 0.732 2.714 2.786 1.982 4.607s-2.804 2.714-4.625 1.964c-0.732-0.286-1.464-0.589-2.196-0.875 0.75 1.411 2.232 2.375 3.946 2.375 2.482 0 4.464-1.982 4.464-4.464zM29.321 10.411c0-3-2.446-5.446-5.446-5.446-3.018 0-5.464 2.446-5.464 5.446 0 3.018 2.446 5.446 5.464 5.446 3 0 5.446-2.429 5.446-5.446zM32 10.411c0 4.5-3.643 8.125-8.125 8.125l-7.804 5.696c-0.286 3.071-2.893 5.482-6.036 5.482-2.893 0-5.339-2.054-5.929-4.786l-4.107-1.643v-7.661l6.946 2.804c0.911-0.554 1.964-0.857 3.089-0.857 0.214 0 0.429 0.018 0.625 0.036l5.071-7.268c0.036-4.446 3.679-8.054 8.143-8.054 4.482 0 8.125 3.643 8.125 8.125z"></path>
</svg>
