<!-- Generated by IcoMoon.io -->
<svg version="1.1" xmlns="http://www.w3.org/2000/svg" width="25" height="32" viewBox="0 0 25 32">
<title>stethoscope</title>
<path d="M22.857 12.571c0-0.625-0.518-1.143-1.143-1.143s-1.143 0.518-1.143 1.143 0.518 1.143 1.143 1.143 1.143-0.518 1.143-1.143zM25.143 12.571c0 1.5-0.946 2.75-2.286 3.232v7.054c0 3.786-3.589 6.857-8 6.857s-8-3.071-8-6.857v-2.357c-3.875-0.482-6.857-3.339-6.857-6.786v-9.143c0-0.625 0.518-1.143 1.143-1.143 0.107 0 0.196 0.018 0.286 0.036 0.393-0.696 1.143-1.179 2-1.179 1.268 0 2.286 1.018 2.286 2.286s-1.018 2.286-2.286 2.286c-0.411 0-0.804-0.125-1.143-0.321v7.179c0 2.518 2.571 4.571 5.714 4.571s5.714-2.054 5.714-4.571v-7.179c-0.339 0.196-0.732 0.321-1.143 0.321-1.268 0-2.286-1.018-2.286-2.286s1.018-2.286 2.286-2.286c0.857 0 1.607 0.482 2 1.179 0.089-0.018 0.179-0.036 0.286-0.036 0.625 0 1.143 0.518 1.143 1.143v9.143c0 3.446-2.982 6.304-6.857 6.786v2.357c0 2.518 2.571 4.571 5.714 4.571s5.714-2.054 5.714-4.571v-7.054c-1.339-0.482-2.286-1.732-2.286-3.232 0-1.893 1.536-3.429 3.429-3.429s3.429 1.536 3.429 3.429z"></path>
</svg>
