<!-- Generated by IcoMoon.io -->
<svg version="1.1" xmlns="http://www.w3.org/2000/svg" width="27" height="32" viewBox="0 0 27 32">
<title>sticky-note-o</title>
<path d="M25 22.857h-4.429v4.429c0.304-0.107 0.607-0.268 0.732-0.393l3.304-3.304c0.125-0.125 0.286-0.429 0.393-0.732zM20 20.571h5.143v-16h-22.857v22.857h16v-5.143c0-0.946 0.768-1.714 1.714-1.714zM27.429 4v18.286c0 0.946-0.554 2.268-1.214 2.929l-3.286 3.286c-0.661 0.661-1.982 1.214-2.929 1.214h-18.286c-0.946 0-1.714-0.768-1.714-1.714v-24c0-0.946 0.768-1.714 1.714-1.714h24c0.946 0 1.714 0.768 1.714 1.714z"></path>
</svg>
