<!-- Generated by IcoMoon.io -->
<svg version="1.1" xmlns="http://www.w3.org/2000/svg" width="27" height="32" viewBox="0 0 27 32">
<title>stumbleupon-circle</title>
<path d="M15.464 14.982l1.607-0.482v-1.107c0-1.893-1.607-3.411-3.5-3.411s-3.5 1.5-3.5 3.393v5.054c0 0.464-0.375 0.839-0.839 0.839s-0.821-0.375-0.821-0.839v-2.143h-2.696v2.179c0 1.946 1.571 3.5 3.518 3.5 1.911 0 3.5-1.536 3.5-3.446v-5c0-0.464 0.375-0.839 0.839-0.839 0.446 0 0.821 0.375 0.821 0.839v0.964zM21.411 18.464v-2.179h-2.679v2.25c0 0.464-0.375 0.839-0.839 0.839-0.446 0-0.821-0.375-0.821-0.839v-2.196l-1.607 0.464-1.071-0.5v2.196c0 1.911 1.589 3.464 3.518 3.464s3.5-1.554 3.5-3.5zM27.429 16c0 7.571-6.143 13.714-13.714 13.714s-13.714-6.143-13.714-13.714 6.143-13.714 13.714-13.714 13.714 6.143 13.714 13.714z"></path>
</svg>
