<!-- Generated by IcoMoon.io -->
<svg version="1.1" xmlns="http://www.w3.org/2000/svg" width="32" height="32" viewBox="0 0 32 32">
<title>suitcase</title>
<path d="M11.429 6.857h9.143v-2.286h-9.143v2.286zM5.143 6.857v22.857h-1.143c-2.196 0-4-1.804-4-4v-14.857c0-2.196 1.804-4 4-4h1.143zM25.143 6.857v22.857h-18.286v-22.857h2.286v-2.857c0-0.946 0.768-1.714 1.714-1.714h10.286c0.946 0 1.714 0.768 1.714 1.714v2.857h2.286zM32 10.857v14.857c0 2.196-1.804 4-4 4h-1.143v-22.857h1.143c2.196 0 4 1.804 4 4z"></path>
</svg>
