<!-- Generated by IcoMoon.io -->
<svg version="1.1" xmlns="http://www.w3.org/2000/svg" width="32" height="32" viewBox="0 0 32 32">
<title>sun1</title>
<path d="M16.938 7.938c0.552 0 1-0.448 1-1v-2c0-0.552-0.448-1-1-1s-1 0.448-1 1v2c0 0.552 0.448 1 1 1zM16.938 25.938c-0.552 0-1 0.448-1 1v2c0 0.552 0.448 1 1 1s1-0.448 1-1v-2c0-0.552-0.448-1-1-1zM9.16 23.302l-1.414 1.414c-0.391 0.391-0.391 1.023 0 1.414s1.023 0.391 1.414 0l1.414-1.414c0.391-0.392 0.391-1.023 0-1.414s-1.023-0.392-1.414 0zM7.938 16.938c0-0.552-0.448-1-1-1h-2c-0.552 0-1 0.448-1 1s0.448 1 1 1h2c0.552 0 1-0.448 1-1zM9.159 10.573c0.391 0.391 1.024 0.391 1.414 0s0.391-1.023 0-1.414l-1.414-1.414c-0.391-0.391-1.023-0.391-1.414 0s-0.391 1.023 0 1.414l1.414 1.414zM20.938 9.938c-0.699 0-1.363 0.135-2 0.325-0.637-0.19-1.301-0.325-2-0.325-3.859 0-7 3.141-7 7s3.141 7 7 7c0.699 0 1.363-0.135 2-0.326 0.637 0.19 1.301 0.326 2 0.326 3.859 0 7-3.141 7-7s-3.141-7-7-7zM15.952 21.839c-2.29-0.458-4.014-2.477-4.014-4.901s1.724-4.443 4.014-4.901c-1.243 1.264-2.014 2.992-2.014 4.901s0.771 3.637 2.014 4.901z"></path>
</svg>
