<!-- Generated by IcoMoon.io -->
<svg version="1.1" xmlns="http://www.w3.org/2000/svg" width="32" height="32" viewBox="0 0 32 32">
<title>sunny-lightning</title>
<path d="M1.664 18.027c0 1.419 0.491 2.635 1.483 3.659s2.197 1.568 3.627 1.632c0.117 0 0.181-0.064 0.181-0.181v-1.461c0-0.128-0.064-0.192-0.181-0.192-0.928-0.075-1.707-0.437-2.336-1.109-0.629-0.661-0.949-1.451-0.949-2.357 0-0.896 0.299-1.675 0.907-2.336s1.344-1.035 2.24-1.109l0.555-0.085c0.139 0 0.213-0.064 0.213-0.181l0.064-0.544c0.117-1.152 0.597-2.123 1.461-2.891 0.864-0.779 1.877-1.163 3.051-1.163 1.163 0 2.176 0.384 3.040 1.163 0.864 0.768 1.355 1.739 1.483 2.901l0.075 0.619c0 0.117 0.064 0.181 0.203 0.181h1.707c0.971 0 1.792 0.341 2.475 1.013s1.024 1.483 1.024 2.432c0 0.907-0.32 1.696-0.949 2.357s-1.408 1.035-2.336 1.109c-0.139 0-0.213 0.064-0.213 0.192v1.461c0 0.117 0.075 0.181 0.213 0.181 1.419-0.043 2.624-0.587 3.605-1.611s1.472-2.251 1.472-3.68c0-0.725-0.171-1.461-0.501-2.208 0.832-1.003 1.259-2.165 1.259-3.488 0-0.757-0.149-1.483-0.448-2.176s-0.693-1.28-1.195-1.781-1.099-0.896-1.781-1.195c-0.693-0.288-1.408-0.437-2.165-0.437-1.643 0-3.029 0.619-4.139 1.845-0.917-0.437-1.856-0.661-2.827-0.661-1.515 0-2.848 0.459-4.011 1.387s-1.909 2.123-2.24 3.595c-1.173 0.277-2.144 0.885-2.912 1.845s-1.152 2.048-1.152 3.275zM9.664 30.048h0.32l5.675-8.373c0.043-0.043 0.053-0.096 0.021-0.149s-0.075-0.075-0.149-0.075h-2.325l2.453-4.491c0.075-0.149 0.032-0.235-0.149-0.235h-3.136c-0.085 0-0.16 0.053-0.235 0.149l-2.304 6.101c-0.021 0.149 0.021 0.224 0.149 0.224h2.315l-2.635 6.848zM10.603 4.896c0 0.267 0.085 0.491 0.256 0.661l0.704 0.693c0.448 0.341 0.875 0.341 1.291 0 0.171-0.192 0.256-0.416 0.256-0.683 0-0.245-0.085-0.459-0.256-0.629l-0.683-0.693c-0.203-0.181-0.416-0.267-0.661-0.267s-0.459 0.085-0.64 0.267c-0.181 0.181-0.267 0.405-0.267 0.651zM16.299 9.621c0.725-0.725 1.611-1.088 2.645-1.088 1.045 0 1.931 0.373 2.656 1.109 0.736 0.736 1.099 1.632 1.099 2.688 0 0.651-0.181 1.291-0.544 1.931-1.045-1.003-2.272-1.504-3.691-1.504h-0.331c-0.277-1.216-0.896-2.261-1.835-3.136zM18.027 3.979c0 0.267 0.085 0.491 0.256 0.661s0.384 0.256 0.651 0.256c0.256 0 0.459-0.085 0.629-0.256s0.245-0.395 0.245-0.661v-2.176c0-0.256-0.085-0.459-0.245-0.629-0.171-0.171-0.373-0.245-0.629-0.245s-0.469 0.085-0.64 0.245-0.267 0.373-0.267 0.629v2.176zM23.915 6.453c0 0.245 0.096 0.459 0.288 0.64s0.395 0.267 0.587 0.267c0.171 0 0.395-0.085 0.661-0.267l1.536-1.525c0.181-0.192 0.267-0.416 0.267-0.672s-0.085-0.48-0.267-0.651c-0.181-0.171-0.395-0.256-0.64-0.256-0.235 0-0.437 0.085-0.619 0.267l-1.525 1.525c-0.192 0.203-0.288 0.427-0.288 0.672zM24.779 19.061c0 0.245 0.085 0.459 0.256 0.651l0.693 0.704c0.171 0.171 0.384 0.256 0.619 0.256 0.256 0 0.469-0.085 0.64-0.267 0.181-0.181 0.267-0.405 0.267-0.672 0-0.245-0.085-0.448-0.267-0.608l-0.661-0.704c-0.203-0.171-0.416-0.245-0.661-0.245s-0.459 0.085-0.629 0.256c-0.171 0.171-0.256 0.384-0.256 0.629zM26.325 12.331c0 0.235 0.096 0.437 0.277 0.608 0.181 0.181 0.395 0.267 0.64 0.267h2.176c0.256 0 0.469-0.085 0.651-0.256s0.267-0.373 0.267-0.629c0-0.256-0.096-0.469-0.277-0.651s-0.395-0.267-0.64-0.267h-2.176c-0.245 0-0.459 0.085-0.64 0.267-0.181 0.192-0.277 0.405-0.277 0.661z"></path>
</svg>
