<!-- Generated by IcoMoon.io -->
<svg version="1.1" xmlns="http://www.w3.org/2000/svg" width="32" height="32" viewBox="0 0 32 32">
<title>sunny-rain-mix</title>
<path d="M1.579 18.080c0 1.408 0.491 2.624 1.461 3.627s2.176 1.547 3.605 1.611c0.128 0 0.192-0.064 0.192-0.181v-1.419c0-0.128-0.064-0.192-0.192-0.192-0.917-0.043-1.685-0.405-2.315-1.067s-0.939-1.461-0.939-2.389c0-0.896 0.299-1.685 0.896-2.336 0.597-0.661 1.344-1.024 2.24-1.099l0.565-0.085c0.117 0 0.171-0.053 0.171-0.149l0.085-0.587c0.128-1.163 0.629-2.133 1.472-2.901s1.845-1.141 3.019-1.141 2.187 0.384 3.051 1.152c0.875 0.768 1.365 1.728 1.472 2.869l0.075 0.619c0.021 0.117 0.107 0.181 0.235 0.181h1.707c0.949 0 1.76 0.341 2.443 1.024s1.024 1.504 1.024 2.464c0 0.928-0.309 1.717-0.939 2.389s-1.397 1.013-2.315 1.067c-0.139 0-0.213 0.064-0.213 0.192v1.419c0 0.117 0.075 0.181 0.213 0.181 1.419-0.043 2.613-0.576 3.595-1.589 0.971-1.013 1.461-2.229 1.461-3.648 0-0.725-0.139-1.429-0.405-2.144 0.832-1.024 1.237-2.219 1.237-3.573 0-0.757-0.149-1.472-0.437-2.165s-0.693-1.28-1.195-1.781-1.099-0.896-1.781-1.195-1.419-0.448-2.176-0.448c-1.643 0-3.019 0.619-4.117 1.856-0.949-0.469-1.931-0.704-2.923-0.704-1.504 0-2.837 0.469-3.989 1.397s-1.888 2.133-2.219 3.605c-1.195 0.277-2.176 0.885-2.933 1.845s-1.131 2.059-1.131 3.296zM7.285 25.579c0 0.181 0.053 0.363 0.171 0.544s0.288 0.299 0.501 0.373c0.245 0.075 0.48 0.064 0.683-0.043 0.213-0.096 0.352-0.299 0.427-0.597l0.149-0.651c0.053-0.245 0.021-0.469-0.107-0.672-0.128-0.213-0.309-0.352-0.555-0.427s-0.469-0.043-0.683 0.085-0.341 0.309-0.405 0.555l-0.149 0.629c-0.021 0.064-0.032 0.128-0.032 0.203zM8.107 22.485c0 0.235 0.085 0.437 0.256 0.608 0.171 0.192 0.373 0.277 0.597 0.277 0.256 0 0.469-0.085 0.64-0.256 0.181-0.171 0.267-0.373 0.267-0.629 0-0.245-0.085-0.459-0.267-0.629s-0.395-0.256-0.64-0.256c-0.245 0-0.448 0.085-0.619 0.245s-0.235 0.395-0.235 0.64zM8.757 20.064c-0.011 0.171 0.032 0.331 0.139 0.48 0.107 0.16 0.277 0.267 0.512 0.341 0.224 0.064 0.437 0.043 0.661-0.075s0.373-0.299 0.448-0.544l0.288-0.96c0.075-0.256 0.053-0.491-0.075-0.693s-0.32-0.341-0.576-0.416c-0.235-0.075-0.459-0.053-0.672 0.075-0.213 0.117-0.363 0.299-0.437 0.533l-0.256 0.981c-0.021 0.171-0.032 0.267-0.032 0.277zM9.984 28.907c0 0.181 0.053 0.352 0.171 0.523s0.288 0.288 0.523 0.352c0.096 0.021 0.181 0.032 0.256 0.032 0.459 0 0.747-0.213 0.853-0.651l0.139-0.629c0.064-0.277 0.032-0.512-0.085-0.725s-0.309-0.341-0.555-0.395c-0.224-0.075-0.448-0.053-0.672 0.075s-0.363 0.309-0.437 0.544l-0.149 0.64c-0.032 0.117-0.043 0.203-0.043 0.235zM10.581 4.971c0 0.256 0.085 0.469 0.256 0.64l0.704 0.683c0.149 0.171 0.341 0.256 0.576 0.277s0.459-0.075 0.661-0.277c0.171-0.171 0.256-0.384 0.256-0.629 0-0.256-0.085-0.469-0.256-0.64l-0.672-0.693c-0.16-0.171-0.373-0.256-0.619-0.277-0.245 0-0.459 0.085-0.64 0.267-0.171 0.181-0.267 0.395-0.267 0.651zM10.827 25.813c0 0.245 0.085 0.448 0.256 0.619s0.384 0.256 0.619 0.256c0.256 0 0.459-0.085 0.629-0.245 0.171-0.171 0.245-0.373 0.245-0.629 0-0.245-0.085-0.448-0.245-0.619-0.171-0.171-0.373-0.245-0.629-0.245s-0.459 0.085-0.629 0.245-0.245 0.373-0.245 0.619zM11.488 23.392c-0.011 0.16 0.032 0.331 0.149 0.501 0.107 0.171 0.267 0.277 0.48 0.32 0.245 0.064 0.469 0.043 0.683-0.064s0.352-0.309 0.437-0.597l0.277-0.96c0.075-0.235 0.053-0.459-0.075-0.672s-0.309-0.352-0.565-0.427c-0.235-0.075-0.459-0.043-0.683 0.085s-0.363 0.32-0.437 0.565l-0.235 0.96c-0.021 0.085-0.032 0.181-0.032 0.288zM14.432 25.685c0 0.181 0.053 0.352 0.16 0.512s0.267 0.277 0.491 0.341c0.032 0 0.085 0.011 0.149 0.021s0.117 0.021 0.149 0.021c0.437 0 0.704-0.235 0.811-0.704l0.149-0.64c0.075-0.224 0.053-0.448-0.075-0.672s-0.309-0.363-0.544-0.437c-0.267-0.064-0.512-0.043-0.725 0.085s-0.363 0.309-0.437 0.565l-0.096 0.629c0 0.011 0 0.053-0.011 0.117-0.011 0.075-0.021 0.117-0.021 0.16zM15.221 22.528c0 0.245 0.085 0.448 0.256 0.608 0.16 0.171 0.363 0.256 0.619 0.256s0.459-0.085 0.629-0.245c0.171-0.171 0.245-0.373 0.245-0.619 0-0.256-0.085-0.459-0.245-0.629-0.171-0.171-0.373-0.245-0.629-0.245s-0.459 0.085-0.629 0.245-0.245 0.373-0.245 0.629zM15.872 20.064c0 0.181 0.053 0.352 0.171 0.512s0.288 0.277 0.523 0.341c0.021 0 0.064 0.011 0.128 0.021s0.117 0.021 0.149 0.021c0.117 0 0.245-0.032 0.395-0.096 0.224-0.117 0.363-0.299 0.427-0.555l0.256-0.96c0.064-0.245 0.043-0.469-0.075-0.672s-0.299-0.352-0.533-0.427c-0.245-0.075-0.48-0.053-0.683 0.064-0.213 0.117-0.352 0.288-0.427 0.544l-0.299 0.971c0 0.021 0 0.053-0.011 0.117-0.011 0.032-0.021 0.075-0.021 0.117zM16.245 9.696c0.704-0.704 1.579-1.056 2.635-1.056s1.952 0.363 2.688 1.088 1.109 1.6 1.109 2.645c0 0.704-0.192 1.376-0.565 2.005-1.045-1.045-2.293-1.568-3.733-1.568h-0.331c-0.299-1.173-0.907-2.208-1.803-3.115zM18.005 4.085c0 0.245 0.085 0.448 0.245 0.619 0.16 0.16 0.373 0.245 0.629 0.245s0.48-0.085 0.661-0.245c0.181-0.16 0.267-0.373 0.267-0.619v-2.208c0-0.245-0.096-0.459-0.277-0.64s-0.405-0.267-0.651-0.267c-0.245 0-0.459 0.085-0.619 0.267-0.171 0.181-0.245 0.395-0.245 0.64v2.208zM23.893 6.496c0 0.267 0.085 0.48 0.245 0.64 0.384 0.384 0.811 0.384 1.291 0l1.525-1.525c0.181-0.181 0.267-0.405 0.267-0.672 0-0.256-0.085-0.469-0.267-0.64-0.181-0.181-0.395-0.267-0.64-0.267s-0.459 0.085-0.651 0.256l-1.525 1.579c-0.16 0.16-0.245 0.363-0.245 0.629zM24.725 19.136c0 0.245 0.096 0.459 0.288 0.629l0.651 0.672c0.213 0.171 0.427 0.256 0.651 0.256 0.213 0 0.427-0.085 0.64-0.256 0.181-0.171 0.267-0.373 0.267-0.629 0-0.245-0.085-0.459-0.267-0.661l-0.693-0.651c-0.16-0.181-0.363-0.267-0.608-0.267s-0.459 0.085-0.64 0.267c-0.192 0.181-0.288 0.395-0.288 0.64zM26.304 12.373c0 0.256 0.096 0.459 0.277 0.629 0.192 0.192 0.416 0.288 0.661 0.288h2.165c0.245 0 0.459-0.085 0.629-0.267s0.256-0.395 0.256-0.651c0-0.256-0.085-0.469-0.256-0.64-0.171-0.181-0.373-0.267-0.629-0.267h-2.165c-0.256 0-0.469 0.085-0.661 0.267s-0.277 0.395-0.277 0.64z"></path>
</svg>
