<!-- Generated by IcoMoon.io -->
<svg version="1.1" xmlns="http://www.w3.org/2000/svg" width="32" height="32" viewBox="0 0 32 32">
<title>sunny-rain</title>
<path d="M1.611 18.016c0 1.419 0.491 2.645 1.483 3.669s2.197 1.568 3.637 1.632c0.117 0 0.181-0.064 0.181-0.181v-1.429c0-0.117-0.064-0.181-0.181-0.181-0.917-0.043-1.696-0.416-2.336-1.099s-0.96-1.493-0.96-2.411c0-0.875 0.299-1.643 0.907-2.304s1.355-1.035 2.24-1.141l0.565-0.053c0.139 0 0.213-0.064 0.213-0.181l0.075-0.576c0.117-1.152 0.597-2.123 1.461-2.901s1.877-1.173 3.040-1.173c1.163 0 2.176 0.395 3.051 1.173s1.365 1.749 1.493 2.901l0.075 0.608c0 0.128 0.064 0.203 0.181 0.203h1.728c0.949 0 1.76 0.341 2.453 1.024s1.035 1.483 1.035 2.421c0 0.928-0.32 1.728-0.96 2.411s-1.419 1.045-2.325 1.099c-0.128 0-0.203 0.064-0.203 0.181v1.429c0 0.117 0.064 0.181 0.203 0.181 1.419-0.043 2.624-0.587 3.616-1.611 0.992-1.035 1.483-2.261 1.483-3.68 0-0.768-0.149-1.483-0.448-2.144 0.832-1.035 1.248-2.208 1.248-3.531 0-1.013-0.256-1.952-0.757-2.816s-1.184-1.547-2.048-2.048-1.792-0.747-2.795-0.747c-1.664 0-3.040 0.619-4.139 1.856-0.875-0.469-1.835-0.704-2.891-0.704-1.504 0-2.848 0.469-4.011 1.408s-1.909 2.133-2.24 3.584c-1.184 0.277-2.155 0.896-2.923 1.856s-1.152 2.048-1.152 3.275zM7.371 25.333c0 0.181 0.053 0.352 0.171 0.523s0.288 0.288 0.523 0.352c0.117 0.021 0.213 0.043 0.288 0.043 0.416 0 0.693-0.224 0.821-0.683l1.685-6.272c0.075-0.256 0.043-0.491-0.085-0.715s-0.32-0.352-0.565-0.405c-0.235-0.075-0.459-0.053-0.672 0.075-0.213 0.117-0.363 0.299-0.437 0.544l-1.685 6.304c-0.021 0.139-0.043 0.213-0.043 0.235zM10.155 28.619c0 0.203 0.053 0.384 0.16 0.555s0.288 0.277 0.555 0.32c0.117 0.021 0.213 0.043 0.277 0.043 0.171 0 0.331-0.064 0.48-0.181 0.149-0.128 0.245-0.299 0.288-0.512l2.56-9.525c0.064-0.245 0.043-0.48-0.075-0.683s-0.299-0.352-0.533-0.427c-0.245-0.075-0.48-0.053-0.693 0.075-0.213 0.117-0.363 0.299-0.427 0.544l-2.56 9.525c-0.021 0.16-0.032 0.256-0.032 0.267zM10.603 4.907c0 0.256 0.085 0.469 0.267 0.651l0.693 0.704c0.203 0.16 0.427 0.235 0.661 0.235 0.224 0 0.437-0.085 0.619-0.245 0.181-0.171 0.277-0.373 0.277-0.629s-0.085-0.491-0.256-0.683l-0.683-0.693c-0.192-0.181-0.405-0.267-0.64-0.267-0.256 0-0.48 0.096-0.661 0.277s-0.277 0.405-0.277 0.651zM14.581 25.355c0 0.171 0.053 0.341 0.16 0.501s0.277 0.277 0.491 0.341c0.117 0.021 0.213 0.043 0.267 0.043 0.181 0 0.363-0.053 0.523-0.16s0.267-0.277 0.32-0.523l1.685-6.272c0.064-0.245 0.043-0.48-0.075-0.683-0.117-0.213-0.299-0.352-0.533-0.427-0.256-0.075-0.48-0.053-0.693 0.075-0.213 0.117-0.352 0.299-0.416 0.544l-1.685 6.304c-0.021 0.16-0.043 0.245-0.043 0.256zM16.32 9.632c0.757-0.715 1.632-1.067 2.645-1.067 1.045 0 1.941 0.373 2.667 1.109 0.736 0.736 1.099 1.632 1.099 2.688 0 0.661-0.181 1.323-0.555 1.973-1.035-1.035-2.272-1.547-3.723-1.547h-0.352c-0.288-1.259-0.885-2.304-1.781-3.157zM18.048 4.032c0 0.245 0.085 0.459 0.267 0.629s0.395 0.256 0.651 0.256c0.245 0 0.459-0.085 0.629-0.245 0.171-0.171 0.256-0.373 0.256-0.629v-2.197c0-0.277-0.085-0.501-0.245-0.672-0.171-0.171-0.373-0.256-0.629-0.256-0.267 0-0.491 0.085-0.661 0.267s-0.256 0.395-0.256 0.661v2.187zM23.947 6.464c0 0.256 0.096 0.469 0.288 0.629 0.149 0.171 0.341 0.256 0.587 0.277s0.469-0.075 0.661-0.277l1.536-1.525c0.192-0.181 0.277-0.405 0.277-0.672 0-0.256-0.085-0.48-0.267-0.651s-0.395-0.256-0.651-0.256c-0.224 0-0.427 0.085-0.619 0.267l-1.525 1.536c-0.192 0.181-0.288 0.405-0.288 0.672zM24.811 19.104c0 0.256 0.085 0.48 0.256 0.672l0.693 0.672c0.192 0.149 0.405 0.224 0.64 0.224l0.021 0.021c0.245 0 0.448-0.085 0.619-0.256s0.256-0.395 0.256-0.651c0-0.256-0.096-0.459-0.277-0.619l-0.661-0.704c-0.192-0.171-0.416-0.256-0.661-0.256s-0.459 0.085-0.629 0.267-0.256 0.373-0.256 0.629zM26.368 12.352c0 0.256 0.096 0.459 0.277 0.629 0.192 0.192 0.405 0.277 0.661 0.277h2.165c0.256 0 0.469-0.085 0.651-0.267s0.267-0.395 0.267-0.64c0-0.256-0.085-0.469-0.267-0.651s-0.395-0.277-0.651-0.277h-2.165c-0.256 0-0.469 0.096-0.661 0.277s-0.277 0.395-0.277 0.651z"></path>
</svg>
