<!-- Generated by IcoMoon.io -->
<svg version="1.1" xmlns="http://www.w3.org/2000/svg" width="32" height="32" viewBox="0 0 32 32">
<title>sunrise</title>
<path d="M11.101 18c0.465-2.283 2.48-4 4.9-4s4.435 1.717 4.899 4h2c-0.49-3.383-3.38-6-6.898-6-3.517 0-6.409 2.617-6.898 6h1.999zM16.001 10c0.552 0 1-0.448 1-1v-2c0-0.552-0.448-1-1-1s-1 0.448-1 1v2c0 0.552 0.448 1 1 1zM25.192 9.807c-0.391-0.391-1.023-0.391-1.414 0l-1.414 1.414c-0.391 0.391-0.391 1.023 0 1.414s1.023 0.391 1.414 0l1.414-1.414c0.391-0.391 0.391-1.023 0-1.414zM9.636 11.221l-1.414-1.414c-0.391-0.391-1.023-0.391-1.414 0s-0.391 1.023 0 1.414l1.414 1.414c0.391 0.391 1.024 0.391 1.414 0s0.391-1.023 0-1.414zM22.001 20h-12c-0.552 0-1 0.448-1 1s0.448 1 1 1h12c0.552 0 1-0.448 1-1s-0.448-1-1-1zM20.001 24h-8c-0.552 0-1 0.448-1 1s0.448 1 1 1h8c0.552 0 1-0.448 1-1s-0.448-1-1-1z"></path>
</svg>
