<!-- Generated by IcoMoon.io -->
<svg version="1.1" xmlns="http://www.w3.org/2000/svg" width="21" height="32" viewBox="0 0 21 32">
<title>thumb-tack</title>
<path d="M8.571 15.429v-8c0-0.321-0.25-0.571-0.571-0.571s-0.571 0.25-0.571 0.571v8c0 0.321 0.25 0.571 0.571 0.571s0.571-0.25 0.571-0.571zM20.571 21.714c0 0.625-0.518 1.143-1.143 1.143h-7.661l-0.911 8.625c-0.036 0.286-0.268 0.518-0.554 0.518h-0.018c-0.286 0-0.518-0.196-0.571-0.482l-1.357-8.661h-7.214c-0.625 0-1.143-0.518-1.143-1.143 0-2.929 2.214-5.714 4.571-5.714v-9.143c-1.25 0-2.286-1.036-2.286-2.286s1.036-2.286 2.286-2.286h11.429c1.25 0 2.286 1.036 2.286 2.286s-1.036 2.286-2.286 2.286v9.143c2.357 0 4.571 2.786 4.571 5.714z"></path>
</svg>
