<!-- Generated by IcoMoon.io -->
<svg version="1.1" xmlns="http://www.w3.org/2000/svg" width="29" height="32" viewBox="0 0 29 32">
<title>thumbs-down</title>
<path d="M4.571 10.286c0 0.625-0.518 1.143-1.143 1.143-0.643 0-1.143-0.518-1.143-1.143 0-0.643 0.5-1.143 1.143-1.143 0.625 0 1.143 0.5 1.143 1.143zM7.429 19.429v-11.429c0-0.625-0.518-1.143-1.143-1.143h-5.143c-0.625 0-1.143 0.518-1.143 1.143v11.429c0 0.625 0.518 1.143 1.143 1.143h5.143c0.625 0 1.143-0.518 1.143-1.143zM27.589 16.768c0.607 0.679 0.982 1.714 0.982 2.661-0.018 1.857-1.571 3.429-3.429 3.429h-4.946c0.143 0.571 0.321 0.75 0.518 1.143 0.464 0.929 1 1.964 1 3.429 0 1.375 0 4.571-4 4.571-0.304 0-0.589-0.125-0.804-0.339-0.768-0.75-0.982-1.857-1.179-2.911-0.214-1.036-0.411-2.107-1.107-2.804-0.554-0.554-1.161-1.321-1.804-2.143-0.786-1.036-2.5-3.161-3.161-3.214-0.589-0.054-1.089-0.554-1.089-1.143v-11.446c0-0.625 0.536-1.125 1.143-1.143 0.625-0.018 1.696-0.393 2.821-0.786 1.929-0.661 4.339-1.5 6.893-1.5h2.304c1.571 0.018 2.75 0.482 3.518 1.393 0.679 0.804 0.982 1.893 0.875 3.232 0.446 0.429 0.786 1.018 0.964 1.679 0.196 0.714 0.196 1.429 0 2.089 0.536 0.714 0.804 1.554 0.768 2.446 0 0.25-0.071 0.786-0.268 1.357z"></path>
</svg>
