<!-- Generated by IcoMoon.io -->
<svg version="1.1" xmlns="http://www.w3.org/2000/svg" width="27" height="32" viewBox="0 0 27 32">
<title>times-circle</title>
<path d="M20.518 20.036c0-0.304-0.125-0.589-0.339-0.804l-3.232-3.232 3.232-3.232c0.214-0.214 0.339-0.5 0.339-0.804s-0.125-0.607-0.339-0.821l-1.607-1.607c-0.214-0.214-0.518-0.339-0.821-0.339s-0.589 0.125-0.804 0.339l-3.232 3.232-3.232-3.232c-0.214-0.214-0.5-0.339-0.804-0.339s-0.607 0.125-0.821 0.339l-1.607 1.607c-0.214 0.214-0.339 0.518-0.339 0.821s0.125 0.589 0.339 0.804l3.232 3.232-3.232 3.232c-0.214 0.214-0.339 0.5-0.339 0.804s0.125 0.607 0.339 0.821l1.607 1.607c0.214 0.214 0.518 0.339 0.821 0.339s0.589-0.125 0.804-0.339l3.232-3.232 3.232 3.232c0.214 0.214 0.5 0.339 0.804 0.339s0.607-0.125 0.821-0.339l1.607-1.607c0.214-0.214 0.339-0.518 0.339-0.821zM27.429 16c0 7.571-6.143 13.714-13.714 13.714s-13.714-6.143-13.714-13.714 6.143-13.714 13.714-13.714 13.714 6.143 13.714 13.714z"></path>
</svg>
