<!-- Generated by IcoMoon.io -->
<svg version="1.1" xmlns="http://www.w3.org/2000/svg" width="18" height="32" viewBox="0 0 18 32">
<title>tint</title>
<path d="M9.143 20.571c0-0.446-0.143-0.875-0.357-1.232-0.232-0.357-1.179-1.571-1.554-2.768-0.054-0.196-0.232-0.286-0.375-0.286s-0.321 0.089-0.375 0.286c-0.375 1.196-1.321 2.411-1.554 2.768-0.214 0.357-0.357 0.786-0.357 1.232 0 1.268 1.018 2.286 2.286 2.286s2.286-1.018 2.286-2.286zM18.286 18.286c0 5.054-4.089 9.143-9.143 9.143s-9.143-4.089-9.143-9.143c0-1.804 0.554-3.482 1.446-4.911 0.911-1.429 4.732-6.268 6.179-11.089 0.232-0.768 0.946-1.143 1.518-1.143s1.304 0.375 1.518 1.143c1.446 4.821 5.268 9.661 6.179 11.089s1.446 3.107 1.446 4.911z"></path>
</svg>
