<!-- Generated by IcoMoon.io -->
<svg version="1.1" xmlns="http://www.w3.org/2000/svg" width="37" height="32" viewBox="0 0 37 32">
<title>toggle-off</title>
<path d="M20.571 16c0-5.036-4.107-9.143-9.143-9.143s-9.143 4.107-9.143 9.143 4.107 9.143 9.143 9.143 9.143-4.107 9.143-9.143zM34.286 16c0-5.036-4.107-9.143-9.143-9.143h-6.893c2.786 2.089 4.607 5.411 4.607 9.143s-1.821 7.054-4.607 9.143h6.893c5.036 0 9.143-4.107 9.143-9.143zM36.571 16c0 6.304-5.125 11.429-11.429 11.429h-13.714c-6.304 0-11.429-5.125-11.429-11.429s5.125-11.429 11.429-11.429h13.714c6.304 0 11.429 5.125 11.429 11.429z"></path>
</svg>
