<!-- Generated by IcoMoon.io -->
<svg version="1.1" xmlns="http://www.w3.org/2000/svg" width="33" height="32" viewBox="0 0 33 32">
<title>truck</title>
<path d="M11.429 25.143c0-1.25-1.036-2.286-2.286-2.286s-2.286 1.036-2.286 2.286 1.036 2.286 2.286 2.286 2.286-1.036 2.286-2.286zM4.571 16h6.857v-4.571h-2.821c-0.071 0-0.339 0.107-0.393 0.161l-3.482 3.482c-0.054 0.054-0.161 0.321-0.161 0.393v0.536zM27.429 25.143c0-1.25-1.036-2.286-2.286-2.286s-2.286 1.036-2.286 2.286 1.036 2.286 2.286 2.286 2.286-1.036 2.286-2.286zM32 5.714v18.286c0 1.321-1.393 1.143-2.286 1.143 0 2.518-2.054 4.571-4.571 4.571s-4.571-2.054-4.571-4.571h-6.857c0 2.518-2.054 4.571-4.571 4.571s-4.571-2.054-4.571-4.571h-1.143c-0.893 0-2.286 0.179-2.286-1.143 0-0.625 0.518-1.143 1.143-1.143v-5.714c0-1.268-0.179-2.679 0.804-3.661l3.536-3.536c0.446-0.446 1.304-0.804 1.946-0.804h2.857v-3.429c0-0.625 0.518-1.143 1.143-1.143h18.286c0.625 0 1.143 0.518 1.143 1.143z"></path>
</svg>
