<!-- Generated by IcoMoon.io -->
<svg version="1.1" xmlns="http://www.w3.org/2000/svg" width="30" height="32" viewBox="0 0 30 32">
<title>umbrella</title>
<path d="M16 14.786v10.357c0 2.482-2.089 4.571-4.571 4.571s-4.571-2.089-4.571-4.571c0-0.625 0.518-1.143 1.143-1.143s1.143 0.518 1.143 1.143c0 1.196 1.089 2.286 2.286 2.286s2.286-1.089 2.286-2.286v-10.357c0.375-0.125 0.75-0.196 1.143-0.196s0.768 0.071 1.143 0.196zM29.714 15.268c0 0.304-0.268 0.571-0.571 0.571-0.161 0-0.286-0.071-0.411-0.179-1.036-0.964-2-1.643-3.482-1.643-1.696 0-3.161 1.054-4.125 2.393-0.214 0.304-0.375 0.625-0.571 0.929-0.125 0.196-0.268 0.304-0.5 0.304-0.25 0-0.393-0.107-0.518-0.304-0.196-0.304-0.357-0.625-0.571-0.929-0.964-1.339-2.411-2.393-4.107-2.393s-3.143 1.054-4.107 2.393c-0.214 0.304-0.375 0.625-0.571 0.929-0.125 0.196-0.268 0.304-0.518 0.304-0.232 0-0.375-0.107-0.5-0.304-0.196-0.304-0.357-0.625-0.571-0.929-0.964-1.339-2.429-2.393-4.125-2.393-1.482 0-2.446 0.679-3.482 1.643-0.125 0.107-0.25 0.179-0.411 0.179-0.304 0-0.571-0.268-0.571-0.571 0-0.054 0-0.089 0.018-0.125 1.643-6.75 8.161-10.571 14.839-10.571 6.643 0 13.232 3.821 14.839 10.571 0.018 0.036 0.018 0.071 0.018 0.125zM16 2.286v1.75c-0.375-0.018-0.768-0.036-1.143-0.036s-0.768 0.018-1.143 0.036v-1.75c0-0.625 0.518-1.143 1.143-1.143s1.143 0.518 1.143 1.143z"></path>
</svg>
