<!-- Generated by IcoMoon.io -->
<svg version="1.1" xmlns="http://www.w3.org/2000/svg" width="30" height="32" viewBox="0 0 30 32">
<title>upload</title>
<path d="M22.857 26.286c0-0.625-0.518-1.143-1.143-1.143s-1.143 0.518-1.143 1.143 0.518 1.143 1.143 1.143 1.143-0.518 1.143-1.143zM27.429 26.286c0-0.625-0.518-1.143-1.143-1.143s-1.143 0.518-1.143 1.143 0.518 1.143 1.143 1.143 1.143-0.518 1.143-1.143zM29.714 22.286v5.714c0 0.946-0.768 1.714-1.714 1.714h-26.286c-0.946 0-1.714-0.768-1.714-1.714v-5.714c0-0.946 0.768-1.714 1.714-1.714h7.625c0.482 1.321 1.75 2.286 3.232 2.286h4.571c1.482 0 2.75-0.964 3.232-2.286h7.625c0.946 0 1.714 0.768 1.714 1.714zM23.911 10.714c-0.179 0.429-0.589 0.714-1.054 0.714h-4.571v8c0 0.625-0.518 1.143-1.143 1.143h-4.571c-0.625 0-1.143-0.518-1.143-1.143v-8h-4.571c-0.464 0-0.875-0.286-1.054-0.714-0.179-0.411-0.089-0.911 0.25-1.232l8-8c0.214-0.232 0.518-0.339 0.804-0.339s0.589 0.107 0.804 0.339l8 8c0.339 0.321 0.429 0.821 0.25 1.232z"></path>
</svg>
