<!-- Generated by IcoMoon.io -->
<svg version="1.1" xmlns="http://www.w3.org/2000/svg" width="37" height="32" viewBox="0 0 37 32">
<title>user-plus</title>
<path d="M12.571 16c-3.786 0-6.857-3.071-6.857-6.857s3.071-6.857 6.857-6.857 6.857 3.071 6.857 6.857-3.071 6.857-6.857 6.857zM29.714 18.286h6.286c0.304 0 0.571 0.268 0.571 0.571v3.429c0 0.304-0.268 0.571-0.571 0.571h-6.286v6.286c0 0.304-0.268 0.571-0.571 0.571h-3.429c-0.304 0-0.571-0.268-0.571-0.571v-6.286h-6.286c-0.304 0-0.571-0.268-0.571-0.571v-3.429c0-0.304 0.268-0.571 0.571-0.571h6.286v-6.286c0-0.304 0.268-0.571 0.571-0.571h3.429c0.304 0 0.571 0.268 0.571 0.571v6.286zM16.571 22.286c0 1.25 1.036 2.286 2.286 2.286h4.571v4.25c-0.875 0.643-1.982 0.893-3.054 0.893h-15.607c-2.857 0-4.768-1.714-4.768-4.625 0-4.036 0.946-10.232 6.179-10.232 0.286 0 0.482 0.125 0.696 0.304 1.75 1.339 3.446 2.179 5.696 2.179s3.946-0.839 5.696-2.179c0.214-0.179 0.411-0.304 0.696-0.304 1.518 0 2.857 0.571 3.875 1.714h-3.982c-1.25 0-2.286 1.036-2.286 2.286v3.429z"></path>
</svg>
