<!-- Generated by IcoMoon.io -->
<svg version="1.1" xmlns="http://www.w3.org/2000/svg" width="25" height="32" viewBox="0 0 25 32">
<title>user-md</title>
<path d="M6.857 24c0 0.625-0.518 1.143-1.143 1.143s-1.143-0.518-1.143-1.143 0.518-1.143 1.143-1.143 1.143 0.518 1.143 1.143zM25.143 25.089c0 2.911-1.911 4.625-4.768 4.625h-15.607c-2.857 0-4.768-1.714-4.768-4.625 0-3.554 0.714-9.161 4.964-10.089-0.286 0.679-0.393 1.411-0.393 2.143v3.625c-1.375 0.482-2.286 1.786-2.286 3.232 0 1.893 1.536 3.429 3.429 3.429s3.429-1.536 3.429-3.429c0-1.446-0.929-2.75-2.286-3.232v-3.625c0-0.589 0.054-1.179 0.446-1.661 1.5 1.179 3.357 1.857 5.268 1.857s3.768-0.679 5.268-1.857c0.393 0.482 0.446 1.071 0.446 1.661v1.143c-2.518 0-4.571 2.054-4.571 4.571v1.589c-0.357 0.321-0.571 0.786-0.571 1.268 0 0.946 0.768 1.714 1.714 1.714s1.714-0.768 1.714-1.714c0-0.482-0.214-0.946-0.571-1.268v-1.589c0-1.25 1.036-2.286 2.286-2.286s2.286 1.036 2.286 2.286v1.589c-0.357 0.321-0.571 0.786-0.571 1.268 0 0.946 0.768 1.714 1.714 1.714s1.714-0.768 1.714-1.714c0-0.482-0.214-0.946-0.571-1.268v-1.589c0-1.625-0.875-3.143-2.286-3.946 0-1.304 0.125-2.696-0.393-3.911 4.25 0.929 4.964 6.536 4.964 10.089zM19.429 9.143c0 3.786-3.071 6.857-6.857 6.857s-6.857-3.071-6.857-6.857 3.071-6.857 6.857-6.857 6.857 3.071 6.857 6.857z"></path>
</svg>
