<!-- Generated by IcoMoon.io -->
<svg version="1.1" xmlns="http://www.w3.org/2000/svg" width="36" height="32" viewBox="0 0 36 32">
<title>user-times</title>
<path d="M12.571 16c-3.786 0-6.857-3.071-6.857-6.857s3.071-6.857 6.857-6.857 6.857 3.071 6.857 6.857-3.071 6.857-6.857 6.857zM31.804 21.714l4.446 4.446c0.107 0.107 0.161 0.25 0.161 0.411 0 0.143-0.054 0.286-0.161 0.393l-2.429 2.429c-0.107 0.107-0.25 0.161-0.393 0.161-0.161 0-0.304-0.054-0.411-0.161l-4.446-4.446-4.446 4.446c-0.107 0.107-0.25 0.161-0.411 0.161-0.143 0-0.286-0.054-0.393-0.161l-2.429-2.429c-0.107-0.107-0.161-0.25-0.161-0.393 0-0.161 0.054-0.304 0.161-0.411l4.446-4.446-4.446-4.446c-0.107-0.107-0.161-0.25-0.161-0.411 0-0.143 0.054-0.286 0.161-0.393l2.429-2.429c0.107-0.107 0.25-0.161 0.393-0.161 0.161 0 0.304 0.054 0.411 0.161l4.446 4.446 4.446-4.446c0.107-0.107 0.25-0.161 0.411-0.161 0.143 0 0.286 0.054 0.393 0.161l2.429 2.429c0.107 0.107 0.161 0.25 0.161 0.393 0 0.161-0.054 0.304-0.161 0.411zM22.911 21.714l-3.232 3.232c-0.429 0.429-0.661 1.018-0.661 1.625 0 0.589 0.232 1.179 0.661 1.607l1.482 1.482c-0.25 0.036-0.518 0.054-0.786 0.054h-15.607c-2.857 0-4.768-1.714-4.768-4.625 0-4.036 0.946-10.232 6.179-10.232 0.286 0 0.482 0.125 0.696 0.304 1.714 1.357 3.464 2.179 5.696 2.179s3.982-0.821 5.696-2.179c0.214-0.179 0.411-0.304 0.696-0.304 0.339 0 0.679 0.036 1.018 0.107-0.589 0.571-0.964 1.036-0.964 1.893 0 0.607 0.232 1.196 0.661 1.625z"></path>
</svg>
