<!-- Generated by IcoMoon.io -->
<svg version="1.1" xmlns="http://www.w3.org/2000/svg" width="36" height="32" viewBox="0 0 36 32">
<title>venus-mars</title>
<path d="M29.714 0.571c0-0.321 0.25-0.571 0.571-0.571h5.143c0.625 0 1.143 0.518 1.143 1.143v5.143c0 0.321-0.25 0.571-0.571 0.571h-1.143c-0.321 0-0.571-0.25-0.571-0.571v-2.393l-4.536 4.554c1.75 2.196 2.625 5.107 2.089 8.232-0.75 4.286-4.232 7.696-8.536 8.339-2.714 0.411-5.268-0.25-7.304-1.607-1.339 0.893-2.893 1.482-4.571 1.661v2.357h1.714c0.321 0 0.571 0.25 0.571 0.571v1.143c0 0.321-0.25 0.571-0.571 0.571h-1.714v1.714c0 0.321-0.25 0.571-0.571 0.571h-1.143c-0.321 0-0.571-0.25-0.571-0.571v-1.714h-1.714c-0.321 0-0.571-0.25-0.571-0.571v-1.143c0-0.321 0.25-0.571 0.571-0.571h1.714v-2.357c-5.607-0.625-9.875-5.768-9.036-11.679 0.607-4.446 4.143-8.018 8.571-8.696 2.732-0.411 5.286 0.25 7.321 1.607 1.643-1.089 3.607-1.732 5.714-1.732 2.429 0 4.661 0.857 6.411 2.25l4.554-4.536h-2.393c-0.321 0-0.571-0.25-0.571-0.571v-1.143zM16 20.446c1.411-1.446 2.286-3.411 2.286-5.589s-0.875-4.143-2.286-5.589c-1.411 1.446-2.286 3.411-2.286 5.589s0.875 4.143 2.286 5.589zM2.286 14.857c0 4.411 3.589 8 8 8 1.411 0 2.75-0.375 3.893-1.018-1.696-1.839-2.75-4.286-2.75-6.982s1.054-5.143 2.75-6.982c-1.143-0.643-2.482-1.018-3.893-1.018-4.411 0-8 3.589-8 8zM21.714 22.857c4.411 0 8-3.589 8-8s-3.589-8-8-8c-1.411 0-2.75 0.375-3.893 1.018 1.696 1.839 2.75 4.286 2.75 6.982s-1.054 5.143-2.75 6.982c1.143 0.643 2.482 1.018 3.893 1.018z"></path>
</svg>
