<!-- Generated by IcoMoon.io -->
<svg version="1.1" xmlns="http://www.w3.org/2000/svg" width="32" height="32" viewBox="0 0 32 32">
<title>venus-double</title>
<path d="M31.964 9.446c0.446 5.661-3.696 10.464-9.107 11.054v4.643h4c0.321 0 0.571 0.25 0.571 0.571v1.143c0 0.321-0.25 0.571-0.571 0.571h-4v4c0 0.321-0.25 0.571-0.571 0.571h-1.143c-0.321 0-0.571-0.25-0.571-0.571v-4h-9.143v4c0 0.321-0.25 0.571-0.571 0.571h-1.143c-0.321 0-0.571-0.25-0.571-0.571v-4h-4c-0.321 0-0.571-0.25-0.571-0.571v-1.143c0-0.321 0.25-0.571 0.571-0.571h4v-4.643c-5.411-0.589-9.554-5.393-9.107-11.054 0.393-4.911 4.339-8.929 9.232-9.393 2.5-0.25 4.839 0.411 6.732 1.679 1.893-1.268 4.232-1.929 6.732-1.679 4.893 0.464 8.839 4.482 9.232 9.393zM16 15.875c1.411-1.446 2.286-3.411 2.286-5.589s-0.875-4.143-2.286-5.589c-1.411 1.446-2.286 3.411-2.286 5.589s0.875 4.143 2.286 5.589zM10.286 18.286c1.411 0 2.732-0.375 3.893-1.018-1.714-1.839-2.75-4.286-2.75-6.982s1.054-5.143 2.75-6.982c-1.161-0.643-2.482-1.018-3.893-1.018-4.411 0-8 3.589-8 8s3.589 8 8 8zM20.571 25.143v-4.643c-1.679-0.179-3.232-0.786-4.571-1.679-1.339 0.893-2.893 1.5-4.571 1.679v4.643h9.143zM21.714 18.286c4.411 0 8-3.589 8-8s-3.589-8-8-8c-1.411 0-2.732 0.375-3.893 1.018 1.696 1.839 2.75 4.286 2.75 6.982s-1.036 5.143-2.75 6.982c1.161 0.643 2.482 1.018 3.893 1.018z"></path>
</svg>
