<!-- Generated by IcoMoon.io -->
<svg version="1.1" xmlns="http://www.w3.org/2000/svg" width="20" height="32" viewBox="0 0 20 32">
<title>venus</title>
<path d="M20.571 10.286c0 5.286-4 9.643-9.143 10.214v4.643h4c0.321 0 0.571 0.25 0.571 0.571v1.143c0 0.321-0.25 0.571-0.571 0.571h-4v4c0 0.321-0.25 0.571-0.571 0.571h-1.143c-0.321 0-0.571-0.25-0.571-0.571v-4h-4c-0.321 0-0.571-0.25-0.571-0.571v-1.143c0-0.321 0.25-0.571 0.571-0.571h4v-4.643c-5.411-0.589-9.554-5.393-9.107-11.054 0.393-4.857 4.25-8.839 9.071-9.375 6.214-0.696 11.464 4.143 11.464 10.214zM2.286 10.286c0 4.411 3.589 8 8 8s8-3.589 8-8-3.589-8-8-8-8 3.589-8 8z"></path>
</svg>
