<!-- Generated by IcoMoon.io -->
<svg version="1.1" xmlns="http://www.w3.org/2000/svg" width="21" height="32" viewBox="0 0 21 32">
<title>volume-down</title>
<path d="M13.714 6.286v19.429c0 0.625-0.518 1.143-1.143 1.143-0.304 0-0.589-0.125-0.804-0.339l-5.946-5.946h-4.679c-0.625 0-1.143-0.518-1.143-1.143v-6.857c0-0.625 0.518-1.143 1.143-1.143h4.679l5.946-5.946c0.214-0.214 0.5-0.339 0.804-0.339 0.625 0 1.143 0.518 1.143 1.143zM20.571 16c0 1.786-1.089 3.518-2.768 4.196-0.143 0.071-0.304 0.089-0.446 0.089-0.625 0-1.143-0.5-1.143-1.143 0-1.357 2.071-0.982 2.071-3.143s-2.071-1.786-2.071-3.143c0-0.643 0.518-1.143 1.143-1.143 0.143 0 0.304 0.018 0.446 0.089 1.679 0.661 2.768 2.411 2.768 4.196z"></path>
</svg>
