<!-- Generated by IcoMoon.io -->
<svg version="1.1" xmlns="http://www.w3.org/2000/svg" width="30" height="32" viewBox="0 0 30 32">
<title>volume-up</title>
<path d="M13.714 6.286v19.429c0 0.625-0.518 1.143-1.143 1.143-0.304 0-0.589-0.125-0.804-0.339l-5.946-5.946h-4.679c-0.625 0-1.143-0.518-1.143-1.143v-6.857c0-0.625 0.518-1.143 1.143-1.143h4.679l5.946-5.946c0.214-0.214 0.5-0.339 0.804-0.339 0.625 0 1.143 0.518 1.143 1.143zM20.571 16c0 1.786-1.089 3.518-2.768 4.196-0.143 0.071-0.304 0.089-0.446 0.089-0.625 0-1.143-0.5-1.143-1.143 0-1.357 2.071-0.982 2.071-3.143s-2.071-1.786-2.071-3.143c0-0.643 0.518-1.143 1.143-1.143 0.143 0 0.304 0.018 0.446 0.089 1.679 0.661 2.768 2.411 2.768 4.196zM25.143 16c0 3.625-2.179 7-5.536 8.411-0.143 0.054-0.304 0.089-0.446 0.089-0.643 0-1.161-0.518-1.161-1.143 0-0.5 0.286-0.839 0.696-1.054 0.482-0.25 0.929-0.464 1.357-0.786 1.768-1.286 2.804-3.339 2.804-5.518s-1.036-4.232-2.804-5.518c-0.429-0.321-0.875-0.536-1.357-0.786-0.411-0.214-0.696-0.554-0.696-1.054 0-0.625 0.518-1.143 1.143-1.143 0.161 0 0.321 0.036 0.464 0.089 3.357 1.411 5.536 4.786 5.536 8.411zM29.714 16c0 5.482-3.268 10.446-8.304 12.607-0.143 0.054-0.304 0.089-0.464 0.089-0.625 0-1.143-0.518-1.143-1.143 0-0.518 0.268-0.804 0.696-1.054 0.25-0.143 0.536-0.232 0.804-0.375 0.5-0.268 1-0.571 1.464-0.911 2.929-2.161 4.661-5.571 4.661-9.214s-1.732-7.054-4.661-9.214c-0.464-0.339-0.964-0.643-1.464-0.911-0.268-0.143-0.554-0.232-0.804-0.375-0.429-0.25-0.696-0.536-0.696-1.054 0-0.625 0.518-1.143 1.143-1.143 0.161 0 0.321 0.036 0.464 0.089 5.036 2.161 8.304 7.125 8.304 12.607z"></path>
</svg>
