<!-- Generated by IcoMoon.io -->
<svg version="1.1" xmlns="http://www.w3.org/2000/svg" width="32" height="32" viewBox="0 0 32 32">
<title>weather2</title>
<path d="M2.1 16c-0.065-0.323-0.1-0.658-0.1-1 0-2.762 2.238-5 5-5 0.676 0 1.316 0.138 1.902 0.38 1.327-2.588 3.991-4.38 7.098-4.38s5.771 1.792 7.096 4.38c0.587-0.242 1.229-0.38 1.904-0.38 2.762 0 5 2.238 5 5 0 0.342-0.035 0.677-0.102 1h2c0.049-0.329 0.102-0.658 0.102-1 0-3.859-3.141-7-7-7-0.332 0-0.66 0.023-0.987 0.070-1.867-2.544-4.814-4.070-8.013-4.070s-6.145 1.526-8.013 4.070c-0.327-0.047-0.655-0.070-0.987-0.070-3.859 0-7 3.141-7 7 0 0.342 0.053 0.671 0.102 1h1.999zM31 18h-30c-0.552 0-1 0.448-1 1s0.448 1 1 1h30c0.552 0 1-0.448 1-1s-0.448-1-1-1zM31 22h-30c-0.552 0-1 0.448-1 1s0.448 1 1 1h30c0.552 0 1-0.448 1-1s-0.448-1-1-1zM31 26h-30c-0.552 0-1 0.448-1 1s0.448 1 1 1h30c0.552 0 1-0.448 1-1s-0.448-1-1-1z"></path>
</svg>
