<!-- Generated by IcoMoon.io -->
<svg version="1.1" xmlns="http://www.w3.org/2000/svg" width="32" height="32" viewBox="0 0 32 32">
<title>weather1</title>
<path d="M4 19.938h24c0.552 0 1-0.448 1-1s-0.448-1-1-1h-24c-0.552 0-1 0.448-1 1s0.448 1 1 1zM28 21.938h-24c-0.552 0-1 0.448-1 1s0.448 1 1 1h24c0.552 0 1-0.448 1-1s-0.448-1-1-1zM28 25.938h-24c-0.552 0-1 0.448-1 1s0.448 1 1 1h24c0.552 0 1-0.448 1-1s-0.448-1-1-1zM12.815 15.938c-0.021-0.021-0.047-0.034-0.068-0.055-2.34-2.34-2.34-6.146 0-8.487 0.16-0.159 0.329-0.31 0.509-0.45-0.141 2.247 0.671 4.461 2.319 6.108 1.648 1.65 3.862 2.458 6.109 2.318-0.167 0.212-0.367 0.383-0.556 0.566h2.595c0.315-0.503 0.578-1.047 0.786-1.629 0.126-0.366 0.034-0.771-0.24-1.042-0.268-0.272-0.674-0.366-1.039-0.237-2.211 0.781-4.603 0.249-6.242-1.391-1.641-1.641-2.175-4.033-1.391-6.244 0.13-0.363 0.036-0.767-0.237-1.040-0.271-0.272-0.676-0.365-1.039-0.236-1.158 0.409-2.164 1.038-2.99 1.862-2.701 2.701-3.053 6.861-1.079 9.956h2.561z"></path>
</svg>
