<!-- Generated by IcoMoon.io -->
<svg version="1.1" xmlns="http://www.w3.org/2000/svg" width="27" height="32" viewBox="0 0 27 32">
<title>wheelchair-alt</title>
<path d="M25.679 14.518c0.375 0.393 0.571 0.929 0.518 1.464l-0.786 9.839c-0.089 1-0.911 1.75-1.893 1.75-0.054 0-0.107 0-0.161-0.018-1.054-0.071-1.821-1-1.75-2.036l0.625-7.661-2.554 0.143c0.625 1.286 0.982 2.75 0.982 4.286 0 2.571-1 4.911-2.643 6.643l-2.446-2.446c1-1.107 1.625-2.589 1.625-4.196 0-3.464-2.804-6.268-6.25-6.268-1.625 0-3.089 0.625-4.214 1.643l-2.446-2.464c1.375-1.304 3.125-2.196 5.071-2.518l4.714-5.357-2.661-1.554-3.232 2.875c-0.786 0.714-1.982 0.643-2.679-0.143s-0.625-1.982 0.143-2.679l4.268-3.804c0.607-0.554 1.5-0.643 2.214-0.214 8.696 5.054 8.714 5.054 8.714 5.054 0.464 0.268 0.732 0.732 0.857 1.214 0.179 0.696 0.054 1.482-0.464 2.089l-3.661 4.143 6.625-0.357c0.554-0.036 1.089 0.161 1.482 0.571zM22.143 6.357c-1.75 0-3.179-1.411-3.179-3.179 0-1.75 1.429-3.179 3.179-3.179 1.768 0 3.196 1.429 3.196 3.179 0 1.768-1.429 3.179-3.196 3.179zM10.946 28.536c1.286 0 2.5-0.411 3.5-1.089l2.482 2.482c-1.643 1.304-3.732 2.071-5.982 2.071-5.375 0-9.732-4.357-9.732-9.714 0-2.268 0.768-4.339 2.071-6l2.482 2.482c-0.679 1-1.071 2.214-1.071 3.518 0 3.446 2.804 6.25 6.25 6.25z"></path>
</svg>
