<!-- Generated by IcoMoon.io -->
<svg version="1.1" xmlns="http://www.w3.org/2000/svg" width="37" height="32" viewBox="0 0 37 32">
<title>wifi1</title>
<path d="M18.286 27.196c-0.464 0-2.964-2.5-2.964-2.982 0-0.875 2.286-1.357 2.964-1.357s2.964 0.482 2.964 1.357c0 0.482-2.5 2.982-2.964 2.982zM23.107 22.357c-0.25 0-2.196-1.786-4.821-1.786-2.643 0-4.554 1.786-4.821 1.786-0.429 0-3.018-2.571-3.018-3 0-0.161 0.071-0.304 0.179-0.411 1.911-1.893 5.018-2.946 7.661-2.946s5.75 1.054 7.661 2.946c0.107 0.107 0.179 0.25 0.179 0.411 0 0.429-2.589 3-3.018 3zM27.982 17.5c-0.143 0-0.304-0.071-0.411-0.143-2.946-2.286-5.429-3.643-9.286-3.643-5.393 0-9.5 3.786-9.696 3.786-0.411 0-2.982-2.571-2.982-3 0-0.143 0.071-0.286 0.179-0.393 3.196-3.196 8.018-4.964 12.5-4.964s9.304 1.768 12.5 4.964c0.107 0.107 0.179 0.25 0.179 0.393 0 0.429-2.571 3-2.982 3zM32.821 12.661c-0.143 0-0.286-0.071-0.393-0.161-4.125-3.625-8.571-5.643-14.143-5.643s-10.018 2.018-14.143 5.643c-0.107 0.089-0.25 0.161-0.393 0.161-0.411 0-3-2.571-3-3 0-0.161 0.071-0.304 0.179-0.411 4.518-4.482 11.036-6.964 17.357-6.964s12.839 2.482 17.357 6.964c0.107 0.107 0.179 0.25 0.179 0.411 0 0.429-2.589 3-3 3z"></path>
</svg>
