<!-- Generated by IcoMoon.io -->
<svg version="1.1" xmlns="http://www.w3.org/2000/svg" width="32" height="32" viewBox="0 0 32 32">
<title>windy3</title>
<path d="M26.065 10.38c-1.499-1.534-3.57-2.423-5.733-2.423-2.16 0-4.23 0.889-5.73 2.423-3.301 0.154-5.938 2.887-5.938 6.224 0 3.435 2.794 6.229 6.23 6.229 0.363 0 0.725-0.031 1.078-0.094 1.297 0.846 2.809 1.303 4.359 1.303 1.553 0 3.066-0.457 4.361-1.303 0.357 0.062 0.716 0.094 1.081 0.094 3.434 0 6.227-2.794 6.227-6.229 0-3.337-2.637-6.070-5.935-6.224zM9 22h-8c-0.552 0-1 0.448-1 1s0.448 1 1 1h8c0.552 0 1-0.448 1-1s-0.448-1-1-1zM1 20h4c0.552 0 1-0.448 1-1s-0.448-1-1-1h-4c-0.552 0-1 0.448-1 1s0.448 1 1 1zM3 16h4c0.552 0 1-0.448 1-1s-0.448-1-1-1h-4c-0.552 0-1 0.448-1 1s0.448 1 1 1z"></path>
</svg>
