<!-- Generated by IcoMoon.io -->
<svg version="1.1" xmlns="http://www.w3.org/2000/svg" width="32" height="32" viewBox="0 0 32 32">
<title>windy1</title>
<path d="M26.065 10.38c-1.499-1.534-3.57-2.423-5.733-2.423-2.16 0-4.23 0.889-5.729 2.423-3.301 0.154-5.939 2.887-5.939 6.224 0 3.435 2.794 6.229 6.23 6.229 0.365 0 0.725-0.031 1.079-0.094 1.296 0.846 2.807 1.303 4.358 1.303 1.553 0 3.066-0.457 4.361-1.303 0.357 0.062 0.716 0.094 1.081 0.094 3.434 0 6.227-2.794 6.227-6.229-0-3.337-2.637-6.070-5.935-6.224zM25.773 20.833c-0.52 0-1.023-0.094-1.5-0.276-1.094 0.953-2.484 1.486-3.941 1.486-1.453 0-2.844-0.533-3.937-1.486-0.477 0.182-0.984 0.276-1.5 0.276-2.332 0-4.23-1.898-4.23-4.229 0-2.332 1.898-4.23 4.23-4.23 0.199 0 0.398 0.014 0.595 0.043 1.131-1.536 2.909-2.46 4.842-2.46s3.715 0.923 4.844 2.46c0.195-0.029 0.395-0.043 0.598-0.043 2.332 0 4.227 1.898 4.227 4.23 0 2.331-1.895 4.229-4.227 4.229zM9 22h-8c-0.552 0-1 0.448-1 1s0.448 1 1 1h8c0.552 0 1-0.448 1-1s-0.448-1-1-1zM1 20h4c0.552 0 1-0.448 1-1s-0.448-1-1-1h-4c-0.552 0-1 0.448-1 1s0.448 1 1 1zM3 16h4c0.552 0 1-0.448 1-1s-0.448-1-1-1h-4c-0.552 0-1 0.448-1 1s0.448 1 1 1z"></path>
</svg>
