<!-- Generated by IcoMoon.io -->
<svg version="1.1" xmlns="http://www.w3.org/2000/svg" width="32" height="32" viewBox="0 0 32 32">
<title>windy</title>
<path d="M30.938 13.938h-5.102c-0.504-4.487-4.277-8-8.898-8-3.113 0-5.859 1.591-7.477 4h-6.523c-0.552 0-1 0.448-1 1s0.448 1 1 1h5.552c-0.226 0.638-0.374 1.306-0.45 2h-3.102c-0.552 0-1 0.448-1 1s0.448 1 1 1h3.102c0.077 0.693 0.224 1.363 0.45 2h-5.37c-0.654 0-1.182 0.448-1.182 1s0.529 1 1.182 1h6.341c1.617 2.41 4.363 4 7.477 4s5.859-1.59 7.477-4h2.341c0.654 0 1.182-0.448 1.182-1s-0.529-1-1.182-1h-1.37c0.227-0.637 0.372-1.307 0.451-2h5.102c0.552 0 1-0.448 1-1s-0.448-1-1-1zM10.639 11.938h6.298c0.552 0 1-0.448 1-1s-0.448-1-1-1h-4.884c1.263-1.233 2.983-2 4.884-2 3.518 0 6.409 2.617 6.898 6h-13.797c0.102-0.707 0.302-1.378 0.6-2zM16.938 21.938c-1.901 0-3.621-0.768-4.884-2h9.767c-1.262 1.232-2.982 2-4.883 2zM23.234 17.938h-12.595c-0.298-0.622-0.499-1.293-0.6-2h13.797c-0.102 0.707-0.302 1.378-0.602 2z"></path>
</svg>
