<!-- Generated by IcoMoon.io -->
<svg version="1.1" xmlns="http://www.w3.org/2000/svg" width="37" height="32" viewBox="0 0 37 32">
<title>address-card</title>
<path d="M18.286 20.196c0-2.768-0.679-5.839-3.5-5.839-0.875 0.5-2.054 1.357-3.357 1.357s-2.482-0.857-3.357-1.357c-2.821 0-3.5 3.071-3.5 5.839 0 1.554 1.018 2.661 2.286 2.661h9.143c1.268 0 2.286-1.107 2.286-2.661zM15.482 10.911c0-2.232-1.821-4.054-4.054-4.054s-4.054 1.821-4.054 4.054c0 2.25 1.821 4.054 4.054 4.054s4.054-1.804 4.054-4.054zM32 20v-1.143c0-0.321-0.25-0.571-0.571-0.571h-10.286c-0.321 0-0.571 0.25-0.571 0.571v1.143c0 0.321 0.25 0.571 0.571 0.571h10.286c0.321 0 0.571-0.25 0.571-0.571zM32 15.357v-1c0-0.357-0.286-0.643-0.643-0.643h-10.143c-0.357 0-0.643 0.286-0.643 0.643v1c0 0.357 0.286 0.643 0.643 0.643h10.143c0.357 0 0.643-0.286 0.643-0.643zM32 10.857v-1.143c0-0.321-0.25-0.571-0.571-0.571h-10.286c-0.321 0-0.571 0.25-0.571 0.571v1.143c0 0.321 0.25 0.571 0.571 0.571h10.286c0.321 0 0.571-0.25 0.571-0.571zM36.571 5.143v21.714c0 1.571-1.286 2.857-2.857 2.857h-6.286v-1.714c0-0.321-0.25-0.571-0.571-0.571h-1.143c-0.321 0-0.571 0.25-0.571 0.571v1.714h-13.714v-1.714c0-0.321-0.25-0.571-0.571-0.571h-1.143c-0.321 0-0.571 0.25-0.571 0.571v1.714h-6.286c-1.571 0-2.857-1.286-2.857-2.857v-21.714c0-1.571 1.286-2.857 2.857-2.857h30.857c1.571 0 2.857 1.286 2.857 2.857z"></path>
</svg>
