<!-- Generated by IcoMoon.io -->
<svg version="1.1" xmlns="http://www.w3.org/2000/svg" width="41" height="32" viewBox="0 0 41 32">
<title>american-sign-language-interpreting</title>
<path d="M18.429 17.143c-0.625-0.018-1.214-0.375-1.5-0.982-0.393-0.804-1.179-1.304-2.071-1.304-1.268 0-2.286 1.018-2.286 2.286 0 0.607 0.214 1.196 0.643 1.589l0.179 0.143c0.393 0.357 0.911 0.554 1.464 0.554 0.893 0 1.679-0.5 2.071-1.304 0.286-0.607 0.875-0.964 1.5-0.982zM28.571 14.857c0-0.607-0.214-1.196-0.643-1.589l-0.179-0.143c-0.393-0.357-0.911-0.554-1.464-0.554-0.893 0-1.679 0.5-2.071 1.304-0.286 0.607-0.875 0.964-1.5 0.982 0.625 0.018 1.214 0.375 1.5 0.982 0.393 0.804 1.179 1.304 2.071 1.304 1.268 0 2.286-1.018 2.286-2.286zM20.964 10.911c-0.411 0.839-1.446 1.196-2.286 0.786-0.75-0.375-1.554-0.554-2.393-0.554-0.625 0-1.214 0.107-1.768 0.304 0.107 0 0.232-0.018 0.339-0.018 2.196 0 4.214 1.286 5.161 3.268 0.411 0.857 0.036 1.875-0.821 2.286-0.214 0.107-0.446 0.161-0.696 0.161 0.25 0 0.482 0.054 0.696 0.161 0.857 0.411 1.232 1.429 0.821 2.286-0.946 1.982-2.964 3.268-5.161 3.268v0h-0.107c-0.268-0.036-0.518-0.054-0.786-0.071l-5.179-0.482-4.268 2.143c-0.179 0.089-0.339 0.125-0.518 0.125-0.411 0-0.821-0.232-1.018-0.625l-2.857-5.714c-0.268-0.554-0.071-1.214 0.446-1.518l3.732-2.125 2.643-4.768c0.411-3.679 2.232-7.054 5.125-9.429 0.732-0.607 1.821-0.5 2.411 0.232 0.607 0.732 0.5 1.804-0.232 2.411-0.804 0.679-1.518 1.446-2.089 2.286 1.393-0.946 3-1.589 4.768-1.804 0.946-0.125 1.804 0.536 1.911 1.482 0.125 0.946-0.536 1.804-1.482 1.911-1.036 0.125-2 0.482-2.839 0.982 0.571-0.125 1.161-0.179 1.768-0.179 1.357 0 2.679 0.304 3.893 0.893 0.857 0.429 1.214 1.446 0.786 2.304zM38.161 8.054l2.857 5.714c0.268 0.554 0.071 1.214-0.446 1.518l-3.732 2.125-2.643 4.768c-0.411 3.679-2.232 7.054-5.125 9.429-0.321 0.268-0.714 0.393-1.089 0.393-0.5 0-0.982-0.214-1.321-0.625-0.607-0.732-0.5-1.804 0.232-2.411 0.804-0.679 1.518-1.446 2.089-2.286-1.393 0.946-3 1.589-4.768 1.804-0.071 0.018-0.143 0.018-0.214 0.018-0.857 0-1.589-0.643-1.696-1.5-0.125-0.946 0.536-1.804 1.482-1.911 1.036-0.125 2-0.482 2.839-0.982-0.571 0.125-1.161 0.179-1.768 0.179-1.357 0-2.679-0.304-3.893-0.893-0.857-0.429-1.214-1.446-0.786-2.304 0.411-0.839 1.446-1.196 2.286-0.786 0.75 0.375 1.554 0.554 2.393 0.554 0.625 0 1.214-0.107 1.768-0.304-0.107 0-0.232 0.018-0.339 0.018-2.196 0-4.214-1.286-5.161-3.268-0.411-0.857-0.036-1.875 0.821-2.286 0.214-0.107 0.446-0.161 0.696-0.161-0.25 0-0.482-0.054-0.696-0.161-0.857-0.411-1.232-1.429-0.821-2.286 0.946-1.982 2.964-3.268 5.161-3.268v0h0.125c0.25 0.036 0.5 0.054 0.75 0.071l5.196 0.482 4.268-2.143c0.179-0.089 0.339-0.125 0.518-0.125 0.411 0 0.821 0.232 1.018 0.625z"></path>
</svg>
