<!-- Generated by IcoMoon.io -->
<svg version="1.1" xmlns="http://www.w3.org/2000/svg" width="32" height="32" viewBox="0 0 32 32">
<title>anchor</title>
<path d="M17.143 4.571c0-0.625-0.518-1.143-1.143-1.143s-1.143 0.518-1.143 1.143 0.518 1.143 1.143 1.143 1.143-0.518 1.143-1.143zM32 21.143v6.286c0 0.232-0.143 0.446-0.357 0.536-0.071 0.018-0.143 0.036-0.214 0.036-0.143 0-0.286-0.054-0.411-0.161l-1.661-1.661c-2.804 3.375-7.839 5.536-13.357 5.536s-10.554-2.161-13.357-5.536l-1.661 1.661c-0.107 0.107-0.268 0.161-0.411 0.161-0.071 0-0.143-0.018-0.214-0.036-0.214-0.089-0.357-0.304-0.357-0.536v-6.286c0-0.321 0.25-0.571 0.571-0.571h6.286c0.232 0 0.446 0.143 0.536 0.357s0.036 0.446-0.125 0.625l-1.786 1.786c1.607 2.161 4.696 3.732 8.232 4.214v-11.554h-3.429c-0.625 0-1.143-0.518-1.143-1.143v-2.286c0-0.625 0.518-1.143 1.143-1.143h3.429v-2.911c-1.357-0.786-2.286-2.25-2.286-3.946 0-2.518 2.054-4.571 4.571-4.571s4.571 2.054 4.571 4.571c0 1.696-0.929 3.161-2.286 3.946v2.911h3.429c0.625 0 1.143 0.518 1.143 1.143v2.286c0 0.625-0.518 1.143-1.143 1.143h-3.429v11.554c3.536-0.482 6.625-2.054 8.232-4.214l-1.786-1.786c-0.161-0.179-0.214-0.411-0.125-0.625s0.304-0.357 0.536-0.357h6.286c0.321 0 0.571 0.25 0.571 0.571z"></path>
</svg>
