<!-- Generated by IcoMoon.io -->
<svg version="1.1" xmlns="http://www.w3.org/2000/svg" width="37" height="32" viewBox="0 0 37 32">
<title>automobile</title>
<path d="M8.571 19.429c0-1.571-1.286-2.857-2.857-2.857s-2.857 1.286-2.857 2.857 1.286 2.857 2.857 2.857 2.857-1.286 2.857-2.857zM9.214 13.714h18.143l-1.589-6.375c-0.054-0.196-0.411-0.482-0.625-0.482h-13.714c-0.214 0-0.571 0.286-0.625 0.482zM33.714 19.429c0-1.571-1.286-2.857-2.857-2.857s-2.857 1.286-2.857 2.857 1.286 2.857 2.857 2.857 2.857-1.286 2.857-2.857zM36.571 17.714v6.857c0 0.321-0.25 0.571-0.571 0.571h-1.714v2.286c0 1.893-1.536 3.429-3.429 3.429s-3.429-1.536-3.429-3.429v-2.286h-18.286v2.286c0 1.893-1.536 3.429-3.429 3.429s-3.429-1.536-3.429-3.429v-2.286h-1.714c-0.321 0-0.571-0.25-0.571-0.571v-6.857c0-2.214 1.786-4 4-4h0.5l1.875-7.482c0.554-2.25 2.732-3.946 5.054-3.946h13.714c2.321 0 4.5 1.696 5.054 3.946l1.875 7.482h0.5c2.214 0 4 1.786 4 4z"></path>
</svg>
