<!-- Generated by IcoMoon.io -->
<svg version="1.1" xmlns="http://www.w3.org/2000/svg" width="39" height="32" viewBox="0 0 39 32">
<title>balance-scale</title>
<path d="M30.857 8l-6.857 12.571h13.714zM8 8l-6.857 12.571h13.714zM22.661 4.571c-0.339 0.964-1.125 1.75-2.089 2.089v23.054h10.857c0.321 0 0.571 0.25 0.571 0.571v1.143c0 0.321-0.25 0.571-0.571 0.571h-24c-0.321 0-0.571-0.25-0.571-0.571v-1.143c0-0.321 0.25-0.571 0.571-0.571h10.857v-23.054c-0.964-0.339-1.75-1.125-2.089-2.089h-8.768c-0.321 0-0.571-0.25-0.571-0.571v-1.143c0-0.321 0.25-0.571 0.571-0.571h8.768c0.482-1.339 1.732-2.286 3.232-2.286s2.75 0.946 3.232 2.286h8.768c0.321 0 0.571 0.25 0.571 0.571v1.143c0 0.321-0.25 0.571-0.571 0.571h-8.768zM19.429 4.857c0.786 0 1.429-0.643 1.429-1.429s-0.643-1.429-1.429-1.429-1.429 0.643-1.429 1.429 0.643 1.429 1.429 1.429zM38.857 20.571c0 3.679-5.089 5.143-8 5.143s-8-1.464-8-5.143v0c0-0.696 6.232-11.732 7-13.125 0.196-0.357 0.589-0.589 1-0.589s0.804 0.232 1 0.589c0.768 1.393 7 12.429 7 13.125v0zM16 20.571c0 3.679-5.089 5.143-8 5.143s-8-1.464-8-5.143v0c0-0.696 6.232-11.732 7-13.125 0.196-0.357 0.589-0.589 1-0.589s0.804 0.232 1 0.589c0.768 1.393 7 12.429 7 13.125z"></path>
</svg>
