<!-- Generated by IcoMoon.io -->
<svg version="1.1" xmlns="http://www.w3.org/2000/svg" width="27" height="32" viewBox="0 0 27 32">
<title>ban</title>
<path d="M23.429 15.946c0-1.946-0.571-3.75-1.554-5.268l-13.464 13.446c1.536 1 3.357 1.589 5.304 1.589 5.357 0 9.714-4.375 9.714-9.768zM5.589 21.286l13.482-13.464c-1.536-1.036-3.375-1.625-5.357-1.625-5.357 0-9.714 4.375-9.714 9.75 0 1.982 0.589 3.804 1.589 5.339zM27.429 15.946c0 7.607-6.143 13.768-13.714 13.768s-13.714-6.161-13.714-13.768c0-7.589 6.143-13.75 13.714-13.75s13.714 6.161 13.714 13.75z"></path>
</svg>
