<!-- Generated by IcoMoon.io -->
<svg version="1.1" xmlns="http://www.w3.org/2000/svg" width="32" height="32" viewBox="0 0 32 32">
<title>barcode</title>
<path d="M1.125 27.429h-1.125v-25.143h1.125v25.143zM2.25 27.411h-0.571v-25.125h0.571v25.125zM3.929 27.411h-0.554v-25.125h0.554v25.125zM6.732 27.411h-0.554v-25.125h0.554v25.125zM9.536 27.411h-1.107v-25.125h1.107v25.125zM11.786 27.411h-0.554v-25.125h0.554v25.125zM12.911 27.411h-0.554v-25.125h0.554v25.125zM14.036 27.411h-0.554v-25.125h0.554v25.125zM16.839 27.411h-1.125v-25.125h1.125v25.125zM19.643 27.411h-1.125v-25.125h1.125v25.125zM21.893 27.411h-1.125v-25.125h1.125v25.125zM24.143 27.411h-1.125v-25.125h1.125v25.125zM25.821 27.411h-1.125v-25.125h1.125v25.125zM29.196 27.411h-1.679v-25.125h1.679v25.125zM30.321 27.411h-0.571v-25.125h0.571v25.125zM32 27.429h-1.125v-25.143h1.125v25.143z"></path>
</svg>
