<!-- Generated by IcoMoon.io -->
<svg version="1.1" xmlns="http://www.w3.org/2000/svg" width="32" height="32" viewBox="0 0 32 32">
<title>bath</title>
<path d="M29.714 19.429v3.429c0 2.036-0.893 3.839-2.286 5.107v3.464c0 0.321-0.25 0.571-0.571 0.571h-1.143c-0.321 0-0.571-0.25-0.571-0.571v-2.107c-0.714 0.25-1.482 0.393-2.286 0.393h-13.714c-0.804 0-1.571-0.143-2.286-0.393v1.964c0 0.393-0.25 0.714-0.571 0.714h-1.143c-0.321 0-0.571-0.321-0.571-0.714v-3.321c-1.393-1.268-2.286-3.071-2.286-5.107v-3.429h27.429zM12.571 12c0 0.321-0.25 0.571-0.571 0.571s-0.571-0.25-0.571-0.571 0.25-0.571 0.571-0.571 0.571 0.25 0.571 0.571zM13.714 10.857c0 0.321-0.25 0.571-0.571 0.571s-0.571-0.25-0.571-0.571 0.25-0.571 0.571-0.571 0.571 0.25 0.571 0.571zM12.571 9.714c0 0.321-0.25 0.571-0.571 0.571s-0.571-0.25-0.571-0.571 0.25-0.571 0.571-0.571 0.571 0.25 0.571 0.571zM14.857 9.714c0 0.321-0.25 0.571-0.571 0.571s-0.571-0.25-0.571-0.571 0.25-0.571 0.571-0.571 0.571 0.25 0.571 0.571zM13.714 8.571c0 0.321-0.25 0.571-0.571 0.571s-0.571-0.25-0.571-0.571 0.25-0.571 0.571-0.571 0.571 0.25 0.571 0.571zM12.571 7.429c0 0.321-0.25 0.571-0.571 0.571s-0.571-0.25-0.571-0.571 0.25-0.571 0.571-0.571 0.571 0.25 0.571 0.571zM32 16.571v1.143c0 0.321-0.25 0.571-0.571 0.571h-30.857c-0.321 0-0.571-0.25-0.571-0.571v-1.143c0-0.321 0.25-0.571 0.571-0.571h1.714v-11.429c0-2.518 2.054-4.571 4.571-4.571 1.286 0 2.446 0.536 3.286 1.393 1.107-0.446 2.429-0.286 3.411 0.482l0.393-0.393c0.107-0.107 0.286-0.107 0.393 0l0.75 0.75c0.107 0.107 0.107 0.286 0 0.393l-5.607 5.607c-0.107 0.107-0.286 0.107-0.393 0l-0.75-0.75c-0.107-0.107-0.107-0.286 0-0.393l0.393-0.393c-0.857-1.089-0.964-2.589-0.304-3.786-0.411-0.393-0.964-0.625-1.571-0.625-1.268 0-2.286 1.018-2.286 2.286v11.429h26.857c0.321 0 0.571 0.25 0.571 0.571zM16 8.571c0 0.321-0.25 0.571-0.571 0.571s-0.571-0.25-0.571-0.571 0.25-0.571 0.571-0.571 0.571 0.25 0.571 0.571zM14.857 7.429c0 0.321-0.25 0.571-0.571 0.571s-0.571-0.25-0.571-0.571 0.25-0.571 0.571-0.571 0.571 0.25 0.571 0.571zM13.714 6.286c0 0.321-0.25 0.571-0.571 0.571s-0.571-0.25-0.571-0.571 0.25-0.571 0.571-0.571 0.571 0.25 0.571 0.571zM17.143 7.429c0 0.321-0.25 0.571-0.571 0.571s-0.571-0.25-0.571-0.571 0.25-0.571 0.571-0.571 0.571 0.25 0.571 0.571zM16 6.286c0 0.321-0.25 0.571-0.571 0.571s-0.571-0.25-0.571-0.571 0.25-0.571 0.571-0.571 0.571 0.25 0.571 0.571zM14.857 5.143c0 0.321-0.25 0.571-0.571 0.571s-0.571-0.25-0.571-0.571 0.25-0.571 0.571-0.571 0.571 0.25 0.571 0.571zM18.286 6.286c0 0.321-0.25 0.571-0.571 0.571s-0.571-0.25-0.571-0.571 0.25-0.571 0.571-0.571 0.571 0.25 0.571 0.571zM17.143 5.143c0 0.321-0.25 0.571-0.571 0.571s-0.571-0.25-0.571-0.571 0.25-0.571 0.571-0.571 0.571 0.25 0.571 0.571zM19.429 5.143c0 0.321-0.25 0.571-0.571 0.571s-0.571-0.25-0.571-0.571 0.25-0.571 0.571-0.571 0.571 0.25 0.571 0.571z"></path>
</svg>
