<!-- Generated by IcoMoon.io -->
<svg version="1.1" xmlns="http://www.w3.org/2000/svg" width="41" height="32" viewBox="0 0 41 32">
<title>bicycle</title>
<path d="M13.607 20.571h-5.607c-0.946 0-1.482-1.071-0.911-1.821l3.357-4.482c-0.75-0.357-1.571-0.554-2.446-0.554-3.143 0-5.714 2.571-5.714 5.714s2.571 5.714 5.714 5.714c2.768 0 5.071-1.964 5.607-4.571zM10.286 18.286h3.321c-0.214-1-0.679-1.911-1.339-2.643zM18.857 18.286l5.143-6.857h-8.571l-1.768 2.357c1.196 1.179 2 2.75 2.25 4.5h2.946zM38.857 19.429c0-3.143-2.571-5.714-5.714-5.714-0.768 0-1.482 0.161-2.161 0.429l3.107 4.643c0.357 0.536 0.214 1.25-0.304 1.589-0.196 0.143-0.429 0.196-0.643 0.196-0.375 0-0.732-0.179-0.946-0.518l-3.107-4.643c-1.018 1.036-1.661 2.446-1.661 4.018 0 3.143 2.571 5.714 5.714 5.714s5.714-2.571 5.714-5.714zM41.143 19.429c0 4.411-3.589 8-8 8s-8-3.589-8-8c0-2.357 1.036-4.482 2.661-5.946l-1.161-1.75-6.304 8.375c-0.214 0.304-0.554 0.464-0.911 0.464h-3.518c-0.554 3.875-3.875 6.857-7.911 6.857-4.411 0-8-3.589-8-8s3.589-8 8-8c1.393 0 2.696 0.357 3.839 0.982l2.446-3.268h-4c-0.625 0-1.143-0.518-1.143-1.143s0.518-1.143 1.143-1.143h6.857v2.286h7.768l-1.518-2.286h-3.964c-0.625 0-1.143-0.518-1.143-1.143s0.518-1.143 1.143-1.143h4.571c0.375 0 0.732 0.196 0.946 0.5l4.768 7.143c1.036-0.5 2.196-0.786 3.429-0.786 4.411 0 8 3.589 8 8z"></path>
</svg>
