<!-- Generated by IcoMoon.io -->
<svg version="1.1" xmlns="http://www.w3.org/2000/svg" width="27" height="32" viewBox="0 0 27 32">
<title>bitbucket-square</title>
<path d="M15.143 15.536c0-1.018-1.25-1.714-2.107-1.196-1.018 0.482-1.018 2.125 0.018 2.554 0.929 0.554 2.232-0.286 2.089-1.357zM16.571 15.25c0.196 1.571-1.036 3.107-2.607 3.25s-3.054-1.143-3.125-2.732c-0.054-1.179 0.679-2.321 1.75-2.804 1.679-0.75 3.75 0.464 3.982 2.286zM19.643 8.268c-0.786 0.804-1.982 0.911-3.036 1.036-1.911 0.25-3.857 0.232-5.786 0-1.054-0.143-2.214-0.268-3.036-1.036 0.5-0.714 1.393-0.857 2.196-0.982 2.411-0.429 4.875-0.411 7.286-0.018 0.857 0.125 1.821 0.268 2.375 1zM20.393 21.589c0-0.429 0.446-1.161-0.161-1.339-3.839 2.536-9.196 2.536-13.054 0l-0.214 0.107-0.089 0.214c0.214 1.25 0.411 2.518 0.732 3.75 0.732 1.268 2.304 1.696 3.643 1.929 2.536 0.464 5.339 0.321 7.643-0.946 1.339-0.75 1.125-2.446 1.5-3.714zM22.714 9.214c0.071-0.429 0.161-0.946-0.143-1.339-0.679-0.857-1.75-1.268-2.768-1.571-2.821-0.821-5.804-0.929-8.696-0.643-1.375 0.125-2.75 0.357-4.036 0.821-0.964 0.375-2.268 0.875-2.429 2.018 0.321 2.679 0.839 5.304 1.286 7.964 0.143 0.75 0.143 1.643 0.821 2.179 1.446 1.107 3.286 1.589 5.071 1.786 2.643 0.286 5.446 0.089 7.857-1.125 0.679-0.357 1.464-0.821 1.607-1.643 0.5-2.804 0.982-5.607 1.429-8.446zM27.429 7.429v17.143c0 2.839-2.304 5.143-5.143 5.143h-17.143c-2.839 0-5.143-2.304-5.143-5.143v-17.143c0-2.839 2.304-5.143 5.143-5.143h17.143c2.839 0 5.143 2.304 5.143 5.143z"></path>
</svg>
