<!-- Generated by IcoMoon.io -->
<svg version="1.1" xmlns="http://www.w3.org/2000/svg" width="32" height="32" viewBox="0 0 32 32">
<title>blinds-open</title>
<path d="M4 2.667h24c0.733 0 1.333 0.6 1.333 1.333v2.667c0 0.733-0.6 1.333-1.333 1.333h-1.333v1.333c0 0.733-0.6 1.333-1.333 1.333h-8v2.893c1.56 0.547 2.667 2.040 2.667 3.773 0 2.213-1.787 4-4 4s-4-1.787-4-4c0-1.747 1.12-3.227 2.667-3.773v-2.893h-8c-0.733 0-1.333-0.6-1.333-1.333v-1.333h-1.333c-0.733 0-1.333-0.6-1.333-1.333v-2.667c0-0.733 0.6-1.333 1.333-1.333zM16 16c-0.733 0-1.333 0.6-1.333 1.333s0.6 1.333 1.333 1.333c0.733 0 1.333-0.6 1.333-1.333s-0.6-1.333-1.333-1.333z"></path>
</svg>
