<!-- Generated by IcoMoon.io -->
<svg version="1.1" xmlns="http://www.w3.org/2000/svg" width="27" height="32" viewBox="0 0 27 32">
<title>bluetooth1</title>
<path d="M15.018 18.804l2.643 2.643-2.661 2.661zM15 7.893l2.661 2.661-2.643 2.643-0.018-5.304zM12.679 29.75l8.286-8.286-5.464-5.464 5.464-5.464-8.286-8.286v10.911l-4.554-4.554-1.661 1.661 5.714 5.732-5.714 5.732 1.661 1.661 4.554-4.554v10.911zM25.518 16c0 12.679-4.821 16-11.804 16v0c-6.982 0-11.804-3.321-11.804-16s4.821-16 11.804-16 11.804 3.321 11.804 16z"></path>
</svg>
