<!-- Generated by IcoMoon.io -->
<svg version="1.1" xmlns="http://www.w3.org/2000/svg" width="16" height="32" viewBox="0 0 16 32">
<title>bolt</title>
<path d="M15.804 10.107c0.196 0.214 0.25 0.518 0.125 0.786l-9.643 20.661c-0.143 0.268-0.429 0.446-0.75 0.446-0.071 0-0.161-0.018-0.25-0.036-0.393-0.125-0.625-0.5-0.536-0.875l3.518-14.429-7.25 1.804c-0.071 0.018-0.143 0.018-0.214 0.018-0.196 0-0.411-0.071-0.554-0.196-0.214-0.179-0.286-0.446-0.232-0.696l3.589-14.732c0.089-0.339 0.411-0.571 0.786-0.571h5.857c0.446 0 0.804 0.339 0.804 0.75 0 0.107-0.036 0.214-0.089 0.321l-3.054 8.268 7.071-1.75c0.071-0.018 0.143-0.036 0.214-0.036 0.232 0 0.446 0.107 0.607 0.268z"></path>
</svg>
