<!-- Generated by IcoMoon.io -->
<svg version="1.1" xmlns="http://www.w3.org/2000/svg" width="23" height="32" viewBox="0 0 23 32">
<title>bookmark</title>
<path d="M20.786 2.286c0.268 0 0.536 0.054 0.786 0.161 0.786 0.304 1.286 1.036 1.286 1.839v23.018c0 0.804-0.5 1.536-1.286 1.839-0.25 0.107-0.518 0.143-0.786 0.143-0.554 0-1.071-0.196-1.482-0.571l-7.875-7.571-7.875 7.571c-0.411 0.375-0.929 0.589-1.482 0.589-0.268 0-0.536-0.054-0.786-0.161-0.786-0.304-1.286-1.036-1.286-1.839v-23.018c0-0.804 0.5-1.536 1.286-1.839 0.25-0.107 0.518-0.161 0.786-0.161h18.714z"></path>
</svg>
