<!-- Generated by IcoMoon.io -->
<svg version="1.1" xmlns="http://www.w3.org/2000/svg" width="30" height="32" viewBox="0 0 30 32">
<title>book</title>
<path d="M29.268 8.536c0.446 0.643 0.571 1.482 0.321 2.304l-4.911 16.179c-0.446 1.518-2.018 2.696-3.554 2.696h-16.482c-1.821 0-3.768-1.446-4.429-3.304-0.286-0.804-0.286-1.589-0.036-2.268 0.036-0.357 0.107-0.714 0.125-1.143 0.018-0.286-0.143-0.518-0.107-0.732 0.071-0.429 0.446-0.732 0.732-1.214 0.536-0.893 1.143-2.339 1.339-3.268 0.089-0.339-0.089-0.732 0-1.036 0.089-0.339 0.429-0.589 0.607-0.911 0.482-0.821 1.107-2.411 1.196-3.25 0.036-0.375-0.143-0.786-0.036-1.071 0.125-0.411 0.518-0.589 0.786-0.946 0.429-0.589 1.143-2.286 1.25-3.232 0.036-0.304-0.143-0.607-0.089-0.929 0.071-0.339 0.5-0.696 0.786-1.107 0.75-1.107 0.893-3.554 3.161-2.911l-0.018 0.054c0.304-0.071 0.607-0.161 0.911-0.161h13.589c0.839 0 1.589 0.375 2.036 1 0.464 0.643 0.571 1.482 0.321 2.321l-4.893 16.179c-0.839 2.75-1.304 3.357-3.571 3.357h-15.518c-0.232 0-0.518 0.054-0.679 0.268-0.143 0.214-0.161 0.375-0.018 0.768 0.357 1.036 1.589 1.25 2.571 1.25h16.482c0.661 0 1.429-0.375 1.625-1.018l5.357-17.625c0.107-0.339 0.107-0.696 0.089-1.018 0.411 0.161 0.786 0.411 1.054 0.768zM10.268 8.571c-0.107 0.321 0.071 0.571 0.393 0.571h10.857c0.304 0 0.643-0.25 0.75-0.571l0.375-1.143c0.107-0.321-0.071-0.571-0.393-0.571h-10.857c-0.304 0-0.643 0.25-0.75 0.571zM8.786 13.143c-0.107 0.321 0.071 0.571 0.393 0.571h10.857c0.304 0 0.643-0.25 0.75-0.571l0.375-1.143c0.107-0.321-0.071-0.571-0.393-0.571h-10.857c-0.304 0-0.643 0.25-0.75 0.571z"></path>
</svg>
