<!-- Generated by IcoMoon.io -->
<svg version="1.1" xmlns="http://www.w3.org/2000/svg" width="30" height="32" viewBox="0 0 30 32">
<title>bug</title>
<path d="M29.143 17.143c0 0.625-0.518 1.143-1.143 1.143h-4c0 2.232-0.482 3.911-1.196 5.179l3.714 3.732c0.446 0.446 0.446 1.161 0 1.607-0.214 0.232-0.518 0.339-0.804 0.339s-0.589-0.107-0.804-0.339l-3.536-3.518s-2.339 2.143-5.375 2.143v-16h-2.286v16c-3.232 0-5.589-2.357-5.589-2.357l-3.268 3.696c-0.232 0.25-0.536 0.375-0.857 0.375-0.268 0-0.536-0.089-0.768-0.286-0.464-0.429-0.5-1.143-0.089-1.625l3.607-4.054c-0.625-1.232-1.036-2.821-1.036-4.893h-4c-0.625 0-1.143-0.518-1.143-1.143s0.518-1.143 1.143-1.143h4v-5.25l-3.089-3.089c-0.446-0.446-0.446-1.161 0-1.607s1.161-0.446 1.607 0l3.089 3.089h15.071l3.089-3.089c0.446-0.446 1.161-0.446 1.607 0s0.446 1.161 0 1.607l-3.089 3.089v5.25h4c0.625 0 1.143 0.518 1.143 1.143zM20.571 6.857h-11.429c0-3.161 2.554-5.714 5.714-5.714s5.714 2.554 5.714 5.714z"></path>
</svg>
