<!-- Generated by IcoMoon.io -->
<svg version="1.1" xmlns="http://www.w3.org/2000/svg" width="25" height="32" viewBox="0 0 25 32">
<title>building-o</title>
<path d="M6.857 23.429v1.143c0 0.304-0.268 0.571-0.571 0.571h-1.143c-0.304 0-0.571-0.268-0.571-0.571v-1.143c0-0.304 0.268-0.571 0.571-0.571h1.143c0.304 0 0.571 0.268 0.571 0.571zM6.857 18.857v1.143c0 0.304-0.268 0.571-0.571 0.571h-1.143c-0.304 0-0.571-0.268-0.571-0.571v-1.143c0-0.304 0.268-0.571 0.571-0.571h1.143c0.304 0 0.571 0.268 0.571 0.571zM11.429 18.857v1.143c0 0.304-0.268 0.571-0.571 0.571h-1.143c-0.304 0-0.571-0.268-0.571-0.571v-1.143c0-0.304 0.268-0.571 0.571-0.571h1.143c0.304 0 0.571 0.268 0.571 0.571zM6.857 14.286v1.143c0 0.304-0.268 0.571-0.571 0.571h-1.143c-0.304 0-0.571-0.268-0.571-0.571v-1.143c0-0.304 0.268-0.571 0.571-0.571h1.143c0.304 0 0.571 0.268 0.571 0.571zM20.571 23.429v1.143c0 0.304-0.268 0.571-0.571 0.571h-1.143c-0.304 0-0.571-0.268-0.571-0.571v-1.143c0-0.304 0.268-0.571 0.571-0.571h1.143c0.304 0 0.571 0.268 0.571 0.571zM16 18.857v1.143c0 0.304-0.268 0.571-0.571 0.571h-1.143c-0.304 0-0.571-0.268-0.571-0.571v-1.143c0-0.304 0.268-0.571 0.571-0.571h1.143c0.304 0 0.571 0.268 0.571 0.571zM11.429 14.286v1.143c0 0.304-0.268 0.571-0.571 0.571h-1.143c-0.304 0-0.571-0.268-0.571-0.571v-1.143c0-0.304 0.268-0.571 0.571-0.571h1.143c0.304 0 0.571 0.268 0.571 0.571zM6.857 9.714v1.143c0 0.304-0.268 0.571-0.571 0.571h-1.143c-0.304 0-0.571-0.268-0.571-0.571v-1.143c0-0.304 0.268-0.571 0.571-0.571h1.143c0.304 0 0.571 0.268 0.571 0.571zM20.571 18.857v1.143c0 0.304-0.268 0.571-0.571 0.571h-1.143c-0.304 0-0.571-0.268-0.571-0.571v-1.143c0-0.304 0.268-0.571 0.571-0.571h1.143c0.304 0 0.571 0.268 0.571 0.571zM16 14.286v1.143c0 0.304-0.268 0.571-0.571 0.571h-1.143c-0.304 0-0.571-0.268-0.571-0.571v-1.143c0-0.304 0.268-0.571 0.571-0.571h1.143c0.304 0 0.571 0.268 0.571 0.571zM11.429 9.714v1.143c0 0.304-0.268 0.571-0.571 0.571h-1.143c-0.304 0-0.571-0.268-0.571-0.571v-1.143c0-0.304 0.268-0.571 0.571-0.571h1.143c0.304 0 0.571 0.268 0.571 0.571zM6.857 5.143v1.143c0 0.304-0.268 0.571-0.571 0.571h-1.143c-0.304 0-0.571-0.268-0.571-0.571v-1.143c0-0.304 0.268-0.571 0.571-0.571h1.143c0.304 0 0.571 0.268 0.571 0.571zM20.571 14.286v1.143c0 0.304-0.268 0.571-0.571 0.571h-1.143c-0.304 0-0.571-0.268-0.571-0.571v-1.143c0-0.304 0.268-0.571 0.571-0.571h1.143c0.304 0 0.571 0.268 0.571 0.571zM16 9.714v1.143c0 0.304-0.268 0.571-0.571 0.571h-1.143c-0.304 0-0.571-0.268-0.571-0.571v-1.143c0-0.304 0.268-0.571 0.571-0.571h1.143c0.304 0 0.571 0.268 0.571 0.571zM11.429 5.143v1.143c0 0.304-0.268 0.571-0.571 0.571h-1.143c-0.304 0-0.571-0.268-0.571-0.571v-1.143c0-0.304 0.268-0.571 0.571-0.571h1.143c0.304 0 0.571 0.268 0.571 0.571zM20.571 9.714v1.143c0 0.304-0.268 0.571-0.571 0.571h-1.143c-0.304 0-0.571-0.268-0.571-0.571v-1.143c0-0.304 0.268-0.571 0.571-0.571h1.143c0.304 0 0.571 0.268 0.571 0.571zM16 5.143v1.143c0 0.304-0.268 0.571-0.571 0.571h-1.143c-0.304 0-0.571-0.268-0.571-0.571v-1.143c0-0.304 0.268-0.571 0.571-0.571h1.143c0.304 0 0.571 0.268 0.571 0.571zM20.571 5.143v1.143c0 0.304-0.268 0.571-0.571 0.571h-1.143c-0.304 0-0.571-0.268-0.571-0.571v-1.143c0-0.304 0.268-0.571 0.571-0.571h1.143c0.304 0 0.571 0.268 0.571 0.571zM16 29.714h6.857v-27.429h-20.571v27.429h6.857v-4c0-0.304 0.268-0.571 0.571-0.571h5.714c0.304 0 0.571 0.268 0.571 0.571v4zM25.143 1.143v29.714c0 0.625-0.518 1.143-1.143 1.143h-22.857c-0.625 0-1.143-0.518-1.143-1.143v-29.714c0-0.625 0.518-1.143 1.143-1.143h22.857c0.625 0 1.143 0.518 1.143 1.143z"></path>
</svg>
