<!-- Generated by IcoMoon.io -->
<svg version="1.1" xmlns="http://www.w3.org/2000/svg" width="30" height="32" viewBox="0 0 30 32">
<title>calendar</title>
<path d="M2.286 29.714h5.143v-5.143h-5.143v5.143zM8.571 29.714h5.714v-5.143h-5.714v5.143zM2.286 23.429h5.143v-5.714h-5.143v5.714zM8.571 23.429h5.714v-5.714h-5.714v5.714zM2.286 16.571h5.143v-5.143h-5.143v5.143zM15.429 29.714h5.714v-5.143h-5.714v5.143zM8.571 16.571h5.714v-5.143h-5.714v5.143zM22.286 29.714h5.143v-5.143h-5.143v5.143zM15.429 23.429h5.714v-5.714h-5.714v5.714zM9.143 8v-5.143c0-0.304-0.268-0.571-0.571-0.571h-1.143c-0.304 0-0.571 0.268-0.571 0.571v5.143c0 0.304 0.268 0.571 0.571 0.571h1.143c0.304 0 0.571-0.268 0.571-0.571zM22.286 23.429h5.143v-5.714h-5.143v5.714zM15.429 16.571h5.714v-5.143h-5.714v5.143zM22.286 16.571h5.143v-5.143h-5.143v5.143zM22.857 8v-5.143c0-0.304-0.268-0.571-0.571-0.571h-1.143c-0.304 0-0.571 0.268-0.571 0.571v5.143c0 0.304 0.268 0.571 0.571 0.571h1.143c0.304 0 0.571-0.268 0.571-0.571zM29.714 6.857v22.857c0 1.25-1.036 2.286-2.286 2.286h-25.143c-1.25 0-2.286-1.036-2.286-2.286v-22.857c0-1.25 1.036-2.286 2.286-2.286h2.286v-1.714c0-1.571 1.286-2.857 2.857-2.857h1.143c1.571 0 2.857 1.286 2.857 2.857v1.714h6.857v-1.714c0-1.571 1.286-2.857 2.857-2.857h1.143c1.571 0 2.857 1.286 2.857 2.857v1.714h2.286c1.25 0 2.286 1.036 2.286 2.286z"></path>
</svg>
