<!-- Generated by IcoMoon.io -->
<svg version="1.1" xmlns="http://www.w3.org/2000/svg" width="32" height="32" viewBox="0 0 32 32">
<title>camera-retro</title>
<path d="M16.571 14.857c0-0.321-0.25-0.571-0.571-0.571-1.571 0-2.857 1.286-2.857 2.857 0 0.321 0.25 0.571 0.571 0.571s0.571-0.25 0.571-0.571c0-0.946 0.768-1.714 1.714-1.714 0.321 0 0.571-0.25 0.571-0.571zM20.571 17.179c0 2.518-2.054 4.571-4.571 4.571s-4.571-2.054-4.571-4.571 2.054-4.571 4.571-4.571 4.571 2.054 4.571 4.571zM2.286 27.429h27.429v-2.286h-27.429v2.286zM22.857 17.179c0-3.786-3.071-6.857-6.857-6.857s-6.857 3.071-6.857 6.857 3.071 6.857 6.857 6.857 6.857-3.071 6.857-6.857zM4.571 5.714h6.857v-2.286h-6.857v2.286zM2.286 9.143h27.429v-4.571h-14.786l-1.143 2.286h-11.5v2.286zM32 4.571v22.857c0 1.268-1.018 2.286-2.286 2.286h-27.429c-1.268 0-2.286-1.018-2.286-2.286v-22.857c0-1.268 1.018-2.286 2.286-2.286h27.429c1.268 0 2.286 1.018 2.286 2.286z"></path>
</svg>
