<!-- Generated by IcoMoon.io -->
<svg version="1.1" xmlns="http://www.w3.org/2000/svg" width="27" height="32" viewBox="0 0 27 32">
<title>caret-square-o-down</title>
<path d="M20.446 12.054c0.196 0.375 0.161 0.839-0.089 1.179l-5.714 8c-0.214 0.304-0.554 0.482-0.929 0.482s-0.714-0.179-0.929-0.482l-5.714-8c-0.25-0.339-0.286-0.804-0.089-1.179 0.196-0.393 0.589-0.625 1.018-0.625h11.429c0.429 0 0.821 0.232 1.018 0.625zM22.857 24.571v-17.143c0-0.304-0.268-0.571-0.571-0.571h-17.143c-0.304 0-0.571 0.268-0.571 0.571v17.143c0 0.304 0.268 0.571 0.571 0.571h17.143c0.304 0 0.571-0.268 0.571-0.571zM27.429 7.429v17.143c0 2.839-2.304 5.143-5.143 5.143h-17.143c-2.839 0-5.143-2.304-5.143-5.143v-17.143c0-2.839 2.304-5.143 5.143-5.143h17.143c2.839 0 5.143 2.304 5.143 5.143z"></path>
</svg>
