<!-- Generated by IcoMoon.io -->
<svg version="1.1" xmlns="http://www.w3.org/2000/svg" width="27" height="32" viewBox="0 0 27 32">
<title>caret-square-o-right</title>
<path d="M19.429 16c0 0.375-0.179 0.714-0.482 0.929l-8 5.714c-0.339 0.25-0.804 0.286-1.179 0.089-0.393-0.196-0.625-0.589-0.625-1.018v-11.429c0-0.429 0.232-0.821 0.625-1.018 0.375-0.196 0.839-0.161 1.179 0.089l8 5.714c0.304 0.214 0.482 0.554 0.482 0.929zM22.857 24.571v-17.143c0-0.321-0.25-0.571-0.571-0.571h-17.143c-0.321 0-0.571 0.25-0.571 0.571v17.143c0 0.321 0.25 0.571 0.571 0.571h17.143c0.321 0 0.571-0.25 0.571-0.571zM27.429 7.429v17.143c0 2.839-2.304 5.143-5.143 5.143h-17.143c-2.839 0-5.143-2.304-5.143-5.143v-17.143c0-2.839 2.304-5.143 5.143-5.143h17.143c2.839 0 5.143 2.304 5.143 5.143z"></path>
</svg>
