<!-- Generated by IcoMoon.io -->
<svg version="1.1" xmlns="http://www.w3.org/2000/svg" width="27" height="32" viewBox="0 0 27 32">
<title>certificate</title>
<path d="M24.571 16l2.464 2.411c0.339 0.321 0.464 0.804 0.357 1.25-0.125 0.446-0.482 0.804-0.929 0.911l-3.357 0.857 0.946 3.321c0.125 0.446 0 0.929-0.339 1.25-0.321 0.339-0.804 0.464-1.25 0.339l-3.321-0.946-0.857 3.357c-0.107 0.446-0.464 0.804-0.911 0.929-0.107 0.018-0.232 0.036-0.339 0.036-0.339 0-0.679-0.143-0.911-0.393l-2.411-2.464-2.411 2.464c-0.321 0.339-0.804 0.464-1.25 0.357-0.464-0.125-0.804-0.482-0.911-0.929l-0.857-3.357-3.321 0.946c-0.446 0.125-0.929 0-1.25-0.339-0.339-0.321-0.464-0.804-0.339-1.25l0.946-3.321-3.357-0.857c-0.446-0.107-0.804-0.464-0.929-0.911-0.107-0.446 0.018-0.929 0.357-1.25l2.464-2.411-2.464-2.411c-0.339-0.321-0.464-0.804-0.357-1.25 0.125-0.446 0.482-0.804 0.929-0.911l3.357-0.857-0.946-3.321c-0.125-0.446 0-0.929 0.339-1.25 0.321-0.339 0.804-0.464 1.25-0.339l3.321 0.946 0.857-3.357c0.107-0.446 0.464-0.804 0.911-0.911 0.446-0.125 0.929 0 1.25 0.339l2.411 2.482 2.411-2.482c0.321-0.339 0.786-0.464 1.25-0.339 0.446 0.107 0.804 0.464 0.911 0.911l0.857 3.357 3.321-0.946c0.446-0.125 0.929 0 1.25 0.339 0.339 0.321 0.464 0.804 0.339 1.25l-0.946 3.321 3.357 0.857c0.446 0.107 0.804 0.464 0.929 0.911 0.107 0.446-0.018 0.929-0.357 1.25z"></path>
</svg>
