<!-- Generated by IcoMoon.io -->
<svg version="1.1" xmlns="http://www.w3.org/2000/svg" width="27" height="32" viewBox="0 0 27 32">
<title>check-circle</title>
<path d="M22.929 13.107c0-0.304-0.107-0.607-0.321-0.821l-1.625-1.607c-0.214-0.214-0.5-0.339-0.804-0.339s-0.589 0.125-0.804 0.339l-7.286 7.268-4.036-4.036c-0.214-0.214-0.5-0.339-0.804-0.339s-0.589 0.125-0.804 0.339l-1.625 1.607c-0.214 0.214-0.321 0.518-0.321 0.821s0.107 0.589 0.321 0.804l6.464 6.464c0.214 0.214 0.518 0.339 0.804 0.339 0.304 0 0.607-0.125 0.821-0.339l9.696-9.696c0.214-0.214 0.321-0.5 0.321-0.804zM27.429 16c0 7.571-6.143 13.714-13.714 13.714s-13.714-6.143-13.714-13.714 6.143-13.714 13.714-13.714 13.714 6.143 13.714 13.714z"></path>
</svg>
