<!-- Generated by IcoMoon.io -->
<svg version="1.1" xmlns="http://www.w3.org/2000/svg" width="27" height="32" viewBox="0 0 27 32">
<title>chevron-circle-down</title>
<path d="M14.518 23.196l8.107-8.107c0.446-0.446 0.446-1.161 0-1.607l-1.821-1.821c-0.446-0.446-1.161-0.446-1.607 0l-5.482 5.482-5.482-5.482c-0.446-0.446-1.161-0.446-1.607 0l-1.821 1.821c-0.446 0.446-0.446 1.161 0 1.607l8.107 8.107c0.446 0.446 1.161 0.446 1.607 0zM27.429 16c0 7.571-6.143 13.714-13.714 13.714s-13.714-6.143-13.714-13.714 6.143-13.714 13.714-13.714 13.714 6.143 13.714 13.714z"></path>
</svg>
