<!-- Generated by IcoMoon.io -->
<svg version="1.1" xmlns="http://www.w3.org/2000/svg" width="32" height="32" viewBox="0 0 32 32">
<title>clipboard</title>
<path d="M13.714 29.714h16v-11.429h-7.429c-0.946 0-1.714-0.768-1.714-1.714v-7.429h-6.857v20.571zM18.286 4v-1.143c0-0.304-0.268-0.571-0.571-0.571h-12.571c-0.304 0-0.571 0.268-0.571 0.571v1.143c0 0.304 0.268 0.571 0.571 0.571h12.571c0.304 0 0.571-0.268 0.571-0.571zM22.857 16h5.339l-5.339-5.339v5.339zM32 18.286v12c0 0.946-0.768 1.714-1.714 1.714h-17.143c-0.946 0-1.714-0.768-1.714-1.714v-2.857h-9.714c-0.946 0-1.714-0.768-1.714-1.714v-24c0-0.946 0.768-1.714 1.714-1.714h19.429c0.946 0 1.714 0.768 1.714 1.714v5.857c0.232 0.143 0.446 0.304 0.643 0.5l7.286 7.286c0.679 0.679 1.214 1.982 1.214 2.929z"></path>
</svg>
