<!-- Generated by IcoMoon.io -->
<svg version="1.1" xmlns="http://www.w3.org/2000/svg" width="27" height="32" viewBox="0 0 27 32">
<title>clock-o</title>
<path d="M16 9.714v8c0 0.321-0.25 0.571-0.571 0.571h-5.714c-0.321 0-0.571-0.25-0.571-0.571v-1.143c0-0.321 0.25-0.571 0.571-0.571h4v-6.286c0-0.321 0.25-0.571 0.571-0.571h1.143c0.321 0 0.571 0.25 0.571 0.571zM23.429 16c0-5.357-4.357-9.714-9.714-9.714s-9.714 4.357-9.714 9.714 4.357 9.714 9.714 9.714 9.714-4.357 9.714-9.714zM27.429 16c0 7.571-6.143 13.714-13.714 13.714s-13.714-6.143-13.714-13.714 6.143-13.714 13.714-13.714 13.714 6.143 13.714 13.714z"></path>
</svg>
