<!-- Generated by IcoMoon.io -->
<svg version="1.1" xmlns="http://www.w3.org/2000/svg" width="32" height="32" viewBox="0 0 32 32">
<title>cloud3</title>
<path d="M27.191 16.385c0.305-0.227 0.613-0.449 0.889-0.725 0.826-0.827 1.454-1.833 1.862-2.991 0.13-0.362 0.038-0.768-0.236-1.039-0.272-0.273-0.676-0.366-1.039-0.237-2.212 0.781-4.605 0.25-6.244-1.391-1.641-1.641-2.174-4.033-1.391-6.244 0.128-0.363 0.036-0.767-0.237-1.040-0.271-0.271-0.676-0.365-1.039-0.237-1.159 0.411-2.164 1.039-2.99 1.865-2.096 2.094-2.749 5.063-2.030 7.737-2.703 0.345-5.133 1.781-6.751 3.987-0.327-0.047-0.655-0.070-0.987-0.070-3.859 0-7 3.141-7 7s3.141 7 7 7c0.856 0 1.693-0.156 2.482-0.458 1.81 1.578 4.112 2.458 6.518 2.458 2.409 0 4.708-0.88 6.518-2.458 0.789 0.302 1.626 0.458 2.482 0.458 3.859 0 7-3.141 7-7 0-3.090-2.026-5.689-4.809-6.615zM18.182 5.76c0.159-0.161 0.329-0.311 0.509-0.452-0.141 2.249 0.671 4.461 2.319 6.108 1.648 1.648 3.861 2.458 6.109 2.319-0.862 1.099-2.050 1.783-3.32 2.074-1.711-2.172-4.225-3.539-6.997-3.762-0.767-2.122-0.318-4.59 1.38-6.288z"></path>
</svg>
