<!-- Generated by IcoMoon.io -->
<svg version="1.1" xmlns="http://www.w3.org/2000/svg" width="32" height="32" viewBox="0 0 32 32">
<title>cloudy3</title>
<path d="M30.521 15.464c0.914 1.182 1.479 2.644 1.479 4.25 0 3.859-3.141 7-7 7-0.855 0-1.693-0.156-2.482-0.458-1.81 1.578-4.109 2.458-6.518 2.458-2.406 0-4.708-0.88-6.518-2.458-0.789 0.302-1.626 0.458-2.482 0.458-3.859 0-7-3.141-7-7s3.141-7 7-7c0.332 0 0.66 0.023 0.987 0.070 0.033-0.046 0.073-0.086 0.107-0.13-0.051-0.309-0.094-0.618-0.094-0.94 0-3.073 2.5-5.572 5.57-5.572 0.151 0 0.301 0.006 0.449 0.018 1.445-1.803 3.625-2.874 5.98-2.874 2.357 0 4.535 1.070 5.98 2.874 0.148-0.012 0.297-0.018 0.447-0.018 3.073-0 5.573 2.499 5.573 5.572 0 1.448-0.568 2.756-1.479 3.75z"></path>
</svg>
