<!-- Generated by IcoMoon.io -->
<svg version="1.1" xmlns="http://www.w3.org/2000/svg" width="34" height="32" viewBox="0 0 34 32">
<title>code</title>
<path d="M11.018 24.982l-0.893 0.893c-0.232 0.232-0.589 0.232-0.821 0l-8.321-8.321c-0.232-0.232-0.232-0.589 0-0.821l8.321-8.321c0.232-0.232 0.589-0.232 0.821 0l0.893 0.893c0.232 0.232 0.232 0.589 0 0.821l-7.018 7.018 7.018 7.018c0.232 0.232 0.232 0.589 0 0.821zM21.571 5.929l-6.661 23.054c-0.089 0.304-0.411 0.482-0.696 0.393l-1.107-0.304c-0.304-0.089-0.482-0.411-0.393-0.714l6.661-23.054c0.089-0.304 0.411-0.482 0.696-0.393l1.107 0.304c0.304 0.089 0.482 0.411 0.393 0.714zM33.304 17.554l-8.321 8.321c-0.232 0.232-0.589 0.232-0.821 0l-0.893-0.893c-0.232-0.232-0.232-0.589 0-0.821l7.018-7.018-7.018-7.018c-0.232-0.232-0.232-0.589 0-0.821l0.893-0.893c0.232-0.232 0.589-0.232 0.821 0l8.321 8.321c0.232 0.232 0.232 0.589 0 0.821z"></path>
</svg>
