<!-- Generated by IcoMoon.io -->
<svg version="1.1" xmlns="http://www.w3.org/2000/svg" width="18" height="32" viewBox="0 0 18 32">
<title>code-fork</title>
<path d="M5.143 26.286c0-0.946-0.768-1.714-1.714-1.714s-1.714 0.768-1.714 1.714 0.768 1.714 1.714 1.714 1.714-0.768 1.714-1.714zM5.143 5.714c0-0.946-0.768-1.714-1.714-1.714s-1.714 0.768-1.714 1.714 0.768 1.714 1.714 1.714 1.714-0.768 1.714-1.714zM16.571 8c0-0.946-0.768-1.714-1.714-1.714s-1.714 0.768-1.714 1.714 0.768 1.714 1.714 1.714 1.714-0.768 1.714-1.714zM18.286 8c0 1.268-0.696 2.375-1.714 2.964-0.054 6.446-4.625 7.875-7.661 8.839-2.839 0.893-3.768 1.321-3.768 3.054v0.464c1.018 0.589 1.714 1.696 1.714 2.964 0 1.893-1.536 3.429-3.429 3.429s-3.429-1.536-3.429-3.429c0-1.268 0.696-2.375 1.714-2.964v-14.643c-1.018-0.589-1.714-1.696-1.714-2.964 0-1.893 1.536-3.429 3.429-3.429s3.429 1.536 3.429 3.429c0 1.268-0.696 2.375-1.714 2.964v8.875c0.911-0.446 1.875-0.75 2.75-1.018 3.321-1.054 5.214-1.839 5.25-5.571-1.018-0.589-1.714-1.696-1.714-2.964 0-1.893 1.536-3.429 3.429-3.429s3.429 1.536 3.429 3.429z"></path>
</svg>
