<!-- Generated by IcoMoon.io -->
<svg version="1.1" xmlns="http://www.w3.org/2000/svg" width="32" height="32" viewBox="0 0 32 32">
<title>commenting-o</title>
<path d="M11.429 16c0 1.268-1.018 2.286-2.286 2.286s-2.286-1.018-2.286-2.286 1.018-2.286 2.286-2.286 2.286 1.018 2.286 2.286zM18.286 16c0 1.268-1.018 2.286-2.286 2.286s-2.286-1.018-2.286-2.286 1.018-2.286 2.286-2.286 2.286 1.018 2.286 2.286zM25.143 16c0 1.268-1.018 2.286-2.286 2.286s-2.286-1.018-2.286-2.286 1.018-2.286 2.286-2.286 2.286 1.018 2.286 2.286zM16 6.857c-7.429 0-13.714 4.179-13.714 9.143 0 2.661 1.786 5.196 4.875 6.946l1.554 0.893-0.482 1.714c-0.339 1.268-0.786 2.25-1.25 3.071 1.804-0.75 3.446-1.768 4.911-3.054l0.768-0.679 1.018 0.107c0.768 0.089 1.554 0.143 2.321 0.143 7.429 0 13.714-4.179 13.714-9.143s-6.286-9.143-13.714-9.143zM32 16c0 6.321-7.161 11.429-16 11.429-0.875 0-1.75-0.054-2.589-0.143-2.339 2.071-5.125 3.536-8.214 4.321-0.643 0.179-1.339 0.304-2.036 0.393h-0.089c-0.357 0-0.679-0.286-0.768-0.679v-0.018c-0.089-0.446 0.214-0.714 0.482-1.036 1.125-1.268 2.411-2.339 3.25-5.321-3.679-2.089-6.036-5.321-6.036-8.946 0-6.304 7.161-11.429 16-11.429v0c8.839 0 16 5.125 16 11.429z"></path>
</svg>
