<!-- Generated by IcoMoon.io -->
<svg version="1.1" xmlns="http://www.w3.org/2000/svg" width="27" height="32" viewBox="0 0 27 32">
<title>crosshairs</title>
<path d="M21.375 18.286h-1.946c-0.625 0-1.143-0.518-1.143-1.143v-2.286c0-0.625 0.518-1.143 1.143-1.143h1.946c-0.768-2.571-2.804-4.607-5.375-5.375v1.946c0 0.625-0.518 1.143-1.143 1.143h-2.286c-0.625 0-1.143-0.518-1.143-1.143v-1.946c-2.571 0.768-4.607 2.804-5.375 5.375h1.946c0.625 0 1.143 0.518 1.143 1.143v2.286c0 0.625-0.518 1.143-1.143 1.143h-1.946c0.768 2.571 2.804 4.607 5.375 5.375v-1.946c0-0.625 0.518-1.143 1.143-1.143h2.286c0.625 0 1.143 0.518 1.143 1.143v1.946c2.571-0.768 4.607-2.804 5.375-5.375zM27.429 14.857v2.286c0 0.625-0.518 1.143-1.143 1.143h-2.554c-0.875 3.839-3.893 6.857-7.732 7.732v2.554c0 0.625-0.518 1.143-1.143 1.143h-2.286c-0.625 0-1.143-0.518-1.143-1.143v-2.554c-3.839-0.875-6.857-3.893-7.732-7.732h-2.554c-0.625 0-1.143-0.518-1.143-1.143v-2.286c0-0.625 0.518-1.143 1.143-1.143h2.554c0.875-3.839 3.893-6.857 7.732-7.732v-2.554c0-0.625 0.518-1.143 1.143-1.143h2.286c0.625 0 1.143 0.518 1.143 1.143v2.554c3.839 0.875 6.857 3.893 7.732 7.732h2.554c0.625 0 1.143 0.518 1.143 1.143z"></path>
</svg>
