<!-- Generated by IcoMoon.io -->
<svg version="1.1" xmlns="http://www.w3.org/2000/svg" width="30" height="32" viewBox="0 0 30 32">
<title>cube</title>
<path d="M16 29.089l11.429-6.232v-11.357l-11.429 4.161v13.429zM14.857 13.643l12.464-4.536-12.464-4.536-12.464 4.536zM29.714 9.143v13.714c0 0.839-0.464 1.607-1.196 2l-12.571 6.857c-0.339 0.196-0.714 0.286-1.089 0.286s-0.75-0.089-1.089-0.286l-12.571-6.857c-0.732-0.393-1.196-1.161-1.196-2v-13.714c0-0.964 0.607-1.821 1.5-2.143l12.571-4.571c0.25-0.089 0.518-0.143 0.786-0.143s0.536 0.054 0.786 0.143l12.571 4.571c0.893 0.321 1.5 1.179 1.5 2.143z"></path>
</svg>
