<!-- Generated by IcoMoon.io -->
<svg version="1.1" xmlns="http://www.w3.org/2000/svg" width="32" height="32" viewBox="0 0 32 32">
<title>cut</title>
<path d="M17.143 16c0.625 0 1.143 0.518 1.143 1.143s-0.518 1.143-1.143 1.143-1.143-0.518-1.143-1.143 0.518-1.143 1.143-1.143zM22.5 17.143l9.054 7.107c0.321 0.232 0.482 0.625 0.446 1-0.054 0.393-0.286 0.732-0.625 0.911l-2.286 1.143c-0.161 0.089-0.339 0.125-0.518 0.125-0.196 0-0.393-0.054-0.554-0.143l-12.321-6.911-1.964 1.179c-0.071 0.036-0.143 0.071-0.214 0.089 0.161 0.554 0.232 1.143 0.179 1.732-0.161 1.839-1.393 3.589-3.357 4.839-1.518 0.964-3.268 1.5-4.946 1.5-1.607 0-2.964-0.482-3.964-1.393-1.018-0.946-1.536-2.304-1.411-3.696 0.161-1.821 1.393-3.589 3.339-4.839 1.518-0.964 3.286-1.5 4.964-1.5 1 0 1.911 0.196 2.696 0.554 0.107-0.161 0.232-0.286 0.393-0.393l2.179-1.304-2.179-1.304c-0.161-0.107-0.286-0.232-0.393-0.393-0.786 0.357-1.696 0.554-2.696 0.554-1.679 0-3.446-0.536-4.964-1.5-1.946-1.25-3.179-3.018-3.339-4.839-0.125-1.393 0.393-2.75 1.411-3.679 1-0.929 2.357-1.411 3.964-1.411 1.679 0 3.429 0.536 4.946 1.5 1.964 1.232 3.196 3 3.357 4.839 0.054 0.589-0.018 1.179-0.179 1.732 0.071 0.018 0.143 0.054 0.214 0.089l1.964 1.179 12.321-6.911c0.161-0.089 0.357-0.143 0.554-0.143 0.179 0 0.357 0.036 0.518 0.125l2.286 1.143c0.339 0.179 0.571 0.518 0.625 0.911 0.036 0.375-0.125 0.768-0.446 1zM10.339 12.5c1.089-1 0.411-2.804-1.518-4.018-1.089-0.696-2.357-1.054-3.429-1.054-0.821 0-1.554 0.214-2.018 0.643-1.089 1-0.411 2.804 1.518 4.018 1.089 0.696 2.339 1.054 3.429 1.054 0.821 0 1.554-0.214 2.018-0.643zM8.821 25.804c1.929-1.214 2.607-3.018 1.518-4.018-0.464-0.429-1.196-0.643-2.018-0.643-1.089 0-2.339 0.357-3.429 1.054-1.929 1.214-2.607 3.018-1.518 4.018 0.464 0.429 1.196 0.643 2.018 0.643 1.071 0 2.339-0.357 3.429-1.054zM12 14.857l1.714 1.036v-0.196c0-0.411 0.232-0.786 0.589-1l0.25-0.143-1.411-0.839-0.464 0.464c-0.143 0.143-0.25 0.286-0.393 0.411-0.054 0.054-0.089 0.071-0.125 0.107zM16 18.857l1.714 0.571 13.143-10.286-2.286-1.143-13.714 7.696v2.018l-2.857 1.714 0.161 0.143c0.036 0.054 0.071 0.071 0.125 0.107 0.143 0.143 0.25 0.286 0.393 0.429l0.464 0.464zM28.571 26.286l2.286-1.143-9.286-7.286-3.161 2.464c-0.054 0.071-0.143 0.089-0.232 0.125z"></path>
</svg>
