<!-- Generated by IcoMoon.io -->
<svg version="1.1" xmlns="http://www.w3.org/2000/svg" width="32" height="32" viewBox="0 0 32 32">
<title>day-fog</title>
<path d="M0.341 22.464c0 0.245 0.085 0.459 0.267 0.629s0.405 0.256 0.672 0.256h19.957c0.256 0 0.469-0.085 0.651-0.256s0.267-0.373 0.267-0.629c0-0.256-0.085-0.469-0.267-0.64-0.181-0.181-0.395-0.267-0.651-0.267h-19.957c-0.267 0-0.491 0.085-0.672 0.267s-0.267 0.384-0.267 0.64zM3.136 19.115c0 0.245 0.085 0.459 0.267 0.619 0.181 0.192 0.395 0.288 0.64 0.288h19.968c0.245 0 0.459-0.085 0.629-0.267s0.256-0.395 0.256-0.64c0-0.245-0.085-0.459-0.245-0.629-0.171-0.171-0.373-0.256-0.629-0.256h-19.968c-0.256 0-0.469 0.085-0.64 0.256-0.181 0.181-0.277 0.384-0.277 0.629zM3.275 16.555c0 0.096 0.053 0.139 0.171 0.139h1.525c0.075 0 0.149-0.053 0.224-0.171 0.256-0.555 0.629-1.003 1.131-1.355s1.056-0.555 1.664-0.597l0.576-0.075c0.117 0 0.181-0.064 0.181-0.192l0.075-0.544c0.117-1.152 0.597-2.112 1.461-2.891 0.864-0.768 1.877-1.163 3.051-1.163 1.152 0 2.165 0.384 3.029 1.152s1.355 1.717 1.472 2.859l0.075 0.619c0 0.117 0.064 0.181 0.203 0.181h1.717c0.683 0 1.312 0.181 1.877 0.555 0.565 0.363 0.981 0.853 1.259 1.461 0.075 0.117 0.139 0.171 0.213 0.171h1.536c0.139 0 0.192-0.075 0.139-0.245l-0.213-0.587c0.811-1.003 1.205-2.176 1.205-3.531 0-0.757-0.149-1.472-0.437-2.165s-0.683-1.28-1.184-1.781c-0.491-0.501-1.088-0.896-1.781-1.195s-1.408-0.427-2.176-0.427c-1.643 0-3.008 0.597-4.075 1.792-0.907-0.448-1.856-0.672-2.859-0.672-1.493 0-2.827 0.469-3.989 1.408s-1.909 2.133-2.24 3.595c-1.899 0.501-3.179 1.685-3.819 3.573-0.011 0.011-0.011 0.043-0.011 0.085zM5.003 25.739c0 0.256 0.096 0.469 0.288 0.64 0.171 0.181 0.373 0.277 0.629 0.277h19.989c0.245 0 0.459-0.085 0.64-0.267s0.267-0.395 0.267-0.651c0-0.245-0.085-0.448-0.267-0.619-0.181-0.16-0.395-0.245-0.64-0.245h-19.989c-0.256 0-0.469 0.085-0.651 0.245-0.181 0.171-0.267 0.373-0.267 0.619zM12.011 4.971c0 0.256 0.085 0.459 0.245 0.629l0.693 0.683c0.181 0.192 0.384 0.288 0.619 0.288s0.448-0.085 0.64-0.267c0.181-0.181 0.277-0.395 0.277-0.651s-0.085-0.48-0.267-0.672l-0.683-0.651c-0.171-0.181-0.384-0.277-0.64-0.277s-0.469 0.085-0.64 0.267c-0.16 0.171-0.245 0.395-0.245 0.651zM17.685 9.643c0.715-0.725 1.579-1.077 2.592-1.077 1.045 0 1.941 0.373 2.677 1.109s1.109 1.632 1.109 2.667c0 0.693-0.171 1.333-0.523 1.92-1.013-1.013-2.251-1.515-3.701-1.515h-0.363c-0.309-1.259-0.907-2.293-1.792-3.104zM19.392 4.064c0 0.245 0.085 0.459 0.256 0.629s0.373 0.256 0.629 0.256c0.267 0 0.491-0.085 0.672-0.256s0.267-0.373 0.267-0.629v-2.187c0-0.245-0.096-0.459-0.277-0.64-0.192-0.181-0.416-0.267-0.672-0.267-0.245 0-0.459 0.085-0.629 0.267s-0.256 0.395-0.256 0.64v2.187zM25.248 6.485c0 0.235 0.085 0.459 0.256 0.64 0.395 0.384 0.832 0.384 1.312 0l1.525-1.525c0.171-0.192 0.256-0.416 0.256-0.683 0-0.245-0.085-0.459-0.256-0.629s-0.384-0.256-0.629-0.256c-0.256 0-0.469 0.085-0.64 0.256l-1.557 1.568c-0.181 0.192-0.267 0.405-0.267 0.629zM26.112 19.072c0 0.256 0.096 0.469 0.277 0.64l0.683 0.693c0.171 0.171 0.384 0.256 0.619 0.256 0.224 0 0.437-0.085 0.651-0.256 0.171-0.181 0.256-0.416 0.256-0.683 0-0.235-0.085-0.437-0.256-0.597l-0.693-0.704c-0.192-0.171-0.405-0.256-0.64-0.256-0.256 0-0.469 0.085-0.64 0.267-0.171 0.171-0.256 0.384-0.256 0.64zM27.691 12.341c0 0.256 0.096 0.469 0.277 0.64 0.16 0.181 0.373 0.267 0.629 0.267h2.187c0.245 0 0.459-0.085 0.629-0.267s0.256-0.395 0.256-0.64c0-0.256-0.085-0.469-0.256-0.64s-0.373-0.256-0.629-0.256h-2.187c-0.256 0-0.469 0.085-0.64 0.267-0.181 0.171-0.267 0.384-0.267 0.629z"></path>
</svg>
