<!-- Generated by IcoMoon.io -->
<svg version="1.1" xmlns="http://www.w3.org/2000/svg" width="18" height="32" viewBox="0 0 18 32">
<title>dollar</title>
<path d="M17.464 21.161c0 3.643-2.607 6.518-6.393 7.143v3.125c0 0.321-0.25 0.571-0.571 0.571h-2.411c-0.304 0-0.571-0.25-0.571-0.571v-3.125c-4.179-0.589-6.464-3.089-6.554-3.196-0.179-0.214-0.196-0.518-0.036-0.732l1.839-2.411c0.089-0.125 0.25-0.196 0.411-0.214s0.321 0.036 0.429 0.161c0.036 0.018 2.536 2.411 5.696 2.411 1.75 0 3.643-0.929 3.643-2.946 0-1.714-2.107-2.554-4.518-3.518-3.214-1.268-7.214-2.875-7.214-7.357 0-3.286 2.571-6 6.304-6.714v-3.214c0-0.321 0.268-0.571 0.571-0.571h2.411c0.321 0 0.571 0.25 0.571 0.571v3.143c3.625 0.411 5.554 2.375 5.625 2.446 0.179 0.196 0.214 0.464 0.089 0.679l-1.446 2.607c-0.089 0.161-0.232 0.268-0.411 0.286-0.179 0.036-0.339-0.018-0.482-0.125-0.018-0.018-2.179-1.929-4.857-1.929-2.268 0-3.839 1.125-3.839 2.75 0 1.893 2.179 2.732 4.714 3.714 3.286 1.268 7 2.714 7 7.018z"></path>
</svg>
