<!-- Generated by IcoMoon.io -->
<svg version="1.1" xmlns="http://www.w3.org/2000/svg" width="30" height="32" viewBox="0 0 30 32">
<title>download</title>
<path d="M22.857 24c0-0.625-0.518-1.143-1.143-1.143s-1.143 0.518-1.143 1.143 0.518 1.143 1.143 1.143 1.143-0.518 1.143-1.143zM27.429 24c0-0.625-0.518-1.143-1.143-1.143s-1.143 0.518-1.143 1.143 0.518 1.143 1.143 1.143 1.143-0.518 1.143-1.143zM29.714 20v5.714c0 0.946-0.768 1.714-1.714 1.714h-26.286c-0.946 0-1.714-0.768-1.714-1.714v-5.714c0-0.946 0.768-1.714 1.714-1.714h8.304l2.411 2.429c0.661 0.643 1.518 1 2.429 1s1.768-0.357 2.429-1l2.429-2.429h8.286c0.946 0 1.714 0.768 1.714 1.714zM23.911 9.839c0.179 0.429 0.089 0.929-0.25 1.25l-8 8c-0.214 0.232-0.518 0.339-0.804 0.339s-0.589-0.107-0.804-0.339l-8-8c-0.339-0.321-0.429-0.821-0.25-1.25 0.179-0.411 0.589-0.696 1.054-0.696h4.571v-8c0-0.625 0.518-1.143 1.143-1.143h4.571c0.625 0 1.143 0.518 1.143 1.143v8h4.571c0.464 0 0.875 0.286 1.054 0.696z"></path>
</svg>
