<!-- Generated by IcoMoon.io -->
<svg version="1.1" xmlns="http://www.w3.org/2000/svg" width="37" height="32" viewBox="0 0 37 32">
<title>drivers-license</title>
<path d="M16 21.643c0-2.357-0.571-5.071-2.929-5.071-0.714 0.714-1.696 1.143-2.786 1.143s-2.071-0.429-2.786-1.143c-2.357 0-2.929 2.714-2.929 5.071 0 1.304 0.857 2.357 1.911 2.357h7.607c1.054 0 1.911-1.054 1.911-2.357zM13.714 13.714c0-1.893-1.536-3.429-3.429-3.429s-3.429 1.536-3.429 3.429 1.536 3.429 3.429 3.429 3.429-1.536 3.429-3.429zM32 22.286v-1.143c0-0.321-0.25-0.571-0.571-0.571h-12.571c-0.321 0-0.571 0.25-0.571 0.571v1.143c0 0.321 0.25 0.571 0.571 0.571h12.571c0.321 0 0.571-0.25 0.571-0.571zM25.143 17.714v-1.143c0-0.321-0.25-0.571-0.571-0.571h-5.714c-0.321 0-0.571 0.25-0.571 0.571v1.143c0 0.321 0.25 0.571 0.571 0.571h5.714c0.321 0 0.571-0.25 0.571-0.571zM32 17.714v-1.143c0-0.321-0.25-0.571-0.571-0.571h-3.429c-0.321 0-0.571 0.25-0.571 0.571v1.143c0 0.321 0.25 0.571 0.571 0.571h3.429c0.321 0 0.571-0.25 0.571-0.571zM32 13.143v-1.143c0-0.321-0.25-0.571-0.571-0.571h-12.571c-0.321 0-0.571 0.25-0.571 0.571v1.143c0 0.321 0.25 0.571 0.571 0.571h12.571c0.321 0 0.571-0.25 0.571-0.571zM2.286 6.857h32v-1.714c0-0.321-0.25-0.571-0.571-0.571h-30.857c-0.321 0-0.571 0.25-0.571 0.571v1.714zM36.571 5.143v21.714c0 1.571-1.286 2.857-2.857 2.857h-30.857c-1.571 0-2.857-1.286-2.857-2.857v-21.714c0-1.571 1.286-2.857 2.857-2.857h30.857c1.571 0 2.857 1.286 2.857 2.857z"></path>
</svg>
