<!-- Generated by IcoMoon.io -->
<svg version="1.1" xmlns="http://www.w3.org/2000/svg" width="25" height="32" viewBox="0 0 25 32">
<title>ellipsis-h</title>
<path d="M6.857 13.143v3.429c0 0.946-0.768 1.714-1.714 1.714h-3.429c-0.946 0-1.714-0.768-1.714-1.714v-3.429c0-0.946 0.768-1.714 1.714-1.714h3.429c0.946 0 1.714 0.768 1.714 1.714zM16 13.143v3.429c0 0.946-0.768 1.714-1.714 1.714h-3.429c-0.946 0-1.714-0.768-1.714-1.714v-3.429c0-0.946 0.768-1.714 1.714-1.714h3.429c0.946 0 1.714 0.768 1.714 1.714zM25.143 13.143v3.429c0 0.946-0.768 1.714-1.714 1.714h-3.429c-0.946 0-1.714-0.768-1.714-1.714v-3.429c0-0.946 0.768-1.714 1.714-1.714h3.429c0.946 0 1.714 0.768 1.714 1.714z"></path>
</svg>
