<!-- Generated by IcoMoon.io -->
<svg version="1.1" xmlns="http://www.w3.org/2000/svg" width="32" height="32" viewBox="0 0 32 32">
<title>envelope-open-o</title>
<path d="M26.321 16.304l0.696 0.911c0.196 0.25 0.143 0.589-0.089 0.786-1.786 1.393-5.893 4.554-6.071 4.696-1.268 1.036-2.982 2.464-4.839 2.446h-0.036c-1.857 0-3.571-1.411-4.839-2.446-0.196-0.161-4.161-3.214-5.911-4.571-0.25-0.196-0.304-0.536-0.107-0.786l0.661-0.929c0.196-0.268 0.571-0.321 0.821-0.107 1.214 0.946 2.929 2.268 5.464 4.214 0.893 0.679 2.661 2.339 3.911 2.339h0.036c1.25 0 3.018-1.661 3.911-2.339 2.625-2.018 4.375-3.357 5.589-4.321 0.25-0.196 0.607-0.143 0.804 0.107zM29.714 29.143v-16.571c-1.786-1.661-1.518-1.518-9.786-7.911-0.893-0.696-2.661-2.375-3.911-2.375h-0.036c-1.25 0-3.018 1.679-3.911 2.375-8.268 6.393-8 6.25-9.786 7.911v16.571c0 0.304 0.268 0.571 0.571 0.571h26.286c0.304 0 0.571-0.268 0.571-0.571zM32 12.571v16.571c0 1.571-1.286 2.857-2.857 2.857h-26.286c-1.571 0-2.857-1.286-2.857-2.857v-16.571c0-0.643 0.268-1.25 0.732-1.679 3.661-3.393 7.875-6.339 10.411-8.429 1.25-1.036 2.982-2.464 4.839-2.464h0.036c1.857 0 3.589 1.429 4.839 2.464 2.357 1.946 6.839 5.107 10.411 8.429 0.464 0.429 0.732 1.036 0.732 1.679z"></path>
</svg>
