<!-- Generated by IcoMoon.io -->
<svg version="1.1" xmlns="http://www.w3.org/2000/svg" width="18" height="32" viewBox="0 0 18 32">
<title>eur</title>
<path d="M17.429 23.339l0.625 2.839c0.071 0.286-0.089 0.571-0.357 0.661-0.071 0.018-1.732 0.589-3.875 0.589-5.571 0-10.054-3.357-11.554-8.607h-1.696c-0.321 0-0.571-0.268-0.571-0.571v-2.018c0-0.304 0.25-0.571 0.571-0.571h1.179c-0.018-0.571-0.018-1.25 0.018-1.875h-1.196c-0.321 0-0.571-0.25-0.571-0.571v-2.036c0-0.321 0.25-0.571 0.571-0.571h1.75c1.589-5 6.161-8.321 11.5-8.321 1.857 0 3.393 0.393 3.464 0.411 0.143 0.036 0.268 0.143 0.357 0.268 0.071 0.125 0.089 0.286 0.054 0.429l-0.768 2.839c-0.071 0.304-0.375 0.482-0.679 0.393-0.018 0-1.232-0.304-2.5-0.304-3 0-5.518 1.625-6.714 4.286h8.357c0.179 0 0.339 0.071 0.446 0.214 0.107 0.125 0.161 0.304 0.125 0.464l-0.429 2.036c-0.054 0.268-0.286 0.464-0.571 0.464h-8.714c-0.054 0.571-0.036 1.179 0 1.875h8.196c0.179 0 0.339 0.089 0.446 0.214 0.107 0.143 0.143 0.321 0.107 0.482l-0.429 2c-0.054 0.268-0.286 0.464-0.554 0.464h-6.911c1.143 2.786 3.714 4.536 6.75 4.536 1.554 0 2.821-0.429 2.839-0.429 0.143-0.054 0.321-0.036 0.464 0.036 0.143 0.089 0.232 0.232 0.268 0.375z"></path>
</svg>
