<!-- Generated by IcoMoon.io -->
<svg version="1.1" xmlns="http://www.w3.org/2000/svg" width="32" height="32" viewBox="0 0 32 32">
<title>exchange</title>
<path d="M32 21.143v3.429c0 0.304-0.268 0.571-0.571 0.571h-24.571v3.429c0 0.304-0.25 0.571-0.571 0.571-0.161 0-0.304-0.071-0.429-0.179l-5.696-5.714c-0.107-0.107-0.161-0.25-0.161-0.393 0-0.161 0.054-0.304 0.161-0.411l5.714-5.714c0.107-0.107 0.268-0.161 0.411-0.161 0.304 0 0.571 0.25 0.571 0.571v3.429h24.571c0.304 0 0.571 0.25 0.571 0.571zM32 11.429c0 0.143-0.054 0.304-0.161 0.411l-5.714 5.714c-0.107 0.107-0.268 0.161-0.411 0.161-0.304 0-0.571-0.268-0.571-0.571v-3.429h-24.571c-0.304 0-0.571-0.268-0.571-0.571v-3.429c0-0.304 0.268-0.571 0.571-0.571h24.571v-3.429c0-0.321 0.25-0.571 0.571-0.571 0.161 0 0.304 0.071 0.429 0.179l5.696 5.696c0.107 0.107 0.161 0.268 0.161 0.411z"></path>
</svg>
