<!-- Generated by IcoMoon.io -->
<svg version="1.1" xmlns="http://www.w3.org/2000/svg" width="32" height="32" viewBox="0 0 32 32">
<title>exclamation-triangle</title>
<path d="M18.286 24.554v-3.393c0-0.321-0.25-0.589-0.571-0.589h-3.429c-0.321 0-0.571 0.268-0.571 0.589v3.393c0 0.321 0.25 0.589 0.571 0.589h3.429c0.321 0 0.571-0.268 0.571-0.589zM18.25 17.875l0.321-8.196c0-0.107-0.054-0.25-0.179-0.339-0.107-0.089-0.268-0.196-0.429-0.196h-3.929c-0.161 0-0.321 0.107-0.429 0.196-0.125 0.089-0.179 0.268-0.179 0.375l0.304 8.161c0 0.232 0.268 0.411 0.607 0.411h3.304c0.321 0 0.589-0.179 0.607-0.411zM18 1.196l13.714 25.143c0.393 0.696 0.375 1.554-0.036 2.25s-1.161 1.125-1.964 1.125h-27.429c-0.804 0-1.554-0.429-1.964-1.125s-0.429-1.554-0.036-2.25l13.714-25.143c0.393-0.732 1.161-1.196 2-1.196s1.607 0.464 2 1.196z"></path>
</svg>
