<!-- Generated by IcoMoon.io -->
<svg version="1.1" xmlns="http://www.w3.org/2000/svg" width="33" height="32" viewBox="0 0 33 32">
<title>eyedropper</title>
<path d="M30.321 1.679c2.232 2.232 2.25 5.857 0 8.071l-4.018 3.982 1.857 1.857c0.232 0.232 0.232 0.589 0 0.821l-3.75 3.75c-0.232 0.232-0.589 0.232-0.821 0l-1.875-1.875-10.768 10.768c-0.429 0.429-1 0.661-1.607 0.661h-3.625l-4.571 2.286-1.143-1.143 2.286-4.571v-3.625c0-0.607 0.232-1.179 0.661-1.607l10.768-10.768-1.875-1.875c-0.232-0.232-0.232-0.589 0-0.821l3.75-3.75c0.232-0.232 0.589-0.232 0.821 0l1.857 1.857 3.982-4.018c2.214-2.25 5.839-2.232 8.071 0zM9.143 26.286l10.286-10.286-3.429-3.429-10.286 10.286v3.429h3.429z"></path>
</svg>
