<!-- Generated by IcoMoon.io -->
<svg version="1.1" xmlns="http://www.w3.org/2000/svg" width="28" height="32" viewBox="0 0 28 32">
<title>fa</title>
<path d="M27.429 9.143v14.982c0 0.554-0.357 0.964-0.875 1.107-1.911 0.571-4.054 0.929-6.036 0.929-2.679 0-4.946-1.054-7.911-1.054-2.196 0-4.464 0.357-6.607 0.857v6.036h-2.857v-24.429c-1.5-0.589-2.482-2.054-2.482-3.661 0-2.161 1.75-3.911 3.911-3.911s3.911 1.75 3.911 3.911c0 1.607-0.982 3.071-2.482 3.661v1.214c2-0.464 4.071-0.786 6.125-0.786 1.179 0 2.357 0.089 3.536 0.268 1.536 0.232 3.089 0.768 4.661 0.768 0.982 0 1.982-0.125 2.946-0.321 0.732-0.143 2.411-0.714 3.018-0.714 0.625 0 1.143 0.518 1.143 1.143z"></path>
</svg>
