<!-- Generated by IcoMoon.io -->
<svg version="1.1" xmlns="http://www.w3.org/2000/svg" width="32" height="32" viewBox="0 0 32 32">
<title>fan</title>
<path d="M22.036 8c-1.756 0-3.381 0.283-4.816 0.804l0.776-7.694c0.067-0.652-0.507-1.183-1.162-1.101-4.981 0.625-8.833 4.844-8.833 9.956 0 1.756 0.283 3.381 0.804 4.816l-7.694-0.776c-0.652-0.068-1.183 0.507-1.101 1.162 0.625 4.981 4.844 8.833 9.956 8.833 1.756 0 3.381-0.282 4.816-0.804l-0.776 7.694c-0.066 0.652 0.507 1.183 1.162 1.101 4.981-0.625 8.833-4.844 8.833-9.956 0-1.756-0.282-3.381-0.804-4.816l7.694 0.776c0.652 0.066 1.183-0.507 1.101-1.162-0.625-4.981-4.844-8.833-9.956-8.833zM16 18c-1.105 0-2-0.895-2-2s0.895-2 2-2c1.105 0 2 0.895 2 2v0c0 1.105-0.895 2-2 2v0z"></path>
</svg>
