<!-- Generated by IcoMoon.io -->
<svg version="1.1" xmlns="http://www.w3.org/2000/svg" width="34" height="32" viewBox="0 0 34 32">
<title>film</title>
<path d="M6.857 28.571v-2.286c0-0.625-0.518-1.143-1.143-1.143h-2.286c-0.625 0-1.143 0.518-1.143 1.143v2.286c0 0.625 0.518 1.143 1.143 1.143h2.286c0.625 0 1.143-0.518 1.143-1.143zM6.857 21.714v-2.286c0-0.625-0.518-1.143-1.143-1.143h-2.286c-0.625 0-1.143 0.518-1.143 1.143v2.286c0 0.625 0.518 1.143 1.143 1.143h2.286c0.625 0 1.143-0.518 1.143-1.143zM6.857 14.857v-2.286c0-0.625-0.518-1.143-1.143-1.143h-2.286c-0.625 0-1.143 0.518-1.143 1.143v2.286c0 0.625 0.518 1.143 1.143 1.143h2.286c0.625 0 1.143-0.518 1.143-1.143zM25.143 28.571v-9.143c0-0.625-0.518-1.143-1.143-1.143h-13.714c-0.625 0-1.143 0.518-1.143 1.143v9.143c0 0.625 0.518 1.143 1.143 1.143h13.714c0.625 0 1.143-0.518 1.143-1.143zM6.857 8v-2.286c0-0.625-0.518-1.143-1.143-1.143h-2.286c-0.625 0-1.143 0.518-1.143 1.143v2.286c0 0.625 0.518 1.143 1.143 1.143h2.286c0.625 0 1.143-0.518 1.143-1.143zM32 28.571v-2.286c0-0.625-0.518-1.143-1.143-1.143h-2.286c-0.625 0-1.143 0.518-1.143 1.143v2.286c0 0.625 0.518 1.143 1.143 1.143h2.286c0.625 0 1.143-0.518 1.143-1.143zM25.143 14.857v-9.143c0-0.625-0.518-1.143-1.143-1.143h-13.714c-0.625 0-1.143 0.518-1.143 1.143v9.143c0 0.625 0.518 1.143 1.143 1.143h13.714c0.625 0 1.143-0.518 1.143-1.143zM32 21.714v-2.286c0-0.625-0.518-1.143-1.143-1.143h-2.286c-0.625 0-1.143 0.518-1.143 1.143v2.286c0 0.625 0.518 1.143 1.143 1.143h2.286c0.625 0 1.143-0.518 1.143-1.143zM32 14.857v-2.286c0-0.625-0.518-1.143-1.143-1.143h-2.286c-0.625 0-1.143 0.518-1.143 1.143v2.286c0 0.625 0.518 1.143 1.143 1.143h2.286c0.625 0 1.143-0.518 1.143-1.143zM32 8v-2.286c0-0.625-0.518-1.143-1.143-1.143h-2.286c-0.625 0-1.143 0.518-1.143 1.143v2.286c0 0.625 0.518 1.143 1.143 1.143h2.286c0.625 0 1.143-0.518 1.143-1.143zM34.286 5.143v24c0 1.571-1.286 2.857-2.857 2.857h-28.571c-1.571 0-2.857-1.286-2.857-2.857v-24c0-1.571 1.286-2.857 2.857-2.857h28.571c1.571 0 2.857 1.286 2.857 2.857z"></path>
</svg>
