<!-- Generated by IcoMoon.io -->
<svg version="1.1" xmlns="http://www.w3.org/2000/svg" width="33" height="32" viewBox="0 0 33 32">
<title>flag-checkered</title>
<path d="M14.857 17.857v-3.429c-2.179 0.196-4.804 1.071-6.857 2.089v3.304c2.071-0.964 4.643-1.786 6.857-1.964zM14.857 10.393v-3.518c-2.25 0.107-4.893 1.161-6.857 2.25v3.375c2.107-1.089 4.643-2.018 6.857-2.107zM29.714 18.661v-3.286c-1.625 0.804-4.464 2-6.857 1.268v-4c-0.232-0.071-0.464-0.161-0.696-0.268-2.054-1.036-3.732-2-6.429-2-0.286 0-0.571 0.018-0.875 0.054v3.964h0.339c2.696 0 4.911 0.964 6.964 1.982 0.232 0.107 0.464 0.196 0.696 0.268v3.357c0.482 0.196 1.018 0.304 1.625 0.304 1.982 0 4.125-1.054 5.232-1.643zM29.714 11.036v-3.375c-1.429 0.768-3.429 1.625-5.464 1.625v0c-0.482 0-0.946-0.036-1.393-0.143v3.5c2.393 0.679 5.232-0.696 6.857-1.607zM5.714 4.571c0 0.839-0.464 1.571-1.143 1.964v22.607c0 0.321-0.25 0.571-0.571 0.571h-1.143c-0.321 0-0.571-0.25-0.571-0.571v-22.607c-0.679-0.393-1.143-1.125-1.143-1.964 0-1.268 1.018-2.286 2.286-2.286s2.286 1.018 2.286 2.286zM32 5.714v13.625c0 0.429-0.25 0.821-0.625 1.018-0.071 0.036-0.179 0.089-0.304 0.161-1.143 0.607-3.839 2.071-6.589 2.071-1.054 0-2-0.214-2.821-0.625l-0.5-0.25c-1.804-0.911-3.232-1.625-5.429-1.625-2.571 0-6.196 1.339-8.286 2.607-0.179 0.107-0.393 0.161-0.589 0.161s-0.393-0.054-0.571-0.143c-0.357-0.214-0.571-0.589-0.571-1v-13.25c0-0.393 0.214-0.768 0.554-0.982 1.143-0.679 5.179-2.911 8.929-2.911 2.982 0 5.411 1.089 7.464 2.089 0.464 0.232 1 0.339 1.589 0.339 2.107 0 4.429-1.339 5.536-2 0.232-0.125 0.429-0.232 0.554-0.304 0.357-0.179 0.768-0.161 1.107 0.036 0.339 0.214 0.554 0.589 0.554 0.982z"></path>
</svg>
