<!-- Generated by IcoMoon.io -->
<svg version="1.1" xmlns="http://www.w3.org/2000/svg" width="33" height="32" viewBox="0 0 33 32">
<title>flag</title>
<path d="M5.714 4.571c0 0.821-0.446 1.554-1.143 1.964v22.607c0 0.304-0.268 0.571-0.571 0.571h-1.143c-0.304 0-0.571-0.268-0.571-0.571v-22.607c-0.696-0.411-1.143-1.143-1.143-1.964 0-1.268 1.018-2.286 2.286-2.286s2.286 1.018 2.286 2.286zM32 5.714v13.625c0 0.661-0.411 0.911-0.929 1.179-2.018 1.089-4.25 2.071-6.589 2.071-3.286 0-4.857-2.5-8.75-2.5-2.839 0-5.821 1.286-8.286 2.607-0.196 0.107-0.375 0.161-0.589 0.161-0.625 0-1.143-0.518-1.143-1.143v-13.25c0-0.429 0.214-0.732 0.554-0.982 0.429-0.286 0.946-0.536 1.411-0.768 2.25-1.143 4.982-2.143 7.518-2.143 2.804 0 5 0.929 7.482 2.089 0.5 0.25 1.018 0.339 1.571 0.339 2.804 0 5.821-2.429 6.607-2.429 0.625 0 1.143 0.518 1.143 1.143z"></path>
</svg>
