<!-- Generated by IcoMoon.io -->
<svg version="1.1" xmlns="http://www.w3.org/2000/svg" width="34" height="32" viewBox="0 0 34 32">
<title>gamepad</title>
<path d="M14.857 19.429v-2.286c0-0.321-0.25-0.571-0.571-0.571h-3.429v-3.429c0-0.321-0.25-0.571-0.571-0.571h-2.286c-0.321 0-0.571 0.25-0.571 0.571v3.429h-3.429c-0.321 0-0.571 0.25-0.571 0.571v2.286c0 0.321 0.25 0.571 0.571 0.571h3.429v3.429c0 0.321 0.25 0.571 0.571 0.571h2.286c0.321 0 0.571-0.25 0.571-0.571v-3.429h3.429c0.321 0 0.571-0.25 0.571-0.571zM25.143 20.571c0-1.268-1.018-2.286-2.286-2.286s-2.286 1.018-2.286 2.286 1.018 2.286 2.286 2.286 2.286-1.018 2.286-2.286zM29.714 16c0-1.268-1.018-2.286-2.286-2.286s-2.286 1.018-2.286 2.286 1.018 2.286 2.286 2.286 2.286-1.018 2.286-2.286zM34.286 18.286c0 5.054-4.089 9.143-9.143 9.143-2.321 0-4.429-0.875-6.036-2.286h-3.929c-1.607 1.411-3.714 2.286-6.036 2.286-5.054 0-9.143-4.089-9.143-9.143s4.089-9.143 9.143-9.143h16c5.054 0 9.143 4.089 9.143 9.143z"></path>
</svg>
