<!-- Generated by IcoMoon.io -->
<svg version="1.1" xmlns="http://www.w3.org/2000/svg" width="32" height="32" viewBox="0 0 32 32">
<title>gate-arrow-right</title>
<path d="M20 6.667v6.667h-2.667v-5.333h-2.667v5.333h-2.667v-2.667h-2.667v16h2.667v-2.667h2.667v2.667h1.453c-4.413 0-0.12 3.080-0.12-1.333s-3.080-4.413 1.333-4.413v-4.92h2.667v2.413c0-4.413-1.747-0.96 2.667-0.96v-1.453h2.667v1.453c4.413 0 2.667-3.453 2.667 0.96v-2.413h1.333v-2.667h-1.333v-6.667h-2.667v6.667h-2.667v-6.667h-2.667zM12 16h2.667v5.333h-2.667v-5.333zM25.333 21.333v2.667h-5.333v2.667h5.333v2.667l4-4-4-4z"></path>
</svg>
