<!-- Generated by IcoMoon.io -->
<svg version="1.1" xmlns="http://www.w3.org/2000/svg" width="32" height="32" viewBox="0 0 32 32">
<title>gate</title>
<path d="M12 6.667v6.667h-2.667v-5.333h-2.667v5.333h-2.667v-2.667h-2.667v16h2.667v-2.667h2.667v2.667h2.667v-2.667h2.667v2.667h2.667v-2.667h2.667v2.667h2.667v-2.667h2.667v2.667h2.667v-2.667h2.667v2.667h2.667v-16h-2.667v2.667h-2.667v-5.333h-2.667v5.333h-2.667v-6.667h-2.667v6.667h-2.667v-6.667h-2.667zM4 16h2.667v5.333h-2.667v-5.333zM9.333 16h2.667v5.333h-2.667v-5.333zM14.667 16h2.667v5.333h-2.667v-5.333zM20 16h2.667v5.333h-2.667v-5.333zM25.333 16h2.667v5.333h-2.667v-5.333z"></path>
</svg>
