<!-- Generated by IcoMoon.io -->
<svg version="1.1" xmlns="http://www.w3.org/2000/svg" width="32" height="32" viewBox="0 0 32 32">
<title>gavel1</title>
<path d="M31.625 27.429c0 0.607-0.25 1.196-0.661 1.607l-1.911 1.929c-0.429 0.411-1.018 0.661-1.625 0.661s-1.196-0.25-1.607-0.661l-6.482-6.5c-0.429-0.411-0.679-1-0.679-1.607 0-0.679 0.286-1.232 0.768-1.714l-4.571-4.571-2.25 2.25c-0.161 0.161-0.375 0.25-0.607 0.25s-0.446-0.089-0.607-0.25c0.536 0.536 1.036 0.929 1.036 1.75 0 0.464-0.179 0.875-0.5 1.214-0.607 0.643-1.25 1.5-2.214 1.5-0.446 0-0.893-0.179-1.214-0.5l-7.286-7.286c-0.321-0.321-0.5-0.768-0.5-1.214 0-0.964 0.857-1.607 1.5-2.214 0.339-0.321 0.75-0.5 1.214-0.5 0.821 0 1.214 0.5 1.75 1.036-0.161-0.161-0.25-0.375-0.25-0.607s0.089-0.446 0.25-0.607l6.214-6.214c0.161-0.161 0.375-0.25 0.607-0.25s0.446 0.089 0.607 0.25c-0.536-0.536-1.036-0.929-1.036-1.75 0-0.464 0.179-0.875 0.5-1.214 0.607-0.643 1.25-1.5 2.214-1.5 0.446 0 0.893 0.179 1.214 0.5l7.286 7.286c0.321 0.321 0.5 0.768 0.5 1.214 0 0.964-0.857 1.607-1.5 2.214-0.339 0.321-0.75 0.5-1.214 0.5-0.821 0-1.214-0.5-1.75-1.036 0.161 0.161 0.25 0.375 0.25 0.607s-0.089 0.446-0.25 0.607l-2.25 2.25 4.571 4.571c0.482-0.482 1.036-0.768 1.714-0.768 0.607 0 1.196 0.25 1.625 0.661l6.482 6.482c0.411 0.429 0.661 1.018 0.661 1.625z"></path>
</svg>
