<!-- Generated by IcoMoon.io -->
<svg version="1.1" xmlns="http://www.w3.org/2000/svg" width="18" height="32" viewBox="0 0 18 32">
<title>gbp</title>
<path d="M18.214 20.304v6.554c0 0.321-0.25 0.571-0.571 0.571h-17.071c-0.321 0-0.571-0.25-0.571-0.571v-2.679c0-0.304 0.25-0.571 0.571-0.571h1.732v-6.839h-1.696c-0.321 0-0.571-0.25-0.571-0.571v-2.339c0-0.321 0.25-0.571 0.571-0.571h1.696v-3.982c0-4.071 3.286-7.018 7.821-7.018 3.571 0 5.875 2.143 5.982 2.232 0.214 0.196 0.232 0.536 0.054 0.768l-1.839 2.268c-0.107 0.125-0.232 0.196-0.393 0.214-0.143 0.018-0.304-0.036-0.411-0.125-0.018-0.018-1.554-1.232-3.357-1.232-2.018 0-3.375 1.214-3.375 3.036v3.839h5.446c0.321 0 0.571 0.25 0.571 0.571v2.339c0 0.321-0.25 0.571-0.571 0.571h-5.446v6.768h7.393v-3.232c0-0.321 0.25-0.571 0.571-0.571h2.893c0.321 0 0.571 0.25 0.571 0.571z"></path>
</svg>
