<!-- Generated by IcoMoon.io -->
<svg version="1.1" xmlns="http://www.w3.org/2000/svg" width="27" height="32" viewBox="0 0 27 32">
<title>gift</title>
<path d="M16.571 24.214v-12.786h-5.714v12.786c0 0.625 0.518 0.929 1.143 0.929h3.429c0.625 0 1.143-0.304 1.143-0.929zM8.429 9.143h3.482l-2.25-2.875c-0.196-0.232-0.625-0.554-1.232-0.554-0.946 0-1.714 0.768-1.714 1.714s0.768 1.714 1.714 1.714zM20.714 7.429c0-0.946-0.768-1.714-1.714-1.714-0.607 0-1.036 0.321-1.232 0.554l-2.232 2.875h3.464c0.946 0 1.714-0.768 1.714-1.714zM27.429 12v5.714c0 0.321-0.25 0.571-0.571 0.571h-1.714v7.429c0 0.946-0.768 1.714-1.714 1.714h-19.429c-0.946 0-1.714-0.768-1.714-1.714v-7.429h-1.714c-0.321 0-0.571-0.25-0.571-0.571v-5.714c0-0.321 0.25-0.571 0.571-0.571h7.857c-2.214 0-4-1.786-4-4s1.786-4 4-4c1.196 0 2.304 0.5 3 1.375l2.286 2.946 2.286-2.946c0.696-0.875 1.804-1.375 3-1.375 2.214 0 4 1.786 4 4s-1.786 4-4 4h7.857c0.321 0 0.571 0.25 0.571 0.571z"></path>
</svg>
