<!-- Generated by IcoMoon.io -->
<svg version="1.1" xmlns="http://www.w3.org/2000/svg" width="32" height="32" viewBox="0 0 32 32">
<title>hand-o-left</title>
<path d="M24.571 25.143h0.571v-11.429h-0.571c-1.893 0-3.161-1.607-4.304-2.911-0.732-0.821-1.411-1.643-2-2.589-0.25-0.393-0.464-0.804-0.679-1.214s-1.107-2.429-1.589-2.429c-1.518 0-2.857 0.571-2.857 2.286 0 2.286 1.714 3.446 1.714 4.571h-10.286c-1.196 0-2.286 1.071-2.286 2.286 0 1.232 1.054 2.286 2.286 2.286h5.911c-0.375 0.429-0.625 1.268-0.625 1.839 0 0.839 0.339 1.554 0.946 2.125-0.214 0.375-0.321 0.804-0.321 1.232 0 0.821 0.411 1.839 1.161 2.25-0.054 0.321-0.071 0.661-0.071 1 0 2.107 1.304 2.982 3.286 2.982 3.554 0 6.589-2.286 9.714-2.286zM29.714 24c0-0.625-0.518-1.143-1.143-1.143s-1.143 0.518-1.143 1.143 0.518 1.143 1.143 1.143 1.143-0.518 1.143-1.143zM32 13.714v11.429c0 1.268-1.018 2.286-2.286 2.286h-5.143c-1.125 0-2.893 0.661-3.982 1.054-1.821 0.661-3.696 1.232-5.661 1.232-3.286 0-5.679-1.857-5.661-5.268l0.018-0.089c-0.714-0.893-1.089-2.036-1.089-3.179 0-0.25 0.018-0.518 0.054-0.768-0.375-0.661-0.607-1.375-0.661-2.125h-3.018c-2.5 0-4.571-2.089-4.571-4.589 0-2.464 2.107-4.554 4.571-4.554h6.679c-0.268-0.732-0.393-1.5-0.393-2.286 0-3.018 2.304-4.571 5.143-4.571 2.393 0 3.161 3.054 4.196 4.714 0.536 0.839 1.143 1.571 1.786 2.304 0.518 0.589 1.732 2.125 2.589 2.125h5.143c1.268 0 2.286 1.018 2.286 2.286z"></path>
</svg>
