<!-- Generated by IcoMoon.io -->
<svg version="1.1" xmlns="http://www.w3.org/2000/svg" width="30" height="32" viewBox="0 0 30 32">
<title>hand-pointer-o</title>
<path d="M11.429 2.286c-1.268 0-2.286 1.018-2.286 2.286v16l-2.696-3.607c-0.446-0.589-1.161-0.964-1.911-0.964-1.25 0-2.25 1.054-2.25 2.286 0 0.5 0.161 0.982 0.464 1.375l6.857 9.143c0.429 0.571 1.107 0.911 1.821 0.911h12.821c0.518 0 0.982-0.357 1.107-0.857l1.643-6.571c0.286-1.143 0.429-2.304 0.429-3.464v-3.875c0-0.946-0.732-1.804-1.714-1.804-0.946 0-1.714 0.768-1.714 1.714h-0.571v-1.089c0-1.125-0.857-2.054-2-2.054-1.107 0-2 0.893-2 2v1.143h-0.571v-1.607c0-1.286-0.982-2.393-2.286-2.393-1.268 0-2.286 1.018-2.286 2.286v1.714h-0.571v-10.179c0-1.286-0.982-2.393-2.286-2.393zM11.429 0c2.554 0 4.571 2.143 4.571 4.679v3.929c0.196-0.018 0.375-0.036 0.571-0.036 1.161 0 2.25 0.446 3.089 1.232 0.554-0.25 1.161-0.375 1.768-0.375 1.286 0 2.482 0.571 3.286 1.554 0.339-0.089 0.661-0.125 1-0.125 2.25 0 4 1.875 4 4.089v3.875c0 1.339-0.161 2.696-0.5 4.018l-1.643 6.571c-0.375 1.518-1.75 2.589-3.321 2.589h-12.821c-1.429 0-2.804-0.696-3.661-1.821l-6.857-9.143c-0.589-0.786-0.911-1.768-0.911-2.75 0-2.5 2.036-4.571 4.536-4.571 0.821 0 1.625 0.214 2.321 0.625v-9.768c0-2.518 2.054-4.571 4.571-4.571zM13.714 25.143v-6.857h-0.571v6.857h0.571zM18.286 25.143v-6.857h-0.571v6.857h0.571zM22.857 25.143v-6.857h-0.571v6.857h0.571z"></path>
</svg>
