<!-- Generated by IcoMoon.io -->
<svg version="1.1" xmlns="http://www.w3.org/2000/svg" width="30" height="32" viewBox="0 0 30 32">
<title>headphones</title>
<path d="M29.714 15.821c0 1.946-0.357 3.839-1.071 5.607l-0.357 0.875-3.304 0.589c-0.518 1.946-2.286 3.393-4.411 3.393v0.571c0 0.321-0.25 0.571-0.571 0.571h-1.143c-0.321 0-0.571-0.25-0.571-0.571v-10.286c0-0.321 0.25-0.571 0.571-0.571h1.143c0.321 0 0.571 0.25 0.571 0.571v0.571c1.714 0 3.196 0.946 3.982 2.339l1.214-0.214c0.339-1.107 0.518-2.25 0.518-3.446 0-5.393-5.339-10.107-11.429-10.107s-11.429 4.714-11.429 10.107c0 1.196 0.179 2.339 0.518 3.446l1.214 0.214c0.786-1.393 2.268-2.339 3.982-2.339v-0.571c0-0.321 0.25-0.571 0.571-0.571h1.143c0.321 0 0.571 0.25 0.571 0.571v10.286c0 0.321-0.25 0.571-0.571 0.571h-1.143c-0.321 0-0.571-0.25-0.571-0.571v-0.571c-2.125 0-3.893-1.446-4.411-3.393l-3.304-0.589-0.357-0.875c-0.714-1.768-1.071-3.661-1.071-5.607 0-7.339 6.804-13.536 14.857-13.536s14.857 6.196 14.857 13.536z"></path>
</svg>
