<!-- Generated by IcoMoon.io -->
<svg version="1.1" xmlns="http://www.w3.org/2000/svg" width="32" height="32" viewBox="0 0 32 32">
<title>heart-o</title>
<path d="M29.714 10.643c0-5.018-3.393-6.071-6.25-6.071-2.661 0-5.661 2.875-6.589 3.982-0.429 0.518-1.321 0.518-1.75 0-0.929-1.107-3.929-3.982-6.589-3.982-2.857 0-6.25 1.054-6.25 6.071 0 3.268 3.304 6.304 3.339 6.339l10.375 10 10.357-9.982c0.054-0.054 3.357-3.089 3.357-6.357zM32 10.643c0 4.286-3.929 7.875-4.089 8.036l-11.125 10.714c-0.214 0.214-0.5 0.321-0.786 0.321s-0.571-0.107-0.786-0.321l-11.143-10.75c-0.143-0.125-4.071-3.714-4.071-8 0-5.232 3.196-8.357 8.536-8.357 3.125 0 6.054 2.464 7.464 3.857 1.411-1.393 4.339-3.857 7.464-3.857 5.339 0 8.536 3.125 8.536 8.357z"></path>
</svg>
