<!-- Generated by IcoMoon.io -->
<svg version="1.1" xmlns="http://www.w3.org/2000/svg" width="32" height="32" viewBox="0 0 32 32">
<title>heartbeat</title>
<path d="M22.857 18.286h5.446c-0.214 0.232-0.357 0.357-0.393 0.393l-11.125 10.714c-0.214 0.214-0.5 0.321-0.786 0.321s-0.571-0.107-0.786-0.321l-11.143-10.75c-0.036-0.018-0.179-0.143-0.375-0.357h6.589c0.518 0 0.982-0.357 1.107-0.857l1.25-5.018 3.393 11.911c0.143 0.482 0.589 0.821 1.107 0.821v0c0.5 0 0.946-0.339 1.089-0.821l2.607-8.661 1 2c0.196 0.375 0.589 0.625 1.018 0.625zM32 10.643c0 2.054-0.893 3.929-1.839 5.357h-6.589l-1.982-3.946c-0.196-0.411-0.661-0.661-1.107-0.625-0.482 0.054-0.875 0.357-1 0.821l-2.304 7.679-3.5-12.25c-0.143-0.482-0.589-0.821-1.125-0.821-0.518 0-0.964 0.357-1.089 0.857l-2.071 8.286h-7.554c-0.946-1.429-1.839-3.304-1.839-5.357 0-5.232 3.196-8.357 8.536-8.357 3.125 0 6.054 2.464 7.464 3.857 1.411-1.393 4.339-3.857 7.464-3.857 5.339 0 8.536 3.125 8.536 8.357z"></path>
</svg>
