<!-- Generated by IcoMoon.io -->
<svg version="1.1" xmlns="http://www.w3.org/2000/svg" width="30" height="32" viewBox="0 0 30 32">
<title>home</title>
<path d="M25.143 17.714v8.571c0 0.625-0.518 1.143-1.143 1.143h-6.857v-6.857h-4.571v6.857h-6.857c-0.625 0-1.143-0.518-1.143-1.143v-8.571c0-0.036 0.018-0.071 0.018-0.107l10.268-8.464 10.268 8.464c0.018 0.036 0.018 0.071 0.018 0.107zM29.125 16.482l-1.107 1.321c-0.089 0.107-0.232 0.179-0.375 0.196h-0.054c-0.143 0-0.268-0.036-0.375-0.125l-12.357-10.304-12.357 10.304c-0.125 0.089-0.268 0.143-0.429 0.125-0.143-0.018-0.286-0.089-0.375-0.196l-1.107-1.321c-0.196-0.232-0.161-0.607 0.071-0.804l12.839-10.696c0.75-0.625 1.964-0.625 2.714 0l4.357 3.643v-3.482c0-0.321 0.25-0.571 0.571-0.571h3.429c0.321 0 0.571 0.25 0.571 0.571v7.286l3.911 3.25c0.232 0.196 0.268 0.571 0.071 0.804z"></path>
</svg>
