<!-- Generated by IcoMoon.io -->
<svg version="1.1" xmlns="http://www.w3.org/2000/svg" width="25" height="32" viewBox="0 0 25 32">
<title>hospital-o</title>
<path d="M6.857 23.429v1.143c0 0.304-0.268 0.571-0.571 0.571h-1.143c-0.304 0-0.571-0.268-0.571-0.571v-1.143c0-0.304 0.268-0.571 0.571-0.571h1.143c0.304 0 0.571 0.268 0.571 0.571zM6.857 18.857v1.143c0 0.304-0.268 0.571-0.571 0.571h-1.143c-0.304 0-0.571-0.268-0.571-0.571v-1.143c0-0.304 0.268-0.571 0.571-0.571h1.143c0.304 0 0.571 0.268 0.571 0.571zM11.429 18.857v1.143c0 0.304-0.268 0.571-0.571 0.571h-1.143c-0.304 0-0.571-0.268-0.571-0.571v-1.143c0-0.304 0.268-0.571 0.571-0.571h1.143c0.304 0 0.571 0.268 0.571 0.571zM6.857 14.286v1.143c0 0.304-0.268 0.571-0.571 0.571h-1.143c-0.304 0-0.571-0.268-0.571-0.571v-1.143c0-0.304 0.268-0.571 0.571-0.571h1.143c0.304 0 0.571 0.268 0.571 0.571zM20.571 23.429v1.143c0 0.304-0.268 0.571-0.571 0.571h-1.143c-0.304 0-0.571-0.268-0.571-0.571v-1.143c0-0.304 0.268-0.571 0.571-0.571h1.143c0.304 0 0.571 0.268 0.571 0.571zM16 18.857v1.143c0 0.304-0.268 0.571-0.571 0.571h-1.143c-0.304 0-0.571-0.268-0.571-0.571v-1.143c0-0.304 0.268-0.571 0.571-0.571h1.143c0.304 0 0.571 0.268 0.571 0.571zM11.429 14.286v1.143c0 0.304-0.268 0.571-0.571 0.571h-1.143c-0.304 0-0.571-0.268-0.571-0.571v-1.143c0-0.304 0.268-0.571 0.571-0.571h1.143c0.304 0 0.571 0.268 0.571 0.571zM20.571 18.857v1.143c0 0.304-0.268 0.571-0.571 0.571h-1.143c-0.304 0-0.571-0.268-0.571-0.571v-1.143c0-0.304 0.268-0.571 0.571-0.571h1.143c0.304 0 0.571 0.268 0.571 0.571zM16 14.286v1.143c0 0.304-0.268 0.571-0.571 0.571h-1.143c-0.304 0-0.571-0.268-0.571-0.571v-1.143c0-0.304 0.268-0.571 0.571-0.571h1.143c0.304 0 0.571 0.268 0.571 0.571zM20.571 14.286v1.143c0 0.304-0.268 0.571-0.571 0.571h-1.143c-0.304 0-0.571-0.268-0.571-0.571v-1.143c0-0.304 0.268-0.571 0.571-0.571h1.143c0.304 0 0.571 0.268 0.571 0.571zM16 29.714h6.857v-20.571h-4.571v0.571c0 0.946-0.768 1.714-1.714 1.714h-8c-0.946 0-1.714-0.768-1.714-1.714v-0.571h-4.571v20.571h6.857v-4c0-0.304 0.268-0.571 0.571-0.571h5.714c0.304 0 0.571 0.268 0.571 0.571v4zM16 8.571v-5.714c0-0.304-0.268-0.571-0.571-0.571h-1.143c-0.304 0-0.571 0.268-0.571 0.571v1.714h-2.286v-1.714c0-0.304-0.268-0.571-0.571-0.571h-1.143c-0.304 0-0.571 0.268-0.571 0.571v5.714c0 0.304 0.268 0.571 0.571 0.571h1.143c0.304 0 0.571-0.268 0.571-0.571v-1.714h2.286v1.714c0 0.304 0.268 0.571 0.571 0.571h1.143c0.304 0 0.571-0.268 0.571-0.571zM25.143 8v22.857c0 0.625-0.518 1.143-1.143 1.143h-22.857c-0.625 0-1.143-0.518-1.143-1.143v-22.857c0-0.625 0.518-1.143 1.143-1.143h5.714v-5.143c0-0.946 0.768-1.714 1.714-1.714h8c0.946 0 1.714 0.768 1.714 1.714v5.143h5.714c0.625 0 1.143 0.518 1.143 1.143z"></path>
</svg>
