<!-- Generated by IcoMoon.io -->
<svg version="1.1" xmlns="http://www.w3.org/2000/svg" width="36" height="32" viewBox="0 0 36 32">
<title>house-user</title>
<path d="M35.668 14.767l-3.668-3.239v-8.527c0-0.552-0.448-1-1-1v0h-4c-0.552 0-1 0.448-1 1v0 3.229l-6.326-5.586c-0.392-0.356-1.141-0.644-1.674-0.644s-1.279 0.288-1.671 0.644l-16 14.125c-0.191 0.192-0.313 0.452-0.329 0.741l-0 0.003c0.014 0.256 0.108 0.487 0.257 0.672l-0.002-0.002 1.338 1.487c0.201 0.181 0.459 0.301 0.744 0.331l0.006 0c0.254-0.026 0.482-0.118 0.672-0.259l-0.004 0.003 0.994-0.875v13.132c0 1.105 0.895 2 2 2v0h23.994c1.105 0 2-0.895 2-2v0-13.133l0.994 0.875c0.187 0.138 0.416 0.231 0.664 0.257l0.006 0c0.288-0.031 0.544-0.151 0.743-0.333l-0.001 0.001 1.338-1.488c0.138-0.186 0.23-0.415 0.255-0.662l0-0.006c-0.031-0.289-0.151-0.546-0.333-0.746l0.001 0.001zM18 11c2.209 0 4 1.791 4 4s-1.791 4-4 4c-2.209 0-4-1.791-4-4v0c0-2.209 1.791-4 4-4v0zM25 28h-14c-0.552 0-1-0.448-1-1v0c0-3.314 2.686-6 6-6v0h4c3.314 0 6 2.686 6 6v0c0 0.552-0.448 1-1 1v0z"></path>
</svg>
