<!-- Generated by IcoMoon.io -->
<svg version="1.1" xmlns="http://www.w3.org/2000/svg" width="27" height="32" viewBox="0 0 27 32">
<title>inbox1</title>
<path d="M18.268 17.143h5.643c-0.036-0.089-0.054-0.196-0.089-0.286l-3.786-8.857h-12.643l-3.786 8.857c-0.036 0.089-0.054 0.196-0.089 0.286h5.643l1.696 3.429h5.714zM27.429 17.679v8.607c0 0.625-0.518 1.143-1.143 1.143h-25.143c-0.625 0-1.143-0.518-1.143-1.143v-8.607c0-0.643 0.196-1.589 0.446-2.196l4.25-9.857c0.25-0.589 0.964-1.054 1.589-1.054h14.857c0.625 0 1.339 0.464 1.589 1.054l4.25 9.857c0.25 0.607 0.446 1.554 0.446 2.196z"></path>
</svg>
