<!-- Generated by IcoMoon.io -->
<svg version="1.1" xmlns="http://www.w3.org/2000/svg" width="32" height="32" viewBox="0 0 32 32">
<title>industry</title>
<path d="M8 0c0.625 0 1.143 0.518 1.143 1.143v15.911l9.571-7.661c0.196-0.161 0.464-0.25 0.714-0.25 0.625 0 1.143 0.518 1.143 1.143v6.768l9.571-7.661c0.196-0.161 0.464-0.25 0.714-0.25 0.625 0 1.143 0.518 1.143 1.143v20.571c0 0.625-0.518 1.143-1.143 1.143h-29.714c-0.625 0-1.143-0.518-1.143-1.143v-29.714c0-0.625 0.518-1.143 1.143-1.143h6.857z"></path>
</svg>
