<!-- Generated by IcoMoon.io -->
<svg version="1.1" xmlns="http://www.w3.org/2000/svg" width="11" height="32" viewBox="0 0 11 32">
<title>info1</title>
<path d="M11.429 24v2.286c0 0.625-0.518 1.143-1.143 1.143h-9.143c-0.625 0-1.143-0.518-1.143-1.143v-2.286c0-0.625 0.518-1.143 1.143-1.143h1.143v-6.857h-1.143c-0.625 0-1.143-0.518-1.143-1.143v-2.286c0-0.625 0.518-1.143 1.143-1.143h6.857c0.625 0 1.143 0.518 1.143 1.143v10.286h1.143c0.625 0 1.143 0.518 1.143 1.143zM9.143 3.429v3.429c0 0.625-0.518 1.143-1.143 1.143h-4.571c-0.625 0-1.143-0.518-1.143-1.143v-3.429c0-0.625 0.518-1.143 1.143-1.143h4.571c0.625 0 1.143 0.518 1.143 1.143z"></path>
</svg>
