<!-- Generated by IcoMoon.io -->
<svg version="1.1" xmlns="http://www.w3.org/2000/svg" width="25" height="32" viewBox="0 0 25 32">
<title>intersex</title>
<path d="M18.286 0.571c0-0.321 0.25-0.571 0.571-0.571h5.143c0.625 0 1.143 0.518 1.143 1.143v5.143c0 0.321-0.25 0.571-0.571 0.571h-1.143c-0.321 0-0.571-0.25-0.571-0.571v-2.393l-4.536 4.554c1.393 1.75 2.25 3.982 2.25 6.411 0 5.286-4 9.643-9.143 10.214v2.357h1.714c0.321 0 0.571 0.25 0.571 0.571v1.143c0 0.321-0.25 0.571-0.571 0.571h-1.714v1.714c0 0.321-0.25 0.571-0.571 0.571h-1.143c-0.321 0-0.571-0.25-0.571-0.571v-1.714h-1.714c-0.321 0-0.571-0.25-0.571-0.571v-1.143c0-0.321 0.25-0.571 0.571-0.571h1.714v-2.357c-5.393-0.589-9.554-5.393-9.107-11.036 0.375-4.857 4.232-8.839 9.054-9.393 2.893-0.339 5.571 0.554 7.607 2.179l4.554-4.536h-2.393c-0.321 0-0.571-0.25-0.571-0.571v-1.143zM10.286 22.857c4.411 0 8-3.589 8-8s-3.589-8-8-8-8 3.589-8 8 3.589 8 8 8z"></path>
</svg>
