<!-- Generated by IcoMoon.io -->
<svg version="1.1" xmlns="http://www.w3.org/2000/svg" width="30" height="32" viewBox="0 0 30 32">
<title>key</title>
<path d="M14.857 9.143c0-1.893-1.536-3.429-3.429-3.429s-3.429 1.536-3.429 3.429c0 0.518 0.125 1.018 0.339 1.482-0.464-0.214-0.964-0.339-1.482-0.339-1.893 0-3.429 1.536-3.429 3.429s1.536 3.429 3.429 3.429 3.429-1.536 3.429-3.429c0-0.518-0.125-1.018-0.339-1.482 0.464 0.214 0.964 0.339 1.482 0.339 1.893 0 3.429-1.536 3.429-3.429zM30.054 21.714c0 0.411-1.643 2.054-2.054 2.054-0.464 0-1.911-1.679-2.286-2.054l-1.714 1.714 3.929 3.929c0.321 0.321 0.5 0.768 0.5 1.214 0 1-1.143 2.143-2.143 2.143-0.446 0-0.893-0.179-1.214-0.5l-11.982-11.982c-1.875 1.393-4.161 2.339-6.518 2.339-3.893 0-6.571-2.696-6.571-6.571 0-5.857 5.857-11.714 11.714-11.714 3.875 0 6.571 2.679 6.571 6.571 0 2.357-0.946 4.643-2.339 6.518l6.339 6.339 1.714-1.714c-0.375-0.375-2.054-1.821-2.054-2.286 0-0.411 1.643-2.054 2.054-2.054 0.143 0 0.304 0.071 0.411 0.179 0.661 0.661 5.643 5.357 5.643 5.875z"></path>
</svg>
