<!-- Generated by IcoMoon.io -->
<svg version="1.1" xmlns="http://www.w3.org/2000/svg" width="34" height="32" viewBox="0 0 34 32">
<title>keyboard-o</title>
<path d="M6.857 20.857v1.714c0 0.161-0.125 0.286-0.286 0.286h-1.714c-0.161 0-0.286-0.125-0.286-0.286v-1.714c0-0.161 0.125-0.286 0.286-0.286h1.714c0.161 0 0.286 0.125 0.286 0.286zM9.143 16.286v1.714c0 0.161-0.125 0.286-0.286 0.286h-4c-0.161 0-0.286-0.125-0.286-0.286v-1.714c0-0.161 0.125-0.286 0.286-0.286h4c0.161 0 0.286 0.125 0.286 0.286zM6.857 11.714v1.714c0 0.161-0.125 0.286-0.286 0.286h-1.714c-0.161 0-0.286-0.125-0.286-0.286v-1.714c0-0.161 0.125-0.286 0.286-0.286h1.714c0.161 0 0.286 0.125 0.286 0.286zM25.143 20.857v1.714c0 0.161-0.125 0.286-0.286 0.286h-15.429c-0.161 0-0.286-0.125-0.286-0.286v-1.714c0-0.161 0.125-0.286 0.286-0.286h15.429c0.161 0 0.286 0.125 0.286 0.286zM13.714 16.286v1.714c0 0.161-0.125 0.286-0.286 0.286h-1.714c-0.161 0-0.286-0.125-0.286-0.286v-1.714c0-0.161 0.125-0.286 0.286-0.286h1.714c0.161 0 0.286 0.125 0.286 0.286zM11.429 11.714v1.714c0 0.161-0.125 0.286-0.286 0.286h-1.714c-0.161 0-0.286-0.125-0.286-0.286v-1.714c0-0.161 0.125-0.286 0.286-0.286h1.714c0.161 0 0.286 0.125 0.286 0.286zM18.286 16.286v1.714c0 0.161-0.125 0.286-0.286 0.286h-1.714c-0.161 0-0.286-0.125-0.286-0.286v-1.714c0-0.161 0.125-0.286 0.286-0.286h1.714c0.161 0 0.286 0.125 0.286 0.286zM16 11.714v1.714c0 0.161-0.125 0.286-0.286 0.286h-1.714c-0.161 0-0.286-0.125-0.286-0.286v-1.714c0-0.161 0.125-0.286 0.286-0.286h1.714c0.161 0 0.286 0.125 0.286 0.286zM22.857 16.286v1.714c0 0.161-0.125 0.286-0.286 0.286h-1.714c-0.161 0-0.286-0.125-0.286-0.286v-1.714c0-0.161 0.125-0.286 0.286-0.286h1.714c0.161 0 0.286 0.125 0.286 0.286zM29.714 20.857v1.714c0 0.161-0.125 0.286-0.286 0.286h-1.714c-0.161 0-0.286-0.125-0.286-0.286v-1.714c0-0.161 0.125-0.286 0.286-0.286h1.714c0.161 0 0.286 0.125 0.286 0.286zM20.571 11.714v1.714c0 0.161-0.125 0.286-0.286 0.286h-1.714c-0.161 0-0.286-0.125-0.286-0.286v-1.714c0-0.161 0.125-0.286 0.286-0.286h1.714c0.161 0 0.286 0.125 0.286 0.286zM25.143 11.714v1.714c0 0.161-0.125 0.286-0.286 0.286h-1.714c-0.161 0-0.286-0.125-0.286-0.286v-1.714c0-0.161 0.125-0.286 0.286-0.286h1.714c0.161 0 0.286 0.125 0.286 0.286zM29.714 11.714v6.286c0 0.161-0.125 0.286-0.286 0.286h-4c-0.161 0-0.286-0.125-0.286-0.286v-1.714c0-0.161 0.125-0.286 0.286-0.286h2v-4.286c0-0.161 0.125-0.286 0.286-0.286h1.714c0.161 0 0.286 0.125 0.286 0.286zM32 25.143v-16h-29.714v16h29.714zM34.286 9.143v16c0 1.268-1.018 2.286-2.286 2.286h-29.714c-1.268 0-2.286-1.018-2.286-2.286v-16c0-1.268 1.018-2.286 2.286-2.286h29.714c1.268 0 2.286 1.018 2.286 2.286z"></path>
</svg>
