<!-- Generated by IcoMoon.io -->
<svg version="1.1" xmlns="http://www.w3.org/2000/svg" width="27" height="32" viewBox="0 0 27 32">
<title>lemon-o</title>
<path d="M25.125 14.75c0-0.839-0.161-3.036-0.446-3.75-0.339-0.857-0.536-1.339-0.536-2.304 0-0.821 0.179-1.625 0.179-2.429 0-0.339-0.018-0.696-0.179-0.982-0.071-0.018-0.161-0.018-0.232-0.018-0.696 0-1.393 0.161-2.089 0.161-2.125 0-4.143-0.857-6.268-0.857-1.661 0-3.268 0.625-4.804 1.232-1.214 0.482-2.554 1.054-3.607 1.839-3.607 2.732-4.857 7.732-4.857 12.036 0 1.446 0.446 2.857 0.446 4.304 0 0.821-0.393 1.571-0.393 2.357 0 0.5 0.286 0.911 0.821 0.911 0.875 0 1.714-0.393 2.607-0.393 2.036 0 4.018 0.554 6.054 0.554 1.589 0 3.589-0.125 5.071-0.643 4.696-1.661 8.232-7.089 8.232-12.018zM27.411 14.714c0 5.946-4.125 12.214-9.768 14.214-1.768 0.625-3.964 0.786-5.821 0.786-2.036 0-4.036-0.518-6.054-0.518-0.857 0-1.714 0.518-2.607 0.518-1.768 0-3.107-1.589-3.107-3.286 0-0.839 0.393-1.589 0.393-2.411 0-1.446-0.446-2.857-0.446-4.321 0-5.071 1.554-10.679 5.768-13.875 1.214-0.929 2.732-1.589 4.143-2.143 1.821-0.732 3.661-1.393 5.643-1.393 2.125 0 4.143 0.857 6.232 0.857 0.679 0 1.357-0.179 2.054-0.179 2.036 0 2.768 1.446 2.768 3.304 0 0.804-0.179 1.625-0.179 2.429 0 0.643 0.161 0.893 0.375 1.464 0.411 1.036 0.607 3.411 0.607 4.554z"></path>
</svg>
