<!-- Generated by IcoMoon.io -->
<svg version="1.1" xmlns="http://www.w3.org/2000/svg" width="18" height="32" viewBox="0 0 18 32">
<title>level-down</title>
<path d="M0.571 4.571h12.571c0.321 0 0.571 0.268 0.571 0.589v15.411h3.429c0.446 0 0.839 0.268 1.036 0.661 0.196 0.411 0.125 0.893-0.161 1.232l-5.714 6.857c-0.429 0.518-1.321 0.518-1.75 0l-5.714-6.857c-0.286-0.339-0.339-0.821-0.161-1.232 0.196-0.393 0.589-0.661 1.036-0.661h3.429v-11.429h-5.714c-0.161 0-0.321-0.071-0.446-0.196l-2.857-3.429c-0.143-0.161-0.161-0.411-0.071-0.607s0.304-0.339 0.518-0.339z"></path>
</svg>
