<!-- Generated by IcoMoon.io -->
<svg version="1.1" xmlns="http://www.w3.org/2000/svg" width="32" height="32" viewBox="0 0 32 32">
<title>life-bouy</title>
<path d="M16 0c8.839 0 16 7.161 16 16s-7.161 16-16 16-16-7.161-16-16 7.161-16 16-16zM16 2.286c-2.321 0-4.518 0.589-6.446 1.607l3.464 3.464c0.946-0.321 1.946-0.5 2.982-0.5 1.054 0 2.036 0.179 2.982 0.5l3.464-3.464c-1.929-1.018-4.125-1.607-6.446-1.607zM3.893 22.446l3.464-3.464c-0.321-0.946-0.5-1.946-0.5-2.982 0-1.054 0.179-2.036 0.5-2.982l-3.464-3.464c-1.018 1.929-1.607 4.125-1.607 6.446s0.589 4.518 1.607 6.446zM16 29.714c2.321 0 4.518-0.589 6.446-1.607l-3.464-3.464c-0.946 0.321-1.929 0.5-2.982 0.5-1.036 0-2.036-0.179-2.982-0.5l-3.464 3.464c1.929 1.018 4.125 1.607 6.446 1.607zM16 22.857c3.786 0 6.857-3.071 6.857-6.857s-3.071-6.857-6.857-6.857-6.857 3.071-6.857 6.857 3.071 6.857 6.857 6.857zM24.643 18.982l3.464 3.464c1.018-1.929 1.607-4.125 1.607-6.446s-0.589-4.518-1.607-6.446l-3.464 3.464c0.321 0.946 0.5 1.946 0.5 2.982s-0.179 2.036-0.5 2.982z"></path>
</svg>
