<!-- Generated by IcoMoon.io -->
<svg version="1.1" xmlns="http://www.w3.org/2000/svg" width="18" height="32" viewBox="0 0 18 32">
<title>lightbulb</title>
<path d="M13.143 10.286c0 0.304-0.268 0.571-0.571 0.571s-0.571-0.268-0.571-0.571c0-1.232-1.911-1.714-2.857-1.714-0.304 0-0.571-0.268-0.571-0.571s0.268-0.571 0.571-0.571c1.661 0 4 0.875 4 2.857zM16 10.286c0-3.571-3.625-5.714-6.857-5.714s-6.857 2.143-6.857 5.714c0 1.143 0.464 2.339 1.214 3.214 0.339 0.393 0.732 0.768 1.089 1.179 1.268 1.518 2.339 3.304 2.518 5.321h4.071c0.179-2.018 1.25-3.804 2.518-5.321 0.357-0.411 0.75-0.786 1.089-1.179 0.75-0.875 1.214-2.071 1.214-3.214zM18.286 10.286c0 1.839-0.607 3.429-1.839 4.786s-2.857 3.268-3 5.179c0.518 0.304 0.839 0.875 0.839 1.464 0 0.429-0.161 0.839-0.446 1.143 0.286 0.304 0.446 0.714 0.446 1.143 0 0.589-0.304 1.125-0.804 1.446 0.143 0.25 0.232 0.554 0.232 0.839 0 1.161-0.911 1.714-1.946 1.714-0.464 1.036-1.5 1.714-2.625 1.714s-2.161-0.679-2.625-1.714c-1.036 0-1.946-0.554-1.946-1.714 0-0.286 0.089-0.589 0.232-0.839-0.5-0.321-0.804-0.857-0.804-1.446 0-0.429 0.161-0.839 0.446-1.143-0.286-0.304-0.446-0.714-0.446-1.143 0-0.589 0.321-1.161 0.839-1.464-0.143-1.911-1.768-3.821-3-5.179s-1.839-2.946-1.839-4.786c0-4.857 4.625-8 9.143-8s9.143 3.143 9.143 8z"></path>
</svg>
