<!-- Generated by IcoMoon.io -->
<svg version="1.1" xmlns="http://www.w3.org/2000/svg" width="32" height="32" viewBox="0 0 32 32">
<title>lightbulb-outline</title>
<path d="M16 2.667c5.155 0 9.333 4.179 9.333 9.333v0c0 3.173-1.587 5.96-4 7.653v3.013c0 0.736-0.597 1.333-1.333 1.333v0h-8c-0.736 0-1.333-0.597-1.333-1.333v0-3.013c-2.413-1.693-4-4.48-4-7.653 0-5.155 4.179-9.333 9.333-9.333v0zM12 28v-1.333h8v1.333c0 0.736-0.597 1.333-1.333 1.333v0h-5.333c-0.736 0-1.333-0.597-1.333-1.333v0zM16 5.333c-3.682 0-6.667 2.985-6.667 6.667v0c0 2.733 1.64 5.080 4 6.107v3.227h5.333v-3.227c2.36-1.027 4-3.373 4-6.107 0-3.682-2.985-6.667-6.667-6.667v0z"></path>
</svg>
