<!-- Generated by IcoMoon.io -->
<svg version="1.1" xmlns="http://www.w3.org/2000/svg" width="32" height="32" viewBox="0 0 32 32">
<title>lightning3</title>
<path d="M25 4c-0.332 0-0.66 0.023-0.987 0.070-1.867-2.544-4.814-4.070-8.013-4.070s-6.145 1.526-8.013 4.070c-0.327-0.047-0.655-0.070-0.987-0.070-3.859 0-7 3.141-7 7s3.141 7 7 7c0.856 0 1.693-0.156 2.482-0.458 1.346 1.173 2.963 1.956 4.694 2.283l-2.176 2.176 2 2-2 6 6-6-2-2 0.688-2.062c2.154-0.152 4.195-0.971 5.831-2.396 0.789 0.302 1.626 0.458 2.482 0.458 3.859 0 7-3.141 7-7s-3.141-7-7-7z"></path>
</svg>
