<!-- Generated by IcoMoon.io -->
<svg version="1.1" xmlns="http://www.w3.org/2000/svg" width="32" height="32" viewBox="0 0 32 32">
<title>lightbulb-on</title>
<path d="M26.667 14.667h4v2.667h-4v-2.667zM1.333 14.667h4v2.667h-4v-2.667zM17.333 1.333v4h-2.667v-4h2.667zM6.56 4.667l2.84 2.853-1.893 1.88-2.84-2.827 1.893-1.907zM22.6 7.507l2.827-2.84 1.907 1.907-2.84 2.827-1.893-1.893zM16 8c4.418 0 8 3.582 8 8v0c0 2.96-1.613 5.547-4 6.933v2.4c0 0.736-0.597 1.333-1.333 1.333v0h-5.333c-0.736 0-1.333-0.597-1.333-1.333v0-2.4c-2.387-1.387-4-3.973-4-6.933 0-4.418 3.582-8 8-8v0zM18.667 28v1.333c0 0.736-0.597 1.333-1.333 1.333v0h-2.667c-0.736 0-1.333-0.597-1.333-1.333v0-1.333h5.333zM14.667 24h2.667v-2.84c2.307-0.587 4-2.68 4-5.16 0-2.946-2.388-5.333-5.333-5.333v0c-2.946 0-5.333 2.388-5.333 5.333v0c0 2.48 1.693 4.573 4 5.16v2.84z"></path>
</svg>
