<!-- Generated by IcoMoon.io -->
<svg version="1.1" xmlns="http://www.w3.org/2000/svg" width="37" height="32" viewBox="0 0 37 32">
<title>line-chart</title>
<path d="M36.571 27.429v2.286h-36.571v-27.429h2.286v25.143h34.286zM34.286 5.143v7.768c0 0.5-0.607 0.768-0.982 0.393l-2.161-2.161-11.304 11.304c-0.232 0.232-0.589 0.232-0.821 0l-4.161-4.161-7.429 7.429-3.429-3.429 10.446-10.446c0.232-0.232 0.589-0.232 0.821 0l4.161 4.161 8.286-8.286-2.161-2.161c-0.375-0.375-0.107-0.982 0.393-0.982h7.768c0.321 0 0.571 0.25 0.571 0.571z"></path>
</svg>
