<!-- Generated by IcoMoon.io -->
<svg version="1.1" xmlns="http://www.w3.org/2000/svg" width="29" height="32" viewBox="0 0 29 32">
<title>linux</title>
<path d="M11.839 7.339v0c-0.357 0.036-0.232 0.357-0.429 0.357-0.179 0.018-0.143-0.393 0.429-0.357zM13.393 7.589c-0.179 0.054-0.196-0.286-0.518-0.196v0c0.518-0.232 0.696 0.125 0.518 0.196zM7.125 15.214c-0.161-0.054-0.125 0.268-0.286 0.518-0.125 0.232-0.446 0.411-0.196 0.446v0c0.089 0.018 0.339-0.196 0.446-0.446 0.089-0.304 0.179-0.464 0.036-0.518zM22.393 21.625c0-0.321-0.696-0.625-0.982-0.75 0.482-1.607 0.268-2.25-0.054-3.768-0.25-1.143-1.304-2.696-2.125-3.179 0.214 0.179 0.607 0.696 1.018 1.482 0.714 1.339 1.429 3.321 0.964 4.964-0.179 0.643-0.607 0.732-0.893 0.75-1.25 0.143-0.518-1.5-1.036-3.732-0.589-2.5-1.196-2.679-1.339-2.875-0.732-3.25-1.536-2.929-1.768-4.143-0.196-1.089 0.946-1.982-0.607-2.286-0.482-0.089-1.161-0.571-1.429-0.607s-0.411-1.804 0.589-1.857c0.982-0.071 1.161 1.107 0.982 1.571-0.286 0.464 0.018 0.643 0.5 0.482 0.393-0.125 0.143-1.161 0.232-1.304-0.25-1.5-0.875-1.714-1.518-1.839-2.464 0.196-1.357 2.911-1.607 2.661-0.357-0.375-1.393-0.036-1.393-0.268 0.018-1.393-0.446-2.196-1.089-2.214-0.714-0.018-1 0.982-1.036 1.554-0.054 0.536 0.304 1.661 0.571 1.571 0.179-0.054 0.482-0.411 0.161-0.393-0.161 0-0.411-0.393-0.446-0.857-0.018-0.464 0.161-0.929 0.768-0.911 0.696 0.018 0.696 1.411 0.625 1.464-0.232 0.161-0.518 0.464-0.554 0.518-0.232 0.375-0.679 0.482-0.857 0.643-0.304 0.321-0.375 0.679-0.143 0.804 0.821 0.464 0.554 1 1.696 1.036 0.75 0.036 1.304-0.107 1.821-0.268 0.393-0.125 1.661-0.393 1.929-0.857 0.125-0.196 0.268-0.196 0.357-0.143 0.179 0.089 0.214 0.429-0.232 0.536-0.625 0.179-1.25 0.518-1.821 0.732-0.554 0.232-0.732 0.321-1.25 0.411-1.179 0.214-2.054-0.429-1.268 0.339 0.268 0.25 0.518 0.411 1.196 0.393 1.5-0.054 3.161-1.857 3.321-1.054 0.036 0.179-0.464 0.393-0.857 0.589-1.393 0.679-2.375 2.036-3.268 1.571-0.804-0.429-1.607-2.411-1.589-1.518 0.018 1.375-1.804 2.589-0.964 4.161-0.554 0.143-1.786 2.768-1.964 4.125-0.107 0.786 0.071 1.75-0.125 2.286-0.268 0.786-1.482-0.75-1.089-2.625 0.071-0.321 0-0.393-0.089-0.232-0.482 0.875-0.214 2.107 0.179 2.964 0.161 0.375 0.571 0.536 0.875 0.857 0.625 0.714 3.089 2.536 3.518 2.982 0.554 0.518 0.393 1.732-0.75 1.857v0c0.589 1.107 1.161 1.214 1.143 3.018 0.679-0.357 0.411-1.143 0.125-1.643-0.196-0.357-0.446-0.518-0.393-0.607 0.036-0.054 0.393-0.357 0.589-0.125 0.607 0.679 1.75 0.804 2.964 0.643 1.232-0.143 2.554-0.571 3.161-1.554 0.286-0.464 0.482-0.625 0.607-0.536 0.143 0.071 0.196 0.393 0.179 0.929-0.018 0.571-0.25 1.161-0.411 1.643-0.161 0.554-0.214 0.929 0.321 0.946 0.143-1 0.429-1.982 0.5-2.982 0.089-1.143-0.732-3.25 0.161-4.304 0.232-0.286 0.518-0.321 0.911-0.321 0.054-1.429 2.25-1.321 2.982-0.732zM11.179 6.857c0.071-0.446-0.143-0.768-0.25-0.804-0.214-0.054-0.179 0.268-0.071 0.232v0c0.071 0 0.161 0.107 0.125 0.268-0.036 0.214-0.018 0.357 0.143 0.357 0.018 0 0.054 0 0.054-0.054zM18.661 10.375c-0.071-0.339-0.321-0.214-0.607-0.393-0.339-0.214-0.411-0.571-0.536-0.446v0c-0.375 0.411 0.464 1.268 0.821 1.339 0.214 0.036 0.375-0.25 0.321-0.5zM15.482 6.571c0.018-0.429-0.357-0.643-0.446-0.625-0.232 0.018-0.161 0.125-0.054 0.161v0c0.143 0.036 0.286 0.286 0.321 0.554 0 0.036 0.179-0.036 0.179-0.089zM16.446 2.411c0.018-0.089-0.214-0.196-0.375-0.321-0.143-0.143-0.286-0.268-0.429-0.268-0.357 0.036-0.179 0.411-0.232 0.589v0c-0.071 0.196-0.339 0.357-0.161 0.5 0.161 0.125 0.268-0.196 0.607-0.321 0.089-0.036 0.5 0.018 0.589-0.179zM26.536 26.357c2.196 1.357-0.821 2.482-2.125 3.143-1.018 0.518-2.375 1.661-2.875 2.143-0.375 0.357-1.929 0.536-2.804 0.089-1.018-0.518-0.482-1.339-2.054-1.393-0.786-0.018-1.554-0.018-2.321-0.018-0.679 0.018-1.357 0.054-2.054 0.071-2.357 0.054-2.589 1.571-4.107 1.518-1.036-0.036-2.339-0.857-4.589-1.321-1.571-0.321-3.089-0.411-3.411-1.107s0.393-1.482 0.446-2.161c0.054-0.911-0.679-2.143-0.143-2.607 0.464-0.411 1.446-0.107 2.089-0.464 0.679-0.393 0.964-0.696 0.964-1.536 0.25 0.857-0.018 1.554-0.571 1.893-0.339 0.214-0.964 0.321-1.482 0.268-0.411-0.036-0.661 0.018-0.768 0.179-0.161 0.196-0.107 0.554 0.089 1.018s0.429 0.768 0.393 1.339c-0.018 0.571-0.661 1.25-0.554 1.732 0.036 0.179 0.214 0.339 0.661 0.464 0.714 0.196 2.018 0.393 3.286 0.696 1.411 0.357 2.875 1 3.786 0.875 2.714-0.375 1.161-3.286 0.732-3.982v0c-2.304-3.607-3.821-5.964-5.036-5.036-0.304 0.25-0.321-0.607-0.304-0.946 0.054-1.179 0.643-1.607 1-2.518 0.679-1.732 1.196-3.714 2.232-4.732 0.768-1 1.982-2.625 2.214-3.482-0.196-1.857-0.25-3.821-0.286-5.536-0.036-1.839 0.25-3.446 2.321-4.571 0.5-0.268 1.161-0.375 1.857-0.375 1.232-0.018 2.607 0.339 3.482 0.982 1.393 1.036 2.268 3.232 2.161 4.804-0.071 1.232 0.143 2.5 0.536 3.821 0.464 1.554 1.196 2.643 2.375 3.893 1.411 1.5 2.518 4.446 2.839 6.321 0.286 1.75-0.107 2.839-0.482 2.893-0.571 0.089-0.929 1.893-2.714 1.821-1.143-0.054-1.25-0.732-1.571-1.321-0.518-0.911-1.036-0.625-1.232 0.339-0.107 0.482-0.036 1.196 0.125 1.732 0.321 1.125 0.214 2.179 0.018 3.482-0.375 2.464 1.732 2.929 3.143 1.75 1.393-1.161 1.696-1.339 3.446-1.946 2.661-0.911 1.768-1.714 0.339-2.196-1.286-0.429-1.339-2.589-0.875-3 0.107 2.321 1.321 2.661 1.821 2.982z"></path>
</svg>
