<!-- Generated by IcoMoon.io -->
<svg version="1.1" xmlns="http://www.w3.org/2000/svg" width="32" height="32" viewBox="0 0 32 32">
<title>list-alt</title>
<path d="M6.857 21.143v1.143c0 0.304-0.268 0.571-0.571 0.571h-1.143c-0.304 0-0.571-0.268-0.571-0.571v-1.143c0-0.304 0.268-0.571 0.571-0.571h1.143c0.304 0 0.571 0.268 0.571 0.571zM6.857 16.571v1.143c0 0.304-0.268 0.571-0.571 0.571h-1.143c-0.304 0-0.571-0.268-0.571-0.571v-1.143c0-0.304 0.268-0.571 0.571-0.571h1.143c0.304 0 0.571 0.268 0.571 0.571zM6.857 12v1.143c0 0.304-0.268 0.571-0.571 0.571h-1.143c-0.304 0-0.571-0.268-0.571-0.571v-1.143c0-0.304 0.268-0.571 0.571-0.571h1.143c0.304 0 0.571 0.268 0.571 0.571zM27.429 21.143v1.143c0 0.304-0.268 0.571-0.571 0.571h-17.143c-0.304 0-0.571-0.268-0.571-0.571v-1.143c0-0.304 0.268-0.571 0.571-0.571h17.143c0.304 0 0.571 0.268 0.571 0.571zM27.429 16.571v1.143c0 0.304-0.268 0.571-0.571 0.571h-17.143c-0.304 0-0.571-0.268-0.571-0.571v-1.143c0-0.304 0.268-0.571 0.571-0.571h17.143c0.304 0 0.571 0.268 0.571 0.571zM27.429 12v1.143c0 0.304-0.268 0.571-0.571 0.571h-17.143c-0.304 0-0.571-0.268-0.571-0.571v-1.143c0-0.304 0.268-0.571 0.571-0.571h17.143c0.304 0 0.571 0.268 0.571 0.571zM29.714 24.571v-14.857c0-0.304-0.268-0.571-0.571-0.571h-26.286c-0.304 0-0.571 0.268-0.571 0.571v14.857c0 0.304 0.268 0.571 0.571 0.571h26.286c0.304 0 0.571-0.268 0.571-0.571zM32 5.143v19.429c0 1.571-1.286 2.857-2.857 2.857h-26.286c-1.571 0-2.857-1.286-2.857-2.857v-19.429c0-1.571 1.286-2.857 2.857-2.857h26.286c1.571 0 2.857 1.286 2.857 2.857z"></path>
</svg>
