<!-- Generated by IcoMoon.io -->
<svg version="1.1" xmlns="http://www.w3.org/2000/svg" width="14" height="32" viewBox="0 0 14 32">
<title>long-arrow-up</title>
<path d="M13.661 8.804c-0.089 0.196-0.286 0.339-0.518 0.339h-4v22.286c0 0.321-0.25 0.571-0.571 0.571h-3.429c-0.321 0-0.571-0.25-0.571-0.571v-22.286h-4c-0.232 0-0.429-0.125-0.518-0.339s-0.054-0.446 0.089-0.625l6.25-6.857c0.107-0.107 0.25-0.179 0.411-0.179v0c0.161 0 0.321 0.071 0.429 0.179l6.339 6.857c0.143 0.179 0.179 0.411 0.089 0.625z"></path>
</svg>
