<!-- Generated by IcoMoon.io -->
<svg version="1.1" xmlns="http://www.w3.org/2000/svg" width="31" height="32" viewBox="0 0 31 32">
<title>long-arrow-right</title>
<path d="M30.857 15.946c0 0.161-0.071 0.321-0.179 0.429l-6.857 6.321c-0.179 0.161-0.411 0.196-0.625 0.107-0.196-0.089-0.339-0.286-0.339-0.518v-4h-22.286c-0.321 0-0.571-0.25-0.571-0.571v-3.429c0-0.321 0.25-0.571 0.571-0.571h22.286v-4c0-0.232 0.125-0.429 0.339-0.518s0.446-0.054 0.625 0.089l6.857 6.25c0.107 0.107 0.179 0.25 0.179 0.411v0z"></path>
</svg>
