<!-- Generated by IcoMoon.io -->
<svg version="1.1" xmlns="http://www.w3.org/2000/svg" width="18" height="32" viewBox="0 0 18 32">
<title>map-marker</title>
<path d="M13.714 11.429c0-2.518-2.054-4.571-4.571-4.571s-4.571 2.054-4.571 4.571 2.054 4.571 4.571 4.571 4.571-2.054 4.571-4.571zM18.286 11.429c0 1.089-0.125 2.214-0.589 3.196l-6.5 13.821c-0.375 0.786-1.196 1.268-2.054 1.268s-1.679-0.482-2.036-1.268l-6.518-13.821c-0.464-0.982-0.589-2.107-0.589-3.196 0-5.054 4.089-9.143 9.143-9.143s9.143 4.089 9.143 9.143z"></path>
</svg>
