<!-- Generated by IcoMoon.io -->
<svg version="1.1" xmlns="http://www.w3.org/2000/svg" width="32" height="32" viewBox="0 0 32 32">
<title>map-signs</title>
<path d="M31.161 5.304c0.232 0.232 0.232 0.589 0 0.821l-2.518 2.518c-0.321 0.321-0.768 0.5-1.214 0.5h-24c-0.625 0-1.143-0.518-1.143-1.143v-4.571c0-0.625 0.518-1.143 1.143-1.143h10.286v-1.143c0-0.625 0.518-1.143 1.143-1.143h2.286c0.625 0 1.143 0.518 1.143 1.143v1.143h9.143c0.446 0 0.893 0.179 1.214 0.5zM13.714 21.714h4.571v9.143c0 0.625-0.518 1.143-1.143 1.143h-2.286c-0.625 0-1.143-0.518-1.143-1.143v-9.143zM28.571 13.714c0.625 0 1.143 0.518 1.143 1.143v4.571c0 0.625-0.518 1.143-1.143 1.143h-24c-0.446 0-0.893-0.179-1.214-0.5l-2.518-2.518c-0.232-0.232-0.232-0.589 0-0.821l2.518-2.518c0.321-0.321 0.768-0.5 1.214-0.5h9.143v-3.429h4.571v3.429h10.286z"></path>
</svg>
