<!-- Generated by IcoMoon.io -->
<svg version="1.1" xmlns="http://www.w3.org/2000/svg" width="27" height="32" viewBox="0 0 27 32">
<title>mars</title>
<path d="M26.286 2.286c0.625 0 1.143 0.518 1.143 1.143v7.429c0 0.321-0.25 0.571-0.571 0.571h-1.143c-0.321 0-0.571-0.25-0.571-0.571v-4.679l-6.821 6.839c1.411 1.75 2.25 3.982 2.25 6.411 0 5.679-4.607 10.286-10.286 10.286s-10.286-4.607-10.286-10.286 4.607-10.286 10.286-10.286c2.429 0 4.661 0.839 6.411 2.25l6.821-6.821h-4.661c-0.321 0-0.571-0.25-0.571-0.571v-1.143c0-0.321 0.25-0.571 0.571-0.571h7.429zM10.286 27.429c4.411 0 8-3.589 8-8s-3.589-8-8-8-8 3.589-8 8 3.589 8 8 8z"></path>
</svg>
