<!-- Generated by IcoMoon.io -->
<svg version="1.1" xmlns="http://www.w3.org/2000/svg" width="20" height="32" viewBox="0 0 20 32">
<title>mars-stroke-v</title>
<path d="M11.429 11.5c5.143 0.571 9.143 4.929 9.143 10.214 0 6.071-5.25 10.911-11.464 10.214-4.821-0.536-8.679-4.518-9.071-9.375-0.446-5.661 3.696-10.464 9.107-11.054v-2.357h-2.857c-0.321 0-0.571-0.25-0.571-0.571v-1.143c0-0.321 0.25-0.571 0.571-0.571h2.857v-2.946l-1.643 1.643c-0.232 0.214-0.589 0.214-0.804 0l-0.821-0.821c-0.214-0.214-0.214-0.571 0-0.804l3.607-3.589c0.446-0.446 1.161-0.446 1.607 0l3.607 3.589c0.214 0.232 0.214 0.589 0 0.804l-0.821 0.821c-0.214 0.214-0.571 0.214-0.804 0l-1.643-1.643v2.946h2.857c0.321 0 0.571 0.25 0.571 0.571v1.143c0 0.321-0.25 0.571-0.571 0.571h-2.857v2.357zM10.286 29.714c4.411 0 8-3.589 8-8s-3.589-8-8-8-8 3.589-8 8 3.589 8 8 8z"></path>
</svg>
