<!-- Generated by IcoMoon.io -->
<svg version="1.1" xmlns="http://www.w3.org/2000/svg" width="34" height="32" viewBox="0 0 34 32">
<title>mars-double</title>
<path d="M27.429 7.429c0-0.321 0.25-0.571 0.571-0.571h5.143c0.625 0 1.143 0.518 1.143 1.143v5.143c0 0.321-0.25 0.571-0.571 0.571h-1.143c-0.321 0-0.571-0.25-0.571-0.571v-2.393l-4.536 4.554c1.75 2.196 2.625 5.107 2.089 8.232-0.75 4.339-4.286 7.75-8.643 8.357-5.107 0.714-9.625-2.339-11.179-6.786-5.643-0.286-10.089-5.143-9.714-10.946 0.321-4.893 4.196-8.964 9.071-9.518 2.875-0.339 5.554 0.554 7.607 2.179l4.554-4.536h-2.393c-0.321 0-0.571-0.25-0.571-0.571v-1.143c0-0.321 0.25-0.571 0.571-0.571h5.143c0.625 0 1.143 0.518 1.143 1.143v5.143c0 0.321-0.25 0.571-0.571 0.571h-1.143c-0.321 0-0.571-0.25-0.571-0.571v-2.393l-4.536 4.554c0.714 0.893 1.268 1.911 1.661 3.018 2.214 0.107 4.232 0.929 5.857 2.214l4.554-4.536h-2.393c-0.321 0-0.571-0.25-0.571-0.571v-1.143zM18.286 14.857c0-0.357-0.036-0.696-0.071-1.036-3.839 0.589-6.786 3.893-6.786 7.893 0 0.357 0.036 0.696 0.071 1.036 3.839-0.589 6.786-3.893 6.786-7.893zM2.286 14.857c0 4.036 3.018 7.375 6.911 7.911-0.036-0.339-0.054-0.696-0.054-1.054 0-5.036 3.643-9.232 8.446-10.107-1.25-2.804-4.054-4.75-7.304-4.75-4.411 0-8 3.589-8 8zM19.429 29.714c4.411 0 8-3.589 8-8 0-4.036-3.018-7.375-6.911-7.911 0.036 0.339 0.054 0.696 0.054 1.054 0 5.036-3.643 9.232-8.446 10.107 1.25 2.804 4.054 4.75 7.304 4.75z"></path>
</svg>
