<!-- Generated by IcoMoon.io -->
<svg version="1.1" xmlns="http://www.w3.org/2000/svg" width="34" height="32" viewBox="0 0 34 32">
<title>mars-stroke-h</title>
<path d="M33.946 16.339c0.446 0.446 0.446 1.161 0 1.607l-5.25 5.25c-0.214 0.232-0.589 0.232-0.804 0l-0.804-0.804c-0.232-0.214-0.232-0.589 0-0.804l3.304-3.304h-5.25v4c0 0.321-0.25 0.571-0.571 0.571h-1.143c-0.321 0-0.571-0.25-0.571-0.571v-4h-2.357c-0.571 5.143-4.929 9.143-10.214 9.143-6.071 0-10.911-5.25-10.214-11.464 0.536-4.821 4.518-8.679 9.375-9.071 5.661-0.446 10.464 3.696 11.054 9.107h2.357v-4c0-0.321 0.25-0.571 0.571-0.571h1.143c0.321 0 0.571 0.25 0.571 0.571v4h5.25l-3.304-3.304c-0.232-0.214-0.232-0.589 0-0.804l0.804-0.804c0.214-0.232 0.589-0.232 0.804 0zM10.286 25.143c4.411 0 8-3.589 8-8s-3.589-8-8-8-8 3.589-8 8 3.589 8 8 8z"></path>
</svg>
