<!-- Generated by IcoMoon.io -->
<svg version="1.1" xmlns="http://www.w3.org/2000/svg" width="32" height="32" viewBox="0 0 32 32">
<title>medkit</title>
<path d="M22.857 20v-3.429c0-0.321-0.25-0.571-0.571-0.571h-4v-4c0-0.321-0.25-0.571-0.571-0.571h-3.429c-0.321 0-0.571 0.25-0.571 0.571v4h-4c-0.321 0-0.571 0.25-0.571 0.571v3.429c0 0.321 0.25 0.571 0.571 0.571h4v4c0 0.321 0.25 0.571 0.571 0.571h3.429c0.321 0 0.571-0.25 0.571-0.571v-4h4c0.321 0 0.571-0.25 0.571-0.571zM11.429 6.857h9.143v-2.286h-9.143v2.286zM4.571 6.857v22.857h-0.571c-2.196 0-4-1.804-4-4v-14.857c0-2.196 1.804-4 4-4h0.571zM25.714 6.857v22.857h-19.429v-22.857h2.857v-2.857c0-0.946 0.768-1.714 1.714-1.714h10.286c0.946 0 1.714 0.768 1.714 1.714v2.857h2.857zM32 10.857v14.857c0 2.196-1.804 4-4 4h-0.571v-22.857h0.571c2.196 0 4 1.804 4 4z"></path>
</svg>
