<!-- Generated by IcoMoon.io -->
<svg version="1.1" xmlns="http://www.w3.org/2000/svg" width="21" height="32" viewBox="0 0 21 32">
<title>microphone</title>
<path d="M20.571 12.571v2.286c0 5.286-4 9.643-9.143 10.214v2.357h4.571c0.625 0 1.143 0.518 1.143 1.143s-0.518 1.143-1.143 1.143h-11.429c-0.625 0-1.143-0.518-1.143-1.143s0.518-1.143 1.143-1.143h4.571v-2.357c-5.143-0.571-9.143-4.929-9.143-10.214v-2.286c0-0.625 0.518-1.143 1.143-1.143s1.143 0.518 1.143 1.143v2.286c0 4.411 3.589 8 8 8s8-3.589 8-8v-2.286c0-0.625 0.518-1.143 1.143-1.143s1.143 0.518 1.143 1.143zM16 5.714v9.143c0 3.143-2.571 5.714-5.714 5.714s-5.714-2.571-5.714-5.714v-9.143c0-3.143 2.571-5.714 5.714-5.714s5.714 2.571 5.714 5.714z"></path>
</svg>
