<!-- Generated by IcoMoon.io -->
<svg version="1.1" xmlns="http://www.w3.org/2000/svg" width="14" height="32" viewBox="0 0 14 32">
<title>mobile</title>
<path d="M8.286 25.143c0-0.786-0.643-1.429-1.429-1.429s-1.429 0.643-1.429 1.429 0.643 1.429 1.429 1.429 1.429-0.643 1.429-1.429zM12 22.286v-12.571c0-0.304-0.268-0.571-0.571-0.571h-9.143c-0.304 0-0.571 0.268-0.571 0.571v12.571c0 0.304 0.268 0.571 0.571 0.571h9.143c0.304 0 0.571-0.268 0.571-0.571zM8.571 7.143c0-0.161-0.125-0.286-0.286-0.286h-2.857c-0.161 0-0.286 0.125-0.286 0.286s0.125 0.286 0.286 0.286h2.857c0.161 0 0.286-0.125 0.286-0.286zM13.714 6.857v18.286c0 1.25-1.036 2.286-2.286 2.286h-9.143c-1.25 0-2.286-1.036-2.286-2.286v-18.286c0-1.25 1.036-2.286 2.286-2.286h9.143c1.25 0 2.286 1.036 2.286 2.286z"></path>
</svg>
