<!-- Generated by IcoMoon.io -->
<svg version="1.1" xmlns="http://www.w3.org/2000/svg" width="42" height="32" viewBox="0 0 42 32">
<title>motorcycle1</title>
<path d="M41.089 18.5c0.571 5.018-3.518 9.232-8.5 8.911-3.821-0.25-7-3.304-7.393-7.125-0.286-2.714 0.786-5.161 2.607-6.804l-1.268-1.911c-2.25 1.875-3.679 4.679-3.679 7.821 0 0.643-0.5 1.179-1.143 1.179h-5.804c-0.554 3.875-3.875 6.857-7.911 6.857-4.411 0-8-3.589-8-8s3.589-8 8-8c0.946 0 1.857 0.179 2.714 0.482l0.429-0.804c-1.375-1.232-3.179-1.964-5.429-1.964h-1.143c-0.625 0-1.143-0.518-1.143-1.143s0.518-1.143 1.143-1.143h2.286c4 0 6.036 1.643 6.857 2.286h11.196l-1.518-2.286h-3.964c-0.696 0-1.25-0.625-1.125-1.339 0.089-0.554 0.625-0.946 1.179-0.946h4.518c0.375 0 0.732 0.196 0.946 0.5l1.25 1.875 2.036-2.036c0.214-0.214 0.518-0.339 0.821-0.339h1.804c0.625 0 1.143 0.518 1.143 1.143v2.286c0 0.625-0.518 1.143-1.143 1.143h-3.196l2.054 3.071c1.446-0.696 3.125-0.982 4.911-0.643 3.411 0.625 6.071 3.482 6.464 6.929zM8 25.143c2.768 0 5.071-1.964 5.607-4.571h-5.607c-0.393 0-0.768-0.214-0.982-0.554-0.196-0.339-0.214-0.768-0.018-1.125l2.625-4.946c-0.518-0.143-1.054-0.232-1.625-0.232-3.143 0-5.714 2.571-5.714 5.714s2.571 5.714 5.714 5.714zM33.143 25.143c3.143 0 5.714-2.571 5.714-5.714s-2.571-5.714-5.714-5.714c-0.768 0-1.482 0.161-2.161 0.429l3.107 4.643c0.357 0.536 0.214 1.25-0.304 1.589-0.196 0.143-0.429 0.196-0.643 0.196-0.375 0-0.732-0.179-0.946-0.518l-3.107-4.643c-1.018 1.036-1.661 2.446-1.661 4.018 0 3.143 2.571 5.714 5.714 5.714z"></path>
</svg>
