<!-- Generated by IcoMoon.io -->
<svg version="1.1" xmlns="http://www.w3.org/2000/svg" width="21" height="32" viewBox="0 0 21 32">
<title>mouse-pointer</title>
<path d="M20.232 18.625c0.339 0.321 0.429 0.821 0.25 1.232-0.179 0.429-0.589 0.714-1.054 0.714h-6.821l3.589 8.5c0.25 0.589-0.036 1.25-0.607 1.5l-3.161 1.339c-0.589 0.25-1.25-0.036-1.5-0.607l-3.411-8.071-5.571 5.571c-0.214 0.214-0.5 0.339-0.804 0.339-0.143 0-0.304-0.036-0.429-0.089-0.429-0.179-0.714-0.589-0.714-1.054v-26.857c0-0.464 0.286-0.875 0.714-1.054 0.125-0.054 0.286-0.089 0.429-0.089 0.304 0 0.589 0.107 0.804 0.339z"></path>
</svg>
