<!-- Generated by IcoMoon.io -->
<svg version="1.1" xmlns="http://www.w3.org/2000/svg" width="27" height="32" viewBox="0 0 27 32">
<title>music</title>
<path d="M27.429 4v20c0 2.518-3.768 3.429-5.714 3.429s-5.714-0.911-5.714-3.429 3.768-3.429 5.714-3.429c1.179 0 2.357 0.214 3.429 0.696v-9.589l-13.714 4.232v12.661c0 2.518-3.768 3.429-5.714 3.429s-5.714-0.911-5.714-3.429 3.768-3.429 5.714-3.429c1.179 0 2.357 0.214 3.429 0.696v-17.268c0-0.75 0.5-1.411 1.214-1.643l14.857-4.571c0.161-0.054 0.321-0.071 0.5-0.071 0.946 0 1.714 0.768 1.714 1.714z"></path>
</svg>
