<!-- Generated by IcoMoon.io -->
<svg version="1.1" xmlns="http://www.w3.org/2000/svg" width="25" height="32" viewBox="0 0 25 32">
<title>pagelines</title>
<path d="M25.036 19.696c-3.589 8.911-12.196 3.518-12.196 3.518-2.643 5.339-7 8.768-12.036 8.786-0.446 0-0.804-0.357-0.804-0.804s0.357-0.786 0.804-0.786c4.196-0.018 7.857-2.786 10.25-7.179-2.679 1.036-7.732 1.821-10.536-5.357 7.107-2.929 10.375 0.732 11.625 2.964 0.643-1.589 1.107-3.321 1.411-5.196 0 0-9.107 1.429-9.75-6.393 7.768-3.125 9.946 5 9.946 5 0.107-1.089 0.214-3.429 0.214-3.482 0 0-6.929-4.804-2.482-10.768 8.125 2.804 4 10.589 4 10.589 0.036 0.107 0.036 1.554 0 2.179 0 0 2.946-5.804 8.893-3.75-0.268 8.732-9.25 6.929-9.25 6.929-0.286 1.786-0.732 3.482-1.304 5.054 0 0 5.411-5.982 11.214-1.304z"></path>
</svg>
