<!-- Generated by IcoMoon.io -->
<svg version="1.1" xmlns="http://www.w3.org/2000/svg" width="32" height="32" viewBox="0 0 32 32">
<title>paper-roll</title>
<path d="M12 4c-4.413 0-7.813 3.587-8 8v16h12v-10.053c1.467 1.32 3.333 2.053 5.333 2.053 4.413 0 8-3.587 8-8s-3.587-8-8-8h-9.333zM21.333 6.667c2.947 0 5.333 2.387 5.333 5.333s-2.387 5.333-5.333 5.333c-2.947 0-5.333-2.387-5.333-5.333s2.387-5.333 5.333-5.333zM21.333 9.667c-1.293 0-2.333 1.040-2.333 2.333s1.040 2.333 2.333 2.333c1.293 0 2.333-1.040 2.333-2.333s-1.040-2.333-2.333-2.333zM5.333 16h1.333v1.333h-1.333v-1.333zM8 16h1.333v1.333h-1.333v-1.333zM10.667 16h1.333v1.333h-1.333v-1.333zM13.333 16h1.333v1.333h-1.333v-1.333z"></path>
</svg>
