<!-- Generated by IcoMoon.io -->
<svg version="1.1" xmlns="http://www.w3.org/2000/svg" width="27" height="32" viewBox="0 0 27 32">
<title>pause1</title>
<path d="M27.429 3.429v25.143c0 0.625-0.518 1.143-1.143 1.143h-9.143c-0.625 0-1.143-0.518-1.143-1.143v-25.143c0-0.625 0.518-1.143 1.143-1.143h9.143c0.625 0 1.143 0.518 1.143 1.143zM11.429 3.429v25.143c0 0.625-0.518 1.143-1.143 1.143h-9.143c-0.625 0-1.143-0.518-1.143-1.143v-25.143c0-0.625 0.518-1.143 1.143-1.143h9.143c0.625 0 1.143 0.518 1.143 1.143z"></path>
</svg>
