<!-- Generated by IcoMoon.io -->
<svg version="1.1" xmlns="http://www.w3.org/2000/svg" width="32" height="32" viewBox="0 0 32 32">
<title>pause-o</title>
<path d="M10 5.333c-1.105 0-2 0.895-2 2v17.333c0 1.105 0.895 2 2 2h1.333c1.105 0 2-0.895 2-2v-17.333c0-1.105-0.895-2-2-2h-1.333zM10 4h1.333c1.841 0 3.333 1.492 3.333 3.333v17.333c0 1.841-1.492 3.333-3.333 3.333h-1.333c-1.841 0-3.333-1.492-3.333-3.333v-17.333c0-1.841 1.492-3.333 3.333-3.333zM20.667 4h1.333c1.841 0 3.333 1.492 3.333 3.333v17.333c0 1.841-1.492 3.333-3.333 3.333h-1.333c-1.841 0-3.333-1.492-3.333-3.333v-17.333c0-1.841 1.492-3.333 3.333-3.333zM20.667 5.333c-1.105 0-2 0.895-2 2v17.333c0 1.105 0.895 2 2 2h1.333c1.105 0 2-0.895 2-2v-17.333c0-1.105-0.895-2-2-2h-1.333z"></path>
</svg>
