<!-- Generated by IcoMoon.io -->
<svg version="1.1" xmlns="http://www.w3.org/2000/svg" width="27" height="32" viewBox="0 0 27 32">
<title>pause-circle-o</title>
<path d="M13.714 2.286c7.571 0 13.714 6.143 13.714 13.714s-6.143 13.714-13.714 13.714-13.714-6.143-13.714-13.714 6.143-13.714 13.714-13.714zM13.714 25.714c5.357 0 9.714-4.357 9.714-9.714s-4.357-9.714-9.714-9.714-9.714 4.357-9.714 9.714 4.357 9.714 9.714 9.714zM15.429 21.714c-0.321 0-0.571-0.25-0.571-0.571v-10.286c0-0.321 0.25-0.571 0.571-0.571h3.429c0.321 0 0.571 0.25 0.571 0.571v10.286c0 0.321-0.25 0.571-0.571 0.571h-3.429zM8.571 21.714c-0.321 0-0.571-0.25-0.571-0.571v-10.286c0-0.321 0.25-0.571 0.571-0.571h3.429c0.321 0 0.571 0.25 0.571 0.571v10.286c0 0.321-0.25 0.571-0.571 0.571h-3.429z"></path>
</svg>
