<!-- Generated by IcoMoon.io -->
<svg version="1.1" xmlns="http://www.w3.org/2000/svg" width="27" height="32" viewBox="0 0 27 32">
<title>pencil-square</title>
<path d="M7.214 19.786l2.714 2.714-0.929 0.929h-1v-1.714h-1.714v-1zM14.607 12.821c0.143 0.125 0.107 0.375-0.054 0.536l-5.196 5.196c-0.161 0.161-0.411 0.196-0.536 0.054-0.143-0.125-0.107-0.375 0.054-0.536l5.196-5.196c0.161-0.161 0.411-0.196 0.536-0.054zM9.714 25.143l9.714-9.714-5.143-5.143-9.714 9.714v5.143h5.143zM20.571 14.286l1.643-1.643c0.661-0.661 0.661-1.768 0-2.429l-2.714-2.714c-0.661-0.661-1.768-0.661-2.429 0l-1.643 1.643zM27.429 7.429v17.143c0 2.839-2.304 5.143-5.143 5.143h-17.143c-2.839 0-5.143-2.304-5.143-5.143v-17.143c0-2.839 2.304-5.143 5.143-5.143h17.143c2.839 0 5.143 2.304 5.143 5.143z"></path>
</svg>
