<!-- Generated by IcoMoon.io -->
<svg version="1.1" xmlns="http://www.w3.org/2000/svg" width="27" height="32" viewBox="0 0 27 32">
<title>percent</title>
<path d="M22.857 22.857c0-1.25-1.036-2.286-2.286-2.286s-2.286 1.036-2.286 2.286 1.036 2.286 2.286 2.286 2.286-1.036 2.286-2.286zM9.143 9.143c0-1.25-1.036-2.286-2.286-2.286s-2.286 1.036-2.286 2.286 1.036 2.286 2.286 2.286 2.286-1.036 2.286-2.286zM27.429 22.857c0 3.786-3.071 6.857-6.857 6.857s-6.857-3.071-6.857-6.857 3.071-6.857 6.857-6.857 6.857 3.071 6.857 6.857zM25.714 3.429c0 0.25-0.089 0.482-0.232 0.679l-18.857 25.143c-0.214 0.286-0.554 0.464-0.911 0.464h-2.857c-0.625 0-1.143-0.518-1.143-1.143 0-0.25 0.089-0.482 0.232-0.679l18.857-25.143c0.214-0.286 0.554-0.464 0.911-0.464h2.857c0.625 0 1.143 0.518 1.143 1.143zM13.714 9.143c0 3.786-3.071 6.857-6.857 6.857s-6.857-3.071-6.857-6.857 3.071-6.857 6.857-6.857 6.857 3.071 6.857 6.857z"></path>
</svg>
