<!-- Generated by IcoMoon.io -->
<svg version="1.1" xmlns="http://www.w3.org/2000/svg" width="27" height="32" viewBox="0 0 27 32">
<title>plus-circle</title>
<path d="M21.714 17.143v-2.286c0-0.625-0.518-1.143-1.143-1.143h-4.571v-4.571c0-0.625-0.518-1.143-1.143-1.143h-2.286c-0.625 0-1.143 0.518-1.143 1.143v4.571h-4.571c-0.625 0-1.143 0.518-1.143 1.143v2.286c0 0.625 0.518 1.143 1.143 1.143h4.571v4.571c0 0.625 0.518 1.143 1.143 1.143h2.286c0.625 0 1.143-0.518 1.143-1.143v-4.571h4.571c0.625 0 1.143-0.518 1.143-1.143zM27.429 16c0 7.571-6.143 13.714-13.714 13.714s-13.714-6.143-13.714-13.714 6.143-13.714 13.714-13.714 13.714 6.143 13.714 13.714z"></path>
</svg>
