<!-- Generated by IcoMoon.io -->
<svg version="1.1" xmlns="http://www.w3.org/2000/svg" width="27" height="32" viewBox="0 0 27 32">
<title>podcast</title>
<path d="M17.75 21.286c0 1.179-0.125 2.357-0.304 3.518-0.268 1.857-0.536 3.768-0.982 5.589-0.321 1.304-1.536 1.607-2.714 1.607s-2.393-0.304-2.714-1.607c-0.446-1.821-0.714-3.732-0.982-5.589-0.179-1.161-0.304-2.339-0.304-3.518 0-2.411 1.946-3 4-3s4 0.589 4 3zM27.429 13.714c0 5.786-3.571 10.732-8.643 12.75-0.196 0.071-0.411-0.107-0.375-0.321 0.054-0.375 0.107-0.768 0.179-1.179 0.036-0.286 0.071-0.571 0.107-0.839 0.018-0.107 0.071-0.179 0.161-0.214 3.714-1.893 6.286-5.75 6.286-10.196 0-6.518-5.464-11.768-12.054-11.411-6.036 0.321-10.839 5.464-10.804 11.5 0.036 4.446 2.625 8.286 6.357 10.143 0.089 0.036 0.143 0.125 0.161 0.214 0.036 0.25 0.071 0.518 0.107 0.804 0.071 0.429 0.125 0.821 0.196 1.214 0.036 0.214-0.196 0.393-0.393 0.304-5.304-2.071-9-7.357-8.696-13.446 0.339-6.911 5.911-12.571 12.821-13 7.964-0.5 14.589 5.821 14.589 13.679zM17.75 13.143c0 2.214-1.786 4-4 4s-4-1.786-4-4 1.786-4 4-4 4 1.786 4 4zM22.893 13.714c0 2.946-1.411 5.589-3.571 7.25-0.179 0.143-0.429 0.018-0.464-0.214-0.054-0.5-0.196-1.089-0.518-1.643-0.071-0.107-0.054-0.25 0.054-0.357 1.357-1.25 2.214-3.036 2.214-5.036 0-4.036-3.518-7.268-7.643-6.821-3.161 0.357-5.732 2.964-6.036 6.143-0.232 2.25 0.661 4.321 2.179 5.714 0.107 0.107 0.125 0.25 0.054 0.357-0.321 0.554-0.464 1.143-0.518 1.661-0.036 0.214-0.286 0.339-0.464 0.196-2.214-1.714-3.625-4.411-3.571-7.446 0.107-4.75 3.964-8.714 8.696-8.929 5.25-0.25 9.589 3.929 9.589 9.125z"></path>
</svg>
