<!-- Generated by IcoMoon.io -->
<svg version="1.1" xmlns="http://www.w3.org/2000/svg" width="30" height="32" viewBox="0 0 30 32">
<title>print</title>
<path d="M6.857 27.429h16v-4.571h-16v4.571zM6.857 16h16v-6.857h-2.857c-0.946 0-1.714-0.768-1.714-1.714v-2.857h-11.429v11.429zM27.429 17.143c0-0.625-0.518-1.143-1.143-1.143s-1.143 0.518-1.143 1.143 0.518 1.143 1.143 1.143 1.143-0.518 1.143-1.143zM29.714 17.143v7.429c0 0.304-0.268 0.571-0.571 0.571h-4v2.857c0 0.946-0.768 1.714-1.714 1.714h-17.143c-0.946 0-1.714-0.768-1.714-1.714v-2.857h-4c-0.304 0-0.571-0.268-0.571-0.571v-7.429c0-1.875 1.554-3.429 3.429-3.429h1.143v-9.714c0-0.946 0.768-1.714 1.714-1.714h12c0.946 0 2.25 0.536 2.929 1.214l2.714 2.714c0.679 0.679 1.214 1.982 1.214 2.929v4.571h1.143c1.875 0 3.429 1.554 3.429 3.429z"></path>
</svg>
