<!-- Generated by IcoMoon.io -->
<svg version="1.1" xmlns="http://www.w3.org/2000/svg" width="30" height="32" viewBox="0 0 30 32">
<title>puzzle-piece</title>
<path d="M29.714 19.607c0 1.839-1.054 3.375-3 3.375-2.179 0-2.75-1.982-4.714-1.982-1.429 0-1.964 0.893-1.964 2.214 0 1.393 0.571 2.732 0.554 4.107v0.089c-0.196 0-0.393 0-0.589 0.018-1.839 0.179-3.696 0.536-5.554 0.536-1.268 0-2.589-0.5-2.589-1.964 0-1.964 1.982-2.536 1.982-4.714 0-1.946-1.536-3-3.375-3-1.875 0-3.607 1.036-3.607 3.089 0 2.268 1.732 3.25 1.732 4.482 0 0.625-0.393 1.179-0.821 1.589-0.554 0.518-1.339 0.625-2.089 0.625-1.464 0-2.929-0.196-4.375-0.429-0.321-0.054-0.661-0.089-0.982-0.143l-0.232-0.036c-0.036-0.018-0.089-0.018-0.089-0.036v-18.286c0.071 0.054 1.125 0.179 1.304 0.214 1.446 0.232 2.911 0.429 4.375 0.429 0.75 0 1.536-0.107 2.089-0.625 0.429-0.411 0.821-0.964 0.821-1.589 0-1.232-1.732-2.214-1.732-4.482 0-2.054 1.732-3.089 3.625-3.089 1.821 0 3.357 1.054 3.357 3 0 2.179-1.982 2.75-1.982 4.714 0 1.464 1.321 1.964 2.589 1.964 2.054 0 4.089-0.464 6.125-0.571v0.036c-0.054 0.071-0.179 1.125-0.214 1.304-0.232 1.446-0.429 2.911-0.429 4.375 0 0.75 0.107 1.536 0.625 2.089 0.411 0.429 0.964 0.821 1.589 0.821 1.232 0 2.214-1.732 4.482-1.732 2.054 0 3.089 1.732 3.089 3.607z"></path>
</svg>
