<!-- Generated by IcoMoon.io -->
<svg version="1.1" xmlns="http://www.w3.org/2000/svg" width="20" height="32" viewBox="0 0 20 32">
<title>question</title>
<path d="M12.571 22.429v4.286c0 0.393-0.321 0.714-0.714 0.714h-4.286c-0.393 0-0.714-0.321-0.714-0.714v-4.286c0-0.393 0.321-0.714 0.714-0.714h4.286c0.393 0 0.714 0.321 0.714 0.714zM18.214 11.714c0 3.393-2.304 4.696-4 5.643-1.054 0.607-1.714 1.839-1.714 2.357v0c0 0.393-0.304 0.857-0.714 0.857h-4.286c-0.393 0-0.643-0.607-0.643-1v-0.804c0-2.161 2.143-4.018 3.714-4.732 1.375-0.625 1.946-1.214 1.946-2.357 0-1-1.304-1.893-2.75-1.893-0.804 0-1.536 0.25-1.929 0.518-0.429 0.304-0.857 0.732-1.911 2.054-0.143 0.179-0.357 0.286-0.554 0.286-0.161 0-0.304-0.054-0.446-0.143l-2.929-2.232c-0.304-0.232-0.375-0.625-0.179-0.946 1.929-3.196 4.643-4.75 8.286-4.75 3.821 0 8.107 3.054 8.107 7.143z"></path>
</svg>
