<!-- Generated by IcoMoon.io -->
<svg version="1.1" xmlns="http://www.w3.org/2000/svg" width="27" height="32" viewBox="0 0 27 32">
<title>refresh1</title>
<path d="M26.982 18.857c0 0.036 0 0.089-0.018 0.125-1.518 6.321-6.732 10.732-13.321 10.732-3.482 0-6.857-1.375-9.393-3.786l-2.304 2.304c-0.214 0.214-0.5 0.339-0.804 0.339-0.625 0-1.143-0.518-1.143-1.143v-8c0-0.625 0.518-1.143 1.143-1.143h8c0.625 0 1.143 0.518 1.143 1.143 0 0.304-0.125 0.589-0.339 0.804l-2.446 2.446c1.679 1.571 3.911 2.464 6.214 2.464 3.179 0 6.125-1.643 7.786-4.357 0.429-0.696 0.643-1.375 0.946-2.089 0.089-0.25 0.268-0.411 0.536-0.411h3.429c0.321 0 0.571 0.268 0.571 0.571zM27.429 4.571v8c0 0.625-0.518 1.143-1.143 1.143h-8c-0.625 0-1.143-0.518-1.143-1.143 0-0.304 0.125-0.589 0.339-0.804l2.464-2.464c-1.696-1.571-3.929-2.446-6.232-2.446-3.179 0-6.125 1.643-7.786 4.357-0.429 0.696-0.643 1.375-0.946 2.089-0.089 0.25-0.268 0.411-0.536 0.411h-3.554c-0.321 0-0.571-0.268-0.571-0.571v-0.125c1.536-6.339 6.804-10.732 13.393-10.732 3.5 0 6.911 1.393 9.446 3.786l2.321-2.304c0.214-0.214 0.5-0.339 0.804-0.339 0.625 0 1.143 0.518 1.143 1.143z"></path>
</svg>
