<!-- Generated by IcoMoon.io -->
<svg version="1.1" xmlns="http://www.w3.org/2000/svg" width="27" height="32" viewBox="0 0 27 32">
<title>renren</title>
<path d="M20.232 28.036c-1.946 1.071-4.179 1.679-6.571 1.679-2.375 0-4.607-0.607-6.554-1.679 3.161-2 5.714-5.018 6.554-8.554 0.857 3.536 3.411 6.554 6.571 8.554zM11.393 2.536v8.661c0 6.107-3.375 11.357-8.161 13.679-2.018-2.393-3.232-5.464-3.232-8.839 0-6.786 4.929-12.411 11.393-13.5zM27.429 16.036c0 3.375-1.214 6.446-3.232 8.839-4.786-2.321-8.161-7.571-8.161-13.679v-8.661c6.464 1.089 11.393 6.714 11.393 13.5z"></path>
</svg>
