<!-- Generated by IcoMoon.io -->
<svg version="1.1" xmlns="http://www.w3.org/2000/svg" width="27" height="32" viewBox="0 0 27 32">
<title>rss-square</title>
<path d="M9.143 22.857c0-1.268-1.018-2.286-2.286-2.286s-2.286 1.018-2.286 2.286 1.018 2.286 2.286 2.286 2.286-1.018 2.286-2.286zM15.411 24.536c-0.304-5.536-4.696-9.929-10.232-10.232-0.161-0.018-0.321 0.054-0.429 0.161s-0.179 0.25-0.179 0.411v2.286c0 0.304 0.232 0.554 0.536 0.571 3.661 0.268 6.607 3.214 6.875 6.875 0.018 0.304 0.268 0.536 0.571 0.536h2.286c0.161 0 0.304-0.071 0.411-0.179s0.179-0.268 0.161-0.429zM22.268 24.554c-0.304-9.286-7.821-16.804-17.107-17.107-0.179-0.018-0.304 0.036-0.411 0.161-0.107 0.107-0.179 0.25-0.179 0.411v2.286c0 0.304 0.25 0.554 0.554 0.571 7.411 0.268 13.446 6.304 13.714 13.714 0.018 0.304 0.268 0.554 0.571 0.554h2.286c0.161 0 0.304-0.071 0.411-0.179 0.125-0.107 0.179-0.25 0.161-0.411zM27.429 7.429v17.143c0 2.839-2.304 5.143-5.143 5.143h-17.143c-2.839 0-5.143-2.304-5.143-5.143v-17.143c0-2.839 2.304-5.143 5.143-5.143h17.143c2.839 0 5.143 2.304 5.143 5.143z"></path>
</svg>
