<!-- Generated by IcoMoon.io -->
<svg version="1.1" xmlns="http://www.w3.org/2000/svg" width="32" height="32" viewBox="0 0 32 32">
<title>satellite-dish</title>
<path d="M19.091 28.912c0.462 0.456 0.387 1.256-0.188 1.563-4.857 2.613-11.045 1.869-15.146-2.232s-4.844-10.283-2.231-15.146c0.306-0.568 1.106-0.644 1.563-0.188l7.301 7.301 1.712-1.712c-0.043-0.163-0.1-0.313-0.1-0.488 0-1.105 0.896-2 2-2s2 0.896 2 2c0 1.105-0.896 2-2 2v0c-0.175 0-0.325-0.056-0.487-0.1l-1.713 1.713zM31.998 18.942c0.001 0.017 0.002 0.036 0.002 0.056 0 0.554-0.448 1.004-1.001 1.006h-2.007c-0.529-0.002-0.961-0.414-0.993-0.935l-0-0.003c-0.469-8.095-6.97-14.658-15.059-15.096-0.524-0.029-0.938-0.461-0.938-0.989 0-0.002 0-0.004 0-0.006v0-1.975c0.002-0.554 0.452-1.002 1.006-1.002 0.020 0 0.040 0.001 0.059 0.002l-0.003-0c10.201 0.537 18.403 8.739 18.934 18.94zM25.998 18.923c0.001 0.020 0.002 0.044 0.002 0.068 0 0.558-0.451 1.011-1.009 1.013h-2.013c-0.522-0.004-0.948-0.405-0.993-0.915l-0-0.004c-0.432-4.813-4.257-8.682-9.058-9.076-0.519-0.038-0.925-0.468-0.925-0.993v-2.007c0-0 0-0 0-0 0-0.557 0.451-1.008 1.008-1.008 0.026 0 0.051 0.001 0.076 0.003l-0.003-0c6.883 0.531 12.389 6.038 12.915 12.921z"></path>
</svg>
