<!-- Generated by IcoMoon.io -->
<svg version="1.1" xmlns="http://www.w3.org/2000/svg" width="32" height="32" viewBox="0 0 32 32">
<title>satellite</title>
<path d="M28 18.667h2.667c0 6.627-5.373 12-12 12v-2.667c5.16 0 9.333-4.173 9.333-9.333zM18.667 22.667v2.667c3.68 0 6.667-2.987 6.667-6.667h-2.667c0 2.213-1.787 4-4 4zM24.347 0.787l4.72 4.72c1.040 1.040 1.040 2.733 0 3.773l-4.24 4.24c-1.040 1.040-2.733 1.040-3.773 0l-1.653-1.653-0.947 0.933 1.653 1.653c1.040 1.040 1.040 2.733 0 3.773l-1.88 1.88c-1.040 1.040-2.733 1.040-3.773 0l-1.653-1.653-0.947 0.947 1.653 1.653c1.040 1.040 1.040 2.733 0 3.773l-4.24 4.24c-1.040 1.040-2.733 1.040-3.773 0l-4.72-4.72c-1.040-1.040-1.040-2.733 0-3.773l4.24-4.24c1.040-1.040 2.733-1.040 3.773 0l1.653 1.653 0.947-0.947-1.653-1.64c-1.040-1.040-1.040-2.733 0-3.773l1.893-1.893c1.040-1.040 2.733-1.040 3.773 0l1.653 1.653 0.947-0.947-1.667-1.64c-1.040-1.040-1.040-2.733 0-3.773l4.24-4.24c1.053-1.053 2.733-1.053 3.773 0zM4.080 21.053l-1.413 1.413 4.72 4.72 1.413-1.413-4.72-4.72zM6.907 18.227l-1.413 1.413 4.72 4.72 1.413-1.413-4.72-4.72zM13.507 11.627l-1.88 1.88 4.72 4.72 1.88-1.88-4.72-4.72zM19.64 5.493l-1.413 1.413 4.72 4.72 1.413-1.413-4.72-4.72zM22.467 2.667l-1.413 1.413 4.72 4.72 1.413-1.413-4.72-4.72z"></path>
</svg>
