<!-- Generated by IcoMoon.io -->
<svg version="1.1" xmlns="http://www.w3.org/2000/svg" width="27" height="32" viewBox="0 0 27 32">
<title>save</title>
<path d="M6.857 27.429h13.714v-6.857h-13.714v6.857zM22.857 27.429h2.286v-16c0-0.339-0.304-1.071-0.536-1.304l-5.018-5.018c-0.25-0.25-0.946-0.536-1.304-0.536v7.429c0 0.946-0.768 1.714-1.714 1.714h-10.286c-0.946 0-1.714-0.768-1.714-1.714v-7.429h-2.286v22.857h2.286v-7.429c0-0.946 0.768-1.714 1.714-1.714h14.857c0.946 0 1.714 0.768 1.714 1.714v7.429zM16 10.857v-5.714c0-0.304-0.268-0.571-0.571-0.571h-3.429c-0.304 0-0.571 0.268-0.571 0.571v5.714c0 0.304 0.268 0.571 0.571 0.571h3.429c0.304 0 0.571-0.268 0.571-0.571zM27.429 11.429v16.571c0 0.946-0.768 1.714-1.714 1.714h-24c-0.946 0-1.714-0.768-1.714-1.714v-24c0-0.946 0.768-1.714 1.714-1.714h16.571c0.946 0 2.25 0.536 2.929 1.214l5 5c0.679 0.679 1.214 1.982 1.214 2.929z"></path>
</svg>
