<!-- Generated by IcoMoon.io -->
<svg version="1.1" xmlns="http://www.w3.org/2000/svg" width="27" height="32" viewBox="0 0 27 32">
<title>share-square</title>
<path d="M17.946 19.661l6.286-6.286c0.446-0.446 0.446-1.161 0-1.607l-6.286-6.286c-0.321-0.339-0.821-0.429-1.232-0.25-0.429 0.179-0.714 0.589-0.714 1.054v2.857c-10.25 0-11.429 5.875-11.429 10.286 0 3.589 2.875 7.071 2.982 7.214 0.125 0.143 0.286 0.214 0.446 0.214 0.071 0 0.161-0.018 0.232-0.054 0.232-0.089 0.375-0.339 0.339-0.589-0.536-4.304-0.196-6.982 1.107-8.446 1.089-1.232 2.982-1.768 6.321-1.768v2.857c0 0.464 0.286 0.875 0.714 1.054 0.125 0.054 0.286 0.089 0.429 0.089 0.304 0 0.589-0.125 0.804-0.339zM27.429 7.429v17.143c0 2.839-2.304 5.143-5.143 5.143h-17.143c-2.839 0-5.143-2.304-5.143-5.143v-17.143c0-2.839 2.304-5.143 5.143-5.143h17.143c2.839 0 5.143 2.304 5.143 5.143z"></path>
</svg>
