<!-- Generated by IcoMoon.io -->
<svg version="1.1" xmlns="http://www.w3.org/2000/svg" width="34" height="32" viewBox="0 0 34 32">
<title>shower</title>
<path d="M25.589 4.446c0.232 0.232 0.232 0.589 0 0.821l-11.179 11.179c-0.232 0.232-0.589 0.232-0.821 0l-1.464-1.464c-0.232-0.232-0.232-0.589 0-0.821l0.786-0.786c-1.732-2.179-1.946-5.161-0.625-7.536-0.821-0.786-1.929-1.268-3.143-1.268-2.518 0-4.571 2.054-4.571 4.571v22.857h-4.571v-22.857c0-5.036 4.107-9.143 9.143-9.143 2.571 0 4.893 1.071 6.554 2.786 2.25-0.911 4.857-0.571 6.821 0.982l0.786-0.786c0.232-0.232 0.589-0.232 0.821 0zM24 9.143c0.625 0 1.143 0.518 1.143 1.143s-0.518 1.143-1.143 1.143-1.143-0.518-1.143-1.143 0.518-1.143 1.143-1.143zM28.571 11.429c-0.625 0-1.143-0.518-1.143-1.143s0.518-1.143 1.143-1.143 1.143 0.518 1.143 1.143-0.518 1.143-1.143 1.143zM33.143 9.143c0.625 0 1.143 0.518 1.143 1.143s-0.518 1.143-1.143 1.143-1.143-0.518-1.143-1.143 0.518-1.143 1.143-1.143zM21.714 11.429c0.625 0 1.143 0.518 1.143 1.143s-0.518 1.143-1.143 1.143-1.143-0.518-1.143-1.143 0.518-1.143 1.143-1.143zM25.143 12.571c0-0.625 0.518-1.143 1.143-1.143s1.143 0.518 1.143 1.143-0.518 1.143-1.143 1.143-1.143-0.518-1.143-1.143zM30.857 11.429c0.625 0 1.143 0.518 1.143 1.143s-0.518 1.143-1.143 1.143-1.143-0.518-1.143-1.143 0.518-1.143 1.143-1.143zM19.429 13.714c0.625 0 1.143 0.518 1.143 1.143s-0.518 1.143-1.143 1.143-1.143-0.518-1.143-1.143 0.518-1.143 1.143-1.143zM24 16c-0.625 0-1.143-0.518-1.143-1.143s0.518-1.143 1.143-1.143 1.143 0.518 1.143 1.143-0.518 1.143-1.143 1.143zM28.571 13.714c0.625 0 1.143 0.518 1.143 1.143s-0.518 1.143-1.143 1.143-1.143-0.518-1.143-1.143 0.518-1.143 1.143-1.143zM21.714 18.286c-0.625 0-1.143-0.518-1.143-1.143s0.518-1.143 1.143-1.143 1.143 0.518 1.143 1.143-0.518 1.143-1.143 1.143zM26.286 16c0.625 0 1.143 0.518 1.143 1.143s-0.518 1.143-1.143 1.143-1.143-0.518-1.143-1.143 0.518-1.143 1.143-1.143zM19.429 18.286c0.625 0 1.143 0.518 1.143 1.143s-0.518 1.143-1.143 1.143-1.143-0.518-1.143-1.143 0.518-1.143 1.143-1.143zM24 18.286c0.625 0 1.143 0.518 1.143 1.143s-0.518 1.143-1.143 1.143-1.143-0.518-1.143-1.143 0.518-1.143 1.143-1.143zM21.714 20.571c0.625 0 1.143 0.518 1.143 1.143s-0.518 1.143-1.143 1.143-1.143-0.518-1.143-1.143 0.518-1.143 1.143-1.143zM19.429 22.857c0.625 0 1.143 0.518 1.143 1.143s-0.518 1.143-1.143 1.143-1.143-0.518-1.143-1.143 0.518-1.143 1.143-1.143z"></path>
</svg>
