<!-- Generated by IcoMoon.io -->
<svg version="1.1" xmlns="http://www.w3.org/2000/svg" width="32" height="32" viewBox="0 0 32 32">
<title>shower-head</title>
<path d="M26.667 26.667c0.733 0 1.333 0.6 1.333 1.333s-0.6 1.333-1.333 1.333c-0.733 0-1.333-0.6-1.333-1.333s0.6-1.333 1.333-1.333zM21.333 26.667c0.733 0 1.333 0.6 1.333 1.333s-0.6 1.333-1.333 1.333c-0.733 0-1.333-0.6-1.333-1.333s0.6-1.333 1.333-1.333zM16 26.667c0.733 0 1.333 0.6 1.333 1.333s-0.6 1.333-1.333 1.333c-0.733 0-1.333-0.6-1.333-1.333s0.6-1.333 1.333-1.333zM10.667 26.667c0.733 0 1.333 0.6 1.333 1.333s-0.6 1.333-1.333 1.333c-0.733 0-1.333-0.6-1.333-1.333s0.6-1.333 1.333-1.333zM5.333 26.667c0.733 0 1.333 0.6 1.333 1.333s-0.6 1.333-1.333 1.333c-0.733 0-1.333-0.6-1.333-1.333s0.6-1.333 1.333-1.333zM8 22.667c0.733 0 1.333 0.6 1.333 1.333s-0.6 1.333-1.333 1.333v0c-0.733 0-1.333-0.6-1.333-1.333s0.6-1.333 1.333-1.333v0zM13.333 22.667c0.733 0 1.333 0.6 1.333 1.333s-0.6 1.333-1.333 1.333c-0.733 0-1.333-0.6-1.333-1.333s0.6-1.333 1.333-1.333zM18.667 22.667c0.733 0 1.333 0.6 1.333 1.333s-0.6 1.333-1.333 1.333c-0.733 0-1.333-0.6-1.333-1.333s0.6-1.333 1.333-1.333zM24 22.667c0.733 0 1.333 0.6 1.333 1.333s-0.6 1.333-1.333 1.333c-0.733 0-1.333-0.6-1.333-1.333s0.6-1.333 1.333-1.333zM10.667 18.667c0.733 0 1.333 0.6 1.333 1.333s-0.6 1.333-1.333 1.333c-0.733 0-1.333-0.6-1.333-1.333s0.6-1.333 1.333-1.333zM16 18.667c0.733 0 1.333 0.6 1.333 1.333s-0.6 1.333-1.333 1.333c-0.733 0-1.333-0.6-1.333-1.333s0.6-1.333 1.333-1.333zM21.333 18.667c0.733 0 1.333 0.6 1.333 1.333s-0.6 1.333-1.333 1.333c-0.733 0-1.333-0.6-1.333-1.333s0.6-1.333 1.333-1.333zM25.333 16h-18.667v-2.667h18.667v2.667zM23.893 12h-15.787c0.56-3.333 3.227-6 6.56-6.56v-2.773h2.667v2.773c3.333 0.56 6 3.227 6.56 6.56z"></path>
</svg>
