<!-- Generated by IcoMoon.io -->
<svg version="1.1" xmlns="http://www.w3.org/2000/svg" width="28" height="32" viewBox="0 0 28 32">
<title>skull-crossbones</title>
<path d="M27.447 28.316l-8.874-4.316 8.874-4.316c0.494-0.247 0.694-0.848 0.447-1.341l-0.894-1.789c-0.247-0.494-0.848-0.694-1.342-0.448l-11.658 5.67-11.658-5.67c-0.494-0.247-1.094-0.047-1.342 0.448l-0.894 1.789c-0.247 0.494-0.047 1.094 0.447 1.341l8.874 4.316-8.874 4.316c-0.494 0.247-0.694 0.848-0.447 1.342l0.894 1.789c0.247 0.494 0.847 0.694 1.342 0.447l11.658-5.67 11.658 5.67c0.494 0.247 1.094 0.047 1.342-0.447l0.894-1.789c0.247-0.494 0.046-1.095-0.448-1.342zM9.375 14.83l-0.342 1.617c-0.167 0.789 0.339 1.553 1.028 1.553h7.88c0.689 0 1.195-0.764 1.028-1.553l-0.344-1.617c2.611-1.401 4.375-3.922 4.375-6.83 0-4.418-4.029-8-9-8s-9 3.582-9 8c0 2.908 1.764 5.429 4.375 6.83zM17.5 7c1.103 0 2 0.897 2 2s-0.897 2-2 2-2-0.897-2-2 0.897-2 2-2zM10.5 7c1.103 0 2 0.897 2 2s-0.897 2-2 2-2-0.897-2-2 0.897-2 2-2z"></path>
</svg>
