<!-- Generated by IcoMoon.io -->
<svg version="1.1" xmlns="http://www.w3.org/2000/svg" width="30" height="32" viewBox="0 0 30 32">
<title>slack</title>
<path d="M27.125 13.857c1.464 0 2.589 1.071 2.589 2.536 0 1.143-0.589 1.946-1.661 2.321l-3.071 1.054 1 2.982c0.089 0.268 0.125 0.554 0.125 0.839 0 1.411-1.143 2.589-2.554 2.589-1.125 0-2.125-0.696-2.482-1.768l-0.982-2.946-5.536 1.893 0.982 2.929c0.089 0.268 0.143 0.554 0.143 0.839 0 1.393-1.143 2.589-2.571 2.589-1.125 0-2.107-0.696-2.464-1.768l-0.982-2.911-2.732 0.946c-0.286 0.089-0.589 0.161-0.893 0.161-1.446 0-2.536-1.071-2.536-2.518 0-1.107 0.714-2.107 1.768-2.464l2.786-0.946-1.875-5.589-2.786 0.964c-0.286 0.089-0.571 0.143-0.857 0.143-1.429 0-2.536-1.089-2.536-2.518 0-1.107 0.714-2.107 1.768-2.464l2.804-0.946-0.946-2.839c-0.089-0.268-0.143-0.554-0.143-0.839 0-1.411 1.143-2.589 2.571-2.589 1.125 0 2.107 0.696 2.464 1.768l0.964 2.857 5.536-1.875-0.964-2.857c-0.089-0.268-0.143-0.554-0.143-0.839 0-1.411 1.161-2.589 2.571-2.589 1.125 0 2.125 0.714 2.482 1.768l0.946 2.875 2.893-0.982c0.25-0.071 0.5-0.107 0.768-0.107 1.393 0 2.589 1.036 2.589 2.464 0 1.107-0.857 2.036-1.857 2.375l-2.804 0.964 1.875 5.643 2.929-1c0.268-0.089 0.554-0.143 0.821-0.143zM12.946 18.536l5.536-1.875-1.875-5.625-5.536 1.911z"></path>
</svg>
