<!-- Generated by IcoMoon.io -->
<svg version="1.1" xmlns="http://www.w3.org/2000/svg" width="30" height="32" viewBox="0 0 30 32">
<title>snapchat-ghost</title>
<path d="M15.143 2.286c3.214-0.036 5.875 1.768 7.214 4.661 0.411 0.875 0.482 2.232 0.482 3.196 0 1.143-0.089 2.268-0.161 3.411 0.143 0.071 0.339 0.125 0.5 0.125 0.643 0 1.179-0.482 1.821-0.482 0.607 0 1.482 0.429 1.482 1.143 0 1.714-3.589 1.393-3.589 2.893 0 0.268 0.107 0.518 0.214 0.768 0.857 1.875 2.482 3.679 4.411 4.482 0.464 0.196 0.929 0.304 1.429 0.411 0.321 0.071 0.5 0.304 0.5 0.625 0 1.214-3.089 1.714-3.911 1.839-0.357 0.554-0.089 1.857-1.036 1.857-0.732 0-1.464-0.232-2.25-0.232-0.375 0-0.75 0.018-1.107 0.089-2.125 0.357-2.839 2.643-6.321 2.643-3.357 0-4.161-2.286-6.232-2.643-0.375-0.071-0.75-0.089-1.125-0.089-0.804 0-1.571 0.268-2.214 0.268-1 0-0.696-1.321-1.071-1.893-0.821-0.125-3.911-0.625-3.911-1.839 0-0.321 0.179-0.554 0.5-0.625 0.5-0.107 0.964-0.214 1.429-0.411 1.911-0.786 3.571-2.607 4.411-4.482 0.107-0.25 0.214-0.5 0.214-0.768 0-1.5-3.607-1.214-3.607-2.875 0-0.696 0.821-1.143 1.446-1.143 0.554 0 1.107 0.464 1.804 0.464 0.196 0 0.393-0.036 0.571-0.125-0.071-1.125-0.161-2.25-0.161-3.393 0-0.964 0.071-2.339 0.482-3.214 1.571-3.393 4.232-4.625 7.786-4.661z"></path>
</svg>
