<!-- Generated by IcoMoon.io -->
<svg version="1.1" xmlns="http://www.w3.org/2000/svg" width="32" height="32" viewBox="0 0 32 32">
<title>snowy2</title>
<path d="M20.378 27.73l-1.125-0.648c0.034-0.195 0.060-0.394 0.060-0.602s-0.026-0.406-0.063-0.602l1.128-0.65c0.526-0.307 0.706-0.983 0.404-1.506-0.305-0.53-0.979-0.711-1.508-0.406l-1.137 0.656c-0.305-0.259-0.648-0.462-1.031-0.6v-1.306c0-0.611-0.496-1.105-1.105-1.105s-1.104 0.495-1.104 1.105v1.305c-0.383 0.137-0.728 0.342-1.033 0.602l-1.134-0.656c-0.53-0.305-1.206-0.125-1.51 0.405-0.305 0.526-0.121 1.203 0.406 1.508l1.122 0.648c-0.037 0.197-0.060 0.396-0.060 0.603s0.023 0.406 0.060 0.602l-1.122 0.648c-0.529 0.305-0.711 0.984-0.406 1.512s0.98 0.707 1.508 0.402l1.135-0.652c0.305 0.258 0.65 0.461 1.034 0.598v1.309c0 0.609 0.495 1.102 1.104 1.102s1.105-0.492 1.105-1.102v-1.309c0.383-0.137 0.73-0.34 1.033-0.602l1.135 0.656c0.529 0.305 1.203 0.125 1.508-0.402s0.125-1.203-0.404-1.512zM16 27.586c-0.609 0-1.105-0.496-1.105-1.105s0.496-1.103 1.105-1.103 1.104 0.494 1.104 1.103-0.495 1.105-1.104 1.105zM29.635 24.766l-0.755-0.201c-0.018-0.24-0.076-0.467-0.181-0.686l0.548-0.548c0.258-0.258 0.256-0.674 0-0.928-0.255-0.256-0.669-0.258-0.927 0l-0.549 0.547c-0.216-0.102-0.447-0.16-0.685-0.18l-0.201-0.754c-0.094-0.349-0.453-0.559-0.805-0.465-0.35 0.095-0.555 0.454-0.464 0.805l0.201 0.744c-0.099 0.068-0.193 0.143-0.281 0.229-0.086 0.089-0.159 0.182-0.227 0.279l-0.744-0.201c-0.35-0.094-0.712 0.117-0.806 0.465-0.094 0.352 0.117 0.71 0.464 0.805l0.75 0.202c0.021 0.236 0.081 0.466 0.186 0.685l-0.551 0.551c-0.255 0.256-0.254 0.671 0.003 0.926 0.255 0.255 0.669 0.258 0.924 0.003l0.552-0.552c0.216 0.107 0.448 0.167 0.688 0.185l0.198 0.751c0.096 0.35 0.453 0.559 0.805 0.465 0.349-0.094 0.56-0.453 0.466-0.807l-0.201-0.744c0.094-0.066 0.19-0.141 0.279-0.227 0.086-0.087 0.159-0.184 0.227-0.28l0.745 0.201c0.35 0.094 0.711-0.116 0.803-0.464 0.094-0.349-0.113-0.708-0.462-0.805zM27.395 25.184c-0.258 0.258-0.673 0.256-0.93 0-0.254-0.254-0.256-0.671 0-0.928 0.256-0.255 0.673-0.255 0.93 0 0.254 0.256 0.254 0.674 0 0.928zM7.434 21.406l-0.742 0.199c-0.069-0.094-0.141-0.189-0.228-0.277-0.088-0.086-0.182-0.16-0.28-0.227l0.199-0.746c0.094-0.35-0.115-0.711-0.461-0.803-0.352-0.094-0.711 0.115-0.805 0.464l-0.203 0.754c-0.238 0.020-0.466 0.078-0.684 0.181l-0.551-0.548c-0.258-0.258-0.672-0.256-0.927 0-0.256 0.256-0.256 0.672 0 0.928l0.548 0.548c-0.103 0.219-0.163 0.449-0.181 0.686l-0.753 0.201c-0.352 0.096-0.56 0.453-0.466 0.805 0.095 0.349 0.454 0.555 0.806 0.464l0.742-0.202c0.066 0.1 0.141 0.194 0.231 0.281 0.086 0.086 0.18 0.163 0.277 0.227l-0.199 0.744c-0.094 0.352 0.115 0.714 0.463 0.807 0.352 0.094 0.708-0.115 0.802-0.465l0.203-0.75c0.238-0.020 0.469-0.079 0.688-0.184l0.549 0.549c0.255 0.258 0.669 0.253 0.927-0.003 0.254-0.254 0.258-0.669 0-0.926l-0.551-0.551c0.106-0.216 0.168-0.449 0.184-0.688l0.754-0.199c0.348-0.095 0.556-0.453 0.462-0.805-0.094-0.348-0.453-0.556-0.806-0.465zM5.535 23.185c-0.256 0.256-0.672 0.256-0.93 0-0.254-0.255-0.254-0.673 0-0.927 0.258-0.255 0.673-0.255 0.93 0s0.254 0.672 0 0.927zM32 11c0-3.859-3.141-7-7-7-0.332 0-0.66 0.023-0.987 0.070-1.867-2.544-4.814-4.070-8.013-4.070s-6.145 1.526-8.013 4.070c-0.327-0.047-0.655-0.070-0.987-0.070-3.859 0-7 3.141-7 7s3.141 7 7 7c0.856 0 1.693-0.156 2.482-0.458 1.81 1.578 4.112 2.458 6.518 2.458 2.409 0 4.708-0.88 6.518-2.458 0.789 0.302 1.626 0.458 2.482 0.458 3.859 0 7-3.141 7-7zM22.129 15.083c-1.467 1.768-3.652 2.917-6.129 2.917s-4.662-1.148-6.129-2.917c-0.813 0.573-1.801 0.917-2.871 0.917-2.762 0-5-2.238-5-5s2.238-5 5-5c0.676 0 1.316 0.138 1.902 0.38 1.327-2.588 3.991-4.38 7.098-4.38s5.771 1.792 7.096 4.38c0.587-0.242 1.229-0.38 1.904-0.38 2.762 0 5 2.238 5 5s-2.238 5-5 5c-1.070 0-2.057-0.344-2.871-0.917z"></path>
</svg>
