<!-- Generated by IcoMoon.io -->
<svg version="1.1" xmlns="http://www.w3.org/2000/svg" width="18" height="32" viewBox="0 0 18 32">
<title>sort</title>
<path d="M18.286 19.429c0 0.304-0.125 0.589-0.339 0.804l-8 8c-0.214 0.214-0.5 0.339-0.804 0.339s-0.589-0.125-0.804-0.339l-8-8c-0.214-0.214-0.339-0.5-0.339-0.804 0-0.625 0.518-1.143 1.143-1.143h16c0.625 0 1.143 0.518 1.143 1.143zM18.286 12.571c0 0.625-0.518 1.143-1.143 1.143h-16c-0.625 0-1.143-0.518-1.143-1.143 0-0.304 0.125-0.589 0.339-0.804l8-8c0.214-0.214 0.5-0.339 0.804-0.339s0.589 0.125 0.804 0.339l8 8c0.214 0.214 0.339 0.5 0.339 0.804z"></path>
</svg>
