<!-- Generated by IcoMoon.io -->
<svg version="1.1" xmlns="http://www.w3.org/2000/svg" width="32" height="32" viewBox="0 0 32 32">
<title>spinner</title>
<path d="M9.393 24.893c0 1.25-1.018 2.286-2.286 2.286-1.25 0-2.286-1.036-2.286-2.286 0-1.268 1.036-2.286 2.286-2.286 1.268 0 2.286 1.018 2.286 2.286zM18.286 28.571c0 1.268-1.018 2.286-2.286 2.286s-2.286-1.018-2.286-2.286 1.018-2.286 2.286-2.286 2.286 1.018 2.286 2.286zM5.714 16c0 1.268-1.018 2.286-2.286 2.286s-2.286-1.018-2.286-2.286 1.018-2.286 2.286-2.286 2.286 1.018 2.286 2.286zM27.179 24.893c0 1.25-1.036 2.286-2.286 2.286-1.268 0-2.286-1.036-2.286-2.286 0-1.268 1.018-2.286 2.286-2.286 1.25 0 2.286 1.018 2.286 2.286zM9.964 7.107c0 1.571-1.286 2.857-2.857 2.857s-2.857-1.286-2.857-2.857 1.286-2.857 2.857-2.857 2.857 1.286 2.857 2.857zM30.857 16c0 1.268-1.018 2.286-2.286 2.286s-2.286-1.018-2.286-2.286 1.018-2.286 2.286-2.286 2.286 1.018 2.286 2.286zM19.429 3.429c0 1.893-1.536 3.429-3.429 3.429s-3.429-1.536-3.429-3.429 1.536-3.429 3.429-3.429 3.429 1.536 3.429 3.429zM28.893 7.107c0 2.214-1.804 4-4 4-2.214 0-4-1.786-4-4 0-2.196 1.786-4 4-4 2.196 0 4 1.804 4 4z"></path>
</svg>
