<!-- Generated by IcoMoon.io -->
<svg version="1.1" xmlns="http://www.w3.org/2000/svg" width="30" height="32" viewBox="0 0 30 32">
<title>star-half-empty</title>
<path d="M21.179 17.089l4.589-4.464-7.536-1.107-0.536-1.071-2.839-5.75v17.196l1.054 0.554 5.679 3-1.071-6.339-0.214-1.179zM29.25 12.411l-6.482 6.321 1.536 8.929c0.125 0.786-0.161 1.25-0.714 1.25-0.196 0-0.446-0.071-0.714-0.214l-8.018-4.214-8.018 4.214c-0.268 0.143-0.518 0.214-0.714 0.214-0.554 0-0.839-0.464-0.714-1.25l1.536-8.929-6.5-6.321c-0.768-0.768-0.518-1.518 0.554-1.679l8.964-1.304 4.018-8.125c0.232-0.482 0.554-0.732 0.875-0.732v0c0.321 0 0.625 0.25 0.875 0.732l4.018 8.125 8.964 1.304c1.071 0.161 1.321 0.911 0.536 1.679z"></path>
</svg>
