<!-- Generated by IcoMoon.io -->
<svg version="1.1" xmlns="http://www.w3.org/2000/svg" width="30" height="32" viewBox="0 0 30 32">
<title>star-o</title>
<path d="M20.304 17.929l5.464-5.304-7.536-1.107-3.375-6.821-3.375 6.821-7.536 1.107 5.464 5.304-1.304 7.518 6.75-3.554 6.732 3.554zM29.714 11.554c0 0.321-0.232 0.625-0.464 0.857l-6.482 6.321 1.536 8.929c0.018 0.125 0.018 0.232 0.018 0.357 0 0.482-0.214 0.893-0.732 0.893-0.25 0-0.5-0.089-0.714-0.214l-8.018-4.214-8.018 4.214c-0.232 0.125-0.464 0.214-0.714 0.214-0.518 0-0.75-0.429-0.75-0.893 0-0.125 0.018-0.232 0.036-0.357l1.536-8.929-6.5-6.321c-0.214-0.232-0.446-0.536-0.446-0.857 0-0.536 0.554-0.75 1-0.821l8.964-1.304 4.018-8.125c0.161-0.339 0.464-0.732 0.875-0.732s0.714 0.393 0.875 0.732l4.018 8.125 8.964 1.304c0.429 0.071 1 0.286 1 0.821z"></path>
</svg>
