<!-- Generated by IcoMoon.io -->
<svg version="1.1" xmlns="http://www.w3.org/2000/svg" width="27" height="32" viewBox="0 0 27 32">
<title>steam-square</title>
<path d="M22.179 11.554c0-1.893-1.554-3.446-3.464-3.446-1.893 0-3.446 1.554-3.446 3.446 0 1.911 1.554 3.446 3.446 3.446 1.911 0 3.464-1.536 3.464-3.446zM11.286 22.054c0 1.964-1.571 3.536-3.536 3.536-1.357 0-2.536-0.768-3.125-1.893 0.589 0.232 1.161 0.464 1.75 0.714 1.429 0.571 3.071-0.125 3.661-1.571 0.571-1.429-0.125-3.071-1.571-3.643l-1.464-0.589c0.232-0.054 0.5-0.089 0.75-0.089 1.964 0 3.536 1.571 3.536 3.536zM27.429 7.429v17.143c0 2.839-2.304 5.143-5.143 5.143h-17.143c-2.839 0-5.143-2.304-5.143-5.143v-2.732l3.071 1.232c0.464 2.161 2.393 3.786 4.679 3.786 2.5 0 4.554-1.911 4.786-4.339l6.161-4.5c3.571 0 6.446-2.893 6.446-6.429 0-3.571-2.875-6.446-6.446-6.446-3.518 0-6.393 2.857-6.429 6.375l-4.018 5.75c-0.161-0.018-0.321-0.018-0.5-0.018-0.893 0-1.732 0.232-2.446 0.661l-5.304-2.125v-8.357c0-2.839 2.304-5.143 5.143-5.143h17.143c2.839 0 5.143 2.304 5.143 5.143zM23.018 11.589c0 2.375-1.929 4.304-4.321 4.304-2.375 0-4.304-1.929-4.304-4.304 0-2.393 1.929-4.321 4.304-4.321 2.393 0 4.321 1.929 4.321 4.321z"></path>
</svg>
