<!-- Generated by IcoMoon.io -->
<svg version="1.1" xmlns="http://www.w3.org/2000/svg" width="25" height="32" viewBox="0 0 25 32">
<title>street-view</title>
<path d="M25.143 27.429c0 3.143-6.518 4.571-12.571 4.571s-12.571-1.429-12.571-4.571c0-2.429 3.625-3.571 6.661-4.089 0.625-0.107 1.214 0.304 1.321 0.929s-0.304 1.214-0.929 1.321c-3.679 0.643-4.714 1.643-4.768 1.857 0.179 0.607 3.607 2.268 10.286 2.268s10.107-1.661 10.286-2.304c-0.054-0.179-1.089-1.179-4.768-1.821-0.625-0.107-1.036-0.696-0.929-1.321s0.696-1.036 1.321-0.929c3.036 0.518 6.661 1.661 6.661 4.089zM18.286 11.429v6.857c0 0.625-0.518 1.143-1.143 1.143h-1.143v6.857c0 0.625-0.518 1.143-1.143 1.143h-4.571c-0.625 0-1.143-0.518-1.143-1.143v-6.857h-1.143c-0.625 0-1.143-0.518-1.143-1.143v-6.857c0-1.268 1.018-2.286 2.286-2.286h6.857c1.268 0 2.286 1.018 2.286 2.286zM16.571 4.571c0 2.214-1.786 4-4 4s-4-1.786-4-4 1.786-4 4-4 4 1.786 4 4z"></path>
</svg>
