<!-- Generated by IcoMoon.io -->
<svg version="1.1" xmlns="http://www.w3.org/2000/svg" width="27" height="32" viewBox="0 0 27 32">
<title>subway</title>
<path d="M19.429 0c4.411 0 8 2.554 8 5.714v16c0 3.089-3.411 5.589-7.696 5.696l3.804 3.607c0.375 0.357 0.125 0.982-0.393 0.982h-18.857c-0.518 0-0.768-0.625-0.393-0.982l3.804-3.607c-4.286-0.107-7.696-2.607-7.696-5.696v-16c0-3.161 3.589-5.714 8-5.714h11.429zM5.143 23.429c1.571 0 2.857-1.286 2.857-2.857s-1.286-2.857-2.857-2.857-2.857 1.286-2.857 2.857 1.286 2.857 2.857 2.857zM12.571 13.714v-9.143h-9.714v9.143h9.714zM22.286 23.429c1.571 0 2.857-1.286 2.857-2.857s-1.286-2.857-2.857-2.857-2.857 1.286-2.857 2.857 1.286 2.857 2.857 2.857zM25.143 13.714v-9.143h-10.286v9.143h10.286z"></path>
</svg>
