<!-- Generated by IcoMoon.io -->
<svg version="1.1" xmlns="http://www.w3.org/2000/svg" width="32" height="32" viewBox="0 0 32 32">
<title>sunny-showers</title>
<path d="M1.664 18.005c0 1.419 0.491 2.635 1.483 3.659s2.197 1.557 3.627 1.632c0.117 0 0.181-0.064 0.181-0.181v-1.429c0-0.128-0.064-0.192-0.181-0.192-0.907-0.043-1.675-0.405-2.315-1.088s-0.949-1.483-0.949-2.4c0-0.896 0.299-1.664 0.896-2.315s1.344-1.024 2.24-1.131l0.533-0.043c0.139 0 0.213-0.064 0.213-0.192l0.064-0.565c0.117-1.152 0.597-2.123 1.461-2.891 0.864-0.779 1.877-1.163 3.051-1.163 1.163 0 2.187 0.384 3.051 1.163s1.355 1.739 1.461 2.891l0.075 0.608c0 0.128 0.064 0.192 0.192 0.192h1.781c0.939 0 1.739 0.341 2.421 1.024s1.024 1.483 1.024 2.421c0 0.907-0.32 1.696-0.96 2.368s-1.408 1.045-2.304 1.12c-0.117 0-0.181 0.064-0.181 0.192v1.429c0 0.117 0.064 0.181 0.181 0.181 0.939-0.021 1.781-0.277 2.56-0.768s1.387-1.12 1.824-1.92c0.448-0.8 0.661-1.664 0.661-2.603 0-0.757-0.149-1.461-0.437-2.091 0.811-1.003 1.205-2.165 1.205-3.499 0-0.757-0.149-1.483-0.437-2.176s-0.693-1.28-1.195-1.781c-0.491-0.501-1.088-0.896-1.771-1.184-0.693-0.299-1.419-0.437-2.176-0.437-1.611 0-2.965 0.587-4.064 1.771-0.843-0.459-1.813-0.683-2.912-0.683-1.504 0-2.837 0.469-4 1.397s-1.888 2.123-2.208 3.573c-1.195 0.277-2.187 0.885-2.955 1.835-0.757 0.949-1.141 2.048-1.141 3.275zM7.435 25.152c0 0.192 0.053 0.384 0.171 0.565 0.117 0.192 0.277 0.309 0.48 0.384s0.427 0.053 0.651-0.064c0.235-0.117 0.384-0.309 0.469-0.587l0.267-1.12c0.075-0.224 0.053-0.437-0.075-0.661s-0.309-0.373-0.544-0.448c-0.267-0.064-0.501-0.032-0.715 0.085s-0.341 0.32-0.395 0.565l-0.299 1.056c0 0.053-0.011 0.128-0.011 0.224zM8.832 20.117c0 0.405 0.224 0.683 0.683 0.843 0.235 0.085 0.459 0.064 0.683-0.053s0.363-0.309 0.437-0.565l0.256-1.099c0.075-0.224 0.053-0.437-0.075-0.661-0.117-0.224-0.299-0.373-0.544-0.448-0.256-0.064-0.501-0.043-0.715 0.085s-0.341 0.309-0.395 0.555l-0.32 1.088c0 0.085-0.011 0.171-0.011 0.256zM10.133 28.533c0 0.171 0.064 0.352 0.181 0.533s0.299 0.309 0.523 0.384c0.011 0 0.043 0 0.107 0.011s0.117 0.011 0.16 0.011c0.149 0 0.277-0.021 0.395-0.075 0.203-0.085 0.352-0.288 0.437-0.619l0.288-1.056c0.075-0.245 0.053-0.48-0.075-0.693s-0.309-0.363-0.544-0.427c-0.245-0.075-0.48-0.053-0.693 0.075s-0.363 0.309-0.427 0.544l-0.299 1.088c-0.043 0.096-0.053 0.171-0.053 0.224zM10.624 4.992c0 0.267 0.085 0.491 0.267 0.661l0.704 0.693c0.363 0.363 0.779 0.363 1.248 0 0.171-0.181 0.256-0.405 0.256-0.651s-0.085-0.459-0.256-0.651l-0.672-0.704c-0.171-0.171-0.384-0.256-0.64-0.256-0.245 0-0.459 0.085-0.64 0.267-0.181 0.171-0.267 0.384-0.267 0.64zM11.573 23.424c0 0.181 0.053 0.363 0.171 0.544s0.277 0.299 0.501 0.373c0.245 0.075 0.469 0.053 0.683-0.053 0.203-0.107 0.352-0.309 0.427-0.597l0.256-1.077c0.075-0.245 0.053-0.48-0.064-0.693s-0.299-0.363-0.533-0.437c-0.267-0.075-0.512-0.043-0.725 0.085s-0.352 0.32-0.395 0.565l-0.299 1.099c-0.021 0.032-0.021 0.096-0.021 0.192zM14.539 25.259c0.021 0.405 0.245 0.693 0.672 0.885l0.267 0.043c0.171 0 0.341-0.053 0.501-0.171s0.277-0.288 0.341-0.533l0.309-1.077c0.064-0.256 0.032-0.491-0.096-0.704s-0.32-0.352-0.565-0.395c-0.224-0.075-0.437-0.053-0.661 0.075s-0.363 0.309-0.437 0.544l-0.288 1.088c-0.011 0.021-0.011 0.053-0.021 0.085s-0.011 0.064-0.021 0.085 0 0.053 0 0.075zM16.032 20.181c0 0.171 0.053 0.341 0.16 0.512s0.267 0.288 0.48 0.341l0.267 0.032c0.203 0 0.395-0.064 0.555-0.192s0.256-0.299 0.299-0.501l0.288-1.056c0.075-0.256 0.053-0.48-0.075-0.693-0.117-0.213-0.299-0.352-0.544-0.416-0.245-0.075-0.48-0.053-0.683 0.064-0.213 0.117-0.352 0.299-0.416 0.533l-0.32 1.131c0 0.085-0.011 0.171-0.011 0.245zM16.384 9.664c0.704-0.683 1.557-1.024 2.56-1.024 1.045 0 1.941 0.373 2.677 1.109s1.109 1.632 1.109 2.677c0 0.597-0.171 1.227-0.501 1.877-1.024-1.024-2.251-1.525-3.701-1.525h-0.363c-0.277-1.216-0.875-2.251-1.781-3.115zM18.027 4.085c0 0.267 0.085 0.48 0.256 0.651s0.384 0.256 0.651 0.256 0.48-0.085 0.651-0.256c0.171-0.171 0.256-0.384 0.256-0.651v-2.155c0-0.267-0.085-0.491-0.256-0.661s-0.384-0.256-0.651-0.256-0.48 0.085-0.651 0.256c-0.171 0.171-0.256 0.395-0.256 0.661v2.155zM23.947 6.528c0 0.267 0.085 0.48 0.245 0.651 0.224 0.181 0.437 0.267 0.661 0.267 0.203 0 0.405-0.085 0.629-0.267l1.525-1.525c0.171-0.192 0.256-0.416 0.256-0.672s-0.085-0.469-0.256-0.64c-0.171-0.171-0.384-0.256-0.629-0.256s-0.459 0.085-0.651 0.256l-1.536 1.525c-0.16 0.192-0.245 0.405-0.245 0.661zM24.789 19.147c0 0.245 0.096 0.469 0.277 0.672l0.661 0.683c0.224 0.224 0.437 0.331 0.661 0.331 0.203 0 0.416-0.107 0.619-0.331 0.192-0.192 0.288-0.416 0.277-0.651-0.011-0.245-0.096-0.459-0.277-0.64l-0.693-0.704c-0.171-0.171-0.373-0.256-0.608-0.256-0.256 0-0.469 0.085-0.651 0.267-0.171 0.171-0.267 0.384-0.267 0.629zM26.357 12.416c0 0.235 0.085 0.448 0.256 0.619s0.384 0.256 0.619 0.256h2.176c0.277 0 0.501-0.085 0.672-0.245 0.171-0.171 0.256-0.373 0.256-0.629 0-0.267-0.085-0.491-0.267-0.661s-0.395-0.256-0.661-0.256h-2.176c-0.245 0-0.459 0.085-0.629 0.267-0.16 0.181-0.245 0.405-0.245 0.651z"></path>
</svg>
