<!-- Generated by IcoMoon.io -->
<svg version="1.1" xmlns="http://www.w3.org/2000/svg" width="32" height="32" viewBox="0 0 32 32">
<title>sunny-sleet-storm</title>
<path d="M1.589 18.005c0 1.195 0.352 2.261 1.067 3.2s1.632 1.568 2.752 1.877l-0.704 1.813c-0.053 0.149 0 0.235 0.149 0.235h2.272l-1.525 4.491h0.309l4.651-6.037c0.043-0.043 0.043-0.096 0.021-0.149s-0.075-0.075-0.149-0.075h-2.336l2.656-4.96c0.075-0.149 0.032-0.235-0.149-0.235h-3.157c-0.096 0-0.181 0.053-0.245 0.16l-1.141 3.072c-0.768-0.192-1.408-0.597-1.899-1.237-0.501-0.629-0.747-1.344-0.747-2.155 0-0.896 0.299-1.675 0.896-2.325s1.355-1.035 2.251-1.141l0.544-0.032c0.128 0 0.203-0.053 0.235-0.149l0.075-0.629c0.117-1.152 0.597-2.123 1.461-2.901s1.877-1.173 3.051-1.173c1.163 0 2.176 0.395 3.051 1.173s1.376 1.749 1.493 2.901l0.085 0.629c0 0.117 0.064 0.181 0.192 0.181h1.717c0.949 0 1.771 0.341 2.464 1.024s1.035 1.493 1.035 2.443c0 0.928-0.32 1.728-0.96 2.411s-1.408 1.045-2.325 1.099c-0.139 0-0.213 0.064-0.213 0.192v1.429c0 0.117 0.075 0.181 0.213 0.181 0.939-0.021 1.803-0.277 2.581-0.768 0.779-0.48 1.397-1.131 1.856-1.931s0.683-1.675 0.683-2.613c0-0.779-0.149-1.493-0.459-2.155 0.811-1.024 1.216-2.197 1.216-3.509 0-1.013-0.256-1.952-0.757-2.816s-1.184-1.547-2.048-2.048c-0.864-0.501-1.803-0.757-2.816-0.757-0.768 0-1.515 0.16-2.24 0.48s-1.344 0.768-1.877 1.333c-0.864-0.459-1.824-0.693-2.901-0.693-1.515 0-2.859 0.469-4.021 1.408s-1.92 2.133-2.24 3.595c-1.184 0.277-2.155 0.896-2.923 1.856-0.757 0.981-1.141 2.080-1.141 3.307zM9.995 28.907c0 0.181 0.053 0.352 0.171 0.523s0.288 0.288 0.523 0.352c0.096 0.021 0.181 0.032 0.256 0.032 0.459 0 0.747-0.213 0.853-0.651l0.139-0.629c0.064-0.277 0.032-0.512-0.085-0.725-0.128-0.213-0.309-0.341-0.565-0.395-0.224-0.075-0.448-0.053-0.672 0.075s-0.363 0.309-0.437 0.544l-0.139 0.629c-0.032 0.128-0.043 0.213-0.043 0.245zM10.56 4.896c0 0.245 0.085 0.459 0.267 0.64l0.693 0.704c0.171 0.171 0.363 0.256 0.587 0.277 0.224 0.032 0.437-0.043 0.651-0.245 0.213-0.192 0.32-0.416 0.32-0.683 0-0.245-0.085-0.459-0.267-0.64l-0.672-0.704c-0.171-0.171-0.384-0.256-0.64-0.256-0.267 0-0.491 0.085-0.672 0.256-0.171 0.192-0.267 0.405-0.267 0.651zM10.837 25.813c0 0.245 0.085 0.448 0.256 0.619s0.384 0.256 0.619 0.256c0.256 0 0.459-0.085 0.629-0.245 0.171-0.171 0.245-0.373 0.245-0.629 0-0.245-0.085-0.448-0.245-0.619-0.171-0.171-0.373-0.245-0.629-0.245s-0.459 0.085-0.629 0.245c-0.16 0.16-0.245 0.373-0.245 0.619zM11.499 23.392c-0.011 0.16 0.032 0.331 0.149 0.501 0.107 0.171 0.267 0.277 0.48 0.32 0.245 0.064 0.469 0.043 0.683-0.064s0.352-0.309 0.437-0.597l0.277-0.96c0.075-0.235 0.053-0.459-0.075-0.672s-0.309-0.352-0.565-0.427c-0.235-0.075-0.459-0.043-0.683 0.085s-0.363 0.32-0.437 0.565l-0.245 0.96c-0.011 0.085-0.021 0.181-0.021 0.288zM14.443 25.685c0 0.181 0.053 0.352 0.16 0.512s0.267 0.277 0.491 0.341c0.032 0 0.085 0.011 0.149 0.021s0.117 0.021 0.149 0.021c0.437 0 0.704-0.235 0.811-0.704l0.149-0.64c0.075-0.224 0.053-0.448-0.075-0.672s-0.309-0.363-0.544-0.437c-0.267-0.064-0.512-0.043-0.725 0.085s-0.363 0.309-0.437 0.565l-0.096 0.629c0 0.011 0 0.053-0.011 0.117-0.011 0.075-0.021 0.117-0.021 0.16zM15.232 22.528c0 0.245 0.085 0.448 0.256 0.608 0.16 0.171 0.363 0.256 0.619 0.256s0.459-0.085 0.629-0.245c0.171-0.171 0.245-0.373 0.245-0.619 0-0.256-0.085-0.459-0.245-0.629-0.171-0.171-0.373-0.245-0.629-0.245s-0.459 0.085-0.629 0.245c-0.16 0.171-0.245 0.373-0.245 0.629zM16.331 9.621c0.715-0.683 1.579-1.035 2.613-1.035 1.045 0 1.941 0.363 2.677 1.099 0.736 0.725 1.109 1.621 1.109 2.667 0 0.704-0.171 1.344-0.501 1.931-1.024-1.024-2.272-1.536-3.755-1.536h-0.331c-0.309-1.269-0.917-2.315-1.813-3.125zM18.037 4c0 0.256 0.085 0.469 0.267 0.651s0.395 0.267 0.64 0.267c0.256 0 0.469-0.085 0.64-0.267s0.256-0.395 0.256-0.651v-2.197c0-0.256-0.085-0.48-0.256-0.651-0.171-0.181-0.384-0.277-0.64-0.277s-0.469 0.085-0.64 0.267-0.267 0.395-0.267 0.651v2.208zM23.989 6.443c0 0.256 0.085 0.469 0.245 0.64 0.149 0.171 0.341 0.256 0.587 0.277s0.469-0.075 0.672-0.277l1.536-1.536c0.192-0.171 0.277-0.384 0.277-0.64s-0.096-0.469-0.277-0.64c-0.171-0.192-0.384-0.277-0.64-0.277-0.245 0-0.448 0.096-0.619 0.277l-1.536 1.536c-0.171 0.16-0.245 0.373-0.245 0.64zM24.811 19.147c0 0.245 0.085 0.459 0.267 0.64l0.693 0.672c0.192 0.181 0.416 0.267 0.661 0.267l0.021 0.021c0.235 0 0.427-0.096 0.576-0.288 0.192-0.171 0.277-0.384 0.277-0.64 0-0.245-0.096-0.459-0.277-0.651l-0.661-0.661c-0.192-0.192-0.405-0.288-0.651-0.288-0.256 0-0.469 0.096-0.64 0.277s-0.267 0.405-0.267 0.651zM26.379 12.352c0 0.256 0.096 0.469 0.277 0.629 0.171 0.192 0.384 0.277 0.64 0.277h2.197c0.256 0 0.469-0.085 0.651-0.267s0.267-0.395 0.267-0.64-0.085-0.469-0.267-0.64c-0.181-0.171-0.395-0.256-0.651-0.256h-2.197c-0.256 0-0.48 0.085-0.651 0.256-0.181 0.171-0.267 0.384-0.267 0.64z"></path>
</svg>
