<!-- Generated by IcoMoon.io -->
<svg version="1.1" xmlns="http://www.w3.org/2000/svg" width="32" height="32" viewBox="0 0 32 32">
<title>sunny-thunderstorm</title>
<path d="M1.621 18.027c0 1.184 0.352 2.229 1.045 3.157s1.611 1.557 2.741 1.899l-0.683 1.813c-0.043 0.149 0 0.224 0.149 0.224h2.272l-1.333 4.213h0.309l4.448-5.749c0.043-0.043 0.043-0.096 0.011-0.149-0.021-0.053-0.075-0.075-0.149-0.075h-2.315l2.635-4.939c0.075-0.149 0.021-0.235-0.149-0.235h-3.136c-0.096 0-0.181 0.053-0.245 0.149l-1.141 3.072c-0.757-0.192-1.387-0.608-1.888-1.237s-0.747-1.344-0.747-2.144c0-0.885 0.299-1.653 0.907-2.315s1.355-1.035 2.24-1.141l0.555-0.064c0.139 0 0.213-0.064 0.213-0.192l0.064-0.544c0.117-1.152 0.608-2.123 1.472-2.901s1.888-1.173 3.051-1.173c1.163 0 2.176 0.395 3.040 1.173s1.365 1.749 1.493 2.901l0.064 0.619c0 0.117 0.064 0.181 0.192 0.181h1.717c0.971 0 1.792 0.341 2.475 1.013s1.024 1.483 1.024 2.443c0 0.907-0.32 1.696-0.949 2.357s-1.408 1.035-2.336 1.109c-0.139 0-0.213 0.064-0.213 0.192v1.461c0 0.117 0.075 0.181 0.213 0.181 1.419-0.043 2.624-0.587 3.616-1.611s1.483-2.251 1.483-3.68c0-0.789-0.149-1.504-0.459-2.144 0.843-1.024 1.259-2.197 1.259-3.541 0-1.003-0.256-1.931-0.757-2.795s-1.184-1.547-2.048-2.048c-0.864-0.501-1.792-0.757-2.795-0.757-1.643 0-3.029 0.619-4.139 1.845-0.864-0.459-1.824-0.693-2.88-0.693-1.504 0-2.848 0.469-4.011 1.397s-1.909 2.123-2.24 3.584c-1.184 0.277-2.155 0.885-2.912 1.845s-1.163 2.069-1.163 3.296zM10.251 28.245c-0.011 0.16 0.032 0.32 0.149 0.469s0.277 0.267 0.491 0.352c0.075 0.021 0.149 0.032 0.224 0.032 0.181 0 0.363-0.053 0.544-0.16s0.299-0.277 0.363-0.501l2.443-9.141c0.064-0.245 0.043-0.48-0.075-0.683-0.117-0.213-0.288-0.352-0.523-0.427-0.245-0.075-0.48-0.053-0.693 0.075-0.213 0.117-0.363 0.299-0.427 0.544l-2.464 9.173c-0.021 0.075-0.032 0.171-0.032 0.267zM10.603 4.939c0 0.256 0.085 0.459 0.267 0.629l0.683 0.704c0.181 0.181 0.395 0.267 0.651 0.277 0.256 0 0.459-0.085 0.608-0.277 0.203-0.16 0.299-0.373 0.299-0.64 0-0.256-0.085-0.459-0.267-0.629l-0.672-0.704c-0.181-0.171-0.405-0.256-0.651-0.256-0.267 0-0.491 0.085-0.661 0.256s-0.256 0.384-0.256 0.64zM14.688 24.992c0 0.128 0.043 0.256 0.117 0.405 0.139 0.213 0.309 0.363 0.533 0.459 0.075 0.032 0.181 0.053 0.32 0.053 0.16 0 0.277-0.021 0.352-0.064 0.213-0.085 0.363-0.299 0.437-0.619l1.589-5.92c0.064-0.256 0.043-0.48-0.075-0.693-0.117-0.203-0.299-0.341-0.544-0.416s-0.48-0.053-0.683 0.075c-0.213 0.117-0.352 0.299-0.416 0.544l-1.6 5.931c0 0.021-0.011 0.064-0.021 0.117-0.011 0.064-0.011 0.096-0.011 0.128zM16.32 9.643c0.715-0.683 1.589-1.035 2.645-1.035 1.035 0 1.931 0.363 2.667 1.088s1.109 1.611 1.109 2.645c0 0.661-0.181 1.323-0.555 1.973-1.056-1.045-2.304-1.568-3.733-1.568h-0.331c-0.331-1.248-0.939-2.283-1.803-3.104zM18.037 4.043c0 0.245 0.096 0.459 0.277 0.64s0.395 0.277 0.64 0.277c0.256 0 0.459-0.085 0.629-0.267s0.245-0.395 0.245-0.651v-2.197c0-0.256-0.085-0.469-0.245-0.651s-0.373-0.267-0.629-0.267c-0.245 0-0.459 0.085-0.64 0.267s-0.277 0.395-0.277 0.651v2.197zM23.936 6.475c0 0.256 0.096 0.469 0.277 0.64 0.149 0.181 0.352 0.267 0.608 0.267s0.469-0.085 0.64-0.267l1.536-1.547c0.181-0.171 0.277-0.373 0.277-0.629s-0.085-0.469-0.267-0.651c-0.181-0.181-0.395-0.267-0.651-0.267-0.235 0-0.437 0.096-0.608 0.277l-1.536 1.536c-0.181 0.171-0.277 0.384-0.277 0.64zM24.8 19.125c0 0.235 0.085 0.448 0.256 0.64l0.704 0.672c0.128 0.149 0.331 0.245 0.576 0.256l0.011 0.011c0.011 0 0.032 0 0.053 0s0.032 0 0.053 0c0.203 0 0.384-0.096 0.565-0.277 0.181-0.171 0.277-0.384 0.277-0.64 0-0.245-0.096-0.459-0.277-0.651l-0.693-0.651c-0.171-0.192-0.384-0.288-0.619-0.288-0.245 0-0.459 0.085-0.64 0.267-0.181 0.192-0.267 0.416-0.267 0.661zM26.347 12.352c0 0.245 0.096 0.459 0.288 0.64 0.192 0.192 0.405 0.288 0.651 0.288h2.165c0.245 0 0.459-0.096 0.64-0.277s0.277-0.405 0.277-0.651c0-0.245-0.085-0.459-0.267-0.629s-0.395-0.256-0.651-0.256h-2.165c-0.267 0-0.491 0.085-0.672 0.256s-0.267 0.384-0.267 0.629z"></path>
</svg>
