<!-- Generated by IcoMoon.io -->
<svg version="1.1" xmlns="http://www.w3.org/2000/svg" width="32" height="32" viewBox="0 0 32 32">
<title>sunny-rain-wind</title>
<path d="M1.579 18.037c0 1.195 0.352 2.272 1.067 3.211s1.632 1.568 2.752 1.888c0.096 0.011 0.181-0.011 0.256-0.085l1.248-1.504c-0.949 0-1.771-0.341-2.453-1.035s-1.024-1.515-1.024-2.485c0-0.885 0.299-1.653 0.907-2.315 0.608-0.651 1.355-1.035 2.251-1.141l0.523-0.032c0.139 0 0.213-0.064 0.213-0.203l0.075-0.576c0.117-1.152 0.608-2.123 1.472-2.901s1.888-1.173 3.051-1.173c1.173 0 2.197 0.395 3.072 1.173s1.365 1.749 1.483 2.901l0.075 0.629c0.043 0.117 0.128 0.181 0.235 0.181h1.749c0.939 0 1.749 0.341 2.432 1.013s1.024 1.493 1.024 2.432c0 0.896-0.299 1.685-0.907 2.357s-1.333 1.045-2.208 1.12c-0.523 0.064-0.843 0.16-0.96 0.299l-2.336 3.008c-0.149 0.203-0.203 0.427-0.171 0.672s0.139 0.448 0.331 0.597c0.16 0.181 0.373 0.256 0.64 0.224s0.48-0.16 0.64-0.384l2.048-2.624c0.875-0.085 1.675-0.373 2.4-0.875 0.725-0.491 1.291-1.131 1.717-1.909 0.416-0.779 0.629-1.611 0.629-2.496 0-0.768-0.149-1.483-0.448-2.144 0.843-1.024 1.259-2.208 1.259-3.552 0-0.757-0.149-1.472-0.448-2.165s-0.704-1.291-1.205-1.792c-0.501-0.501-1.099-0.896-1.792-1.195s-1.419-0.448-2.176-0.448c-1.6 0-2.976 0.619-4.139 1.856-0.843-0.469-1.813-0.704-2.901-0.704-1.504 0-2.837 0.469-4 1.408s-1.899 2.133-2.208 3.595c-1.205 0.277-2.197 0.885-2.976 1.845s-1.195 2.101-1.195 3.328zM5.739 26.827c0.075 0.235 0.245 0.405 0.491 0.512 0.235 0.107 0.469 0.107 0.715 0.011s0.405-0.267 0.491-0.501c0.096-0.224 0.107-0.437 0-0.661-0.096-0.224-0.256-0.384-0.48-0.491-0.235-0.107-0.469-0.117-0.704-0.021s-0.395 0.256-0.48 0.491c-0.096 0.267-0.107 0.491-0.032 0.661zM7.669 23.904v0.117c0.021 0.235 0.128 0.427 0.32 0.587s0.405 0.235 0.672 0.213c0.256-0.021 0.459-0.128 0.608-0.309l2.325-3.008c0.149-0.192 0.224-0.416 0.203-0.672s-0.128-0.459-0.309-0.608c-0.192-0.16-0.416-0.224-0.672-0.203s-0.469 0.139-0.64 0.331l-2.293 2.987c-0.149 0.171-0.213 0.363-0.213 0.565zM8.213 29.088c0 0.064 0.021 0.171 0.064 0.32 0.096 0.235 0.256 0.395 0.491 0.491 0.117 0.043 0.245 0.075 0.384 0.075 0.096 0 0.213-0.021 0.331-0.053 0.224-0.085 0.384-0.245 0.469-0.469 0.107-0.235 0.117-0.469 0.021-0.715-0.085-0.245-0.245-0.405-0.48-0.491-0.235-0.107-0.469-0.107-0.715-0.011s-0.405 0.256-0.48 0.48c-0.053 0.117-0.085 0.245-0.085 0.373zM9.995 26.56v0.107c0.021 0.245 0.139 0.448 0.352 0.619 0.16 0.171 0.373 0.245 0.64 0.213s0.48-0.149 0.64-0.363l4.416-5.579c0.149-0.213 0.203-0.437 0.181-0.683s-0.139-0.448-0.331-0.629c-0.192-0.149-0.416-0.213-0.661-0.181s-0.448 0.139-0.597 0.331l-4.437 5.611c-0.139 0.16-0.203 0.352-0.203 0.555zM10.613 4.917c0 0.256 0.096 0.469 0.288 0.629l0.651 0.704c0.171 0.171 0.363 0.256 0.576 0.277 0.224 0.032 0.437-0.043 0.651-0.235s0.32-0.416 0.32-0.683c0-0.235-0.085-0.459-0.256-0.64l-0.683-0.693c-0.16-0.171-0.363-0.256-0.619-0.256s-0.48 0.085-0.661 0.256c-0.171 0.181-0.267 0.395-0.267 0.64zM13.76 27.776c0 0.128 0.021 0.235 0.075 0.331 0.096 0.235 0.256 0.395 0.48 0.491 0.117 0.053 0.235 0.085 0.373 0.085 0.064 0 0.171-0.021 0.32-0.064 0.235-0.096 0.405-0.256 0.491-0.491 0.107-0.235 0.117-0.469 0.021-0.704-0.085-0.235-0.245-0.395-0.48-0.48-0.235-0.107-0.469-0.117-0.715-0.021s-0.405 0.256-0.491 0.48c-0.053 0.117-0.075 0.245-0.075 0.373zM16.32 9.632c0.757-0.683 1.632-1.035 2.645-1.035 1.056 0 1.952 0.363 2.699 1.099s1.12 1.611 1.12 2.656c0 0.704-0.181 1.365-0.555 1.984-1.035-1.035-2.272-1.547-3.712-1.547h-0.363c-0.288-1.237-0.896-2.283-1.835-3.157zM18.059 4.021c0 0.245 0.085 0.459 0.267 0.629s0.395 0.256 0.64 0.256c0.256 0 0.48-0.085 0.661-0.256s0.267-0.384 0.267-0.629v-2.208c0-0.245-0.096-0.459-0.277-0.64s-0.405-0.267-0.651-0.267c-0.245 0-0.459 0.085-0.64 0.267s-0.267 0.395-0.267 0.64v2.208zM24 6.453c0 0.256 0.075 0.469 0.235 0.64 0.192 0.181 0.405 0.267 0.651 0.277 0.245 0 0.448-0.085 0.608-0.277l1.6-1.547c0.171-0.171 0.256-0.395 0.256-0.651s-0.096-0.469-0.277-0.651c-0.181-0.181-0.395-0.277-0.64-0.277-0.235 0-0.448 0.085-0.64 0.267l-1.547 1.568c-0.16 0.181-0.245 0.395-0.245 0.651zM24.832 19.147c0 0.256 0.085 0.469 0.256 0.64l0.704 0.672c0.171 0.171 0.363 0.267 0.576 0.288h0.064c0.192 0 0.405-0.096 0.661-0.288 0.171-0.171 0.256-0.384 0.256-0.619 0-0.256-0.085-0.48-0.256-0.672l-0.704-0.661c-0.171-0.181-0.384-0.267-0.629-0.267-0.256 0-0.48 0.085-0.661 0.267-0.171 0.171-0.267 0.395-0.267 0.64zM26.432 12.352c0 0.256 0.085 0.469 0.256 0.64 0.171 0.192 0.384 0.288 0.64 0.288h2.176c0.256 0 0.469-0.096 0.651-0.277s0.267-0.405 0.267-0.651c0-0.245-0.085-0.459-0.267-0.629s-0.395-0.256-0.651-0.256h-2.176c-0.256 0-0.469 0.085-0.64 0.256s-0.256 0.384-0.256 0.629z"></path>
</svg>
