<!-- Generated by IcoMoon.io -->
<svg version="1.1" xmlns="http://www.w3.org/2000/svg" width="21" height="32" viewBox="0 0 21 32">
<title>tablet</title>
<path d="M11.429 25.143c0-0.625-0.518-1.143-1.143-1.143s-1.143 0.518-1.143 1.143 0.518 1.143 1.143 1.143 1.143-0.518 1.143-1.143zM18.286 22.286v-17.143c0-0.304-0.268-0.571-0.571-0.571h-14.857c-0.304 0-0.571 0.268-0.571 0.571v17.143c0 0.304 0.268 0.571 0.571 0.571h14.857c0.304 0 0.571-0.268 0.571-0.571zM20.571 5.143v19.429c0 1.571-1.286 2.857-2.857 2.857h-14.857c-1.571 0-2.857-1.286-2.857-2.857v-19.429c0-1.571 1.286-2.857 2.857-2.857h14.857c1.571 0 2.857 1.286 2.857 2.857z"></path>
</svg>
