<!-- Generated by IcoMoon.io -->
<svg version="1.1" xmlns="http://www.w3.org/2000/svg" width="27" height="32" viewBox="0 0 27 32">
<title>tag1</title>
<path d="M8 8c0-1.268-1.018-2.286-2.286-2.286s-2.286 1.018-2.286 2.286 1.018 2.286 2.286 2.286 2.286-1.018 2.286-2.286zM27.054 18.286c0 0.607-0.25 1.196-0.661 1.607l-8.768 8.786c-0.429 0.411-1.018 0.661-1.625 0.661s-1.196-0.25-1.607-0.661l-12.768-12.786c-0.911-0.893-1.625-2.625-1.625-3.893v-7.429c0-1.25 1.036-2.286 2.286-2.286h7.429c1.268 0 3 0.714 3.911 1.625l12.768 12.75c0.411 0.429 0.661 1.018 0.661 1.625z"></path>
</svg>
