<!-- Generated by IcoMoon.io -->
<svg version="1.1" xmlns="http://www.w3.org/2000/svg" width="30" height="32" viewBox="0 0 30 32">
<title>terminal</title>
<path d="M10.446 17.554l-8.321 8.321c-0.232 0.232-0.589 0.232-0.821 0l-0.893-0.893c-0.232-0.232-0.232-0.589 0-0.821l7.018-7.018-7.018-7.018c-0.232-0.232-0.232-0.589 0-0.821l0.893-0.893c0.232-0.232 0.589-0.232 0.821 0l8.321 8.321c0.232 0.232 0.232 0.589 0 0.821zM29.714 25.714v1.143c0 0.321-0.25 0.571-0.571 0.571h-17.143c-0.321 0-0.571-0.25-0.571-0.571v-1.143c0-0.321 0.25-0.571 0.571-0.571h17.143c0.321 0 0.571 0.25 0.571 0.571z"></path>
</svg>
