<!-- Generated by IcoMoon.io -->
<svg version="1.1" xmlns="http://www.w3.org/2000/svg" width="29" height="32" viewBox="0 0 29 32">
<title>thumbs-up</title>
<path d="M4.571 24c0-0.625-0.518-1.143-1.143-1.143-0.643 0-1.143 0.518-1.143 1.143 0 0.643 0.5 1.143 1.143 1.143 0.625 0 1.143-0.5 1.143-1.143zM7.429 14.857v11.429c0 0.625-0.518 1.143-1.143 1.143h-5.143c-0.625 0-1.143-0.518-1.143-1.143v-11.429c0-0.625 0.518-1.143 1.143-1.143h5.143c0.625 0 1.143 0.518 1.143 1.143zM28.571 14.857c0 0.946-0.375 1.964-0.982 2.661 0.196 0.571 0.268 1.107 0.268 1.357 0.036 0.893-0.232 1.732-0.768 2.446 0.196 0.661 0.196 1.375 0 2.089-0.179 0.661-0.518 1.25-0.964 1.679 0.107 1.339-0.196 2.429-0.875 3.232-0.768 0.911-1.946 1.375-3.518 1.393h-2.304c-2.554 0-4.964-0.839-6.893-1.5-1.125-0.393-2.196-0.768-2.821-0.786-0.607-0.018-1.143-0.518-1.143-1.143v-11.446c0-0.589 0.5-1.089 1.089-1.143 0.661-0.054 2.375-2.179 3.161-3.214 0.643-0.821 1.25-1.589 1.804-2.143 0.696-0.696 0.893-1.768 1.107-2.804 0.196-1.054 0.411-2.161 1.179-2.911 0.214-0.214 0.5-0.339 0.804-0.339 4 0 4 3.196 4 4.571 0 1.464-0.518 2.5-1 3.429-0.196 0.393-0.375 0.571-0.518 1.143h4.946c1.857 0 3.429 1.571 3.429 3.429z"></path>
</svg>
