<!-- Generated by IcoMoon.io -->
<svg version="1.1" xmlns="http://www.w3.org/2000/svg" width="32" height="32" viewBox="0 0 32 32">
<title>ticket</title>
<path d="M18.286 8.071l5.643 5.643-10.214 10.214-5.643-5.643zM14.518 25.554l11.036-11.036c0.446-0.446 0.446-1.161 0-1.607l-6.464-6.464c-0.429-0.429-1.179-0.429-1.607 0l-11.036 11.036c-0.446 0.446-0.446 1.161 0 1.607l6.464 6.464c0.214 0.214 0.5 0.321 0.804 0.321s0.589-0.107 0.804-0.321zM30.393 14.179l-16.196 16.214c-0.893 0.875-2.357 0.875-3.232 0l-2.25-2.25c1.339-1.339 1.339-3.518 0-4.857s-3.518-1.339-4.857 0l-2.232-2.25c-0.893-0.875-0.893-2.339 0-3.232l16.196-16.179c0.875-0.893 2.339-0.893 3.232 0l2.232 2.232c-1.339 1.339-1.339 3.518 0 4.857s3.518 1.339 4.857 0l2.25 2.232c0.875 0.893 0.875 2.357 0 3.232z"></path>
</svg>
