<!-- Generated by IcoMoon.io -->
<svg version="1.1" xmlns="http://www.w3.org/2000/svg" width="32" height="32" viewBox="0 0 32 32">
<title>times-rectangle</title>
<path d="M20.982 23.589l2.607-2.607c0.232-0.232 0.232-0.589 0-0.821l-4.161-4.161 4.161-4.161c0.232-0.232 0.232-0.589 0-0.821l-2.607-2.607c-0.232-0.232-0.589-0.232-0.821 0l-4.161 4.161-4.161-4.161c-0.232-0.232-0.589-0.232-0.821 0l-2.607 2.607c-0.232 0.232-0.232 0.589 0 0.821l4.161 4.161-4.161 4.161c-0.232 0.232-0.232 0.589 0 0.821l2.607 2.607c0.232 0.232 0.589 0.232 0.821 0l4.161-4.161 4.161 4.161c0.232 0.232 0.589 0.232 0.821 0zM32 5.143v21.714c0 1.571-1.286 2.857-2.857 2.857h-26.286c-1.571 0-2.857-1.286-2.857-2.857v-21.714c0-1.571 1.286-2.857 2.857-2.857h26.286c1.571 0 2.857 1.286 2.857 2.857z"></path>
</svg>
