<!-- Generated by IcoMoon.io -->
<svg version="1.1" xmlns="http://www.w3.org/2000/svg" width="27" height="32" viewBox="0 0 27 32">
<title>times-circle-o</title>
<path d="M19.589 19.268l-2.607 2.607c-0.232 0.232-0.589 0.232-0.821 0l-2.446-2.446-2.446 2.446c-0.232 0.232-0.589 0.232-0.821 0l-2.607-2.607c-0.232-0.232-0.232-0.589 0-0.821l2.446-2.446-2.446-2.446c-0.232-0.232-0.232-0.589 0-0.821l2.607-2.607c0.232-0.232 0.589-0.232 0.821 0l2.446 2.446 2.446-2.446c0.232-0.232 0.589-0.232 0.821 0l2.607 2.607c0.232 0.232 0.232 0.589 0 0.821l-2.446 2.446 2.446 2.446c0.232 0.232 0.232 0.589 0 0.821zM23.429 16c0-5.357-4.357-9.714-9.714-9.714s-9.714 4.357-9.714 9.714 4.357 9.714 9.714 9.714 9.714-4.357 9.714-9.714zM27.429 16c0 7.571-6.143 13.714-13.714 13.714s-13.714-6.143-13.714-13.714 6.143-13.714 13.714-13.714 13.714 6.143 13.714 13.714z"></path>
</svg>
