<!-- Generated by IcoMoon.io -->
<svg version="1.1" xmlns="http://www.w3.org/2000/svg" width="27" height="32" viewBox="0 0 27 32">
<title>train1</title>
<path d="M19.429 0c4.411 0 8 2.554 8 5.714v16c0 3.089-3.411 5.589-7.696 5.696l3.804 3.607c0.375 0.357 0.125 0.982-0.393 0.982h-18.857c-0.518 0-0.768-0.625-0.393-0.982l3.804-3.607c-4.286-0.107-7.696-2.607-7.696-5.696v-16c0-3.161 3.589-5.714 8-5.714h11.429zM13.714 24c1.893 0 3.429-1.536 3.429-3.429s-1.536-3.429-3.429-3.429-3.429 1.536-3.429 3.429 1.536 3.429 3.429 3.429zM24 13.714v-9.143h-20.571v9.143h20.571z"></path>
</svg>
