<!-- Generated by IcoMoon.io -->
<svg version="1.1" xmlns="http://www.w3.org/2000/svg" width="30" height="32" viewBox="0 0 30 32">
<title>transgender-alt</title>
<path d="M22.857 0.571c0-0.321 0.25-0.571 0.571-0.571h5.143c0.625 0 1.143 0.518 1.143 1.143v5.143c0 0.321-0.25 0.571-0.571 0.571h-1.143c-0.321 0-0.571-0.25-0.571-0.571v-2.393l-4.536 4.554c1.393 1.75 2.25 3.982 2.25 6.411 0 5.286-4 9.643-9.143 10.214v2.357h1.714c0.321 0 0.571 0.25 0.571 0.571v1.143c0 0.321-0.25 0.571-0.571 0.571h-1.714v1.714c0 0.321-0.25 0.571-0.571 0.571h-1.143c-0.321 0-0.571-0.25-0.571-0.571v-1.714h-1.714c-0.321 0-0.571-0.25-0.571-0.571v-1.143c0-0.321 0.25-0.571 0.571-0.571h1.714v-2.357c-5.143-0.571-9.143-4.929-9.143-10.214 0-2.429 0.857-4.661 2.25-6.411l-0.929-0.946-1.804 1.982c-0.214 0.232-0.571 0.25-0.804 0.054l-0.857-0.786c-0.232-0.196-0.25-0.571-0.036-0.804l1.875-2.054-1.982-2v2.393c0 0.321-0.25 0.571-0.571 0.571h-1.143c-0.321 0-0.571-0.25-0.571-0.571v-5.143c0-0.625 0.518-1.143 1.143-1.143h5.143c0.321 0 0.571 0.25 0.571 0.571v1.143c0 0.321-0.25 0.571-0.571 0.571h-2.375l1.893 1.911 1.536-1.679c0.214-0.232 0.571-0.25 0.804-0.054l0.857 0.786c0.232 0.196 0.25 0.571 0.036 0.804l-1.607 1.768 1.018 1c1.75-1.393 3.982-2.25 6.411-2.25s4.661 0.857 6.411 2.25l4.554-4.536h-2.393c-0.321 0-0.571-0.25-0.571-0.571v-1.143zM14.857 22.857c4.411 0 8-3.589 8-8s-3.589-8-8-8-8 3.589-8 8 3.589 8 8 8z"></path>
</svg>
