<!-- Generated by IcoMoon.io -->
<svg version="1.1" xmlns="http://www.w3.org/2000/svg" width="25" height="32" viewBox="0 0 25 32">
<title>trash-o</title>
<path d="M9.143 13.143v10.286c0 0.321-0.25 0.571-0.571 0.571h-1.143c-0.321 0-0.571-0.25-0.571-0.571v-10.286c0-0.321 0.25-0.571 0.571-0.571h1.143c0.321 0 0.571 0.25 0.571 0.571zM13.714 13.143v10.286c0 0.321-0.25 0.571-0.571 0.571h-1.143c-0.321 0-0.571-0.25-0.571-0.571v-10.286c0-0.321 0.25-0.571 0.571-0.571h1.143c0.321 0 0.571 0.25 0.571 0.571zM18.286 13.143v10.286c0 0.321-0.25 0.571-0.571 0.571h-1.143c-0.321 0-0.571-0.25-0.571-0.571v-10.286c0-0.321 0.25-0.571 0.571-0.571h1.143c0.321 0 0.571 0.25 0.571 0.571zM20.571 26.071v-16.929h-16v16.929c0 0.857 0.482 1.357 0.571 1.357h14.857c0.089 0 0.571-0.5 0.571-1.357zM8.571 6.857h8l-0.857-2.089c-0.054-0.071-0.214-0.179-0.304-0.196h-5.661c-0.107 0.018-0.25 0.125-0.304 0.196zM25.143 7.429v1.143c0 0.321-0.25 0.571-0.571 0.571h-1.714v16.929c0 1.964-1.286 3.643-2.857 3.643h-14.857c-1.571 0-2.857-1.607-2.857-3.571v-17h-1.714c-0.321 0-0.571-0.25-0.571-0.571v-1.143c0-0.321 0.25-0.571 0.571-0.571h5.518l1.25-2.982c0.357-0.875 1.429-1.589 2.375-1.589h5.714c0.946 0 2.018 0.714 2.375 1.589l1.25 2.982h5.518c0.321 0 0.571 0.25 0.571 0.571z"></path>
</svg>
