<!-- Generated by IcoMoon.io -->
<svg version="1.1" xmlns="http://www.w3.org/2000/svg" width="27" height="32" viewBox="0 0 27 32">
<title>tree</title>
<path d="M26.857 26.286c0 0.625-0.518 1.143-1.143 1.143h-8.25c0.054 1.143 0.196 2.339 0.196 3.5 0 0.589-0.482 1.071-1.089 1.071h-5.714c-0.607 0-1.089-0.482-1.089-1.071 0-1.161 0.143-2.357 0.196-3.5h-8.25c-0.625 0-1.143-0.518-1.143-1.143 0-0.304 0.125-0.589 0.339-0.804l7.179-7.196h-4.089c-0.625 0-1.143-0.518-1.143-1.143 0-0.304 0.125-0.589 0.339-0.804l7.179-7.196h-3.518c-0.625 0-1.143-0.518-1.143-1.143 0-0.304 0.125-0.589 0.339-0.804l6.857-6.857c0.214-0.214 0.5-0.339 0.804-0.339s0.589 0.125 0.804 0.339l6.857 6.857c0.214 0.214 0.339 0.5 0.339 0.804 0 0.625-0.518 1.143-1.143 1.143h-3.518l7.179 7.196c0.214 0.214 0.339 0.5 0.339 0.804 0 0.625-0.518 1.143-1.143 1.143h-4.089l7.179 7.196c0.214 0.214 0.339 0.5 0.339 0.804z"></path>
</svg>
