<!-- Generated by IcoMoon.io -->
<svg version="1.1" xmlns="http://www.w3.org/2000/svg" width="41" height="32" viewBox="0 0 41 32">
<title>usb</title>
<path d="M40.857 14.375c0.179 0.089 0.286 0.286 0.286 0.482s-0.107 0.393-0.286 0.482l-5.714 3.429c-0.089 0.054-0.179 0.089-0.286 0.089-0.089 0-0.196-0.018-0.286-0.071-0.179-0.107-0.286-0.286-0.286-0.5v-2.286h-15.321c0.571 0.893 1.054 1.946 1.482 2.946 0.857 1.929 1.732 3.911 2.982 3.911h1.714v-1.714c0-0.321 0.25-0.571 0.571-0.571h5.714c0.321 0 0.571 0.25 0.571 0.571v5.714c0 0.321-0.25 0.571-0.571 0.571h-5.714c-0.321 0-0.571-0.25-0.571-0.571v-1.714h-1.714c-2.732 0-3.964-2.804-5.071-5.268-0.839-1.911-1.714-3.875-2.929-3.875h-6.429c-0.518 1.964-2.304 3.429-4.429 3.429-2.518 0-4.571-2.054-4.571-4.571s2.054-4.571 4.571-4.571c2.125 0 3.911 1.464 4.429 3.429h1.857c1.214 0 2.089-1.964 2.929-3.875 1.107-2.464 2.339-5.268 5.071-5.268h1.911c0.482-1.339 1.732-2.286 3.232-2.286 1.893 0 3.429 1.536 3.429 3.429s-1.536 3.429-3.429 3.429c-1.5 0-2.75-0.946-3.232-2.286h-1.911c-1.25 0-2.125 1.982-2.982 3.911-0.429 1-0.911 2.054-1.482 2.946h19.893v-2.286c0-0.214 0.107-0.393 0.286-0.5s0.411-0.089 0.571 0.018z"></path>
</svg>
