<!-- Generated by IcoMoon.io -->
<svg version="1.1" xmlns="http://www.w3.org/2000/svg" width="25" height="32" viewBox="0 0 25 32">
<title>user-secret</title>
<path d="M10.286 27.429l1.714-8-1.714-2.286-2.286-1.143zM14.857 27.429l2.286-11.429-2.286 1.143-1.714 2.286zM17.714 9.393c-0.018-0.036-0.036-0.071-0.071-0.107-0.161-0.125-1.446-0.143-1.714-0.143-1.018 0-1.982 0.143-2.982 0.339-0.125 0.036-0.25 0.036-0.375 0.036s-0.25 0-0.375-0.036c-1-0.196-1.964-0.339-2.982-0.339-0.268 0-1.554 0.018-1.714 0.143-0.036 0.036-0.054 0.071-0.071 0.107 0.018 0.161 0.036 0.321 0.071 0.482 0.107 0.143 0.196 0.089 0.268 0.304 0.464 1.268 0.679 2.25 2.286 2.25 2.304 0 1.661-2.125 2.411-2.125h0.214c0.75 0 0.107 2.125 2.411 2.125 1.607 0 1.821-0.982 2.286-2.25 0.071-0.214 0.161-0.161 0.268-0.304 0.036-0.161 0.054-0.321 0.071-0.482zM25.143 25.089c0 2.911-1.911 4.625-4.768 4.625h-15.607c-2.857 0-4.768-1.714-4.768-4.625 0-3.232 0.571-8.125 3.893-9.732l-1.607-3.929h3.821c-0.25-0.732-0.393-1.5-0.393-2.286 0-0.196 0.018-0.393 0.036-0.571-0.696-0.143-3.464-0.714-3.464-1.714 0-1.054 3.036-1.625 3.75-1.768 0.375-1.339 1.268-3.375 2.179-4.429 0.357-0.411 0.804-0.661 1.357-0.661 1.071 0 1.929 1.107 3 1.107s1.929-1.107 3-1.107c0.554 0 1 0.25 1.357 0.661 0.911 1.054 1.804 3.089 2.179 4.429 0.714 0.143 3.75 0.714 3.75 1.768 0 1-2.768 1.571-3.464 1.714 0.089 0.964-0.036 1.929-0.357 2.857h3.821l-1.464 4.018c3.196 1.661 3.75 6.464 3.75 9.643z"></path>
</svg>
