<!-- Generated by IcoMoon.io -->
<svg version="1.1" xmlns="http://www.w3.org/2000/svg" width="32" height="32" viewBox="0 0 32 32">
<title>user-circle</title>
<path d="M27.196 23.911c-0.464-3.339-1.821-6.304-4.857-6.714-1.571 1.714-3.839 2.804-6.339 2.804s-4.768-1.089-6.339-2.804c-3.036 0.411-4.393 3.375-4.857 6.714 2.482 3.5 6.571 5.804 11.196 5.804s8.714-2.304 11.196-5.804zM22.857 11.429c0-3.786-3.071-6.857-6.857-6.857s-6.857 3.071-6.857 6.857 3.071 6.857 6.857 6.857 6.857-3.071 6.857-6.857zM32 16c0 8.804-7.143 16-16 16-8.839 0-16-7.179-16-16 0-8.839 7.161-16 16-16s16 7.161 16 16z"></path>
</svg>
