<!-- Generated by IcoMoon.io -->
<svg version="1.1" xmlns="http://www.w3.org/2000/svg" width="32" height="32" viewBox="0 0 32 32">
<title>video-camera</title>
<path d="M32 6.286v19.429c0 0.464-0.286 0.875-0.696 1.054-0.143 0.054-0.304 0.089-0.446 0.089-0.304 0-0.589-0.107-0.804-0.339l-7.196-7.196v2.964c0 2.839-2.304 5.143-5.143 5.143h-12.571c-2.839 0-5.143-2.304-5.143-5.143v-12.571c0-2.839 2.304-5.143 5.143-5.143h12.571c2.839 0 5.143 2.304 5.143 5.143v2.946l7.196-7.179c0.214-0.232 0.5-0.339 0.804-0.339 0.143 0 0.304 0.036 0.446 0.089 0.411 0.179 0.696 0.589 0.696 1.054z"></path>
</svg>
