<!-- Generated by IcoMoon.io -->
<svg version="1.1" xmlns="http://www.w3.org/2000/svg" width="25" height="32" viewBox="0 0 25 32">
<title>volume-control-phone</title>
<path d="M11.018 30.161c0-0.429-0.946-3.464-1.143-4.179-0.107-0.446-0.143-1.179-0.482-1.5-0.232-0.214-0.607-0.25-0.911-0.25-0.839 0-1.679 0.196-2.518 0.196-0.25 0-0.625-0.018-0.839-0.196-0.286-0.232-0.429-1.036-0.536-1.393-0.429-1.482-0.661-3-0.661-4.554s0.232-3.071 0.661-4.554c0.107-0.357 0.25-1.161 0.536-1.393 0.214-0.179 0.589-0.196 0.839-0.196 0.839 0 1.679 0.196 2.518 0.196 0.304 0 0.679-0.036 0.911-0.25 0.339-0.321 0.375-1.054 0.482-1.5 0.196-0.714 1.143-3.75 1.143-4.179 0-0.607-1.607-1.5-2.125-1.696-0.268-0.107-0.536-0.143-0.804-0.143-0.589 0-1.179 0.161-1.75 0.321-2.929 0.875-3.625 2.661-4.786 5.179-1.25 2.696-1.554 5.268-1.554 8.214s0.304 5.518 1.554 8.214c1.161 2.518 1.857 4.304 4.786 5.179 0.571 0.161 1.161 0.321 1.75 0.321 0.268 0 0.536-0.036 0.804-0.143 0.518-0.196 2.125-1.089 2.125-1.696zM13.857 13.857c-0.304 0-0.589-0.125-0.804-0.339-0.446-0.446-0.464-1.179 0-1.625 0.429-0.429 0.661-1 0.661-1.607s-0.232-1.179-0.661-1.625c-0.464-0.446-0.446-1.161 0-1.607s1.161-0.446 1.607 0c0.857 0.857 1.339 2.018 1.339 3.232s-0.482 2.375-1.339 3.232c-0.232 0.214-0.518 0.339-0.804 0.339zM17.089 17.089c-0.304 0-0.589-0.107-0.804-0.339-0.446-0.446-0.446-1.161 0-1.607 1.286-1.304 2-3.018 2-4.857s-0.714-3.554-2-4.857c-0.446-0.446-0.446-1.161 0-1.607s1.161-0.446 1.607 0c1.732 1.732 2.679 4.018 2.679 6.464s-0.946 4.732-2.679 6.464c-0.214 0.232-0.518 0.339-0.804 0.339zM20.321 20.321c-0.304 0-0.589-0.107-0.804-0.339-0.446-0.446-0.446-1.161 0-1.607 2.143-2.161 3.339-5.036 3.339-8.089s-1.196-5.929-3.339-8.089c-0.446-0.446-0.446-1.161 0-1.607s1.161-0.446 1.607 0c2.589 2.589 4.018 6.036 4.018 9.696s-1.429 7.107-4.018 9.696c-0.214 0.232-0.518 0.339-0.804 0.339z"></path>
</svg>
