<!-- Generated by IcoMoon.io -->
<svg version="1.1" xmlns="http://www.w3.org/2000/svg" width="32" height="32" viewBox="0 0 32 32">
<title>washing-machine</title>
<path d="M19.773 14.893c2.080 2.080 2.080 5.467 0 7.547s-5.467 2.080-7.547 0l7.547-7.547zM8 2.667h16c1.467 0 2.667 1.2 2.667 2.667v21.333c0 1.467-1.2 2.667-2.667 2.667h-16c-1.467 0-2.667-1.2-2.667-2.667v-21.333c0-1.467 1.2-2.667 2.667-2.667zM9.333 5.333c-0.733 0-1.333 0.6-1.333 1.333s0.6 1.333 1.333 1.333c0.733 0 1.333-0.6 1.333-1.333s-0.6-1.333-1.333-1.333zM13.333 5.333c-0.733 0-1.333 0.6-1.333 1.333s0.6 1.333 1.333 1.333c0.733 0 1.333-0.6 1.333-1.333s-0.6-1.333-1.333-1.333zM16 10.667c-4.413 0-8 3.587-8 8s3.587 8 8 8c4.413 0 8-3.587 8-8s-3.587-8-8-8z"></path>
</svg>
