<!-- Generated by IcoMoon.io -->
<svg version="1.1" xmlns="http://www.w3.org/2000/svg" width="32" height="32" viewBox="0 0 32 32">
<title>weather-partly-lightning</title>
<path d="M25.333 20c-0.467 0-0.92 0.080-1.333 0.227v-0.227c0-2.413-1.080-4.587-2.773-6.053 0.573-3.24-1.093-6.613-4.227-7.987-3.707-1.64-8.040 0.040-9.667 3.707-1.2 2.653-0.667 5.6 1.027 7.667h-0.36c-2.946 0-5.333 2.388-5.333 5.333v0c0 2.946 2.388 5.333 5.333 5.333v0h1.333c0 0 1.333 0 1.333-1.333s-1.333-1.333-1.333-1.333h-1.333c-1.473 0-2.667-1.194-2.667-2.667v0c0-1.473 1.194-2.667 2.667-2.667v0h2.667c0-2.946 2.388-5.333 5.333-5.333v0c2.946 0 5.333 2.388 5.333 5.333v0 2.667h4c0.736 0 1.333 0.597 1.333 1.333v0c0 0.736-0.597 1.333-1.333 1.333v0h-2.667c0 0-1.333 0-1.333 1.333s1.333 1.333 1.333 1.333h2.667c2.209 0 4-1.791 4-4v0c0-2.209-1.791-4-4-4v0zM16 12c-2.453 0-4.667 1.107-6.12 2.84-0.64-1.213-0.747-2.72-0.133-4.080 1.040-2.347 3.8-3.427 6.16-2.36 1.667 0.747 2.68 2.347 2.76 4.053-0.827-0.293-1.733-0.453-2.667-0.453zM18.067 3.507c-0.733-0.307-1.467-0.533-2.227-0.68l3.32-1.733 1.2 3.853c-0.68-0.56-1.44-1.040-2.293-1.44zM8.12 4.587c-0.653 0.467-1.227 1-1.72 1.587l0.147-3.747 3.947 0.907c-0.827 0.28-1.627 0.707-2.373 1.253zM24 11.613c-0.12-0.787-0.293-1.547-0.547-2.28l3.173 2-2.733 2.973c0.147-0.867 0.173-1.773 0.107-2.693zM4.053 13.733c0.093 0.8 0.28 1.56 0.52 2.267l-3.16-2 2.72-2.96c-0.133 0.867-0.173 1.773-0.080 2.693zM15.733 20h3.267l-2.187 4.36h2.187l-4.093 7.64 0.827-5.453h-2.733z"></path>
</svg>
