<!-- Generated by IcoMoon.io -->
<svg version="1.1" xmlns="http://www.w3.org/2000/svg" width="27" height="32" viewBox="0 0 27 32">
<title>whatsapp</title>
<path d="M17.589 17.393c0.304 0 3.214 1.518 3.339 1.732 0.036 0.089 0.036 0.196 0.036 0.268 0 0.446-0.143 0.946-0.304 1.357-0.411 1-2.071 1.643-3.089 1.643-0.857 0-2.625-0.75-3.393-1.107-2.554-1.161-4.143-3.143-5.679-5.411-0.679-1-1.286-2.232-1.268-3.464v-0.143c0.036-1.179 0.464-2.018 1.321-2.821 0.268-0.25 0.554-0.393 0.929-0.393 0.214 0 0.429 0.054 0.661 0.054 0.482 0 0.571 0.143 0.75 0.607 0.125 0.304 1.036 2.732 1.036 2.911 0 0.679-1.232 1.446-1.232 1.857 0 0.089 0.036 0.179 0.089 0.268 0.393 0.839 1.143 1.804 1.821 2.446 0.821 0.786 1.696 1.304 2.696 1.804 0.125 0.071 0.25 0.125 0.393 0.125 0.536 0 1.429-1.732 1.893-1.732zM13.964 26.857c6.179 0 11.214-5.036 11.214-11.214s-5.036-11.214-11.214-11.214-11.214 5.036-11.214 11.214c0 2.357 0.75 4.661 2.143 6.571l-1.411 4.161 4.321-1.375c1.821 1.196 3.982 1.857 6.161 1.857zM13.964 2.179c7.429 0 13.464 6.036 13.464 13.464s-6.036 13.464-13.464 13.464c-2.268 0-4.518-0.571-6.518-1.679l-7.446 2.393 2.429-7.232c-1.268-2.089-1.929-4.5-1.929-6.946 0-7.429 6.036-13.464 13.464-13.464z"></path>
</svg>
