<!-- Generated by IcoMoon.io -->
<svg version="1.1" xmlns="http://www.w3.org/2000/svg" width="29" height="32" viewBox="0 0 29 32">
<title>wheelchair</title>
<path d="M18.268 21.196l1.821 3.643c-1.375 4.25-5.339 7.161-9.804 7.161-5.661 0-10.286-4.625-10.286-10.286 0-4.321 2.714-8.179 6.768-9.661l0.304 2.339c-2.911 1.286-4.786 4.143-4.786 7.321 0 4.411 3.589 8 8 8 4.589 0 8.304-3.929 7.982-8.518zM28.054 22.982l1.036 2.036-4.571 2.286c-0.161 0.089-0.339 0.125-0.518 0.125-0.429 0-0.839-0.25-1.018-0.625l-4.268-8.518h-8.429c-0.571 0-1.071-0.446-1.143-1.018l-1.714-13.911c-0.018-0.179 0.054-0.571 0.107-0.75 0.339-1.232 1.482-2.036 2.75-2.036 1.571 0 2.857 1.286 2.857 2.857 0 1.625-1.429 3.018-3.071 2.839l0.661 5.161h7.554v2.286h-7.268l0.286 2.286h8.125c0.429 0 0.839 0.25 1.018 0.625l4.071 8.125z"></path>
</svg>
