<!-- Generated by IcoMoon.io -->
<svg version="1.1" xmlns="http://www.w3.org/2000/svg" width="32" height="32" viewBox="0 0 32 32">
<title>windy2</title>
<path d="M26.065 4.425c-1.499-1.535-3.57-2.425-5.733-2.425-2.16 0-4.23 0.889-5.729 2.425-3.301 0.152-5.939 2.885-5.939 6.221 0 3.436 2.794 6.232 6.23 6.232 0.365 0 0.725-0.031 1.079-0.094 1.296 0.845 2.807 1.302 4.358 1.302 1.553 0 3.066-0.457 4.361-1.302 0.357 0.062 0.716 0.094 1.081 0.094 3.434 0 6.227-2.796 6.227-6.232-0-3.336-2.637-6.070-5.935-6.221zM25.773 14.878c-0.52 0-1.023-0.094-1.5-0.279-1.094 0.953-2.484 1.487-3.941 1.487-1.453 0-2.844-0.534-3.937-1.487-0.477 0.185-0.984 0.279-1.5 0.279-2.332 0-4.23-1.898-4.23-4.232 0-2.331 1.898-4.229 4.23-4.229 0.199 0 0.398 0.016 0.595 0.043 1.131-1.537 2.909-2.46 4.842-2.46s3.715 0.923 4.844 2.46c0.195-0.027 0.395-0.043 0.598-0.043 2.332 0 4.227 1.898 4.227 4.229 0 2.333-1.895 4.232-4.227 4.232zM9 16.043h-8c-0.552 0-1 0.447-1 1s0.448 1 1 1h8c0.552 0 1-0.447 1-1s-0.448-1-1-1zM1 14.043h4c0.552 0 1-0.447 1-1s-0.448-1-1-1h-4c-0.552 0-1 0.447-1 1s0.448 1 1 1zM3 10.043h4c0.552 0 1-0.447 1-1s-0.448-1-1-1h-4c-0.552 0-1 0.447-1 1s0.448 1 1 1zM14 24c0 1.105 0.895 2 2 2s2-0.895 2-2-2-4-2-4-2 2.895-2 4zM22 28c0 1.105 0.895 2 2 2s2-0.895 2-2-2-4-2-4-2 2.895-2 4z"></path>
</svg>
