<!-- Generated by IcoMoon.io -->
<svg version="1.1" xmlns="http://www.w3.org/2000/svg" width="27" height="32" viewBox="0 0 27 32">
<title>wpforms</title>
<path d="M9.196 16.268v2.286h-4.5v-2.286h4.5zM9.196 11.714v2.268h-4.5v-2.268h4.5zM22.732 20.839v2.286h-6.089v-2.286h6.089zM22.732 16.268v2.286h-12v-2.286h12zM22.732 11.714v2.268h-12v-2.268h12zM25.143 27.071v-22.143c0-0.196-0.161-0.357-0.357-0.357h-0.571l-6.75 4.571-3.75-3.054-3.75 3.054-6.75-4.571h-0.571c-0.196 0-0.357 0.161-0.357 0.357v22.143c0 0.196 0.161 0.357 0.357 0.357h22.143c0.196 0 0.357-0.161 0.357-0.357zM9.875 7.25l3.304-2.679h-7.25zM17.554 7.25l3.946-2.679h-7.25zM27.429 4.929v22.143c0 1.464-1.179 2.643-2.643 2.643h-22.143c-1.464 0-2.643-1.179-2.643-2.643v-22.143c0-1.464 1.179-2.643 2.643-2.643h22.143c1.464 0 2.643 1.179 2.643 2.643z"></path>
</svg>
