<!-- Generated by IcoMoon.io -->
<svg version="1.1" xmlns="http://www.w3.org/2000/svg" width="30" height="32" viewBox="0 0 30 32">
<title>wrench</title>
<path d="M6.857 26.286c0-0.625-0.518-1.143-1.143-1.143s-1.143 0.518-1.143 1.143 0.518 1.143 1.143 1.143 1.143-0.518 1.143-1.143zM18.357 18.786l-12.179 12.179c-0.411 0.411-1 0.661-1.607 0.661s-1.196-0.25-1.625-0.661l-1.893-1.929c-0.429-0.411-0.679-1-0.679-1.607s0.25-1.196 0.679-1.625l12.161-12.161c0.929 2.339 2.804 4.214 5.143 5.143zM29.679 11.018c0 0.589-0.214 1.321-0.411 1.893-1.125 3.179-4.179 5.375-7.554 5.375-4.411 0-8-3.589-8-8s3.589-8 8-8c1.304 0 3 0.393 4.089 1.125 0.179 0.125 0.286 0.286 0.286 0.5 0 0.196-0.125 0.393-0.286 0.5l-5.232 3.018v4l3.446 1.911c0.589-0.339 4.732-2.946 5.089-2.946s0.571 0.268 0.571 0.625z"></path>
</svg>
